<svg width="69" height="52" viewBox="0 0 69 52" fill="none" xmlns="http://www.w3.org/2000/svg">
<path fill-rule="evenodd" clip-rule="evenodd" d="M3.1166 0.0988058C2.81404 0.239511 2.64736 0.408565 2.48665 0.737674C2.40696 0.900874 2.34165 1.0579 2.34153 1.08661C2.34137 1.11536 2.31821 1.18364 2.29002 1.23838C2.26184 1.29313 2.18816 1.48125 2.12629 1.65644C2.01438 1.97344 1.84869 2.4204 1.78685 2.57218C1.76903 2.61597 1.71461 2.75931 1.66597 2.8907C1.61734 3.02209 1.54314 3.2171 1.50116 3.324C1.45918 3.43094 1.42422 3.53844 1.42346 3.56289C1.4227 3.58738 1.38746 3.67903 1.34508 3.76662C1.3027 3.85421 1.26738 3.9438 1.26658 3.9657C1.26574 3.98759 1.21045 4.13941 1.14367 4.30309C1.07685 4.46676 0.976265 4.73551 0.920091 4.90031C0.863918 5.0651 0.795704 5.2537 0.768514 5.3194C0.683915 5.52385 0.555342 5.87223 0.526079 5.97634C0.51069 6.03109 0.484218 6.09379 0.467274 6.11569C0.450291 6.13759 0.417599 6.21822 0.394556 6.29486C0.371552 6.3715 0.305611 6.55963 0.248002 6.71291C-0.0640019 7.54333 -0.0724538 7.68396 0.175922 7.91114C0.576472 8.27756 1.06553 8.04782 1.28584 7.38977C1.33515 7.24237 1.55953 6.61409 1.7479 6.09579C1.79168 5.97535 1.84642 5.8141 1.8695 5.73745C1.89262 5.66081 1.92978 5.57573 1.9521 5.54833C1.9834 5.50999 2.36593 5.49856 3.61754 5.49856C5.32698 5.49856 5.29006 5.49474 5.34365 5.67773C5.35648 5.72153 5.41357 5.88278 5.47058 6.03606C5.52759 6.18935 5.62619 6.46706 5.68974 6.65319C5.75325 6.83933 5.85248 7.11703 5.91024 7.27032C5.96797 7.42361 6.03435 7.60277 6.05771 7.66847C6.20527 8.08342 6.70935 8.21329 7.00202 7.91178C7.23138 7.6754 7.21555 7.41063 6.92428 6.61338C6.8323 6.36155 6.72466 6.06592 6.68511 5.95643C6.64556 5.84694 6.57444 5.65882 6.52704 5.53838C6.47967 5.41794 6.41708 5.24773 6.38794 5.16014C6.35884 5.07255 6.28731 4.87546 6.22903 4.72218C6.1707 4.56889 6.1046 4.38076 6.08211 4.30412C6.05959 4.22748 6.02698 4.14685 6.00959 4.12495C5.99221 4.10306 5.95944 4.02243 5.93676 3.94579C5.8874 3.7792 5.72853 3.33364 5.6102 3.03005C5.56328 2.90961 5.50646 2.74836 5.48402 2.67172C5.46153 2.59507 5.42928 2.51445 5.41238 2.49255C5.39543 2.47065 5.35385 2.36315 5.31992 2.25366C5.23656 1.98439 5.141 1.72229 5.07091 1.5708C5.03902 1.5018 5.0129 1.4279 5.0129 1.40664C5.0129 1.36603 4.91272 1.12264 4.75077 0.769884C4.62204 0.489508 4.35975 0.21192 4.11588 0.0980095C3.83545 -0.0329811 3.39922 -0.0326228 3.1166 0.0988058ZM17.2323 0.0688651C16.7587 0.161992 16.7356 0.171149 16.5792 0.327343C16.46 0.446389 16.4084 0.538839 16.375 0.69328C16.3094 0.996708 16.3381 7.25539 16.406 7.45287C16.482 7.67396 16.69 7.8863 16.9138 7.97118C17.0962 8.04038 17.2339 8.04651 18.5679 8.04512C20.2398 8.04333 20.4808 8.01382 21.0186 7.74479C21.6857 7.41119 22.0454 6.86306 22.175 5.98299C22.237 5.56175 22.237 5.5035 22.1749 5.10707C22.1154 4.72703 21.9773 4.2958 21.875 4.17066C21.8544 4.14554 21.7762 4.04891 21.7012 3.95602C21.503 3.71064 21.3227 3.57368 20.9998 3.42322C20.5929 3.23362 20.452 3.21734 19.0064 3.19277L17.631 3.1694V2.21385V1.25829L19.5119 1.23838C21.3407 1.21903 21.3959 1.21617 21.5053 1.13534C21.7332 0.966847 21.8117 0.661428 21.6973 0.38802C21.5602 0.0604244 21.4304 0.0429457 19.1739 0.0485596C18.1499 0.0511077 17.2762 0.0602253 17.2323 0.0688651ZM3.70365 1.26825C3.76417 1.41795 4.0316 2.16798 4.19697 2.65181C4.27184 2.87079 4.40624 3.256 4.49566 3.50783C4.73148 4.17194 4.78179 4.34505 4.75751 4.40824C4.73941 4.45538 4.54235 4.46286 3.5488 4.45402L2.36171 4.44347L2.36765 4.34394C2.37267 4.26013 2.57599 3.65418 2.94214 2.6319C2.98527 2.51146 3.08207 2.23375 3.15726 2.01477C3.44292 1.18284 3.45488 1.15875 3.58353 1.15875C3.62898 1.15875 3.67714 1.20267 3.70365 1.26825ZM25.2657 1.97958C24.6845 2.04754 24.0233 2.21428 23.7383 2.36474C23.6767 2.39727 23.5811 2.48411 23.5259 2.55777C23.4411 2.6708 23.428 2.72423 23.4419 2.90097C23.4608 3.14189 23.564 3.28048 23.7769 3.35064C23.883 3.38559 23.967 3.38086 24.1797 3.3279C24.3275 3.29107 24.4675 3.24541 24.4908 3.22641C24.5142 3.20738 24.7115 3.16263 24.9293 3.12692C25.5707 3.02185 26.1701 3.09546 26.4326 3.31154C26.6663 3.50392 26.7472 3.70909 26.7708 4.16903C26.7837 4.42038 26.7763 4.58075 26.7511 4.59632C26.7289 4.61006 26.6233 4.5956 26.5164 4.56419C25.85 4.36846 24.7813 4.38534 24.1892 4.6009C23.718 4.7725 23.2718 5.23511 23.1176 5.71193C22.9219 6.31668 23.0898 7.0161 23.5419 7.47967C23.7849 7.72875 24.0073 7.86933 24.3655 8.00016C24.6324 8.09763 24.6877 8.10309 25.3853 8.1007C26.1142 8.09823 26.2335 8.08378 26.7408 7.93634C26.9688 7.87009 27.3994 7.67775 27.6976 7.50897C27.8876 7.40143 27.8932 7.34458 27.8951 5.51202C27.8971 3.64121 27.8764 3.40068 27.6784 2.99644C27.3766 2.38019 26.7092 2.03659 25.7042 1.98009C25.5398 1.97082 25.3424 1.97062 25.2657 1.97958ZM31.2458 2.03468C30.8406 2.10197 30.3431 2.23244 30.1694 2.31701C30.1365 2.33301 30.0109 2.39361 29.8903 2.45166C29.4782 2.65006 29.4476 2.6915 29.4057 3.109C29.3854 3.31106 29.374 4.8581 29.3804 6.54784C29.3912 9.41681 29.3967 9.62803 29.4637 9.75054C29.6235 10.0429 30.0594 10.1363 30.3311 9.9364C30.5404 9.78243 30.5616 9.67461 30.565 8.75219C30.5685 7.80081 30.556 7.82884 30.9194 7.96119C31.3425 8.11523 32.0674 8.17021 32.5814 8.08728C33.1736 7.99165 33.7395 7.63033 34.0707 7.13623C34.4288 6.60195 34.5153 6.19453 34.5141 5.04639C34.5134 4.35879 34.4989 4.13985 34.435 3.85107C34.3919 3.65665 34.3407 3.47749 34.3211 3.45292C34.3015 3.42836 34.2724 3.36577 34.2565 3.31377C34.2047 3.14543 33.9057 2.74788 33.6968 2.56971C33.1116 2.07035 32.2126 1.87411 31.2458 2.03468ZM38.0432 1.98013C37.4395 2.07051 37.0892 2.19669 36.7276 2.45397C36.3092 2.75166 36.0409 3.10602 35.8495 3.61381C35.6446 4.15756 35.6348 5.91988 35.8335 6.49338C35.9376 6.7937 36.1276 7.12408 36.332 7.36002C36.505 7.55977 36.9329 7.87352 37.1165 7.93519C37.1876 7.95908 37.2638 7.99216 37.2858 8.00873C37.3637 8.06761 38.0146 8.16615 38.3254 8.16615C38.6424 8.16615 39.1964 8.08059 39.3282 8.01127C39.367 7.99085 39.4974 7.92711 39.618 7.86957C39.7386 7.81204 39.9398 7.67516 40.0651 7.56539C40.7268 6.98557 40.8974 6.18214 40.4115 5.93454C40.0825 5.76696 39.7847 5.87469 39.5776 6.23617C39.4089 6.53056 39.075 6.82041 38.8075 6.90462C38.5325 6.99118 38.0566 6.99158 37.8012 6.90546C37.0949 6.66725 36.8273 6.16104 36.8273 5.06307C36.8273 4.21736 36.977 3.73127 37.3254 3.44619C37.6049 3.21738 37.8902 3.1383 38.3622 3.15873C38.7032 3.1735 38.7911 3.19217 38.9699 3.28769C39.2054 3.41354 39.4649 3.67843 39.6283 3.95984C39.9356 4.4889 40.6944 4.29429 40.6944 3.68643C40.6944 3.20786 40.1913 2.54467 39.618 2.26756C39.1945 2.06287 38.4268 1.92272 38.0432 1.98013ZM12.3605 2.08393C12.3122 2.11196 11.774 2.62935 11.1645 3.23366C10.5549 3.83801 9.99875 4.36189 9.92858 4.39792C9.7798 4.47425 9.39659 4.48552 9.32658 4.4156C9.2921 4.38116 9.27874 4.10831 9.27874 3.43887C9.27874 2.42721 9.26008 2.31884 9.05891 2.16081C8.90227 2.03774 8.49905 2.03774 8.34241 2.16081C8.11931 2.33604 8.12258 2.29296 8.12258 5.0606C8.12258 7.85783 8.11728 7.79321 8.36091 7.96644C8.6222 8.15226 8.98603 8.09357 9.17624 7.83485C9.25366 7.72958 9.26004 7.65513 9.27874 6.64041L9.29868 5.55829L9.47716 5.54559C9.85961 5.51843 9.83374 5.49904 11.0732 6.74075C11.7095 7.37818 12.2872 7.94176 12.3569 7.99312C12.527 8.11842 12.8488 8.12355 13.0018 8.00339C13.1345 7.89916 13.2259 7.72588 13.2248 7.58088C13.2226 7.30807 13.0794 7.12878 12.0007 6.04825C11.0348 5.08071 10.9448 4.97918 10.9963 4.91564C11.0274 4.87725 11.4495 4.44785 11.9343 3.96148C13.095 2.79685 13.1266 2.75768 13.1239 2.48494C13.1208 2.18383 13.0005 2.06522 12.6792 2.04642C12.5398 2.0383 12.4135 2.05315 12.3605 2.08393ZM32.5415 3.22462C32.8878 3.37819 33.1147 3.65546 33.2455 4.08478C33.3468 4.41739 33.3512 5.63509 33.2524 5.99362C33.1335 6.42509 32.8493 6.74369 32.4503 6.89288C31.982 7.06798 30.9769 6.93803 30.6378 6.65857C30.5736 6.60557 30.5681 6.47884 30.5681 5.05252V3.50404L30.6646 3.41466C30.759 3.32731 31.1872 3.16956 31.4252 3.13448C31.491 3.12477 31.7242 3.12118 31.9435 3.12652C32.2539 3.13404 32.3863 3.15574 32.5415 3.22462ZM20.0112 4.30806C20.4037 4.3894 20.69 4.61213 20.8414 4.95406C20.9085 5.10567 20.9268 5.22727 20.9281 5.53137C20.929 5.74327 20.9097 5.99 20.8852 6.07966C20.7888 6.4321 20.4639 6.76053 20.12 6.85302C20.0304 6.87711 19.5001 6.88905 18.8006 6.88272L17.631 6.87217L17.6204 5.61837C17.6147 4.92878 17.6186 4.34202 17.6292 4.31443C17.6544 4.24878 19.6986 4.24332 20.0112 4.30806ZM26.2943 5.34436C26.5289 5.39094 26.7437 5.44724 26.7716 5.4695C26.851 5.53261 26.8226 6.77212 26.7408 6.81623C26.6713 6.8537 26.4377 6.95093 26.3222 6.99046C26.1681 7.04322 25.6026 7.13085 25.4251 7.1295C24.9622 7.12599 24.5197 6.93349 24.3303 6.65319C24.2234 6.49501 24.2094 6.44138 24.2108 6.19532C24.2122 5.97758 24.2322 5.88465 24.3026 5.77046C24.5937 5.29826 25.3006 5.14704 26.2943 5.34436ZM1.01035 12.1087C0.847253 12.1583 0.673709 12.3374 0.627423 12.5037C0.567581 12.7189 0.57408 19.4391 0.63436 19.6401C0.696314 19.8466 0.897167 20.0187 1.11417 20.0512C1.20829 20.0653 1.97599 20.0701 2.82018 20.0618C4.29333 20.0475 4.36621 20.0432 4.63157 19.9554C4.97762 19.8409 5.12421 19.7627 5.39061 19.5504C5.9543 19.1012 6.24162 18.2152 6.12517 17.2853C6.02124 16.4555 5.68691 15.9299 5.05333 15.5999C4.57906 15.3529 4.34185 15.3212 2.78032 15.2956L1.40488 15.2731V14.0786V12.8842L3.4182 12.8643C5.24182 12.8463 5.44359 12.8378 5.55989 12.7743C5.7918 12.6477 5.84211 12.3946 5.67419 12.1996L5.57799 12.0879L3.3519 12.0807C2.12756 12.0768 1.07386 12.0893 1.01035 12.1087ZM8.97973 14.0028C8.18214 14.1188 7.76114 14.2584 7.5146 14.4888C7.36222 14.6312 7.36314 14.8399 7.51679 14.9869C7.6417 15.1065 7.8506 15.1307 7.98412 15.0412C8.09631 14.966 8.52847 14.8318 8.8943 14.7585C9.30322 14.6766 9.63181 14.6801 9.9787 14.7701C10.4107 14.8822 10.6207 15.0342 10.7841 15.3527C10.8733 15.5267 10.8885 15.6151 10.9048 16.0539C10.918 16.4075 10.9099 16.5644 10.8776 16.5844C10.8524 16.6 10.747 16.5855 10.6433 16.5522C10.3833 16.4688 9.6541 16.368 9.31072 16.368C8.79726 16.368 8.18043 16.512 7.9171 16.6933C7.8589 16.7333 7.79471 16.7661 7.77446 16.7661C7.70915 16.7661 7.29955 17.2193 7.21651 17.3834C7.00106 17.8092 6.95362 18.2758 7.08088 18.7172C7.1774 19.0521 7.29305 19.2474 7.54199 19.496C8.01821 19.9716 8.65641 20.1448 9.65824 20.0703C10.5506 20.0039 11.5214 19.6413 11.6928 19.3103C11.7815 19.1391 11.777 16.0152 11.6874 15.58C11.5215 14.7741 11.0251 14.2402 10.2743 14.0602C10.0829 14.0143 9.177 13.9742 8.97973 14.0028ZM13.3574 14.0591C13.1871 14.1277 13.1808 14.2468 13.1936 17.1379L13.2057 19.8786L13.3176 19.9747C13.5071 20.1375 13.7846 20.0839 13.913 19.8597C13.949 19.797 13.9689 19.4283 13.9831 18.5578L14.0031 17.3435H15.6376H17.2722L17.2941 18.6374C17.3061 19.3491 17.3196 19.9354 17.324 19.9403C17.3284 19.9453 17.385 19.9766 17.4496 20.01C17.6359 20.1062 17.8 20.0873 17.9331 19.9544L18.0496 19.838V17.0448V14.2517L17.9331 14.1353C17.791 13.9935 17.5542 13.9753 17.4062 14.095L17.3121 14.1711L17.2921 15.379L17.2722 16.587H15.6376H14.0031L13.9831 15.4284C13.9624 14.2268 13.9605 14.2131 13.7881 14.0687C13.7204 14.012 13.4875 14.0069 13.3574 14.0591ZM19.9375 14.0849C19.8905 14.0949 19.8187 14.1397 19.778 14.1846C19.7078 14.2622 19.7036 14.4039 19.6934 17.0747C19.6814 20.1881 19.6675 20.0197 19.9443 20.1109C20.0548 20.1473 20.1137 20.1473 20.202 20.1108C20.4452 20.0102 20.4396 20.0429 20.4511 18.6548L20.4616 17.3833L20.6001 17.3701C20.6763 17.3629 20.8198 17.3689 20.9191 17.3835C21.0923 17.409 21.1529 17.4631 22.4351 18.7382C23.1696 19.4686 23.8223 20.0857 23.8855 20.1093C24.1201 20.1973 24.3487 20.0313 24.3487 19.773C24.3487 19.6107 24.3324 19.5921 23.0741 18.3168C22.373 17.6063 21.7991 17.007 21.7987 16.9851C21.7983 16.9632 22.2309 16.5153 22.7601 15.9898C24.142 14.6175 24.1892 14.5651 24.1892 14.404C24.1892 14.201 24.0389 14.0587 23.8244 14.0587C23.6554 14.0587 23.6524 14.0614 22.3773 15.3297C20.9987 16.7009 21.0423 16.668 20.6401 16.6395L20.4616 16.6268L20.4417 15.4433C20.4229 14.3267 20.4172 14.2554 20.3419 14.1802C20.2577 14.0962 20.081 14.0546 19.9375 14.0849ZM4.27603 16.1234C4.99026 16.3088 5.31446 16.7916 5.30912 17.662C5.30374 18.5406 4.9596 19.0197 4.20443 19.1999C3.92161 19.2673 3.75101 19.2744 2.64588 19.2651L1.40488 19.2546L1.39444 17.7019C1.3887 16.8479 1.3926 16.1268 1.40317 16.0993C1.41796 16.0608 1.71465 16.0496 2.70931 16.0502C3.82433 16.0508 4.03367 16.0605 4.27603 16.1234ZM9.85654 17.15C10.1414 17.1861 10.4823 17.2446 10.614 17.2801L10.8535 17.3446L10.8643 18.147L10.8751 18.9494L10.7646 19.0253C10.4808 19.2204 9.78717 19.3939 9.29118 19.3939C8.31837 19.3939 7.75173 18.9687 7.75257 18.2393C7.75305 17.8224 7.95589 17.4881 8.32192 17.3009C8.47242 17.2239 9.02415 17.0927 9.21894 17.0876C9.28472 17.0859 9.57165 17.1139 9.85654 17.15Z" fill="black"/>
<path fill-rule="evenodd" clip-rule="evenodd" d="M24.8069 28.117C24.2704 28.1724 23.6596 28.3649 22.9929 28.6888C22.7324 28.8153 22.6967 28.8362 22.3351 29.0732C22.1816 29.1738 22.0112 29.2793 21.9564 29.3078C21.9016 29.3363 21.8477 29.371 21.8368 29.385C21.8094 29.4199 21.1624 29.8422 21.0394 29.9055C20.9846 29.9337 20.9308 29.9676 20.9198 29.9808C20.8951 30.0105 20.4507 30.3055 20.3417 30.3645C20.235 30.4223 20.0277 30.5549 20.0029 30.5813C19.9685 30.6179 19.6469 30.8208 19.6233 30.8208C19.6109 30.8208 19.5253 30.8748 19.4331 30.9409C19.1964 31.1104 18.7297 31.418 18.7092 31.418C18.6998 31.418 18.5339 31.5231 18.3408 31.6515C18.1476 31.78 17.7474 32.0422 17.4513 32.2342C17.1553 32.4262 16.7551 32.6884 16.5619 32.8168C16.3687 32.9453 16.2039 33.0504 16.1956 33.0504C16.1873 33.0504 15.9809 33.1848 15.737 33.349C15.4931 33.5132 15.2872 33.6476 15.2794 33.6476C15.2717 33.6476 15.1337 33.7347 14.9729 33.8411C14.6941 34.0257 14.1727 34.3651 13.345 34.9011C13.1367 35.036 12.8945 35.1892 12.8068 35.2416C12.719 35.2939 12.6236 35.3598 12.5946 35.388C12.5656 35.4162 12.5265 35.4393 12.5077 35.4393C12.489 35.4393 12.4499 35.4621 12.4209 35.4899C12.3919 35.5177 12.2695 35.6017 12.1489 35.6766C11.751 35.9236 11.4914 36.0931 11.4712 36.1192C11.4602 36.1333 11.3906 36.1787 11.3165 36.22C11.1462 36.3151 11.1165 36.3336 10.7536 36.5712C10.2034 36.9313 8.68412 37.9202 8.16217 38.258C7.97579 38.3786 7.65286 38.5887 7.44456 38.7249C7.23625 38.8612 6.92229 39.0645 6.74687 39.1767C6.57145 39.289 6.40102 39.3986 6.36813 39.4202C6.33524 39.4419 6.20069 39.5297 6.06912 39.6153C5.37905 40.0645 5.10955 40.238 5.08383 40.2497C5.06143 40.2598 4.41721 40.6795 4.09567 40.8934C4.06278 40.9152 3.95514 40.9846 3.85647 41.0473C3.7578 41.1102 3.46178 41.3011 3.19865 41.4716C2.93552 41.6421 2.62157 41.8455 2.50097 41.9236C1.84638 42.3473 1.24179 42.9351 0.865119 43.514C0.682963 43.794 0.40995 44.3024 0.369245 44.4374C0.35274 44.4922 0.316978 44.5907 0.289749 44.6564C0.058038 45.2156 -0.0504817 46.1332 0.0225159 46.9163C0.0672075 47.3957 0.183382 47.9425 0.302187 48.2324C0.327464 48.294 0.348115 48.3624 0.348115 48.3842C0.348115 48.4061 0.392966 48.5219 0.447784 48.6416C0.502602 48.7613 0.547453 48.8667 0.547453 48.8757C0.547453 48.8937 0.98516 49.6481 1.03316 49.7129C1.43435 50.2542 2.11824 50.8943 2.60403 51.1831C2.93529 51.3801 3.49359 51.6439 3.57915 51.6439C3.60446 51.6439 3.68169 51.6695 3.75078 51.7008C3.91144 51.7737 4.42366 51.8823 4.83322 51.9305C5.19459 51.973 6.26232 51.941 6.43411 51.8825C6.4965 51.8612 6.71797 51.8158 6.92628 51.7815C7.80332 51.6372 7.99182 51.6041 8.16217 51.5648C8.34114 51.5236 8.77398 51.4451 9.37814 51.3445C10.277 51.1948 10.4643 51.1608 10.5742 51.1277C10.6399 51.1078 10.7835 51.0806 10.8931 51.0672C11.0027 51.0538 11.218 51.0169 11.3715 50.9852C11.6693 50.9237 12.1677 50.8337 12.6872 50.7475C13.205 50.6617 13.7045 50.5724 14.0028 50.5125C14.1563 50.4817 14.5151 50.4176 14.8001 50.3701C15.0852 50.3227 15.435 50.2585 15.5776 50.2276C15.7201 50.1967 15.9443 50.1547 16.0759 50.1344C16.5315 50.064 17.2323 49.9376 17.2919 49.9151C17.3248 49.9027 17.5221 49.8661 17.7304 49.8338C18.3781 49.7332 18.8235 49.6571 18.9065 49.6329C18.9504 49.6201 19.1298 49.585 19.3052 49.5548C19.4806 49.5247 19.8304 49.4626 20.0826 49.4168C21.0399 49.2429 21.4688 49.1671 21.7952 49.1144C21.9807 49.0844 22.2139 49.0409 22.3135 49.0177C22.4131 48.9945 22.6022 48.9585 22.7338 48.9376C23.7223 48.7805 24.2331 48.6595 24.3516 48.5544C24.3862 48.5236 24.4324 48.4985 24.4543 48.4985C24.5195 48.4985 24.9252 48.0532 25.0166 47.8814C25.1291 47.6697 25.2255 47.3114 25.2255 47.105C25.2255 46.8615 25.1147 46.5169 24.9622 46.2861C24.6114 45.7555 24.1002 45.4875 23.5079 45.5237C23.2065 45.5421 22.607 45.6346 22.3295 45.7056C22.2449 45.7273 22.077 45.7566 21.9564 45.7708C21.8358 45.785 21.6833 45.813 21.6175 45.8329C21.5517 45.8529 21.3275 45.8976 21.1192 45.9322C20.9108 45.9668 20.5431 46.0294 20.3019 46.0713C20.0607 46.1133 19.7096 46.1733 19.5218 46.2048C19.334 46.2362 19.1097 46.28 19.0235 46.302C18.9372 46.3241 18.768 46.3538 18.6474 46.368C18.5268 46.3822 18.3743 46.4101 18.3085 46.43C18.2427 46.4499 18.0095 46.4952 17.7902 46.5307C17.5709 46.5662 17.1942 46.6304 16.953 46.6733C16.7118 46.7163 16.362 46.7765 16.1756 46.8071C15.9892 46.8377 15.7649 46.8818 15.6772 46.905C15.5895 46.9282 15.4101 46.9635 15.2785 46.9834C14.7989 47.056 14.2759 47.1475 14.0227 47.2033C13.8802 47.2347 13.6739 47.2711 13.5642 47.2841C13.4546 47.2972 13.2483 47.3326 13.1058 47.3627C12.7766 47.4323 12.354 47.5086 11.3516 47.6796C11.1433 47.7152 10.8473 47.77 10.6938 47.8014C10.5403 47.8328 10.334 47.8693 10.2353 47.8824C10.1366 47.8956 9.93927 47.9307 9.79675 47.9605C9.51775 48.0188 9.27727 48.0628 8.56085 48.1862C8.30869 48.2297 7.96782 48.2893 7.80336 48.3189C7.63891 48.3484 7.34289 48.4007 7.14555 48.435C6.9482 48.4694 6.70601 48.5151 6.60734 48.5366C6.50866 48.5581 6.18797 48.6146 5.89466 48.6622C5.37455 48.7467 5.35342 48.7471 5.03751 48.6798C4.58421 48.5831 4.22393 48.3845 3.93911 48.074C3.51444 47.6112 3.27867 46.9769 3.30932 46.3798C3.33121 45.9539 3.37981 45.7845 3.57915 45.4392C3.82302 45.0168 3.9246 44.9343 5.31164 44.0319C5.59669 43.8464 5.96447 43.6065 6.12892 43.4987C6.29338 43.3909 6.44587 43.2937 6.4678 43.2828C6.48973 43.2718 6.64222 43.1749 6.80667 43.0673C6.97113 42.9597 7.29405 42.7495 7.52429 42.6002C7.75453 42.4509 7.96252 42.3125 7.98652 42.2924C8.01052 42.2724 8.08228 42.2267 8.14599 42.1909C8.28265 42.114 8.42052 42.027 8.62854 41.8862C8.98217 41.647 9.28194 41.4513 9.29473 41.4513C9.3055 41.4513 9.92604 41.0491 10.2752 40.8159C10.536 40.6416 10.6393 40.5754 10.6504 40.5754C10.6574 40.5754 10.8609 40.4432 11.1025 40.2816C11.3441 40.12 11.5578 39.9812 11.5774 39.973C11.5969 39.9649 11.8546 39.7989 12.15 39.6041C12.4454 39.4094 12.7769 39.1925 12.8865 39.1223C13.4734 38.7462 13.9677 38.4239 14.0034 38.3939C14.0257 38.3753 14.1333 38.3084 14.2426 38.2453C14.3519 38.1822 14.4503 38.1207 14.4613 38.1087C14.4812 38.0867 14.5769 38.0239 15.0593 37.7163C15.2018 37.6255 15.3364 37.5373 15.3583 37.5204C15.4421 37.4559 15.7362 37.2708 15.7548 37.2708C15.7783 37.2708 16.2667 36.943 16.2952 36.9081C16.3061 36.8947 16.3757 36.8499 16.4499 36.8085C16.6317 36.707 16.6451 36.6986 17.1922 36.3389C17.4553 36.1659 17.85 35.9084 18.0693 35.7665C18.2886 35.6246 18.626 35.4034 18.8192 35.2748C19.0124 35.1463 19.1771 35.0411 19.1853 35.0411C19.1935 35.0411 19.4011 34.9068 19.6467 34.7425C19.8922 34.5783 20.0992 34.4439 20.1066 34.4439C20.1139 34.4439 20.2237 34.3748 20.3505 34.2903C20.5716 34.143 21.3195 33.6557 21.7371 33.3869C21.9206 33.2687 22.8546 32.6631 22.9929 32.5725C23.0258 32.551 23.1424 32.4761 23.2521 32.4062C23.7857 32.0659 23.8914 31.9961 23.9099 31.9724C23.9209 31.9582 23.9836 31.9168 24.0494 31.8802C24.1152 31.8437 24.2229 31.7787 24.2886 31.7359C24.6553 31.4973 25.1653 31.3384 25.5644 31.3384C25.8215 31.3384 26.2474 31.4296 26.5212 31.5434C27.0822 31.7766 27.6118 32.3227 27.7787 32.8401C27.8054 32.9229 27.8474 33.0158 27.8719 33.0465C27.9044 33.0871 27.9221 35.0163 27.9365 40.0738C27.9475 43.9081 27.9697 47.0656 27.9858 47.0904C28.002 47.1152 28.0336 47.2675 28.0562 47.4289C28.0985 47.7326 28.2207 48.1866 28.3187 48.405C28.3497 48.474 28.3751 48.5457 28.3751 48.5643C28.3753 48.6218 28.6757 49.1843 28.851 49.455C29.2318 50.0435 29.8575 50.679 30.3999 51.0284C30.5251 51.109 30.6724 51.2052 30.7273 51.242C31.121 51.5067 32.0706 51.8605 32.6582 51.9615C33.0025 52.0208 34.3187 52.009 34.6542 51.9437C35.0228 51.872 35.3563 51.777 35.4971 51.7037C35.5597 51.6711 35.6313 51.6443 35.6561 51.6441C35.7907 51.6434 36.4912 51.2615 37.1061 50.8534C37.2925 50.7298 37.4629 50.6197 37.4848 50.6087C37.5068 50.5978 37.6503 50.5063 37.8038 50.4055C37.9573 50.3047 38.2264 50.1306 38.4018 50.0187C38.5772 49.9067 38.7387 49.801 38.7606 49.7837C38.7825 49.7663 38.926 49.6731 39.0795 49.5764C39.233 49.4797 39.556 49.2724 39.7971 49.1156C40.0383 48.9589 40.3972 48.7265 40.5945 48.5993C40.7918 48.4721 41.1114 48.263 41.3046 48.1347C41.4977 48.0063 41.6626 47.9013 41.6709 47.9013C41.6791 47.9013 41.8855 47.7669 42.1294 47.6027C42.3733 47.4385 42.5795 47.3041 42.5877 47.3041C42.5958 47.3041 42.8034 47.1697 43.049 47.0055C43.2945 46.8412 43.501 46.7069 43.5078 46.7069C43.5145 46.7069 43.6781 46.6019 43.8712 46.4735C44.0644 46.3451 44.3839 46.1351 44.5813 46.0067C44.7786 45.8783 44.9604 45.7549 44.9852 45.7324C45.01 45.7099 45.1027 45.633 45.191 45.5614C45.5841 45.2428 46.0313 44.7451 46.3002 44.3272C46.3744 44.2117 46.4351 44.1095 46.4351 44.1C46.4351 44.0904 46.4847 43.9967 46.5454 43.8917C46.9692 43.158 47.2036 42.0119 47.1165 41.0999C47.0346 40.2433 46.9044 39.7789 46.5285 39.0027C46.3219 38.5762 46.3279 38.586 45.9861 38.1169C45.2857 37.1558 44.3708 36.5113 43.1833 36.1423C43.0722 36.1077 42.7313 36.041 42.4258 35.9941C41.6869 35.8805 41.2795 35.9116 39.7971 36.1949C39.556 36.241 39.1882 36.3054 38.9799 36.3381C38.7716 36.3707 38.5473 36.4135 38.4815 36.4332C38.4157 36.4528 38.2632 36.4804 38.1426 36.4944C38.022 36.5083 37.8695 36.5361 37.8038 36.5561C37.738 36.5761 37.5227 36.6193 37.3254 36.6521C37.128 36.6849 36.7602 36.7487 36.5081 36.7939C36.2559 36.839 35.9061 36.9002 35.7306 36.9298C35.1981 37.0198 34.9077 37.111 34.6861 37.2579C34.4143 37.4381 34.174 37.711 34.0437 37.9874C33.9538 38.1783 33.9403 38.2601 33.9386 38.6245C33.9368 38.9963 33.9482 39.0667 34.0416 39.2615C34.1656 39.5203 34.4183 39.8166 34.6486 39.9731C34.9927 40.2071 35.5834 40.3231 35.8941 40.2177C35.9577 40.1961 36.1802 40.1511 36.3885 40.1176C36.7283 40.0631 37.0285 40.0106 37.8636 39.8597C38.0061 39.8339 38.2393 39.7882 38.3818 39.7581C38.5244 39.7279 38.7307 39.692 38.8403 39.6782C38.95 39.6645 39.0935 39.6371 39.1593 39.6174C39.225 39.5977 39.4403 39.5557 39.6377 39.5242C40.2215 39.4308 40.6953 39.345 41.0014 39.277C41.3219 39.2058 42.1683 39.2118 42.3088 39.2863C42.3527 39.3096 42.4761 39.371 42.5832 39.4228C43.4935 39.8635 44.027 41.134 43.6941 42.0684C43.5334 42.5195 43.2483 42.8893 42.8418 43.1737C42.4952 43.4162 41.853 43.8402 41.8322 43.8402C41.809 43.8402 41.3205 44.1683 41.2922 44.2029C41.2812 44.2163 41.2116 44.2611 41.1375 44.3024C40.9034 44.4331 40.4094 44.7548 40.3752 44.7988C40.3643 44.8129 40.2947 44.8583 40.2205 44.8997C39.9864 45.0303 39.4924 45.352 39.4583 45.396C39.4473 45.4101 39.3777 45.4555 39.3035 45.4969C39.1172 45.6009 39.1066 45.6077 38.5014 46.0064C37.495 46.6694 36.173 47.5333 35.5712 47.921C35.3738 48.0482 35.0806 48.2385 34.9197 48.3438C34.254 48.7794 33.565 48.8817 32.8534 48.6505C32.0911 48.4028 31.5847 47.8886 31.2724 47.0453C31.241 46.9605 31.2209 44.9152 31.203 39.9981C31.1764 32.7095 31.1825 32.9517 31.0094 32.2541C30.9359 31.9577 30.6983 31.323 30.6069 31.1791C30.586 31.1463 30.5413 31.0656 30.5075 30.9999C30.212 30.4257 29.6421 29.7663 29.0329 29.2937C28.9013 29.1916 28.7748 29.0929 28.7517 29.0743C28.6594 29.0002 27.9372 28.5968 27.8501 28.5708C27.799 28.5555 27.7212 28.5221 27.6774 28.4966C27.6026 28.4531 27.3139 28.3566 26.8323 28.2142C26.4015 28.0868 25.5133 28.0442 24.8069 28.117ZM51.0582 28.1077C50.6347 28.1984 50.1916 28.5559 49.9797 28.9775L49.8438 29.2481L49.8328 38.1467L49.8218 47.0453L49.9059 47.4633C50.0634 48.2455 50.3561 48.9695 50.7348 49.5138C51.3503 50.3982 52.0477 50.9955 53.0133 51.4651C53.5116 51.7075 54.0289 51.8796 54.5057 51.9615C54.85 52.0208 56.1662 52.009 56.5017 51.9437C56.8735 51.8714 57.2503 51.7656 57.2971 51.7203C57.3179 51.7002 57.3605 51.6837 57.3917 51.6837C57.5504 51.6837 58.4124 51.2228 58.9966 50.8255C59.172 50.7062 59.3217 50.6087 59.3294 50.6087C59.3371 50.6087 59.5383 50.481 59.7764 50.3249C60.0145 50.1688 60.2901 49.9895 60.3888 49.9265C60.4875 49.8635 60.5951 49.7935 60.628 49.7711C60.6609 49.7487 60.8582 49.6209 61.0665 49.487C61.2748 49.3531 61.6426 49.1149 61.8838 48.9576C62.125 48.8003 62.439 48.5971 62.5815 48.5061C62.724 48.4151 62.8676 48.3227 62.9005 48.3007C62.9333 48.2788 63.1038 48.1678 63.2792 48.0542C63.4546 47.9404 63.7838 47.7252 64.0107 47.5758C64.2375 47.4264 64.4293 47.3041 64.4368 47.3041C64.4443 47.3041 64.6499 47.1697 64.8938 47.0055C65.1377 46.8412 65.3439 46.7069 65.3521 46.7069C65.3602 46.7069 65.5643 46.5748 65.8056 46.4135C66.0469 46.2521 66.2678 46.111 66.2967 46.0999C66.4179 46.0532 67.0331 45.5679 67.3323 45.2828C68.0084 44.6388 68.4982 43.8436 68.7769 42.9377C68.8519 42.6941 69 41.707 69 41.4513C69 41.1967 68.852 40.2093 68.7772 39.9649C68.493 39.0363 68.052 38.2414 67.4635 37.5974C67.206 37.3156 66.689 36.8887 66.3889 36.71C66.2792 36.6447 66.1626 36.5745 66.1297 36.5541C66.0053 36.4767 65.5431 36.2807 65.3324 36.2161C65.2118 36.1791 65.0772 36.133 65.0334 36.1136C64.8031 36.0118 64.1671 35.937 63.5383 35.9377C62.8699 35.9384 62.8801 35.9372 61.5051 36.1899C61.2748 36.2322 60.9609 36.2881 60.8074 36.3139C60.6539 36.3398 60.4117 36.3864 60.2692 36.4175C60.1267 36.4486 59.9203 36.4847 59.8107 36.4978C59.7011 36.5109 59.5575 36.5375 59.4918 36.557C59.426 36.5765 59.2107 36.6193 59.0134 36.6521C58.816 36.6849 58.4482 36.749 58.1961 36.7946C57.9439 36.8402 57.603 36.9002 57.4386 36.9279C56.6466 37.0613 56.2056 37.3636 55.9171 37.9705C55.837 38.1391 55.8239 38.228 55.8239 38.6046C55.8239 39.0097 55.8328 39.0602 55.9416 39.2785C56.1725 39.7417 56.6429 40.0881 57.1629 40.1777C57.3871 40.2163 57.5005 40.2108 57.9403 40.1396C58.6113 40.031 59.1942 39.9268 59.9702 39.7766C60.1017 39.7511 60.3439 39.7069 60.5084 39.6784C60.6728 39.6498 60.9689 39.5983 61.1662 39.5639C61.3636 39.5295 61.6083 39.4821 61.71 39.4585C61.8118 39.4349 62.054 39.3889 62.2483 39.3563C62.4425 39.3237 62.7539 39.2702 62.9403 39.2375C63.4257 39.1523 64.0107 39.1808 64.2958 39.3036C64.516 39.3983 64.9734 39.6893 64.9738 39.7349C64.9738 39.7482 65.0232 39.8129 65.0834 39.8786C65.1878 39.9925 65.3327 40.2051 65.4474 40.4125C65.5641 40.6235 65.6626 41.0771 65.6645 41.4115C65.6689 42.2204 65.3332 42.7486 64.4362 43.3437C64.3051 43.4306 64.1796 43.5107 64.1572 43.5217C64.1348 43.5326 63.8204 43.7387 63.4586 43.9795C63.0968 44.2204 62.786 44.4239 62.7681 44.4317C62.75 44.4395 62.4829 44.6142 62.1744 44.8199C61.8658 45.0256 61.61 45.1939 61.6058 45.1939C61.6015 45.1939 61.2856 45.4004 60.9037 45.6527C60.5218 45.9051 60.1825 46.1291 60.1496 46.1507C60.1167 46.1723 59.724 46.4316 59.2768 46.7271C58.8297 47.0226 58.4585 47.2643 58.452 47.2643C58.4455 47.2643 58.2439 47.3964 58.0041 47.5579C57.7642 47.7195 57.5523 47.8583 57.5331 47.8665C57.514 47.8747 57.31 48.0061 57.0798 48.1584C56.2924 48.6795 56.0884 48.7549 55.4651 48.7549C54.8583 48.7549 54.4642 48.6203 53.9831 48.2486C53.7728 48.0862 53.3322 47.57 53.3322 47.4862C53.3322 47.4712 53.2972 47.3822 53.2544 47.2883C53.2116 47.1945 53.1579 47.0028 53.1351 46.8625C53.1073 46.6916 53.0935 43.7953 53.0933 38.0927C53.093 28.87 53.1036 29.3379 52.8861 28.9296C52.7523 28.6785 52.3839 28.3331 52.1226 28.2139C51.9426 28.1318 51.8113 28.1043 51.5445 28.0926C51.3547 28.0842 51.1358 28.091 51.0582 28.1077Z" fill="#009B3A"/>
</svg>
