<svg width="120" height="20" viewBox="0 0 120 20" fill="none" xmlns="http://www.w3.org/2000/svg">
<rect width="4" height="4" fill="#90D1F3"/>
<rect y="4" width="4" height="4" fill="#D3D800"/>
<rect x="4" y="4" width="4" height="4" fill="#88BD1F"/>
<rect x="4" y="8" width="4" height="4" fill="#90D1F3"/>
<rect x="8" y="8" width="4" height="4" fill="#D3D800"/>
<rect x="12" y="12" width="4" height="4" fill="#D3D800"/>
<rect x="4" y="12" width="4" height="4" fill="#009EE3"/>
<rect y="12" width="4" height="4" fill="#003A69"/>
<rect y="16" width="4" height="4" fill="#90D1F3"/>
<rect x="8" y="16" width="4" height="4" fill="#88BD1F"/>
<rect x="16" y="16" width="4" height="4" fill="#009EE3"/>
<rect x="16" y="8" width="4" height="4" fill="#90D1F3"/>
<rect x="16" y="4" width="4" height="4" fill="#88BD1F"/>
<rect x="12" y="4" width="4" height="4" fill="#009EE3"/>
<rect x="12" width="4" height="4" fill="#90D1F3"/>
<rect x="8" width="4" height="4" fill="#003A69"/>
<path fill-rule="evenodd" clip-rule="evenodd" d="M28.0739 4.07464C28.0167 4.13458 28 5.53148 28 10.25V16.348L28.1345 16.4466C28.3359 16.5945 29.7886 16.5889 29.9923 16.4395L30.1364 16.3337L30.0963 13.0656C30.0743 11.2681 30.0385 9.30564 30.0167 8.70448C29.987 7.88315 29.9949 7.61152 30.0486 7.61152C30.0879 7.61152 30.1477 7.68774 30.1815 7.78095C30.2652 8.01132 32.466 12.6015 32.7585 13.1555L32.9927 13.599L33.8446 13.6166C34.5037 13.6302 34.7119 13.6146 34.7646 13.5482C34.802 13.501 35.4614 12.153 36.2299 10.5528C36.9985 8.95254 37.6565 7.63218 37.6923 7.61874C37.7375 7.60176 37.745 7.77543 37.717 8.18898C37.6949 8.51605 37.6591 10.4825 37.6375 12.5589L37.5983 16.334L37.7423 16.4397C37.9457 16.5889 39.3986 16.5945 39.5999 16.4466L39.7344 16.348V10.2966C39.7344 6.2463 39.7137 4.20459 39.6718 4.12254C39.6135 4.00843 39.535 4 38.5319 4C37.581 4 37.4439 4.01299 37.3634 4.11088C37.1462 4.37484 34.706 9.25394 34.1511 10.5336C34.0359 10.7991 33.9114 11.036 33.8743 11.06C33.832 11.0874 33.7305 10.9307 33.6025 10.6406C32.8989 9.0465 32.5725 8.38401 30.783 4.91872L30.325 4.03168L29.2363 4.01445C28.4408 4.0019 28.1279 4.01806 28.0739 4.07464ZM87.4385 4.04175C87.4161 4.06526 87.3978 6.85868 87.3978 10.2493V16.4141L87.5255 16.4857C87.7298 16.6003 92.3308 16.5273 92.8416 16.4014C94.1701 16.074 95.0439 15.2926 95.397 14.1163C95.5145 13.7249 95.5328 13.5271 95.5308 12.6803C95.5285 11.7767 95.5151 11.6585 95.3625 11.1999C94.9939 10.0922 94.3923 9.54426 93.144 9.17924C92.7372 9.06031 92.4717 9.04282 90.5733 9.01019L88.4563 8.97376V6.94624V4.91872L91.6016 4.88704L94.7469 4.85536V4.44352V4.03168L91.1131 4.01533C89.1146 4.0064 87.461 4.01825 87.4385 4.04175ZM44.2565 7.29681C42.7498 7.56254 41.6805 8.58346 41.3905 10.0331C41.2616 10.6773 41.3009 13.832 41.4432 14.2706C41.8261 15.4509 42.6482 16.2231 43.908 16.5859C44.5171 16.7613 45.8977 16.7449 46.5391 16.5545C47.7681 16.1898 48.644 15.3133 48.8953 14.1967C49.0352 13.5754 49.0225 10.3405 48.878 9.76063C48.5606 8.48754 47.463 7.5436 46.0133 7.29713C45.5758 7.22281 44.6772 7.22262 44.2565 7.29681ZM99.2531 7.36911C98.4287 7.49221 97.1361 8.05967 97.1361 8.29841C97.1361 8.35746 97.2051 8.51218 97.2895 8.64226C97.458 8.90198 97.6252 8.94392 97.8463 8.78172C98.06 8.62496 98.7648 8.36728 99.2433 8.27104C100.443 8.02963 101.552 8.28225 102.001 8.89944C102.322 9.33998 102.419 9.68289 102.447 10.4833C102.462 10.8953 102.45 11.256 102.421 11.2848C102.392 11.3135 102.132 11.2998 101.844 11.2542C99.1345 10.8263 97.3642 11.3942 96.807 12.8704C96.7478 13.0272 96.6853 13.3836 96.6683 13.6624C96.5783 15.1308 97.3411 16.1062 98.93 16.5547C99.5494 16.7295 100.894 16.7435 101.703 16.5835C102.42 16.4417 103.248 16.1791 103.386 16.0496C103.492 15.9512 103.496 15.7944 103.47 12.9351C103.44 9.70798 103.431 9.5957 103.115 8.89412C102.559 7.66063 101.116 7.09077 99.2531 7.36911ZM51.998 7.50064C51.9194 7.56368 51.8732 7.87085 51.7717 9.00544C51.4583 12.5095 51.187 13.8405 50.6497 14.5093C50.5175 14.6739 50.4467 14.7078 50.2355 14.7078C50.0954 14.7078 49.9481 14.7421 49.9082 14.7839C49.8549 14.8397 49.8356 15.3776 49.8356 16.8092C49.8356 18.6715 49.8408 18.7614 49.9526 18.824C50.1326 18.9249 51.6197 18.9094 51.7018 18.8058C51.7427 18.7543 51.7746 18.3092 51.7848 17.6495L51.8014 16.577H54.4629H57.1243L57.1396 17.6224C57.1592 18.9531 57.1068 18.8896 58.186 18.8896C58.9196 18.8896 58.9674 18.8819 59.0564 18.7488C59.1362 18.6294 59.1504 18.3379 59.1497 16.8321C59.149 15.5317 59.1284 15.0139 59.0726 14.8979C59.0032 14.7537 58.9534 14.7367 58.5139 14.7078L58.0316 14.6762L58.016 11.1104L58.0003 7.54461L57.8457 7.48303C57.5997 7.38507 52.1215 7.40155 51.998 7.50064ZM60.4057 7.48987C60.3072 7.54987 60.2999 7.75871 60.3005 10.4501C60.3013 13.5823 60.3091 13.6726 60.6387 14.3783C61.0008 15.1535 61.988 15.9026 62.9429 16.1264C63.4777 16.2518 64.2836 16.2543 64.927 16.1325C65.6947 15.9872 65.6452 15.9575 65.607 16.541C65.5356 17.6318 64.9345 18.1926 63.8369 18.1926C63.1952 18.1926 62.2793 17.8843 61.7422 17.4876C61.5387 17.3373 61.3745 17.3368 61.2454 17.4863C61.0192 17.7482 60.4813 18.6082 60.4813 18.7081C60.4813 19.028 61.5678 19.6346 62.5853 19.8828C63.2342 20.0411 64.5821 20.0386 65.169 19.878C66.3668 19.5502 67.1127 18.7896 67.4742 17.5274C67.574 17.1788 67.5847 16.75 67.6031 12.3643C67.6218 7.89202 67.6162 7.57629 67.5186 7.50147C67.374 7.39071 65.8677 7.39001 65.725 7.50064C65.6318 7.57287 65.6215 7.863 65.6076 10.8112L65.5924 14.0426L65.2899 14.201C65.0158 14.3446 64.9169 14.3594 64.2314 14.3594C63.5292 14.3594 63.4538 14.3474 63.1729 14.191C62.8073 13.9875 62.5808 13.7475 62.4352 13.409C62.3363 13.1792 62.3245 12.8945 62.309 10.3677C62.2937 7.85787 62.2819 7.57192 62.1916 7.50064C62.0675 7.40269 60.5634 7.39363 60.4057 7.48987ZM70.8453 7.51464C70.7316 7.59809 70.714 7.69307 70.678 8.41752C70.4366 13.2824 70.1477 14.5393 69.224 14.7445C68.86 14.8253 68.8284 14.9039 68.8284 15.7292C68.8284 16.6312 68.8424 16.6486 69.5121 16.5794C71.2095 16.4042 71.8951 15.5299 72.2718 13.0605C72.4212 12.0809 72.5106 11.186 72.5661 10.1142L72.6088 9.29056H73.7581H74.9073L74.9375 12.8369L74.9678 16.3831L75.119 16.4633C75.3517 16.5866 76.6863 16.5739 76.8596 16.4466L76.9941 16.348V11.9834V7.61868L76.8596 7.52009C76.6629 7.3757 71.0415 7.37069 70.8453 7.51464ZM78.7012 7.52009L78.5667 7.61868V11.9792C78.5667 15.9618 78.5754 16.3472 78.667 16.4267C78.7479 16.4969 79.1809 16.513 80.9201 16.5103C83.3419 16.5066 83.64 16.4691 84.4132 16.0704C85.4448 15.5385 85.9435 14.4051 85.7586 13.0126C85.6006 11.8222 84.894 10.983 83.7081 10.577C83.3746 10.4628 83.1131 10.4367 81.9842 10.405L80.6535 10.3677L80.6372 8.95589L80.621 7.54411L80.467 7.48277C80.3822 7.44907 79.9805 7.42144 79.5743 7.42144C79.0036 7.42144 78.805 7.44387 78.7012 7.52009ZM105.103 7.52453C105.079 7.54911 105.06 9.5594 105.06 11.9917C105.06 16.2991 105.063 16.4158 105.177 16.4797C105.346 16.5747 105.879 16.5617 105.959 16.4606C106.004 16.4035 106.031 15.7089 106.042 14.3222L106.058 12.2685H108.387H110.715L110.731 14.3277C110.745 16.1735 110.757 16.3951 110.848 16.4661C110.987 16.5739 111.559 16.5689 111.646 16.4591C111.696 16.3964 111.71 15.1632 111.699 11.9447L111.683 7.51648H111.229H110.776L110.746 9.44896L110.715 11.3814H108.387H106.058L106.028 9.44896L105.997 7.51648L105.571 7.49811C105.337 7.48803 105.126 7.49994 105.103 7.52453ZM113.361 7.5583C113.243 7.68242 113.253 16.3741 113.371 16.4774C113.423 16.522 113.61 16.544 113.84 16.5326L114.224 16.5136L114.24 14.9544L114.256 13.3952L114.824 12.8477C115.137 12.5466 115.433 12.3002 115.482 12.3002C115.532 12.3002 115.745 12.5065 115.956 12.7586C116.345 13.2224 118.053 15.2409 118.771 16.0859L119.162 16.5453H119.581H120V16.3472C120 16.1912 119.907 16.0386 119.561 15.6299C119.32 15.3444 118.711 14.6138 118.207 14.0064C117.703 13.399 117.043 12.604 116.74 12.2397C116.437 11.8753 116.189 11.544 116.189 11.5035C116.189 11.463 116.373 11.2496 116.598 11.0293C118.065 9.5895 119.949 7.61589 119.913 7.55538C119.888 7.51293 119.677 7.4848 119.382 7.4848H118.892L118.311 8.07088C117.992 8.39326 116.973 9.42311 116.048 10.3596C115.039 11.3803 114.343 12.0391 114.31 12.0046C114.28 11.9729 114.248 10.9502 114.239 9.73174L114.224 7.51648L113.83 7.49811C113.576 7.4862 113.409 7.50755 113.361 7.5583ZM46.1485 9.29798C46.8939 9.72255 47.0132 10.1383 46.9809 12.1977C46.9556 13.8112 46.9236 13.9757 46.5584 14.371C46.2381 14.7176 45.8378 14.8605 45.1782 14.8636C44.4359 14.867 44.0673 14.7393 43.7373 14.3642C43.3861 13.9651 43.3496 13.7104 43.3736 11.823C43.3935 10.2664 43.3967 10.2312 43.5484 9.92277C43.8424 9.32478 44.4176 9.05303 45.3064 9.09231C45.7413 9.11151 45.881 9.1456 46.1485 9.29798ZM55.975 11.9834V14.6762L54.357 14.693C53.4552 14.7025 52.739 14.6853 52.739 14.6542C52.739 14.6236 52.816 14.4022 52.9102 14.1622C53.2525 13.2901 53.5096 11.9951 53.6745 10.3145C53.7252 9.79744 53.7824 9.34771 53.8017 9.31521C53.8218 9.28106 54.289 9.26332 54.9058 9.27327L55.975 9.29056V11.9834ZM92.7758 10.044C93.9956 10.3751 94.5352 11.2057 94.5352 12.7522C94.5352 13.9921 94.1308 14.784 93.2666 15.2369C92.6534 15.5583 92.2741 15.6014 90.2406 15.5811L88.4563 15.5632L88.4405 12.807C88.4318 11.2912 88.4387 10.0125 88.4559 9.96579C88.505 9.83166 92.2429 9.89933 92.7758 10.044ZM101.854 12.0522C102.104 12.0944 102.342 12.1567 102.383 12.1906C102.44 12.2371 102.459 12.6422 102.459 13.8263C102.459 15.6444 102.537 15.4511 101.722 15.6612C101.116 15.8175 99.956 15.8884 99.4951 15.7974C98.6567 15.6319 98.0826 15.249 97.8024 14.6684C97.6799 14.4147 97.6536 14.2685 97.6554 13.8525C97.6579 13.2796 97.744 13.0156 98.0455 12.6558C98.3024 12.3493 98.7501 12.1147 99.2823 12.0077C99.7752 11.9085 101.146 11.9322 101.854 12.0522ZM82.7706 12.1444C83.385 12.3121 83.681 12.6433 83.7481 13.2381C83.822 13.8944 83.4804 14.4795 82.9028 14.6855C82.656 14.7735 82.3826 14.798 81.6213 14.8002L80.6535 14.8029L80.6371 13.5057C80.6281 12.7923 80.634 12.1721 80.6503 12.1276C80.6954 12.0047 82.3053 12.0175 82.7706 12.1444Z" fill="#003A69"/>
</svg>
