<svg width="100" height="22" viewBox="0 0 100 22" fill="none" xmlns="http://www.w3.org/2000/svg">
<path d="M36.6817 13.4924V8.23251H35.2726V0.0454102H28.2726C28.1363 1.64624 27.909 3.15559 27.4999 4.52773C27.0908 5.89987 26.5908 7.1348 25.9545 8.23251H25.0908V13.4924H27.8181V10.5651H33.909V13.4924H36.6817ZM32.409 8.23251H28.9545C29.8181 6.40299 30.3635 4.43626 30.5454 2.37805H32.409V8.23251Z" fill="#650A2B"/>
<path d="M28.591 18.5696C28.2728 18.4781 27.8183 18.3867 27.2728 18.3867H25.7728V16.4199H29.0001V15.6881H24.9092V22H27.3637C28.0455 22 28.5001 21.9085 28.7728 21.7255C29.0455 21.5426 29.2728 21.3139 29.4092 21.0395C29.5455 20.765 29.6365 20.4449 29.6365 20.1247C29.6365 19.7131 29.5455 19.3929 29.3183 19.0727C29.1365 18.844 28.9092 18.6611 28.591 18.5696ZM28.4092 21.0395C28.1819 21.2224 27.8637 21.3139 27.4092 21.3139H25.7274V19.1185H26.8183C27.3637 19.1185 27.7728 19.1642 28.0001 19.2099C28.2274 19.2557 28.4092 19.3929 28.5455 19.5758C28.6819 19.7588 28.7274 19.9417 28.7274 20.2162C28.7728 20.5821 28.6365 20.8565 28.4092 21.0395Z" fill="#650A2B"/>
<path d="M5.31812 9.37629H8.1363V6.40332C6.90902 7.04365 5.90902 8.09563 5.31812 9.37629Z" fill="#650A2B"/>
<path d="M0 22H21.8636V0H0V22ZM10.9545 20.6278C6.45455 20.6278 2.72727 17.1975 2.27273 12.8066H19.5909C19.1364 17.1975 15.4545 20.6278 10.9545 20.6278ZM11.5 0.823284H13.7273V3.56756C17.0909 4.71101 19.5455 7.86694 19.6364 11.6632H11.5V0.823284ZM8.13636 3.6133V0.869022H10.3636V11.7089H2.22727C2.31818 7.91267 4.77273 4.75675 8.13636 3.6133Z" fill="#650A2B"/>
<path d="M10.9546 18.0666C13.1819 18.0666 15.1364 16.8774 16.2273 15.0479H5.68188C6.72734 16.8316 8.68189 18.0666 10.9546 18.0666Z" fill="#650A2B"/>
<path d="M13.7273 6.40332V9.37629H16.5455C16 8.09563 15 7.04365 13.7273 6.40332Z" fill="#650A2B"/>
<path d="M59.0909 18.7983C59.2727 18.7068 59.4546 18.6153 59.5909 18.4781C59.7273 18.3409 59.9091 17.975 60.1364 17.4719C60.3182 17.0603 60.4546 16.7858 60.5909 16.6486C60.7273 16.5114 60.9091 16.4657 61.1818 16.4657C61.1818 16.4657 61.2727 16.4657 61.3637 16.4657C61.4546 16.4657 61.5 16.4657 61.5455 16.4657V15.7338C61.5455 15.7338 61.3637 15.7338 61.0455 15.7338C60.7728 15.7338 60.5455 15.7796 60.3637 15.9168C60.1364 16.054 60 16.1912 59.8637 16.3284C59.7273 16.5114 59.5909 16.7858 59.4546 17.1975C59.2273 17.7463 59 18.1122 58.8637 18.2494C58.7273 18.3867 58.4546 18.4781 58.0455 18.4781V15.6881H57.2273V22H58.0455V19.027C58.3637 19.027 58.5909 19.1185 58.8182 19.3014C59 19.4844 59.2273 19.8045 59.5455 20.2619L60.5909 21.9542H61.6364L60.3637 19.8503C59.9091 19.2557 59.5 18.8898 59.0909 18.7983Z" fill="#650A2B"/>
<path d="M86.8637 5.03085V4.98511C87.3637 4.8479 87.7728 4.61921 88.0455 4.16183C88.3637 3.75019 88.5001 3.24707 88.5001 2.65248C88.5001 1.73772 88.1364 1.09738 87.4546 0.685742C86.7728 0.2741 85.7273 0.0454102 84.3182 0.0454102H80.6819V10.5651H84.7273C85.9546 10.5651 86.9092 10.2907 87.6364 9.74187C88.3637 9.19301 88.6819 8.4612 88.6819 7.5007C88.6819 6.86037 88.5455 6.35725 88.2273 5.94561C87.9546 5.48823 87.5001 5.2138 86.8637 5.03085ZM83.5001 2.1951H84.2728C85.1819 2.1951 85.591 2.46952 85.591 3.06412C85.591 3.38428 85.5001 3.65871 85.2728 3.79593C85.0455 3.97888 84.7273 4.07035 84.3182 4.07035H83.4546V2.1951H83.5001ZM84.4546 8.36973H83.4546V6.1743H84.4092C84.8637 6.1743 85.1819 6.26578 85.4546 6.44873C85.6819 6.63168 85.8183 6.90611 85.8183 7.27201C85.7728 8.00382 85.3637 8.36973 84.4546 8.36973Z" fill="#650A2B"/>
<path d="M72.3181 0L68.909 10.474L65.6363 5.03118L68.7272 0H65.6818L62.7727 5.07692V0.045738H60.0454V5.12266L57.1363 0.045738H54.0908L57.1363 5.07692L53.8181 10.5655H56.909L59.9999 5.25987V10.5655H62.7272V5.21413L65.8181 10.5197H68.8636H68.909H71.9545L72.4545 8.55301H75.8636L76.3636 10.5197H79.4545L76.0908 0H72.3181ZM73.1363 6.26611C73.5908 4.61954 73.8636 3.52183 73.9545 2.97297C74.0908 2.42411 74.1818 2.01247 74.2272 1.78378C74.2727 2.05821 74.3636 2.46985 74.4999 3.11018C74.6363 3.70478 74.7727 4.2079 74.8636 4.61954L75.3181 6.35758H73.1363V6.26611Z" fill="#650A2B"/>
<path d="M96.5456 0H92.7729L89.3638 10.5655H92.4547L93.0001 8.59874H96.4092L96.9092 10.5655H100L96.5456 0ZM93.591 6.26611C94.0456 4.61954 94.3183 3.52183 94.4092 2.97297C94.5456 2.42411 94.6365 2.01247 94.682 1.78378C94.7274 2.05821 94.8183 2.46985 94.9547 3.11018C95.091 3.70478 95.2274 4.2079 95.3183 4.61954L95.7729 6.35758H93.591V6.26611Z" fill="#650A2B"/>
<path d="M50.1363 18.2952H46.909V15.6881H46.0908V22H46.909V19.027H50.1363V22H50.9999V15.6881H50.1363V18.2952Z" fill="#650A2B"/>
<path d="M38.0908 10.5651H44.2726V8.23251H40.909V6.26578H43.9999V3.97888H40.909V2.33231H44.2726V0.0454102H38.0908V10.5651Z" fill="#650A2B"/>
<path d="M37.091 15.6881L34.6819 22H35.5455L36.2273 20.079H38.8637L39.591 22H40.5455L38.0001 15.6881H37.091ZM36.4546 19.4386L37.1364 17.6091C37.2728 17.1975 37.4092 16.7858 37.5001 16.3742C37.591 16.7401 37.7728 17.1517 37.9546 17.7006L38.591 19.4386H36.4546Z" fill="#650A2B"/>
<path d="M52.6817 0.914432C51.9999 0.319838 51.0454 0.0454102 49.7272 0.0454102H46.0908V10.5651H48.909V7.08906H49.7272C50.9999 7.08906 51.9545 6.7689 52.6363 6.12856C53.3181 5.48823 53.6817 4.57347 53.6817 3.43002C53.6817 2.33231 53.3635 1.50903 52.6817 0.914432ZM50.4545 4.39052C50.1817 4.61921 49.8635 4.75642 49.4545 4.75642H48.9545V2.33231H49.6817C50.4545 2.33231 50.8635 2.69821 50.8635 3.38428C50.8181 3.84166 50.6817 4.16183 50.4545 4.39052Z" fill="#650A2B"/>
</svg>
