<svg width="99" height="40" viewBox="0 0 99 40" fill="none" xmlns="http://www.w3.org/2000/svg">
<path fill-rule="evenodd" clip-rule="evenodd" d="M98.9675 8.10561H18.6844C14.6453 8.10561 8.30236 10.1777 4.14907 13.3078H98.9675V8.10561ZM3.1324 14.1349C1.35276 15.7053 0.153915 17.4951 0.020442 19.3958H98.9681V14.1349H3.1324ZM0.0312639 20.6965C0.209829 22.6014 1.45136 24.3912 3.26828 25.9574H38.2513V20.6965H0.0312639ZM4.3078 26.7851C8.46228 29.8486 14.6952 31.868 18.6838 31.868H38.2507V26.7851H4.3078ZM44.578 20.7552H60.0909C63.0394 20.7552 68.555 23.0653 68.9957 25.958H44.578V20.7552ZM68.9801 26.7851C68.439 29.6359 63.0087 31.895 60.0909 31.895H44.578V26.7851H68.9801ZM74.5805 20.7552H90.094C93.0424 20.7552 98.5581 23.0653 98.9988 25.958H74.5811V20.7552H74.5805ZM98.9832 26.7851C98.4421 29.6359 93.0118 31.895 90.094 31.895H74.5805V26.7851H98.9832ZM4.13645 3.92543C4.07813 4.357 3.81179 5.01214 2.91295 5.01214C1.98105 5.01214 1.48143 4.22393 1.48143 3.12824C1.48143 1.1868 2.56303 1.12866 2.87146 1.12866C3.18771 1.12866 3.96149 1.17002 4.08655 2.14044H5.4351C5.39362 1.2857 4.86935 0 2.80473 0C2.24739 0 0 0.116282 0 3.17799C0 5.45988 1.36539 6.1414 2.85523 6.1414C4.91925 6.1414 5.41045 4.79576 5.50184 3.92484H4.13645V3.92543ZM7.99573 0.166632L5.81387 5.97476H7.26343L7.62958 4.88806H9.7441L10.1187 5.97476H11.5748L9.38577 0.166632H7.99573ZM7.92899 3.90086L8.69436 1.6855L9.44349 3.90086H7.92899ZM12.2711 0.166632V5.97476H13.6443V3.97518H14.9507C15.6584 3.97518 17.1813 3.8589 17.1813 2.04154C17.1813 0.605989 16.1664 0.166033 14.9844 0.166033H12.2711V0.166632ZM13.6437 1.29469H14.7175C15.0253 1.29469 15.6999 1.26173 15.6999 2.04993C15.6999 2.61396 15.3668 2.84653 14.7175 2.84653H13.6437V1.29469ZM20.865 6.142C22.8707 6.142 23.811 4.82992 23.811 3.0707C23.811 1.31148 22.8707 0.000601352 20.865 0.000601352C18.5677 0.000601352 17.9184 1.71787 17.9184 3.0707C17.919 4.42353 18.5683 6.142 20.865 6.142ZM20.865 5.01274C20.0996 5.01274 19.3998 4.58957 19.3998 3.0713C19.3998 1.74364 19.9241 1.12986 20.865 1.12986C22.2713 1.12986 22.3302 2.55702 22.3302 3.0713C22.3302 3.56041 22.2635 5.01274 20.865 5.01274ZM24.9654 0.166632V5.97476H27.737C28.7772 5.97476 29.967 5.75059 29.967 4.34861C29.967 3.27809 29.1764 2.95442 28.7267 2.86331V2.85492C29.2846 2.6727 29.6844 2.31606 29.6844 1.64354C29.6844 1.01298 29.4097 0.166632 27.8868 0.166632H24.9654ZM26.3386 1.29469H27.5453C28.1531 1.29469 28.286 1.61837 28.286 1.85932C28.286 2.0835 28.1525 2.45692 27.603 2.45692H26.338V1.29469H26.3386ZM26.3386 3.52744H27.5873C28.087 3.52744 28.5192 3.64372 28.5192 4.19097C28.5192 4.72203 28.0034 4.84671 27.7617 4.84671H26.3386V3.52744ZM36.2685 1.29469H39.4225V0.166033H34.8947V5.97416H37.6747C39.0233 5.97416 39.8885 5.41014 39.8885 4.22393C39.8885 2.36521 38.1575 2.32385 37.6747 2.32385H36.2685V1.29469ZM36.2685 3.45251H37.4084C37.7409 3.45251 38.407 3.49387 38.407 4.19097C38.407 4.73881 37.9243 4.84671 37.3831 4.84671H36.2685V3.45251ZM42.3908 3.91704V0.166033H41.0176V5.97416H42.3908L44.7127 2.1824V5.97416H46.0859V0.166033H44.7127L42.3908 3.91704ZM47.1904 3.97518C47.2818 5.87527 48.6634 6.142 49.8538 6.142C51.1188 6.142 52.5588 5.87527 52.5588 4.39836C52.5588 3.50226 52.0928 3.09588 51.2691 2.92924V2.91306C51.6846 2.83814 52.3754 2.55642 52.3754 1.63515C52.3754 0.406989 51.2186 0.000601352 49.9115 0.000601352C48.4223 0.000601352 47.4483 0.473523 47.3563 2.04993H48.6965C48.7379 1.14544 49.4624 1.12866 49.7618 1.12866C49.9536 1.12866 50.8939 1.12027 50.8939 1.82576C50.8939 2.40657 50.3282 2.4731 49.9368 2.4731H49.2538V3.54302H50.0781C50.4118 3.54302 51.0773 3.58498 51.0773 4.24851C51.0773 4.57218 50.8681 5.01154 49.8947 5.01154C48.9045 5.01154 48.5462 4.57218 48.5215 3.97459H47.1904V3.97518ZM55.1356 3.47769H57.2495V5.97536H58.6233V0.167233H57.2495V2.34963H55.1356V0.167233H53.7618V5.97536H55.1356V3.47769ZM61.4335 2.4737V1.29469H64.6627V0.166033H60.0597V5.97416H64.7462V4.84611H61.4335V3.54302H64.2797V2.4731H61.4335V2.4737ZM69.5861 3.92543C69.5284 4.357 69.2621 5.01214 68.3626 5.01214C67.4301 5.01214 66.9311 4.22393 66.9311 3.12824C66.9311 1.1868 68.0139 1.12866 68.3211 1.12866C68.6368 1.12866 69.4106 1.17002 69.5362 2.14044H70.8842C70.8433 1.2857 70.3184 0 68.2538 0C67.6959 0 65.4497 0.116282 65.4497 3.17799C65.4497 5.45988 66.8145 6.1414 68.3043 6.1414C70.3689 6.1414 70.8595 4.79576 70.9509 3.92484H69.5861V3.92543ZM77.0606 1.29469H80.2146V0.166033H75.688V5.97416H78.4675C79.8154 5.97416 80.6812 5.41014 80.6812 4.22393C80.6812 2.36521 78.9502 2.32385 78.4675 2.32385H77.0606V1.29469ZM77.0606 3.45251H78.2005C78.5342 3.45251 79.1998 3.49387 79.1998 4.19097C79.1998 4.73881 78.717 4.84671 78.1759 4.84671H77.0606V3.45251ZM83.2911 0.166632L81.1093 5.97476H82.5594L82.9244 4.88806H85.0395L85.4141 5.97476H86.8702L84.6812 0.166632H83.2911ZM83.2256 3.90086L83.9909 1.6855L84.7401 3.90086H83.2256ZM88.9397 3.47769H91.0548V5.97536H92.4274V0.167233H91.0548V2.34963H88.9397V0.167233H87.567V5.97536H88.9397V3.47769ZM95.2537 2.60617H95.2375V0.166632H93.8649V5.97476H95.2375V3.13723H95.2537L97.3184 5.97476H99L96.5284 2.82195L98.8665 0.166632H97.2528L95.2537 2.60617ZM0.060123 37.9489C0.0685402 38.7215 0.451523 40 2.59911 40C4.92887 40 5.06234 38.5387 5.06234 38.0658C5.06234 36.7956 4.03003 36.4887 2.80713 36.2556C2.30751 36.1573 1.65879 36.0482 1.65879 35.5429C1.65879 35.2528 1.87463 34.9867 2.55762 34.9867C3.29834 34.9867 3.5232 35.3013 3.55626 35.6178H4.85492C4.83808 34.7715 4.25549 33.858 2.64059 33.858C0.884406 33.858 0.251914 34.6378 0.251914 35.5753C0.251914 36.87 1.1255 37.1361 2.17404 37.3675C2.88169 37.5257 3.65547 37.6414 3.65547 38.2725C3.65547 38.7784 3.13119 38.8695 2.61534 38.8695C1.63293 38.8695 1.44174 38.3055 1.45016 37.9483H0.060123V37.9489ZM7.57307 34.0246L5.39121 39.8322H6.84077L7.20692 38.7461H9.32084L9.6954 39.8322H11.1522L8.96311 34.0246H7.57307ZM7.50633 37.7583L8.27229 35.5435L9.02143 37.7583H7.50633ZM11.7901 39.8328H13.1633V37.6929H14.2202C14.3784 37.6929 15.1022 37.6588 15.1606 38.3565C15.2357 39.2436 15.1443 39.4677 15.3938 39.8328H16.7917C16.5837 39.5343 16.5837 39.2945 16.5674 38.5555C16.559 38.1317 16.5422 37.3764 15.7353 37.1445V37.1283C16.1183 36.9946 16.7502 36.6554 16.7502 35.6754C16.7502 34.1733 15.3602 34.0246 14.7698 34.0246H11.7901V39.8328ZM13.1633 35.1533H14.3706C14.961 35.1533 15.3025 35.3277 15.3025 35.9001C15.3025 36.1825 15.1942 36.6308 14.4198 36.6308H13.1633V35.1533ZM20.5343 40C22.54 40 23.481 38.6879 23.481 36.9293C23.481 35.1695 22.5406 33.8586 20.5343 33.8586C18.237 33.8586 17.5883 35.5759 17.5883 36.9293C17.5883 38.2815 18.237 40 20.5343 40ZM20.5343 38.8701C19.7768 38.8701 19.0782 38.4476 19.0782 36.9293C19.0782 35.3937 19.7774 34.9873 20.5343 34.9873C21.9406 34.9873 21.9995 36.406 21.9995 36.9293C21.9995 37.419 21.9328 38.8701 20.5343 38.8701ZM26.6326 38.1736L25.4506 34.0246H23.876L25.8498 39.8322H27.306L29.287 34.0246H27.7635L26.6326 38.1736ZM33.1253 34.0246V39.8322H35.8969C36.937 39.8322 38.1275 39.6086 38.1275 38.206C38.1275 37.1361 37.3369 36.8118 36.8877 36.7213V36.7117C37.4457 36.5289 37.8449 36.1735 37.8449 35.5009C37.8449 34.8698 37.5701 34.0234 36.0472 34.0234H33.1253V34.0246ZM34.4985 35.1533H35.7051C36.3124 35.1533 36.4458 35.4764 36.4458 35.7173C36.4458 35.9409 36.3124 36.3143 35.7634 36.3143H34.4985V35.1533ZM34.4985 37.386H35.7472C36.2468 37.386 36.6791 37.5017 36.6791 38.0484C36.6791 38.58 36.1633 38.7041 35.9222 38.7041H34.4985V37.386ZM39.1977 34.0246V37.6336C39.1977 38.2647 39.2644 39.9994 41.7198 39.9994C44.1584 39.9994 44.2414 38.2222 44.2414 37.6336V34.0246H42.8682V37.41C42.8682 38.405 42.5603 38.8701 41.7198 38.8701C40.8625 38.8701 40.5709 38.3726 40.5709 37.41V34.0246H39.1977ZM45.2123 37.9489C45.2202 38.7215 45.6037 40 47.7507 40C50.0811 40 50.214 38.5387 50.214 38.0658C50.214 36.7956 49.1823 36.4887 47.9588 36.2556C47.4591 36.1573 46.8098 36.0482 46.8098 35.5429C46.8098 35.2528 47.0262 34.9867 47.7092 34.9867C48.4494 34.9867 48.6742 35.3013 48.7079 35.6178H50.0065C49.9903 34.7715 49.4071 33.858 47.7928 33.858C46.0366 33.858 45.4035 34.6378 45.4035 35.5753C45.4035 36.87 46.2777 37.1361 47.3263 37.3675C48.0339 37.5257 48.8077 37.6414 48.8077 38.2725C48.8077 38.7784 48.2834 38.8695 47.7676 38.8695C46.7858 38.8695 46.594 38.3055 46.6024 37.9483H45.2123V37.9489ZM51.2427 34.0246V39.8322H52.6165V34.0246H51.2427ZM55.3857 36.1986L57.6824 39.8322H59.0809V34.0246H57.7071V37.6336H57.6824L55.3857 34.0246H53.9957V39.8322H55.3695V36.1986H55.3857ZM61.8327 36.3311V35.1533H65.0619V34.0246H60.4601V39.8322H65.1455V38.7035H61.8327V37.4016H64.6789V36.3305H61.8327V36.3311ZM65.7335 37.9489C65.7419 38.7215 66.1243 40 68.2724 40C70.6022 40 70.7363 38.5387 70.7363 38.0658C70.7363 36.7956 69.704 36.4887 68.4805 36.2556C67.9814 36.1573 67.3321 36.0482 67.3321 35.5429C67.3321 35.2528 67.548 34.9867 68.2304 34.9867C68.9711 34.9867 69.1953 35.3013 69.2296 35.6178H70.527C70.5108 34.7715 69.9282 33.858 68.3133 33.858C66.5577 33.858 65.9246 34.6378 65.9246 35.5753C65.9246 36.87 66.7982 37.1361 67.8468 37.3675C68.555 37.5257 69.3288 37.6414 69.3288 38.2725C69.3288 38.7784 68.8039 38.8695 68.2887 38.8695C67.3057 38.8695 67.1157 38.3055 67.1235 37.9483H65.7335V37.9489ZM74.9641 34.0246V39.8322H77.7352C78.7753 39.8322 79.9663 39.6086 79.9663 38.206C79.9663 37.1361 79.1751 36.8118 78.7266 36.7213V36.7117C79.2833 36.5289 79.6837 36.1735 79.6837 35.5009C79.6837 34.8698 79.409 34.0234 77.8861 34.0234H74.9641V34.0246ZM76.3373 35.1533H77.5446C78.1518 35.1533 78.2853 35.4764 78.2853 35.7173C78.2853 35.9409 78.1512 36.3143 77.6029 36.3143H76.3373V35.1533ZM76.3373 37.386H77.5855C78.0857 37.386 78.518 37.5017 78.518 38.0484C78.518 38.58 78.0027 38.7041 77.7604 38.7041H76.3373V37.386ZM82.5937 34.0246L80.4118 39.8322H81.8608L82.2269 38.7461H84.3409L84.7154 39.8322H86.1728L83.9825 34.0246H82.5937ZM82.527 37.7583L83.2923 35.5435L84.0415 37.7583H82.527ZM88.1995 36.1986L90.4974 39.8322H91.8959V34.0246H90.5221V37.6336H90.4974L88.1995 34.0246H86.8101V39.8322H88.1827V36.1986H88.1995ZM94.6477 36.3898V34.0252H93.2751V39.8328H94.6477V37.9914L95.3055 37.3279L97.0526 39.8334H98.7673L96.2542 36.4312L98.5936 34.0252H96.8789L94.6477 36.3898Z" fill="#045093"/>
</svg>
