<svg width="120" height="13" viewBox="0 0 120 13" fill="none" xmlns="http://www.w3.org/2000/svg">
<path fill-rule="evenodd" clip-rule="evenodd" d="M23.1681 10.5489L22.6634 6.46451L21.8343 10.5489H20.6844L19.7651 6.46451L19.2136 10.5489H17.1913L18.3629 2.42737H20.4537L21.2143 6.0121L22.0181 2.42555H24.0422L25.1904 10.5489H23.1681ZM30.1343 2.42737V4.46774H28.0886V5.51427H29.5359V7.55646H28.0886V8.53032H30.1343V10.5489H26.0627V2.42737H30.1325H30.1343ZM31.2374 2.42737H35.6983V4.63308H34.4799V10.5471H32.4324V4.6349H31.2374V2.42555V2.42737ZM36.4553 10.5489L38.456 2.42737H40.8243L42.825 10.5489H40.8243L40.5017 9.38607H38.7786L38.4794 10.5489H36.4553ZM40.134 7.76904L39.6528 5.70505L39.1247 7.77267H40.1358L40.134 7.76904ZM47.7672 2.42737L49.3767 10.5489H47.331L46.4568 4.49318H46.2946L45.3988 10.5489H43.3765L44.9392 2.42737H47.7672ZM54.3189 2.42737L55.9519 10.5489H53.9061L53.032 4.49318H52.8698L51.974 10.5489H49.9517L51.5378 2.42737H54.3189ZM62.7793 2.42737V10.5489H60.7336V6.82062L58.8483 10.5489H56.826V2.42737H58.8483V6.34459L60.8706 2.42555H62.7793V2.42737ZM66.2742 2.42737V5.51427H67.8152V2.42555H69.8375V10.5489H67.8152V7.55828H66.2742V10.5507H64.2519V2.42919H66.2742V2.42737ZM74.3435 2.42737C74.592 2.42039 74.839 2.47002 75.0658 2.57257C75.2927 2.67512 75.4937 2.82795 75.6538 3.01968C75.9747 3.42303 76.1369 3.94629 76.1369 4.56404C76.1369 5.06187 76.0684 5.4416 75.9296 5.72685C75.7908 5.98848 75.6088 6.17926 75.3781 6.25011C75.7329 6.34505 76.0427 6.56398 76.2522 6.86786C76.5046 7.22397 76.6181 7.67638 76.6181 8.19782C76.6181 8.93548 76.4577 9.52779 76.1135 9.93296C75.7458 10.3599 75.2627 10.5507 74.6193 10.5507H71.2398V2.42374H74.3435V2.42737ZM73.2855 4.18249V5.34712H73.6316C73.9289 5.34712 74.0912 5.15816 74.0912 4.77843C74.0912 4.37326 73.9289 4.18249 73.6316 4.18249H73.2855ZM73.2855 7.27121V8.45946H73.8136C74.138 8.45946 74.3201 8.26868 74.3201 7.86533C74.3201 7.67638 74.275 7.53284 74.1831 7.43836C74.0864 7.33602 73.9537 7.276 73.8136 7.27121H73.2855ZM81.7459 2.42555V4.46956H79.7002V5.51609H81.7225V7.55828H79.702V8.53213H81.7477V10.5507H77.6779V2.42919H81.7477L81.7459 2.42555ZM86.3907 5.04006C86.2275 5.03399 86.0651 5.06724 85.9172 5.13708C85.7692 5.20691 85.6399 5.3113 85.54 5.4416C85.3543 5.70323 85.2642 6.05934 85.2642 6.48813C85.2642 6.89148 85.3543 7.24759 85.5616 7.53284C85.6549 7.66503 85.7798 7.77132 85.9248 7.84184C86.0697 7.91235 86.23 7.94481 86.3907 7.93619C86.6196 7.93619 86.7818 7.93619 86.8954 7.88895C87.0324 7.86533 87.1477 7.81628 87.2396 7.77085V10.5507C87.1946 10.5743 87.0792 10.5979 86.9639 10.6216C86.8503 10.6452 86.6431 10.6452 86.3907 10.6452C85.3327 10.6452 84.4802 10.2418 83.8385 9.36245C83.2636 8.57755 82.9878 7.62732 82.9878 6.48813C82.9878 5.37074 83.2636 4.4205 83.8385 3.6356C84.4585 2.78166 85.3093 2.35469 86.3907 2.35469C86.5746 2.35469 86.7332 2.35469 86.872 2.37831C87.0107 2.42555 87.1243 2.45099 87.2396 2.47279V5.22902C87.1495 5.18178 87.0324 5.13454 86.9639 5.10911C86.7766 5.06135 86.5839 5.03815 86.3907 5.04006ZM88.3211 2.42555H92.8036V4.6349H91.5852V10.5489H89.5395V4.6349H88.3211V2.42555ZM96.0912 5.4416H97.3331C97.908 5.4416 98.3911 5.65599 98.757 6.08478C99.1715 6.53537 99.3572 7.12949 99.3572 7.91257C99.3572 8.69747 99.1715 9.33883 98.7804 9.83848C98.6098 10.0613 98.3904 10.2414 98.1393 10.3647C97.8882 10.4879 97.6123 10.5509 97.3331 10.5489H94.0455V2.42737H98.7588V4.13525H96.0912V5.44341V5.4416ZM96.0912 7.41474V8.57755H96.5977C96.9419 8.57755 97.1024 8.3886 97.1024 7.98525C97.1024 7.79447 97.0573 7.65094 96.9654 7.55646C96.9176 7.50786 96.8601 7.47008 96.7967 7.44564C96.7333 7.42121 96.6654 7.41067 96.5977 7.41474H96.0912ZM100.001 10.5489L102.001 2.42737H104.344L106.345 10.5489H104.344L104.047 9.38607H102.299L101.999 10.5489H99.9988H100.001ZM103.656 7.72361L103.173 5.75229L102.643 7.72361H103.656ZM109.425 2.42555V5.51427H110.943V2.42555H112.967V10.5489H110.943V7.55828H109.425V10.5507H107.38V2.42919H109.425V2.42555ZM116.437 2.42555V5.37074L117.841 2.42737H119.932L118.138 6.20287L120 10.5489H117.909L116.438 7.05682V10.5489H114.414V2.42737H116.438L116.437 2.42555ZM6.73562 0C10.1602 0.127183 12.8962 2.9688 12.9178 6.45179C12.9255 8.17605 12.2552 9.83316 11.0537 11.0604C9.85212 12.2876 8.21718 12.985 6.50672 12.9999C4.79496 13.0105 3.14884 12.3366 1.92917 11.1259C0.709499 9.91512 0.015779 8.2663 6.77725e-05 6.54082C-0.00754889 4.86271 0.627098 3.24627 1.77192 2.02794C2.91674 0.809607 4.48355 0.0832341 6.14624 0L6.15345 1.84778C4.97357 1.9264 3.86786 2.45568 3.06173 3.32771C2.2556 4.19974 1.80975 5.34887 1.81508 6.54082C1.82026 7.23593 1.97962 7.92107 2.28151 8.54605C2.5834 9.17103 3.02016 9.72002 3.5598 10.1528L5.31173 5.50155L4.09511 5.51064C4.09511 5.51064 3.85539 5.46158 3.71841 5.57605L3.43003 5.85585C3.43003 5.85585 3.4066 5.08912 3.44084 5.00918C3.47509 4.91106 3.57242 4.14252 3.91127 3.75007C4.25372 3.37215 4.79985 3.31946 4.79985 3.31946L8.69302 3.29221L8.13068 3.8827L9.48247 10.0383C9.99059 9.59778 10.3976 9.05109 10.6752 8.43617C10.9528 7.82125 11.0944 7.15282 11.0902 6.47723C11.0794 5.29054 10.6218 4.1523 9.81003 3.29283C8.99824 2.43336 7.89287 1.91683 6.7176 1.84778L6.73562 0ZM5.24865 3.83546C5.3658 3.83546 5.46493 3.92631 5.46493 4.03895C5.46493 4.14979 5.36941 4.24245 5.25225 4.24245C5.13329 4.24426 5.03596 4.15342 5.03596 4.04259C5.03596 3.92812 5.12969 3.83728 5.24865 3.83546Z" fill="#004785"/>
</svg>
