<svg width="101" height="27" viewBox="0 0 101 27" fill="none" xmlns="http://www.w3.org/2000/svg">
<path d="M15.8856 2.98206V6.21102H5.13589V11.2114H11.1297L12.7847 11.3114L14.3402 11.6243L15.7851 12.3591L16.4081 12.8709L17.1316 13.6057L17.7526 14.6523L18.1646 15.9999L18.3655 17.6694L18.1646 19.2289L17.8531 20.4885L17.2301 21.5231L16.5086 22.2579L15.7851 22.8817L14.2296 23.6065L12.5837 23.9184L11.0282 24.0283H1V2.98206H15.8876H15.8856ZM5.13589 20.7994H10.7177L11.7507 20.5874L12.7857 20.2775L13.5062 19.6527L13.8176 19.0299L14.0287 18.1942L14.1291 17.5714L14.0287 16.8366L13.8176 16.1119L13.5062 15.3771L12.7847 14.8543L11.7497 14.4414L10.7167 14.3314H5.13589V20.7994Z" fill="#30445A"/>
<path d="M15.8856 2.98206V6.21102H5.13589V11.2114H11.1297L12.7847 11.3114L14.3402 11.6243L15.7851 12.3591L16.4081 12.8709L17.1316 13.6057L17.7526 14.6523L18.1646 15.9999L18.3655 17.6694L18.1646 19.2289L17.8531 20.4885L17.2301 21.5231L16.5086 22.2579L15.7851 22.8817L14.2296 23.6065L12.5837 23.9184L11.0282 24.0283H1V2.98206H15.8876H15.8856ZM5.13589 20.7994H10.7177L11.7507 20.5874L12.7857 20.2775L13.5062 19.6527L13.8176 19.0299L14.0287 18.1942L14.1291 17.5714L14.0287 16.8366L13.8176 16.1119L13.5062 15.3771L12.7847 14.8543L11.7497 14.4414L10.7167 14.3314H5.13589V20.7994Z" fill="#30445A" stroke="#30445A" stroke-width="0.189" stroke-linejoin="round"/>
<path d="M31.5027 2.98206V10.6896H34.2941L39.672 2.98206H44.4299L37.9185 12.8709L44.5324 24.0273H39.5735L34.2941 14.8533H31.5027V24.0283H27.3678V2.98206" fill="#30445A"/>
<path d="M31.5027 2.98206V10.6896H34.2941L39.672 2.98206H44.4299L37.9185 12.8709L44.5324 24.0273H39.5735L34.2941 14.8533H31.5027V24.0283H27.3678V2.98206H31.5027Z" fill="#30445A" stroke="#30445A" stroke-width="0.189" stroke-linejoin="round"/>
<path d="M68.5208 17.982L67.4859 19.1296L66.2519 19.9634L64.9075 20.4872L63.2515 20.6891L61.3925 20.4892L59.7396 19.7534L58.4956 18.6068L57.4606 17.1473L56.8376 15.3758L56.6367 13.5064L56.8376 11.5231L57.4606 9.85359L58.4956 8.39406L59.7416 7.24743L61.3936 6.52266L63.2525 6.21076L64.9085 6.4107L66.2529 6.93553L67.4869 7.87123L68.5218 8.9179L73.5912 9.64266L72.5562 7.67029L71.2098 5.89886L69.5548 4.43933L67.6999 3.39366L65.5295 2.6599L63.2525 2.45996L60.7726 2.6599L58.3911 3.49463L56.3252 4.8542L54.6722 6.52366L53.4262 8.605L52.6043 10.8993L52.2908 13.5054L52.6023 15.9996L53.4262 18.2939L54.6722 20.3762L56.3242 22.1457L58.3911 23.3953L60.7706 24.229L63.2505 24.5419L65.5274 24.229L67.6979 23.6052L69.5528 22.4586L71.2088 20.999L72.5532 19.2296L73.5882 17.2472" fill="#30445A"/>
<path d="M68.5208 17.982L67.4859 19.1296L66.2519 19.9634L64.9075 20.4872L63.2515 20.6891L61.3925 20.4892L59.7396 19.7534L58.4956 18.6068L57.4606 17.1473L56.8376 15.3758L56.6367 13.5064L56.8376 11.5231L57.4606 9.85359L58.4956 8.39406L59.7416 7.24743L61.3936 6.52266L63.2525 6.21076L64.9085 6.4107L66.2529 6.93553L67.4869 7.87123L68.5218 8.9179L73.5912 9.64266L72.5562 7.67029L71.2098 5.89886L69.5548 4.43933L67.6999 3.39366L65.5295 2.6599L63.2525 2.45996L60.7726 2.6599L58.3911 3.49463L56.3252 4.8542L54.6722 6.52366L53.4262 8.605L52.6043 10.8993L52.2908 13.5054L52.6023 15.9996L53.4262 18.2939L54.6722 20.3762L56.3242 22.1457L58.3911 23.3953L60.7706 24.229L63.2505 24.5419L65.5274 24.229L67.6979 23.6052L69.5528 22.4586L71.2088 20.999L72.5532 19.2296L73.5882 17.2472L68.5208 17.982Z" fill="#30445A" stroke="#30445A" stroke-width="0.189" stroke-linejoin="round"/>
<path d="M21.8865 26H22.61V1H21.8865" fill="#9CA4AD"/>
<path d="M21.8865 26H22.61V1H21.8865V26Z" fill="#9CA4AD" stroke="#9CA4AD" stroke-width="0.189" stroke-linejoin="round"/>
<path d="M49.0792 26H49.7022V1H49.0792" fill="#9CA4AD"/>
<path d="M49.0792 26H49.7022V1H49.0792V26Z" fill="#9CA4AD" stroke="#9CA4AD" stroke-width="0.189" stroke-linejoin="round"/>
<path d="M76.1807 26H76.8037V1H76.1807" fill="#9CA4AD"/>
<path d="M76.1807 26H76.8037V1H76.1807V26Z" fill="#9CA4AD" stroke="#9CA4AD" stroke-width="0.189" stroke-linejoin="round"/>
<path d="M88.0749 22.6696L88.1733 22.8816V23.0815H88.2758L88.4848 23.1935H88.6858L88.8968 23.2934H89.4173V23.1935L89.8293 22.2578L90.5528 21.3121L91.5847 20.4863L92.7202 19.7526L94.0637 19.2297L95.4101 18.8169L96.6541 18.6069H97.6891L98.5131 18.9168L98.923 19.5416L99.6566 18.394L100.267 17.2474L100.692 15.8978L100.79 15.7878V15.6879L100.378 15.165L99.6545 14.8531L98.5121 14.7532H97.1686L95.7216 14.9631L94.1742 15.377L92.6207 15.8968L91.1738 16.6226L89.8293 17.4583L88.7943 18.504L88.1733 19.7516L87.8618 21.1111L88.0728 22.6686L88.0749 22.6696ZM100.999 12.3589L100.579 10.2756L99.757 8.29423L98.8206 7.4595L97.5846 6.8337L96.1306 6.5218L94.5852 6.41184L92.9272 6.62177L91.2712 7.03463L89.6193 7.66943L88.0718 8.60513L86.7284 9.75177L85.5829 11.0993L84.7609 12.6708L84.1399 14.5402L84.0364 16.5236L84.3499 18.8169L85.1719 21.2111L85.2754 21.523L85.3819 21.7329L85.5829 21.8349L85.6934 21.7329H85.7919L86.0059 21.623L86.1064 21.523L86.2089 21.423V21.3111L86.1054 19.1278L86.4169 17.2464L87.1404 15.5869L88.1733 14.1274L89.4193 12.9807L90.9638 12.146L92.5182 11.4112L94.1762 10.9994L95.7206 10.8994H97.2741L98.7211 11.0993L99.955 11.6242L101 12.3579L100.999 12.3589ZM96.4451 4.75137V4.85333H96.6541L96.7566 4.9533H96.9676L97.0651 5.06327V4.9533L96.7566 4.6414L96.4451 4.44147L93.8627 3.29383L91.4863 2.66003H89.2083L87.0379 3.18287L85.1709 4.0196L83.4154 5.2672L81.9685 6.8367L80.826 8.60613L80.002 10.4775L79.4896 12.5609L79.379 14.6542L79.6905 16.7365L80.414 18.7089L81.66 20.5883L83.314 22.2598L83.6255 22.4597L83.8264 22.6716L83.937 22.7716H84.0374V22.8836H84.1399L84.2384 22.9835H84.4494L84.5499 23.0835L84.7609 23.1955H84.8594L85.0724 23.2954H85.2744V22.8826L85.1709 22.6706L84.9699 22.2588L84.7609 21.8359L83.6255 19.6526L82.7914 17.3583L82.5945 15.0661V12.7718L83.1039 10.6895L83.8274 8.7061L84.9699 7.03664L86.3144 5.5771L87.9623 4.54143L89.8293 3.80667L91.7948 3.60673L94.0637 3.91663L96.4451 4.75237V4.75137Z" fill="#9CA4AD"/>
<path d="M99.758 8.29435L99.343 8.81718L98.6236 9.01711H97.6891L96.5436 8.70721L95.4081 8.29435L94.0647 7.66955L92.9312 7.03475L91.6882 6.21101L90.7638 5.47625L89.9298 4.64151L89.4193 3.91775L89.3088 3.70781H89.2103V3.60585L89.1058 3.70581L88.9953 3.80578V5.26631L89.4173 6.52291L90.3387 7.87248L91.4862 9.12908L92.9302 10.3757L94.4746 11.4113L96.2431 12.2471L97.886 12.7689L99.544 12.8689L100.999 12.559V12.2471L100.579 10.1637L99.757 8.29235L99.758 8.29435ZM86.5143 4.95541V4.32961H86.4169L86.3144 4.43958L86.1054 4.64151L85.8943 4.85345L84.9699 6.62288L84.6614 8.49528L84.8594 10.4776L85.4844 12.357L86.5153 14.1295L87.9623 15.7889L89.6203 17.3584L91.3757 18.5061L93.3402 19.4418L95.3096 19.9646H97.2741L99.133 19.5427L100.168 17.7713L100.791 15.689L99.6555 16.2128L98.3111 16.4227L96.6531 16.2128L94.9971 15.689L93.3392 14.9652L91.6862 13.9185L90.1418 12.7709L88.7923 11.4113L87.6488 9.85185L86.8268 8.29435L86.4148 6.62488L86.5133 4.95541H86.5143ZM85.1719 3.80578L85.2754 3.70581L85.4864 3.49588L85.5839 3.39391L85.6944 3.29395H85.4844L85.3809 3.39391L85.0714 3.49388L84.8584 3.60585L83.0034 4.95541L81.659 6.52291L80.7265 8.39431L80.1015 10.4776L79.9005 12.56L80.1015 14.7543L80.7265 16.9366L81.659 18.9189L83.0034 20.8013L84.6614 22.3608L86.7284 23.6074L89.1058 24.4432V24.5431H90.0302L91.7947 24.3432L93.5532 23.9193L94.3771 23.6074L95.2112 23.1956L96.0331 22.6717L96.2441 22.5718L96.3416 22.4618L94.3761 22.8837L92.5192 22.7737L90.5538 22.2599L88.7953 21.3142L87.1413 20.1675L85.5839 18.708L84.3509 17.0485L83.3159 15.2771L82.5945 13.3957L82.283 11.4133V9.33001L82.695 7.45861L83.6264 5.57721L85.1739 3.80778L85.1719 3.80578Z" fill="#30445A"/>
</svg>
