<svg width="92" height="33" viewBox="0 0 92 33" fill="none" xmlns="http://www.w3.org/2000/svg">
<path d="M26.6572 4.396H4.74541L6.32392 0H28.2357L26.6572 4.396ZM25.8679 6.594H3.94629L2.36777 10.99H24.2795L25.8679 6.594ZM23.5001 13.168H1.57851L0 17.564H21.892L23.5001 13.168Z" fill="#009FDF"/>
<path d="M78.8666 28.5639H82.8128C83.3737 28.6317 83.9425 28.5588 84.469 28.3514C84.9954 28.1441 85.4635 27.8088 85.8317 27.375C86.3731 26.6576 86.6458 25.7691 86.6013 24.8673C86.6383 24.2935 86.5342 23.7193 86.2984 23.1962C86.0625 22.6731 85.7022 22.2175 85.2497 21.87C84.5171 21.3846 83.646 21.1597 82.7734 21.2306H78.8666V28.5639ZM73.687 32.9899V6.59393H90.6462L89.1565 11.0199H78.8666V16.8646H83.0595C86.4434 16.8646 88.1995 17.6838 89.413 18.7329C90.2806 19.5109 90.9629 20.4777 91.4089 21.5609C91.8548 22.6441 92.0528 23.8155 91.988 24.9872C92.0546 26.2489 91.8088 27.5076 91.273 28.6487C90.7371 29.7898 89.9282 30.7772 88.9197 31.5212C87.2919 32.6602 85.5851 32.9799 82.1124 32.9799L73.687 32.9899ZM58.6714 32.9899V11.0099H51.134V6.59393H72.0592L70.5695 11.0199H63.9003V32.9999L58.6714 32.9899ZM37.7857 17.1643H40.7454C41.3507 17.2062 41.9589 17.1591 42.5508 17.0244C43.1665 16.8253 43.6971 16.4202 44.0556 15.8756C44.4141 15.331 44.5792 14.6793 44.524 14.0272C44.6061 13.3792 44.4506 12.7232 44.0869 12.1837C43.7232 11.6441 43.1766 11.2584 42.5508 11.0998C41.9045 10.9479 41.2405 10.8873 40.5777 10.92H37.7857V17.1643ZM37.7857 21.7301V28.6538H41.3966C42.3917 28.769 43.3922 28.4898 44.1886 27.8745C44.5556 27.5302 44.8431 27.1081 45.0306 26.6384C45.2182 26.1687 45.3012 25.6629 45.2738 25.157C45.2895 24.3487 45.0473 23.5569 44.5832 22.8991C43.8137 21.9 42.8665 21.7102 41.2486 21.7102L37.7857 21.7301ZM46.1321 18.9427V19.0326C47.0117 19.3755 47.8337 19.8541 48.5689 20.4513C49.3121 21.0759 49.8995 21.8691 50.2835 22.7665C50.6674 23.6639 50.8371 24.6404 50.7789 25.6166C50.7789 29.2233 48.8846 31.8309 45.7769 32.6102C44.5382 32.9169 43.2623 33.0414 41.9885 32.9799H32.6062V6.59393H40.9526C42.2782 6.54485 43.6046 6.6691 44.8989 6.96359C47.9178 7.78284 49.9008 9.89092 49.9008 13.2179C49.9255 14.0111 49.7903 14.8011 49.5037 15.5397C49.217 16.2783 48.7849 16.95 48.2335 17.514C47.648 18.1161 46.9505 18.5948 46.1814 18.9227L46.1321 18.9427Z" fill="#0A2973"/>
</svg>
