<svg width="120" height="26" viewBox="0 0 120 26" fill="none" xmlns="http://www.w3.org/2000/svg">
<path fill-rule="evenodd" clip-rule="evenodd" d="M79.376 26H90.4479L83.4465 8.2019L79.376 26Z" fill="#D3D5D6"/>
<path fill-rule="evenodd" clip-rule="evenodd" d="M80.2715 0L83.4465 8.20189L90.4479 26L94.5184 8.20189L91.3434 0H80.2715Z" fill="#ADAFB2"/>
<path fill-rule="evenodd" clip-rule="evenodd" d="M92.0762 26L96.2281 8.2019L103.148 26H92.0762Z" fill="#75BEE9"/>
<path fill-rule="evenodd" clip-rule="evenodd" d="M107.218 8.20189L103.148 26L96.2279 8.20189L92.9714 0H104.043L107.218 8.20189Z" fill="#0072BC"/>
<path fill-rule="evenodd" clip-rule="evenodd" d="M104.858 26L108.928 8.2019L115.93 26H104.858Z" fill="#F37164"/>
<path fill-rule="evenodd" clip-rule="evenodd" d="M120 8.20189L115.929 26L108.928 8.20189L105.753 0H116.743L120 8.20189Z" fill="#ED1B35"/>
<path fill-rule="evenodd" clip-rule="evenodd" d="M9.76934 15.5836V8.69401L6.5943 15.5836H5.53596L2.44233 8.69401V15.5836H0V5.74133H3.33786L6.10583 11.6467L8.7924 5.74133H12.2117V15.5836H9.76934Z" fill="#4D4D4F"/>
<path fill-rule="evenodd" clip-rule="evenodd" d="M13.1072 10.6625C13.1072 7.54581 15.6309 5.3313 18.9688 5.3313C21.4111 5.3313 22.7951 6.56158 23.5278 7.87389L21.4925 8.77609C21.0041 7.9559 20.0271 7.29975 18.8874 7.29975C16.9335 7.29975 15.4681 8.69407 15.4681 10.6625C15.4681 12.631 16.9335 14.0253 18.8874 14.0253C20.0271 14.0253 21.0041 13.3692 21.4925 12.549L23.5278 13.4512C22.7137 14.7635 21.3297 15.9938 18.9688 15.9938C15.7123 15.9938 13.1072 13.8613 13.1072 10.6625Z" fill="#4D4D4F"/>
<path fill-rule="evenodd" clip-rule="evenodd" d="M32.3201 15.8298V7.46383H27.1912V15.8298H24.8303V5.57739H34.6811V15.8298H32.3201Z" fill="#4D4D4F"/>
<path fill-rule="evenodd" clip-rule="evenodd" d="M48.7653 5.57739V7.46383H43.0665V9.26824H45.9159C48.2768 9.26824 49.5794 10.7446 49.5794 12.549C49.5794 14.3534 48.2768 15.8298 45.9159 15.8298H40.7056V5.57739H48.7653ZM43.0665 11.2367V13.9433H45.5902C46.4858 13.9433 47.137 13.4512 47.137 12.631C47.137 11.8108 46.4858 11.3187 45.5902 11.3187H43.0665V11.2367Z" fill="#4D4D4F"/>
<path fill-rule="evenodd" clip-rule="evenodd" d="M55.7666 15.6656V14.9275C55.1967 15.5016 54.3012 15.9117 53.2428 15.9117C51.9403 15.9117 50.4749 15.0915 50.4749 13.4511C50.4749 11.7287 51.9403 11.0726 53.2428 11.0726C54.3012 11.0726 55.1967 11.4006 55.7666 11.9748V10.9905C55.7666 10.2524 55.0339 9.76026 54.0569 9.76026C53.2428 9.76026 52.4287 10.0883 51.7774 10.6625L50.9633 9.35017C51.9403 8.52998 53.1614 8.2019 54.464 8.2019C56.255 8.2019 57.9647 8.85806 57.9647 10.9905V15.8297H55.7666V15.6656ZM55.7666 13.8612V12.959C55.4409 12.5489 54.7896 12.3029 54.0569 12.3029C53.2428 12.3029 52.5915 12.7129 52.5915 13.4511C52.5915 14.1073 53.2428 14.5174 54.0569 14.5174C54.7082 14.5174 55.3595 14.2713 55.7666 13.8612Z" fill="#4D4D4F"/>
<path fill-rule="evenodd" clip-rule="evenodd" d="M59.593 15.8297V8.36597H61.6283V11.1546H64.9662V8.36597H67.0014V15.8297H64.9662V12.877H61.6283V15.8297H59.593Z" fill="#4D4D4F"/>
<path fill-rule="evenodd" clip-rule="evenodd" d="M74.084 15.8297L71.9673 12.959L71.0718 13.8612V15.8297H68.9551V8.36597H71.0718V11.6467L74.084 8.36597H76.6077L73.4327 11.7287L76.6891 15.8297H74.084Z" fill="#4D4D4F"/>
</svg>
