<svg width="122" height="19" viewBox="0 0 122 19" fill="none" xmlns="http://www.w3.org/2000/svg">
<path fill-rule="evenodd" clip-rule="evenodd" d="M26.8784 3.16775C26.8635 3.20714 26.8579 6.0604 26.866 9.5084L26.8807 15.7775L29.8001 15.7923L32.7194 15.8072L33.1461 15.6631C33.8317 15.4315 34.214 15.2073 34.6351 14.7895C35.1658 14.263 35.4085 13.8818 35.5871 13.2945C35.6697 13.0228 35.7614 12.7213 35.7908 12.6246C35.8595 12.3986 35.8597 11.772 35.7912 11.5449C35.762 11.4482 35.7061 11.2532 35.6671 11.1115C35.5241 10.5931 35.0933 9.83714 34.7362 9.478C34.4192 9.15905 33.6945 8.71919 33.2553 8.57909C32.7522 8.41861 32.4932 8.39789 30.6084 8.36743L28.588 8.33474L28.5729 6.56537C28.5594 4.97966 28.5677 4.785 28.6529 4.69036C28.7424 4.59092 28.8862 4.58473 31.104 4.58473H33.46L33.6581 4.44933C33.9188 4.27116 34.5251 3.27578 34.4487 3.15149C34.3935 3.06154 26.9126 3.07763 26.8784 3.16775ZM69.1069 3.16775C69.092 3.20714 69.0864 6.0604 69.0944 9.5084L69.1091 15.7775H69.8144H70.5196L70.6396 15.6159C70.7565 15.4585 70.7603 15.3869 70.788 12.8392L70.8165 10.2241L71.6295 10.2081C72.6769 10.1877 73.0166 10.2887 73.4344 10.745C73.5993 10.925 73.6976 11.0815 74.1857 11.9416C74.7698 12.9707 74.8943 13.1882 75.2677 13.8309C75.4872 14.2088 75.8039 14.7546 75.9714 15.0439C76.3919 15.7702 76.4623 15.8061 77.4653 15.8061C77.8896 15.8061 78.2509 15.7831 78.2683 15.7548C78.2856 15.7266 78.1499 15.4497 77.9669 15.1394C77.7838 14.8291 77.5317 14.3949 77.4066 14.1744C77.2815 13.954 76.9995 13.4645 76.7799 13.0867C76.5603 12.7088 76.2684 12.1982 76.1311 11.9519C75.6268 11.0469 75.2204 10.4732 74.7449 9.99493C74.478 9.72642 74.2596 9.4827 74.2596 9.45333C74.2596 9.42396 74.5221 9.13157 74.843 8.80363C75.1638 8.47564 75.5058 8.06852 75.6029 7.89888C75.7 7.72924 75.8818 7.41012 76.0069 7.1897C76.132 6.96928 76.3372 6.60859 76.463 6.38817C76.5887 6.16775 76.8039 5.78617 76.9411 5.54027C77.0783 5.29431 77.3124 4.90042 77.4612 4.66494C77.6101 4.42941 77.8118 4.07674 77.9095 3.88116C78.0072 3.68559 78.1367 3.45492 78.1973 3.36853C78.258 3.28214 78.2916 3.18555 78.2721 3.15383C78.2512 3.11971 77.9225 3.09618 77.4678 3.09618C76.7036 3.09618 76.6973 3.09727 76.4464 3.27091C76.3013 3.37133 76.1424 3.54796 76.073 3.68599C76.0064 3.81819 75.7926 4.19685 75.5979 4.52748C75.2616 5.09834 75.0208 5.51691 74.5441 6.35954C73.5972 8.03348 73.3895 8.31104 72.8948 8.56323C72.6176 8.70453 72.5752 8.70922 71.7119 8.69399L70.8165 8.67825L70.8017 5.9913C70.7885 3.59124 70.7769 3.29318 70.6933 3.20026C70.612 3.10992 70.5029 3.09618 69.8668 3.09618C69.333 3.09618 69.1267 3.11559 69.1069 3.16775ZM39.8281 6.70306C39.7811 6.73357 39.6659 6.75934 39.572 6.76025C39.4781 6.76122 39.2868 6.80205 39.147 6.851C38.8405 6.95834 37.7472 7.52033 37.5602 7.66666L37.4265 7.77126L37.6279 8.1734C37.908 8.73298 38.0467 8.78875 38.5663 8.55064C39.6061 8.0743 39.6401 8.06583 40.6351 8.03668C41.3772 8.01499 41.427 8.02065 41.6964 8.158C41.9455 8.28499 42.3897 8.67001 42.6058 8.9463C42.8852 9.30361 43.0111 10.3639 42.7972 10.5587C42.705 10.6427 42.4875 10.6534 40.8839 10.6534C39.1691 10.6534 39.055 10.66 38.6973 10.78C37.8351 11.0691 37.1684 11.7811 36.9663 12.6286C36.8623 13.0647 36.8547 13.6596 36.9494 13.9403C37.2082 14.7073 37.5449 15.151 38.1418 15.5118C38.8507 15.9404 39.5685 16.0654 40.5395 15.9293C41.1977 15.8369 41.3618 15.7821 42.1231 15.3998L42.853 15.0332L42.9483 15.1537C43.0007 15.22 43.127 15.395 43.229 15.5425L43.4144 15.8108L43.8835 15.7941L44.3525 15.7775L44.3673 12.6091C44.3836 9.09344 44.4047 9.32239 43.9869 8.48651C43.7573 8.02707 43.4836 7.69558 43.1289 7.44739C43.0194 7.37073 42.8949 7.27392 42.8523 7.23229C42.7386 7.12111 42.2847 6.90602 41.9907 6.82403C41.8499 6.7847 41.656 6.72853 41.5598 6.69916C41.3294 6.6288 39.9375 6.63195 39.8281 6.70306ZM81.772 6.70489C81.6937 6.73065 81.4376 6.80995 81.2029 6.88111C80.7082 7.031 80.487 7.13285 79.8772 7.49176C79.5475 7.6859 79.4425 7.77602 79.468 7.8434C79.5462 8.05025 79.9311 8.59294 80.042 8.65272C80.1754 8.72457 80.4775 8.64247 80.9627 8.40241C81.1104 8.3293 81.3466 8.23735 81.4874 8.19808C81.6283 8.15875 81.8222 8.10258 81.9183 8.07321C82.0144 8.0439 82.3928 8.01985 82.7592 8.01985C83.4036 8.01985 83.4377 8.02615 83.808 8.21445C84.2608 8.44466 84.3694 8.53615 84.596 8.87863C84.847 9.25798 84.9112 9.52558 84.8912 10.1096L84.8737 10.6248L82.9102 10.6534C80.7647 10.6847 80.763 10.685 80.1631 11.0519C79.7427 11.309 79.7092 11.3387 79.5144 11.6267C79.2394 12.0333 79.0235 12.4917 78.9752 12.7718C78.9507 12.9135 78.9136 13.1156 78.8928 13.2211C78.872 13.3265 78.8838 13.5132 78.9191 13.6362C78.9544 13.759 79.0135 13.9691 79.0503 14.1029C79.1561 14.4868 79.2445 14.6307 79.5947 14.9889C79.9758 15.3786 80.39 15.6775 80.7163 15.7982C80.9555 15.8866 81.5966 15.9835 81.9427 15.9835C82.6461 15.9835 83.7777 15.6707 84.3681 15.313C84.7851 15.0604 84.9125 15.064 85.1121 15.3338C85.4189 15.7487 85.5184 15.806 85.9319 15.8061C86.5457 15.8062 86.501 16.0628 86.4774 12.6802C86.4581 9.92657 86.4353 9.4985 86.2823 9.02176C85.9772 8.07132 85.001 7.11796 84.0542 6.84567C83.8788 6.79529 83.6568 6.72968 83.5606 6.69991C83.3505 6.63487 81.9729 6.63865 81.772 6.70489ZM90.5933 6.70134C90.5463 6.73283 90.4356 6.75893 90.3472 6.75945C89.9641 6.76151 88.5692 7.35979 88.3199 7.62899C88.1633 7.798 88.1714 7.86688 88.3849 8.1813C88.6903 8.63108 88.8121 8.67424 89.2401 8.4844C89.374 8.42503 89.586 8.33113 89.7112 8.27571C89.9907 8.15205 90.2734 8.0834 90.7925 8.01321C91.498 7.91772 91.7453 7.95287 92.228 8.21714C92.4615 8.34504 92.5544 8.44254 92.6946 8.70728C92.9448 9.17932 92.9152 9.48785 92.5698 10.0097C92.2882 10.4351 92.0773 10.5058 90.9917 10.5389L90.0526 10.5676L90.0361 10.9725C90.0209 11.3463 90.0313 11.3893 90.1719 11.5307C90.3187 11.6784 90.3474 11.684 90.9567 11.6848C91.6279 11.6857 91.8807 11.744 92.3674 12.01C92.7463 12.2171 92.9836 12.67 92.9836 13.186C92.9836 13.5191 92.9614 13.59 92.7589 13.9052C92.3269 14.5777 91.5345 14.7919 90.3372 14.5599C89.9707 14.4889 89.0727 14.1856 88.7717 14.0311C88.6432 13.9651 88.4946 13.9251 88.4416 13.9421C88.2997 13.9875 87.8615 14.7128 87.8615 14.9022C87.8615 15.0728 87.835 15.0551 88.516 15.3397C88.7569 15.4405 89.398 15.6525 90.1136 15.868C90.4118 15.9578 92.122 15.9317 92.4036 15.833C92.9166 15.6533 93.3339 15.3944 93.6932 15.0328C94.2613 14.4613 94.4616 13.9914 94.4616 13.2298C94.4616 12.9384 94.4261 12.6397 94.3732 12.4855C94.2504 12.1277 93.9002 11.5978 93.713 11.4865C93.5277 11.3764 93.382 11.2368 93.382 11.1693C93.382 11.1426 93.4804 11.0177 93.6007 10.8918C93.9038 10.5744 94.1845 10.1188 94.2525 9.83388C94.3256 9.52787 94.326 8.91642 94.2534 8.621C94.1606 8.24314 93.8534 7.69558 93.5797 7.4202C93.306 7.14498 92.7619 6.83588 92.386 6.74227C92.0651 6.66241 90.6981 6.63121 90.5933 6.70134ZM98.5894 6.71405C98.2287 6.8325 98.0656 6.87481 97.9692 6.87481C97.8566 6.87481 96.6127 7.50516 96.4067 7.66661L96.2728 7.77155L96.4223 8.06829C96.5816 8.38466 96.8763 8.70688 97.0062 8.70688C97.0495 8.70688 97.2105 8.64293 97.3637 8.56478C97.5171 8.48663 97.9118 8.33205 98.2409 8.22127C98.7848 8.03823 98.8981 8.01985 99.4835 8.01985C100.131 8.01985 100.578 8.1189 100.826 8.3171C100.947 8.41392 101.356 8.82579 101.452 8.94739C101.731 9.30006 101.858 10.3639 101.644 10.5587C101.552 10.6427 101.333 10.6536 99.7231 10.6543C98.2563 10.6549 97.8592 10.6717 97.6612 10.741C97.211 10.8988 96.7386 11.1698 96.5246 11.393C96.2874 11.6407 95.9659 12.1528 95.8893 12.4051C95.8615 12.4966 95.811 12.6634 95.777 12.7758C95.7431 12.8883 95.7153 13.1183 95.7153 13.287C95.7153 13.4558 95.7431 13.6858 95.777 13.7982C95.811 13.9107 95.8615 14.0775 95.8893 14.1689C95.9634 14.413 96.2863 14.9343 96.4911 15.1403C96.7058 15.3564 97.2164 15.6712 97.5497 15.7931C98.2504 16.0496 99.325 16.0376 100.126 15.7645C100.314 15.7005 100.745 15.5098 101.084 15.3407L101.7 15.0332L101.795 15.1537C101.847 15.22 101.974 15.395 102.076 15.5425L102.261 15.8108L102.73 15.7941L103.199 15.7775L103.214 12.5271C103.228 9.3698 103.225 9.27024 103.114 9.0513C103.051 8.92735 103 8.8018 103 8.77226C103 8.67172 102.536 7.95035 102.355 7.76915C102.256 7.66981 102.085 7.52542 101.976 7.44825C101.866 7.37113 101.742 7.27392 101.699 7.23229C101.585 7.12111 101.131 6.90602 100.837 6.82403C100.697 6.7847 100.503 6.72853 100.407 6.69916C100.18 6.63 98.8112 6.64122 98.5894 6.71405ZM46.1152 6.8301C46.0999 6.87046 46.094 8.9001 46.1021 11.3405L46.1168 15.7775L46.6905 15.7937C47.2462 15.8094 47.269 15.8051 47.4162 15.6571L47.5681 15.5042V13.7461C47.5681 12.111 47.5754 11.9813 47.6729 11.8925C47.7675 11.8064 47.992 11.7986 49.992 11.8121L52.2064 11.8271L52.2348 13.8023L52.2633 15.7775L52.9397 15.7937C53.5096 15.8073 53.6327 15.7947 53.7222 15.7133C53.824 15.6206 53.8283 15.4394 53.8283 11.2832C53.8283 6.24716 53.9051 6.76031 53.1523 6.76031C52.6603 6.76031 52.4036 6.84281 52.3128 7.03014C52.2856 7.08642 52.2505 7.91823 52.2348 8.87863L52.2064 10.6248L49.992 10.6398C47.9985 10.6533 47.7673 10.6454 47.6737 10.5601C47.5776 10.4726 47.5685 10.324 47.5546 8.62712L47.5396 6.78893L46.8413 6.77285C46.3143 6.76071 46.1362 6.77474 46.1152 6.8301ZM55.448 6.83187C55.4331 6.87126 55.4275 8.9001 55.4356 11.3405L55.4503 15.7775L56.0041 15.7939C56.42 15.8062 56.6006 15.788 56.7297 15.7208L56.9016 15.6314V13.8097C56.9016 12.1175 56.909 11.9812 57.0057 11.8932C57.0903 11.8161 57.2359 11.7987 57.7882 11.7993C58.469 11.8002 58.8198 11.869 58.9774 12.0326C59.0815 12.1406 59.6062 13.0082 59.8053 13.4015C59.945 13.6777 60.2006 14.1214 60.888 15.2813C61.1641 15.7472 61.2983 15.8057 62.0914 15.8059C62.4573 15.806 62.7719 15.7815 62.7903 15.7514C62.8322 15.6833 62.3094 14.6269 62.024 14.2031C61.9074 14.0299 61.7548 13.7722 61.6848 13.6305C61.3237 12.8994 60.8281 12.1562 60.4159 11.7278C60.1733 11.4758 59.9748 11.2481 59.9748 11.222C59.9748 11.1959 60.0706 11.1024 60.1878 11.0142C60.4684 10.803 60.6026 10.667 60.7701 10.4244C60.8461 10.3142 60.9254 10.2112 60.9463 10.1954C60.981 10.1692 61.2003 9.80171 62.3127 7.90535C63.0048 6.7255 63.0117 6.76031 62.0868 6.76031H61.4066L61.1602 7.01027C61.0247 7.14779 60.8343 7.39895 60.7372 7.56848C60.64 7.738 60.3813 8.18588 60.1623 8.56375C59.0502 10.4818 59.1446 10.3419 58.8306 10.5345C58.6602 10.639 58.5457 10.653 57.8618 10.6532C57.2097 10.6534 57.0738 10.6384 57.0081 10.5588C56.9462 10.4837 56.9276 10.0931 56.9185 8.66835C56.9121 7.68069 56.8914 6.84733 56.8724 6.81642C56.8188 6.72916 55.4815 6.74365 55.448 6.83187ZM104.962 6.8301C104.947 6.87046 104.941 8.9001 104.949 11.3405L104.963 15.7775L105.537 15.7937C106.093 15.8094 106.116 15.8051 106.263 15.6571L106.415 15.5042V13.7461C106.415 12.111 106.422 11.9813 106.52 11.8925C106.614 11.8064 106.839 11.7986 108.839 11.8121L111.053 11.8271L111.068 13.7128C111.081 15.3669 111.095 15.6112 111.176 15.7023C111.256 15.7902 111.363 15.8061 111.878 15.8061C112.395 15.8061 112.501 15.7904 112.581 15.7014C112.667 15.606 112.675 15.216 112.675 11.2733C112.675 6.28254 112.739 6.75974 112.073 6.76117C111.624 6.76214 111.266 6.86708 111.173 7.0247C111.132 7.09443 111.1 7.74871 111.081 8.87863L111.053 10.6248L108.839 10.6398C106.845 10.6533 106.614 10.6454 106.52 10.5601C106.424 10.4726 106.415 10.324 106.401 8.62712L106.386 6.78893L105.688 6.77285C105.161 6.76071 104.983 6.77474 104.962 6.8301ZM114.295 6.83187C114.28 6.87126 114.274 8.9001 114.282 11.3405L114.297 15.7775L115.154 15.7932C115.966 15.8082 116.022 15.8021 116.201 15.6787C116.378 15.5576 116.657 15.1257 117.364 13.8784C117.596 13.4712 118.248 12.3424 118.566 11.7985C118.668 11.6253 118.808 11.3677 118.879 11.226C118.949 11.0843 119.167 10.6978 119.362 10.3672C119.558 10.0366 119.84 9.55232 119.991 9.29108C120.296 8.75909 120.329 8.72571 120.446 8.8231C120.516 8.88155 120.53 9.41148 120.543 12.3347L120.557 15.7775H121.269H121.98L121.995 11.374C122.008 7.33752 122.001 6.96172 121.915 6.86542C121.833 6.77399 121.727 6.76031 121.103 6.76054C120.479 6.76071 120.362 6.776 120.193 6.87922C120.087 6.94437 119.971 7.02802 119.935 7.06506C119.802 7.20126 119.515 7.65773 119.333 8.01985C119.231 8.22453 119.052 8.53369 118.935 8.70688C118.819 8.88006 118.653 9.16346 118.566 9.33665C118.48 9.50984 118.326 9.79323 118.225 9.96642C117.88 10.5545 117.212 11.7111 117 12.0847C116.221 13.4624 115.992 13.8174 115.903 13.7875C115.865 13.7745 115.833 13.5461 115.822 13.1975C115.801 12.5605 115.797 8.27875 115.817 7.468C115.834 6.75235 115.843 6.76031 115 6.76031C114.51 6.76031 114.314 6.78017 114.295 6.83187ZM32.9289 10.161C33.3847 10.3927 33.4869 10.4796 33.7352 10.8463C34.2741 11.642 34.2741 12.5275 33.7352 13.3232C33.4929 13.681 33.3831 13.7773 32.9878 13.9789C32.3323 14.3131 32.3121 14.3159 30.4706 14.3167C28.9652 14.3175 28.7556 14.3066 28.6636 14.2228C28.5665 14.1344 28.5596 13.9916 28.5596 12.0854C28.5596 10.962 28.5766 10.0256 28.5975 10.0046C28.6183 9.9836 29.5154 9.96642 30.5908 9.96642H32.5462L32.9289 10.161ZM42.7972 11.8932C42.8875 11.9754 42.9013 12.083 42.9013 12.7013C42.9013 13.3139 42.8848 13.444 42.7848 13.623C42.6146 13.9277 41.7951 14.4297 41.1939 14.5974C41.0531 14.6367 40.8592 14.6929 40.7631 14.7222C40.2994 14.8638 39.3592 14.7306 39.0421 14.4783C38.7039 14.2093 38.5225 13.9442 38.4504 13.6139C38.3851 13.3145 38.3851 13.2596 38.4504 12.9602C38.5419 12.5409 38.8021 12.2276 39.2784 11.9634L39.572 11.8005L41.1325 11.7995C42.5058 11.7986 42.7056 11.8099 42.7972 11.8932ZM84.8895 12.6179C84.9038 13.3296 84.8936 13.4299 84.7873 13.6201C84.6003 13.9549 83.5489 14.5749 82.9956 14.6768C82.4727 14.7731 81.8145 14.789 81.5738 14.7114C80.7017 14.4299 80.2739 13.6279 80.5341 12.7624C80.6179 12.4838 80.9984 12.0759 81.2699 11.9736C81.3739 11.9343 81.5102 11.8805 81.5728 11.8538C81.6354 11.8271 82.4037 11.8102 83.2801 11.8162L84.8737 11.8271L84.8895 12.6179ZM101.644 11.8932C101.734 11.9754 101.748 12.083 101.748 12.7013C101.748 13.5662 101.682 13.7242 101.19 14.0401C100.408 14.5426 99.7341 14.7756 99.0623 14.7756C98.4215 14.7756 98.0346 14.6379 97.6675 14.2791C97.3808 13.9989 97.3093 13.8009 97.3093 13.287C97.3093 12.8919 97.332 12.763 97.43 12.6012C97.5893 12.3384 97.9046 12.0522 98.1264 11.9691C98.2245 11.9323 98.356 11.8807 98.4186 11.8542C98.4812 11.8279 99.2092 11.8045 100.036 11.8024C101.359 11.7989 101.552 11.8099 101.644 11.8932Z" fill="#5F0090"/>
<path fill-rule="evenodd" clip-rule="evenodd" d="M0.0379601 0.0392461C0.0170735 0.0602003 0 4.29433 0 9.44833C0 18.4602 0.00398381 18.8229 0.104262 18.9141C0.200614 19.0019 0.913603 19.008 9.48046 18.9946L18.7524 18.9801L18.7461 18.0927C18.7427 17.6046 18.7095 17.0636 18.6724 16.8904C18.6353 16.7172 18.5825 16.4338 18.555 16.2606C18.4613 15.6709 18.2368 14.9379 17.8711 14.0278C17.8015 13.8546 17.7071 13.611 17.6613 13.4864C17.6156 13.3618 17.4937 13.117 17.3904 12.9425C17.2871 12.768 16.9952 12.2723 16.7418 11.841C16.2644 11.0288 16.2111 10.9516 15.8784 10.5912C15.7688 10.4726 15.4615 10.1384 15.1954 9.84863C14.9294 9.55882 14.6524 9.26632 14.5799 9.19859C14.2267 8.86854 14.022 8.66563 13.954 8.57844C13.8553 8.45185 13.7929 8.57254 15.1299 6.30662C15.3224 5.98029 15.48 5.68401 15.48 5.64822C15.4801 5.61244 15.5467 5.50584 15.628 5.41137C15.7093 5.31691 15.8601 5.07215 15.9631 4.86748C16.0661 4.6628 16.284 4.27635 16.4474 4.0087C16.6109 3.74105 16.8157 3.38036 16.9028 3.20717C16.9898 3.03398 17.1947 2.6733 17.3581 2.40564C17.5215 2.13799 17.7327 1.76442 17.8274 1.57549C17.9222 1.38656 18.095 1.09028 18.2115 0.917091C18.4952 0.49543 18.6789 0.124036 18.6374 0.0563642C18.6167 0.0227 17.9025 0.00105859 16.8122 0.00105859H15.0209L14.7374 0.145563C14.3975 0.318865 14.202 0.516727 13.9664 0.925965C13.8694 1.09429 13.6231 1.51537 13.4188 1.86175C13.2146 2.20812 12.9766 2.63322 12.89 2.80641C12.8034 2.97959 12.6371 3.26299 12.5205 3.43618C12.4039 3.60937 12.2247 3.91853 12.1222 4.1232C12.0197 4.32788 11.8369 4.64208 11.716 4.82139C11.5951 5.0007 11.4962 5.17292 11.4962 5.20406C11.4962 5.23515 11.4227 5.38475 11.3329 5.53641C11.2432 5.68807 11.0371 6.03994 10.875 6.31836C10.7129 6.59683 10.5302 6.87863 10.4691 6.94464C10.4079 7.01065 10.3579 7.09928 10.3579 7.14164C10.3579 7.25328 10.1055 7.73477 9.95949 7.90183C9.89062 7.98056 9.75699 8.19954 9.66246 8.38848C9.56793 8.57741 9.34 8.98086 9.15595 9.28504C8.9719 9.58922 8.82131 9.86306 8.82131 9.89357C8.82131 9.92403 8.90457 9.97974 9.00627 10.0174C9.34114 10.141 10.4218 10.6767 10.5189 10.7672C10.5712 10.816 10.7805 10.9687 10.984 11.1065C11.1874 11.2443 11.3667 11.373 11.3823 11.3927C11.398 11.4123 11.5004 11.4913 11.61 11.5683C11.8677 11.7493 12.7936 12.6808 12.9736 12.94C13.0501 13.0502 13.1279 13.1533 13.1466 13.169C13.1653 13.1848 13.2421 13.2878 13.3173 13.398C13.3926 13.5082 13.4713 13.6113 13.4923 13.627C13.5751 13.6892 14.0003 14.3939 14.0003 14.4691C14.0003 14.5131 14.0643 14.6439 14.1425 14.7598C14.3168 15.0177 14.3191 15.079 14.1602 15.2279C14.0369 15.3435 13.9892 15.3446 9.13779 15.3432C6.44399 15.3425 4.14197 15.319 4.02223 15.2911C3.90249 15.2631 3.76886 15.1928 3.72527 15.1349C3.65879 15.0467 3.64565 14.1276 3.64417 9.4422C3.64246 4.12755 3.64736 3.85011 3.74507 3.7612C3.83579 3.67858 4.12598 3.66513 6.23496 3.64578C9.39703 3.61675 9.61056 3.60066 9.95072 3.3657C10.3332 3.10154 10.4577 2.96139 10.7059 2.51625C10.8275 2.29795 11.0247 1.94425 11.144 1.73024C11.2633 1.51623 11.4392 1.22637 11.5348 1.08616C11.7828 0.722491 12.0752 0.120773 12.0354 0.0560209C11.997 -0.00644103 0.09988 -0.0231013 0.0379601 0.0392461Z" fill="#95C22B"/>
</svg>
