<svg width="128" height="27" viewBox="0 0 128 27" fill="none" xmlns="http://www.w3.org/2000/svg">
<path fill-rule="evenodd" clip-rule="evenodd" d="M12.5277 0.0295838C12.511 0.0459632 12.3676 0.0668534 12.2092 0.0759708C11.8683 0.0956134 11.4776 0.141649 11.2331 0.191075C11.1363 0.210621 10.9779 0.239253 10.8811 0.254705C10.7843 0.270157 10.6474 0.297637 10.577 0.315776C10.3736 0.368177 10.203 0.410406 10.065 0.442525C9.84955 0.492687 9.13011 0.72315 8.6568 0.893599C8.08937 1.09796 6.99369 1.64353 6.43026 2.00222C6.3171 2.07426 6.14757 2.18098 6.05355 2.23937C5.95955 2.29778 5.86594 2.36199 5.84552 2.38208C5.82514 2.40217 5.71485 2.48151 5.60044 2.55841C5.48602 2.63529 5.38521 2.70717 5.37641 2.71815C5.36761 2.72912 5.31 2.77269 5.24839 2.81501C5.18679 2.85731 5.11478 2.91489 5.08838 2.94295C5.06197 2.971 4.98996 3.02881 4.92836 3.07139C4.86675 3.11397 4.76594 3.20016 4.70433 3.26286C4.64272 3.32556 4.54191 3.41232 4.4803 3.45564C4.33494 3.55785 3.55927 4.33321 3.45701 4.47852C3.41368 4.5401 3.32689 4.64087 3.26416 4.70246C3.20143 4.76404 3.11521 4.86481 3.07262 4.92639C3.03002 4.98798 2.97219 5.05996 2.94412 5.08635C2.91605 5.11274 2.85845 5.18472 2.81614 5.2463C2.7738 5.30789 2.73021 5.36547 2.71923 5.37427C2.70825 5.38307 2.63634 5.48384 2.55943 5.59821C2.4825 5.71257 2.40313 5.82282 2.38303 5.84319C2.36293 5.8636 2.2987 5.95718 2.24026 6.05114C2.18185 6.14513 2.07509 6.31458 2.00302 6.4277C1.64448 6.99043 1.09942 8.0841 0.893827 8.65335C0.716174 9.14525 0.532792 9.6882 0.507605 9.79703C0.479985 9.91633 0.443629 10.0636 0.385286 10.2929C0.283578 10.6924 0.247094 10.8633 0.188911 11.2126C0.135176 11.5353 0.0934112 11.9021 0.0760011 12.2044C0.06688 12.3627 0.0459815 12.5059 0.0295956 12.5227C-0.00992914 12.563 -0.00983313 14.4372 0.0296916 14.4773C0.0461736 14.494 0.066784 14.6517 0.0755211 14.8276C0.0975717 15.2722 0.20472 15.9831 0.31779 16.4352C0.336512 16.5099 0.366884 16.6323 0.385286 16.7071C0.403688 16.7819 0.432492 16.8971 0.449294 16.963C0.466096 17.029 0.492435 17.137 0.507861 17.203C0.544153 17.3583 0.841277 18.2454 0.912485 18.411C0.942665 18.4812 1.01035 18.6394 1.06294 18.7625C1.26251 19.2301 1.64761 19.991 1.88006 20.3769C2.11714 20.7705 2.48701 21.3383 2.52692 21.3698C2.53806 21.3786 2.58177 21.4362 2.62408 21.4978C2.66639 21.5594 2.7096 21.6169 2.72009 21.6257C2.73059 21.6345 2.7738 21.6921 2.81614 21.7537C2.85845 21.8153 2.91605 21.8873 2.94412 21.9137C2.97219 21.94 3.03002 22.012 3.07262 22.0736C3.11521 22.1352 3.20143 22.236 3.26416 22.2975C3.32689 22.3591 3.41368 22.4599 3.45701 22.5215C3.55927 22.6668 4.33494 23.4422 4.4803 23.5444C4.54191 23.5877 4.64272 23.6744 4.70433 23.7371C4.76594 23.7998 4.86675 23.886 4.92836 23.9286C4.98996 23.9712 5.06197 24.029 5.08838 24.0571C5.11478 24.0851 5.18679 24.1427 5.24839 24.185C5.31 24.2273 5.36761 24.2709 5.37641 24.2819C5.38521 24.2928 5.48602 24.3647 5.60044 24.4416C5.71485 24.5185 5.82514 24.5978 5.84552 24.6179C5.86594 24.638 5.95955 24.7022 6.05355 24.7606C6.14757 24.819 6.3171 24.9257 6.43026 24.9978C6.99369 25.3565 8.08937 25.902 8.6568 26.1064C9.10201 26.2667 9.84117 26.5047 10.049 26.5545C10.1106 26.5693 10.2186 26.5958 10.289 26.6134C10.3594 26.631 10.4818 26.6615 10.561 26.6813C10.6402 26.7011 10.7843 26.7298 10.8811 26.7453C10.9779 26.7607 11.1363 26.7894 11.2331 26.8089C11.4776 26.8584 11.8683 26.9044 12.2092 26.924C12.3676 26.9331 12.511 26.954 12.5277 26.9704C12.568 27.0099 14.4429 27.0098 14.4831 26.9703C14.4998 26.9538 14.6575 26.9332 14.8335 26.9245C15.1357 26.9095 15.3464 26.8846 15.7937 26.8109C16.1421 26.7534 16.2822 26.7235 16.6978 26.6178C16.8773 26.5721 17.0752 26.5237 17.2098 26.4926C17.3523 26.4596 18.2788 26.1428 18.53 26.0411C18.6268 26.0019 18.76 25.9498 18.8261 25.9253C18.9778 25.8691 20.0037 25.3489 20.3222 25.1667C20.5622 25.0294 21.3481 24.5135 21.3783 24.4734C21.3871 24.4617 21.4879 24.3894 21.6023 24.3129C21.7168 24.2362 21.832 24.1502 21.8584 24.1218C21.8848 24.0933 21.9568 24.0353 22.0184 23.9928C22.08 23.9503 22.1664 23.8785 22.2104 23.8331C22.2544 23.7878 22.3408 23.7153 22.4024 23.6721C22.5481 23.57 23.5794 22.5391 23.6815 22.3935C23.7247 22.3319 23.7972 22.2456 23.8426 22.2016C23.888 22.1576 23.9599 22.0712 24.0023 22.0096C24.0448 21.948 24.1026 21.8761 24.1307 21.8497C24.1587 21.8233 24.2163 21.7513 24.2586 21.6897C24.301 21.6281 24.3448 21.5705 24.3561 21.5618C24.3879 21.5369 24.9996 20.6143 25.1621 20.3461C25.3065 20.1076 25.8269 19.0628 26.0145 18.6346C26.0684 18.5114 26.1547 18.2883 26.2063 18.1387C26.2578 17.9891 26.3151 17.8236 26.3335 17.7708C26.4033 17.5709 26.5399 17.1263 26.5668 17.011C26.5823 16.9451 26.6102 16.8299 26.629 16.7551C26.6477 16.6803 26.6756 16.5543 26.691 16.4752C26.7064 16.396 26.7353 16.2664 26.7554 16.1873C26.814 15.9557 26.8975 15.4034 26.9513 14.8916C26.9698 14.7157 26.985 14.0894 26.985 13.5C26.985 12.35 26.9457 11.7928 26.8208 11.1726C26.7698 10.9196 26.7263 10.7019 26.693 10.5328C26.6765 10.4492 26.6483 10.3233 26.6304 10.2529C26.6125 10.1825 26.5847 10.0674 26.5686 9.99698C26.5345 9.84761 26.1557 8.73461 26.0515 8.4774C26.0123 8.38063 25.9601 8.24745 25.9356 8.18142C25.8793 8.02956 25.3587 7.00377 25.1767 6.6859C25.0427 6.45205 24.3969 5.47015 24.3561 5.43825C24.3448 5.42945 24.301 5.37187 24.2586 5.31029C24.2163 5.2487 24.1587 5.17672 24.1307 5.15033C24.1026 5.12394 24.0448 5.05196 24.0023 4.99038C23.9599 4.92879 23.888 4.84242 23.8426 4.79843C23.7972 4.75444 23.7248 4.66807 23.6815 4.60648C23.5797 4.46134 22.6124 3.49431 22.4665 3.39169C22.4048 3.34837 22.304 3.26158 22.2424 3.19888C22.1808 3.13617 22.08 3.05002 22.0184 3.00744C21.9568 2.96486 21.8992 2.92145 21.8904 2.91096C21.8816 2.90046 21.824 2.85727 21.7624 2.81498C21.7008 2.77269 21.6432 2.7295 21.6344 2.71901C21.6256 2.70852 21.5679 2.66533 21.5063 2.62304C21.4447 2.58074 21.3871 2.53704 21.3783 2.52591C21.3467 2.48599 20.7786 2.1162 20.3862 1.88014C19.99 1.64181 19.0579 1.1606 18.8262 1.07473C18.7601 1.05023 18.6268 0.998145 18.53 0.958988C18.3642 0.891935 17.4437 0.581014 17.0578 0.461687C16.961 0.431776 16.817 0.395658 16.7378 0.381486C16.6586 0.367282 16.5289 0.339481 16.4497 0.319679C15.9894 0.204607 15.282 0.0977248 14.8335 0.075491C14.6575 0.0667574 14.4998 0.0461552 14.4831 0.0296798C14.4429 -0.00982921 12.568 -0.00992519 12.5277 0.0295838ZM14.6095 0.50849C15.1966 0.563259 15.6021 0.618443 16.0177 0.700117C16.1667 0.729389 16.264 0.752294 16.5697 0.830064C16.6936 0.861576 16.8942 0.910554 17.0898 0.957069C17.2318 0.99082 17.9336 1.22525 18.0819 1.2885C18.1435 1.31476 18.2732 1.36822 18.37 1.40728C19.087 1.69667 19.8139 2.0607 20.3247 2.38611C20.4377 2.45815 20.6072 2.56488 20.7012 2.62326C20.7952 2.68168 20.8888 2.74588 20.9092 2.76597C20.9296 2.78606 21.0399 2.86546 21.1543 2.94244C21.2687 3.01941 21.3839 3.10569 21.4103 3.13416C21.4367 3.16263 21.5087 3.22053 21.5703 3.26286C21.632 3.30518 21.704 3.36277 21.7304 3.39082C21.7568 3.41888 21.8283 3.47675 21.8893 3.51943C22.1189 3.67992 23.3294 4.88996 23.4899 5.1194C23.5326 5.1804 23.5905 5.2519 23.6186 5.2783C23.6467 5.30469 23.7043 5.37667 23.7466 5.43825C23.7889 5.49983 23.8469 5.57181 23.8754 5.59821C23.9038 5.6246 23.9899 5.73977 24.0665 5.85413C24.1431 5.9685 24.2153 6.06927 24.2269 6.07807C24.2618 6.10469 24.5566 6.55835 24.705 6.81387C24.7817 6.94583 24.8987 7.14737 24.9651 7.26174C25.1133 7.51722 25.4419 8.21789 25.6626 8.74933C25.721 8.88989 25.9428 9.56267 26.1003 10.077C26.2519 10.5719 26.4182 11.4898 26.5032 12.3003C26.5462 12.7109 26.5462 14.274 26.5032 14.7317C26.4539 15.2548 26.4221 15.4652 26.3059 16.0353C26.2889 16.1189 26.2614 16.2556 26.2449 16.3392C26.2284 16.4228 26.1996 16.5524 26.1809 16.6271C26.1622 16.7019 26.1343 16.8171 26.1189 16.8831C26.0828 17.0379 25.7212 18.1178 25.6499 18.2837C25.6199 18.3535 25.5523 18.5114 25.4997 18.6346C25.339 19.0107 25.0925 19.5187 24.9602 19.7463C24.8912 19.865 24.7742 20.0666 24.7001 20.1941C24.5603 20.4348 24.1355 21.0859 24.0999 21.1139C24.0887 21.1227 24.0449 21.1803 24.0026 21.2418C23.9603 21.3034 23.9171 21.361 23.9066 21.3698C23.8961 21.3786 23.8528 21.4362 23.8103 21.4978C23.7678 21.5594 23.696 21.6457 23.6506 21.6897C23.6052 21.7337 23.5329 21.8201 23.49 21.8817C23.447 21.9432 23.3032 22.1016 23.1705 22.2336C23.0378 22.3655 22.894 22.5239 22.8509 22.5855C22.7537 22.7245 22.7336 22.7446 22.5945 22.8418C22.5329 22.8849 22.3744 23.0287 22.2424 23.1613C22.1104 23.2939 21.952 23.4375 21.8904 23.4803C21.8288 23.5231 21.7568 23.5811 21.7304 23.6092C21.704 23.6372 21.632 23.6948 21.5703 23.7371C21.5087 23.7795 21.4367 23.8374 21.4103 23.8658C21.3839 23.8943 21.2687 23.9806 21.1543 24.0576C21.0399 24.1345 20.9296 24.2139 20.9092 24.234C20.8888 24.2541 20.7952 24.3183 20.7012 24.3767C20.6072 24.4351 20.4377 24.5418 20.3247 24.6139C19.8362 24.9251 19.0484 25.3197 18.37 25.5929C18.2732 25.6318 18.1435 25.6852 18.0819 25.7115C17.9272 25.7775 17.2281 26.0101 17.0818 26.0444C17.0158 26.0599 16.9042 26.0869 16.8338 26.1045C16.7634 26.1221 16.6445 26.1515 16.5697 26.1699C16.495 26.1883 16.3761 26.218 16.3057 26.2359C15.5859 26.4189 14.5576 26.525 13.5054 26.525C12.5544 26.525 11.8737 26.462 11.0491 26.2979C10.9567 26.2795 10.8127 26.2509 10.729 26.2345C10.6454 26.218 10.5158 26.1892 10.441 26.1705C10.3662 26.1518 10.251 26.1237 10.185 26.1081C10.0352 26.0727 9.79255 25.9988 9.4409 25.8815C9.20259 25.802 9.05343 25.7479 8.50482 25.542C8.30911 25.4686 7.1083 24.8611 6.84859 24.7041C6.58164 24.5427 5.84946 24.0582 5.82446 24.0264C5.81566 24.0151 5.75806 23.9714 5.69645 23.9291C5.63484 23.8868 5.56283 23.8292 5.53643 23.8011C5.51003 23.7731 5.43802 23.7155 5.37641 23.6732C5.3148 23.6308 5.24279 23.5733 5.21639 23.5452C5.18999 23.5171 5.11798 23.4589 5.05637 23.4159C4.91117 23.3143 3.68795 22.0918 3.58528 21.9456C3.54205 21.8841 3.46956 21.7977 3.42418 21.7537C3.3788 21.7097 3.30695 21.6233 3.26448 21.5618C3.22198 21.5002 3.17864 21.4426 3.16815 21.4338C3.15765 21.425 3.11444 21.3674 3.07214 21.3058C3.02983 21.2442 2.98604 21.1867 2.97481 21.1779C2.94297 21.1529 2.45827 20.421 2.29684 20.1541C2.13804 19.8916 1.53041 18.6908 1.45914 18.4986C1.43466 18.4326 1.38265 18.2995 1.34354 18.2027C1.23031 17.9224 0.953386 17.0756 0.893699 16.8271C0.855582 16.6685 0.80556 16.4656 0.765428 16.3072C0.746481 16.2325 0.717678 16.0885 0.70142 15.9873C0.685162 15.8861 0.656935 15.7134 0.638724 15.6034C0.513941 14.8503 0.475185 14.3518 0.475185 13.5C0.475185 12.6515 0.513717 12.1535 0.637252 11.4046C0.687018 11.1029 0.778261 10.6443 0.831323 10.4289C0.850846 10.3497 0.878913 10.2345 0.893699 10.1729C0.928295 10.0288 1.00488 9.77864 1.11894 9.43713C1.1985 9.19893 1.25262 9.04982 1.45857 8.50143C1.53205 8.3058 2.1398 7.10546 2.29684 6.84586C2.45827 6.57902 2.94297 5.84713 2.97481 5.82214C2.98604 5.81335 3.02983 5.75576 3.07217 5.69418C3.11448 5.6326 3.17208 5.56062 3.20015 5.53422C3.22822 5.50783 3.28582 5.43585 3.32817 5.37427C3.37051 5.31269 3.42811 5.24071 3.45618 5.21431C3.48425 5.18792 3.54246 5.11594 3.58557 5.05436C3.68747 4.90867 4.91063 3.686 5.05637 3.58414C5.11798 3.54105 5.18999 3.48286 5.21639 3.4548C5.24279 3.42675 5.3148 3.36916 5.37641 3.32684C5.43802 3.28452 5.51003 3.22693 5.53643 3.19888C5.56283 3.17082 5.63484 3.11324 5.69645 3.07094C5.75806 3.02862 5.81566 2.98485 5.82446 2.97363C5.84946 2.9418 6.58164 2.45729 6.84859 2.29593C7.1083 2.13895 8.30911 1.53144 8.50482 1.45799C9.05343 1.25212 9.20259 1.19803 9.4409 1.1185C9.80167 0.998114 10.0371 0.926677 10.193 0.8904C10.2634 0.87402 10.3714 0.847532 10.433 0.831536C10.7271 0.755205 10.8471 0.728429 11.0171 0.70114C11.1183 0.684889 11.2911 0.656673 11.4011 0.63847C11.8405 0.565722 12.0654 0.539202 12.4227 0.517896C12.6282 0.505643 12.8075 0.484337 12.8212 0.470517C12.8535 0.43811 14.1505 0.465686 14.6095 0.50849ZM13.2053 3.54166C13.1916 3.55548 13.0122 3.57698 12.8068 3.58945C12.0872 3.63315 11.4988 3.72577 10.8171 3.90268C10.7555 3.91867 10.6474 3.94516 10.577 3.96154C10.2848 4.02959 10.0769 4.09968 9.27185 4.40155C8.99015 4.50715 8.08742 4.99175 8.04524 5.06002C8.00933 5.11808 8.12912 5.11959 8.24565 5.06252C8.31337 5.02934 8.59919 4.92863 8.88083 4.83867C9.65859 4.59033 9.73357 4.56816 9.88895 4.54033C9.96816 4.52612 10.0978 4.49832 10.177 4.47852C10.5302 4.39022 11.1004 4.29649 11.7612 4.21811C12.1325 4.17406 14.3615 4.17368 14.7375 4.2176C15.0394 4.25285 15.2958 4.293 15.5776 4.34908C15.67 4.36748 15.814 4.39605 15.8977 4.41252C16.3637 4.50446 16.9853 4.71333 17.3748 4.90889C17.5342 4.9889 17.6818 5.05436 17.7029 5.05436C17.7699 5.05436 18.2736 5.37184 18.388 5.48611C18.5176 5.61574 18.5369 5.71363 18.426 5.67943C18.3556 5.65771 18.2696 5.63548 17.9939 5.56769C17.9191 5.54929 17.7967 5.51893 17.7219 5.50022C17.6471 5.48153 17.5211 5.45364 17.4419 5.43825C17.3626 5.42286 17.233 5.39407 17.1538 5.37427C16.3124 5.16396 15.4538 5.08129 14.1135 5.08152C12.9807 5.08174 12.3094 5.12525 11.5932 5.2449C11.4832 5.26326 11.3103 5.29202 11.2091 5.30881C11.0382 5.33719 10.9627 5.35155 10.529 5.43825C10.441 5.45585 10.3006 5.48374 10.217 5.50022C10.1334 5.51672 10.0074 5.54484 9.93695 5.56276C9.86655 5.58064 9.74413 5.611 9.66492 5.6302C9.58571 5.64939 9.4633 5.6795 9.39289 5.69709C9.32248 5.71469 9.21447 5.74121 9.15286 5.75599C8.91219 5.81373 7.38695 6.30498 7.16862 6.39504C7.08942 6.42773 6.9454 6.48641 6.84859 6.52543C6.46624 6.67954 5.97431 6.93076 5.87663 7.02181C5.81998 7.07459 5.73841 7.16817 5.69539 7.22975C5.65235 7.29133 5.57893 7.38184 5.53221 7.43085C5.45012 7.517 5.39241 7.64525 5.43543 7.64599C5.44698 7.64618 5.58604 7.58258 5.74445 7.50465C6.12162 7.31913 6.61691 7.10786 6.9926 6.97229C7.40955 6.8218 8.20507 6.56597 8.39277 6.52204C8.5486 6.48557 8.75611 6.43452 8.89683 6.39798C8.95844 6.38199 9.07007 6.35387 9.14486 6.33547C9.21965 6.31708 9.3421 6.28672 9.41689 6.268C9.49169 6.24932 9.6213 6.22053 9.70493 6.20402C9.78855 6.18755 9.92895 6.15965 10.017 6.14205C10.4506 6.05536 10.5261 6.04099 10.697 6.01262C10.7983 5.99582 10.9711 5.96706 11.0811 5.9487C11.2715 5.9169 11.4215 5.89729 12.0812 5.81808C12.4458 5.77432 14.6319 5.77444 15.1856 5.81827C15.6339 5.85375 15.996 5.89563 16.3137 5.9487C16.4237 5.96706 16.5965 5.99582 16.6978 6.01262C16.9466 6.05392 17.1726 6.09887 17.3458 6.14151C17.425 6.16102 17.5403 6.18908 17.6019 6.20386C17.6635 6.21864 17.7931 6.25505 17.8899 6.28473C17.9867 6.31445 18.1667 6.36916 18.29 6.4063C18.5788 6.49341 18.6021 6.51209 18.5752 6.635C18.5528 6.73763 18.4044 6.97369 18.2911 7.08697C18.1638 7.21423 17.9219 7.36146 17.8816 7.33618C17.8598 7.32243 17.7591 7.30007 17.6579 7.28647C17.5566 7.27287 17.3839 7.24671 17.2738 7.22834C17.1638 7.20995 16.9622 7.18116 16.8258 7.16436C16.6893 7.14753 16.459 7.11887 16.3137 7.10063C14.4416 6.86572 12.3596 6.88943 10.697 7.16465C10.587 7.18285 10.4142 7.21107 10.313 7.22732C10.2118 7.24357 10.0642 7.27326 9.98496 7.29328C9.90575 7.31334 9.77614 7.34233 9.69693 7.35771C9.36165 7.42285 9.27825 7.44687 8.35277 7.74471C7.77686 7.93004 7.68677 7.96331 7.21663 8.16421C6.86724 8.31351 5.70515 8.8841 5.45642 9.02848C4.91466 9.34295 4.25442 9.7461 4.2124 9.78811C4.15252 9.84796 3.97765 10.4255 4.00969 10.4575C4.02995 10.4777 4.13757 10.4244 4.3166 10.3054C5.01899 9.83849 6.10341 9.2751 7.02461 8.8985C7.44181 8.72792 8.64717 8.32576 8.96884 8.24982C9.03486 8.23424 9.14288 8.20775 9.20887 8.19095C9.48215 8.12144 9.62498 8.08791 9.76893 8.0595C9.85256 8.04303 9.99658 8.01446 10.089 7.99606C10.1814 7.97767 10.3398 7.94888 10.441 7.93208C10.5422 7.91529 10.7151 7.88653 10.8251 7.86816C11.6153 7.73617 12.1666 7.70392 13.6334 7.70392C15.1098 7.70392 15.3725 7.71896 16.4657 7.86592C16.8501 7.91759 16.9209 7.94789 16.8258 8.02003C16.7799 8.05483 16.4943 8.15068 16.3057 8.1946C16.2353 8.21098 16.1201 8.23904 16.0497 8.25692C15.9793 8.27483 15.8497 8.30343 15.7617 8.32049C15.5809 8.35552 15.3537 8.40078 15.1296 8.44643C14.6402 8.54612 14.44 8.5815 14.0494 8.63736C13.8553 8.66512 13.7424 8.68317 13.2494 8.76532C13.1437 8.78292 12.9745 8.81104 12.8733 8.82783C12.7721 8.84463 12.6173 8.87297 12.5293 8.89079C12.4413 8.90864 12.2972 8.93718 12.2092 8.95423C12.1212 8.97128 11.9844 9.00145 11.9052 9.02125C11.826 9.04105 11.6964 9.06984 11.6172 9.08523C11.5379 9.10062 11.4083 9.12941 11.3291 9.14921C11.2499 9.16902 11.1203 9.19781 11.0411 9.2132C10.9619 9.22858 10.8323 9.25738 10.7531 9.27718C10.6738 9.29698 10.5442 9.32577 10.465 9.34116C10.3309 9.36723 10.233 9.39033 9.92895 9.46765C9.86296 9.48445 9.74772 9.51324 9.67292 9.53164C9.59813 9.55003 9.4793 9.57949 9.40889 9.59709C9.33848 9.61468 9.22689 9.64172 9.16086 9.65717C8.84898 9.73017 7.24131 10.2667 6.83258 10.4342C6.20089 10.6931 5.8004 10.8821 5.50443 11.061C5.24084 11.2203 4.8895 11.4523 4.86435 11.4837C4.85555 11.4947 4.79794 11.5388 4.73633 11.5818C4.53826 11.72 4.10887 12.1726 3.94491 12.4159C3.74198 12.717 3.70002 12.7999 3.60106 13.0945C3.49465 13.4114 3.48646 13.9045 3.58317 14.169C3.64616 14.3413 3.81376 14.6406 3.90423 14.7424C4.04147 14.8969 4.04089 14.8928 3.94882 15.073C3.73157 15.4984 3.72732 15.9059 3.93582 16.3144C4.00546 16.4509 4.30463 16.7679 4.4803 16.8914C4.76795 17.0936 4.79957 17.1313 4.7684 17.2346C4.75371 17.2832 4.72612 17.3743 4.70702 17.4372C4.65024 17.6241 4.66394 18.0686 4.73221 18.2553C4.78344 18.3955 4.96196 18.6962 5.02379 18.7465C5.03461 18.7553 5.07858 18.8129 5.1215 18.8745C5.22138 19.0179 5.42502 19.2214 5.56843 19.3213C5.63004 19.3642 5.68765 19.4081 5.69645 19.4189C5.73117 19.4616 6.00948 19.6382 6.16793 19.7182C6.36171 19.816 6.4077 19.8761 6.49296 20.1429C6.64322 20.6131 6.91848 21.0218 7.23263 21.2411C7.29424 21.2842 7.38065 21.3564 7.42465 21.4018C7.46866 21.4472 7.55507 21.519 7.61668 21.5614C7.67829 21.6039 7.73589 21.6477 7.74469 21.6589C7.76959 21.6904 8.30991 22.0476 8.57679 22.2091C8.79653 22.342 9.11766 22.5026 9.6148 22.7283C9.8187 22.8208 10.6861 23.1178 10.8971 23.1673C10.9675 23.1838 11.0935 23.2108 11.1771 23.2273C11.2607 23.2438 11.4047 23.2723 11.4971 23.2907C12.2093 23.4325 12.5131 23.4564 13.6014 23.4564C14.5809 23.4564 14.9226 23.4364 15.3216 23.3554C15.414 23.3366 15.558 23.3078 15.6416 23.2913C15.7253 23.2748 15.8585 23.2453 15.9377 23.2258C16.0169 23.2063 16.1321 23.1785 16.1937 23.1641C16.2984 23.1395 16.958 22.9152 17.2817 22.7941C17.4517 22.7305 17.9479 22.4775 18.0362 22.4093C18.0928 22.3656 18.086 22.3632 17.9539 22.381C17.8747 22.3918 17.7451 22.4224 17.6659 22.4491C17.5133 22.5006 17.3622 22.5385 17.1138 22.5875C17.0302 22.604 16.8862 22.6325 16.7938 22.6509C16.4171 22.7259 15.9294 22.7979 15.4736 22.8457C15.0543 22.8898 13.0817 22.8903 12.7533 22.8464C12.3784 22.7964 12.13 22.7546 11.9852 22.7173C11.9148 22.6992 11.7996 22.6712 11.7292 22.6551C11.6122 22.6284 10.7667 22.3435 10.4408 22.221C10.235 22.1436 9.2972 21.6695 9.02485 21.5052C8.76238 21.3468 8.41012 21.1143 8.38477 21.0827C8.37597 21.0718 8.31836 21.0279 8.25675 20.9852C8.06057 20.8494 7.83245 20.5975 7.87088 20.5591C7.89543 20.5345 8.00389 20.5715 8.24904 20.6881C8.43812 20.778 8.66842 20.8817 8.76081 20.9187C8.85321 20.9557 9.00084 21.0147 9.08885 21.0499C9.17686 21.0851 9.31726 21.1422 9.40089 21.1768C9.59304 21.2563 10.3946 21.5091 10.633 21.5654C10.6991 21.581 10.8107 21.6081 10.8811 21.6257C10.9515 21.6433 11.0703 21.673 11.1451 21.6917C11.5017 21.7808 12.1234 21.8937 12.5613 21.9487C13.8566 22.1114 15.6984 22.0564 16.8498 21.8205C17.0651 21.7764 17.2963 21.7302 17.4899 21.6928C17.5779 21.6757 17.7111 21.6464 17.7859 21.6277C17.8607 21.609 17.9759 21.581 18.0419 21.5654C18.2896 21.5069 19.815 21.0158 20.0342 20.9239C20.1134 20.8907 20.2255 20.8459 20.2834 20.8244C20.4224 20.7726 20.7237 20.4788 20.6813 20.4364C20.6606 20.4157 20.5798 20.427 20.446 20.4692C20.3339 20.5046 20.1846 20.5479 20.1142 20.5653C20.0438 20.5828 19.9069 20.6214 19.8101 20.6512C19.7133 20.6809 19.5837 20.7174 19.5221 20.7322C19.4605 20.7469 19.3453 20.775 19.2661 20.7945C19.1869 20.814 19.0572 20.8426 18.978 20.8579C18.8988 20.8733 18.7692 20.9021 18.69 20.9219C18.5195 20.9645 18.2956 21.0093 18.0419 21.0514C17.9407 21.0682 17.7679 21.0968 17.6579 21.115C15.8212 21.419 13.7307 21.4189 12.1932 21.1147C11.8128 21.0394 11.7242 21.0207 11.5932 20.9879C11.5184 20.9692 11.3995 20.9395 11.3291 20.9219C11.2587 20.9043 11.1435 20.8755 11.0731 20.8579C11.0027 20.8404 10.8911 20.8135 10.8251 20.7982C10.6834 20.7654 9.56318 20.384 9.32088 20.2861C8.97063 20.1445 8.81304 20.0821 8.69661 20.0389C8.48901 19.962 7.56749 19.4907 7.52528 19.4399C7.49225 19.4001 7.49961 19.3626 7.56646 19.2308C7.64852 19.0689 7.78623 18.9065 7.84144 18.9065C7.85786 18.9065 7.94721 18.941 8.04002 18.9832C8.13284 19.0254 8.28437 19.0902 8.37677 19.1271C8.75745 19.2796 8.88633 19.3318 8.99185 19.3768C9.14854 19.4434 10.2325 19.8046 10.377 19.8383C10.443 19.8537 10.5546 19.8806 10.625 19.8982C10.6954 19.9158 10.8143 19.9455 10.8891 19.9642C11.0201 19.997 11.1087 20.0157 11.4891 20.091C11.7924 20.151 12.4402 20.2354 12.9773 20.2848C13.3596 20.32 14.6993 20.3782 15.1376 20.3787C15.5552 20.3791 16.6593 20.3224 16.9458 20.2857C17.3957 20.2282 18.0093 20.1163 18.37 20.0262C18.4492 20.0064 18.5788 19.9776 18.658 19.9622C18.8749 19.9201 19.0391 19.8793 19.2341 19.8194C19.3309 19.7896 19.4677 19.7509 19.5381 19.7333C19.7367 19.6838 21.023 19.2647 21.2023 19.1911C21.2903 19.1549 21.5063 19.0548 21.6824 18.9685C21.9642 18.8303 22.0148 18.7925 22.1064 18.6515C22.1636 18.5634 22.2104 18.4837 22.2104 18.4744C22.2104 18.4497 22.0822 18.483 21.6504 18.6198C21.4391 18.6868 21.1655 18.7704 21.0423 18.8057C20.9191 18.8409 20.739 18.894 20.6422 18.9238C20.5454 18.9535 20.4122 18.9905 20.3462 19.0061C20.2802 19.0217 20.1686 19.0489 20.0982 19.0664C20.0278 19.084 19.9089 19.1137 19.8341 19.1324C19.7593 19.1511 19.6297 19.1799 19.5461 19.1964C19.4625 19.2129 19.3185 19.2412 19.2261 19.2594C19.1336 19.2776 18.9896 19.3064 18.906 19.3234C18.5548 19.3949 18.4076 19.423 18.2259 19.4529C17.8255 19.5189 17.2929 19.5889 16.7538 19.6463C16.3419 19.6901 14.2045 19.6901 13.7454 19.6462C12.9157 19.5669 12.0394 19.4359 11.5932 19.3244C11.5184 19.3057 11.3995 19.276 11.3291 19.2584C11.2587 19.2408 11.1435 19.212 11.0731 19.1944C11.0027 19.1768 10.8911 19.1498 10.8251 19.1344C10.6797 19.1005 9.78862 18.8037 9.63253 18.7372C9.57115 18.7111 9.4417 18.6581 9.34488 18.6195C9.08325 18.5152 8.76882 18.3588 8.76882 18.3331C8.76882 18.2723 9.04651 18.1655 9.77921 17.9444C9.92291 17.9011 10.0778 17.9088 10.241 17.9675C10.3202 17.9959 10.439 18.0317 10.505 18.047C10.571 18.0622 10.6826 18.0891 10.7531 18.1067C10.8235 18.1243 10.9387 18.1531 11.0091 18.1707C11.0795 18.1883 11.1983 18.218 11.2731 18.2367C11.4361 18.2774 11.6631 18.3226 11.9132 18.3641C12.2221 18.4154 12.4716 18.457 12.6813 18.4923C13.5639 18.6408 15.3131 18.7071 16.1137 18.6223C16.7296 18.5571 17.3064 18.4798 17.5699 18.427C17.6667 18.4076 17.8251 18.3791 17.9219 18.3636C18.0187 18.3482 18.1627 18.3191 18.2419 18.2991C18.3212 18.279 18.4508 18.2501 18.53 18.2347C18.6641 18.2086 18.762 18.1855 19.066 18.1082C19.2257 18.0676 19.4308 18.0172 19.5781 17.9824C19.9599 17.8922 21.1847 17.4772 21.5863 17.3019C21.9887 17.1263 22.8211 16.7171 22.9542 16.6295C23.0847 16.5437 23.169 16.3866 23.1701 16.2272C23.1707 16.1369 23.1477 16.1373 22.9392 16.2314C22.4658 16.4448 22.1789 16.5707 22.0344 16.6281C21.9464 16.663 21.8024 16.7214 21.7144 16.7579C21.4389 16.872 20.7942 17.092 20.3062 17.2383C20.1302 17.291 19.9069 17.3585 19.8101 17.3882C19.7133 17.4179 19.5801 17.455 19.5141 17.4705C19.4481 17.4861 19.3329 17.5142 19.2581 17.5329C19.1833 17.5516 19.0572 17.5795 18.978 17.5949C18.8988 17.6102 18.7692 17.6392 18.69 17.6593C18.6108 17.6793 18.4632 17.709 18.362 17.7253C18.2607 17.7415 18.0879 17.7697 17.9779 17.7879C17.0989 17.9334 16.8015 17.9534 15.5216 17.9531C14.004 17.9528 13.5562 17.9117 12.3212 17.6594C12.242 17.6432 12.1198 17.6182 12.0496 17.6039C11.8561 17.5645 11.8596 17.4782 12.0555 17.4555C12.14 17.4457 12.2993 17.4227 12.4093 17.4043C12.5193 17.386 12.6957 17.3565 12.8013 17.3389C12.9069 17.3213 13.0797 17.2925 13.1853 17.2749C13.291 17.2574 13.4638 17.2286 13.5694 17.211C13.675 17.1934 13.8478 17.1646 13.9534 17.147C14.059 17.1294 14.2319 17.1006 14.3375 17.083C14.4431 17.0654 14.6159 17.0366 14.7215 17.019C14.8271 17.0014 15 16.9726 15.1056 16.955C15.2112 16.9374 15.3804 16.9093 15.4816 16.8925C15.5828 16.8757 15.7413 16.8469 15.8337 16.8285C16.1464 16.7663 16.3212 16.7312 16.4737 16.7001C16.5573 16.6831 16.7013 16.6543 16.7938 16.6361C16.8862 16.618 17.0338 16.5887 17.1218 16.5711C17.2098 16.5535 17.3503 16.5257 17.4339 16.5092C17.5174 16.4927 17.6471 16.4639 17.7219 16.4452C17.7967 16.4265 17.9191 16.3959 17.9939 16.3772C18.0687 16.3585 18.1947 16.3306 18.274 16.3152C18.6025 16.2514 18.7744 16.2025 19.3941 15.9967C20.1045 15.7607 20.2968 15.6832 20.9606 15.3651C21.2873 15.2086 22.1051 14.74 22.1464 14.6856C22.1552 14.6741 22.2128 14.63 22.2744 14.5877C22.336 14.5454 22.3936 14.5022 22.4024 14.4917C22.4112 14.4812 22.4689 14.4377 22.5305 14.3949C22.6719 14.2968 22.7514 14.2172 22.8497 14.0758C22.8925 14.0143 22.9507 13.9423 22.979 13.9159C23.12 13.7846 23.3836 13.3104 23.4501 13.0681C23.4695 12.9977 23.5026 12.8808 23.5237 12.8083C23.5608 12.6811 23.5579 12.6211 23.4982 12.2626C23.4572 12.0165 23.2397 11.7102 22.9165 11.4436L22.8475 11.3867L22.9164 11.29C23.1261 10.9956 23.1724 10.4603 23.0259 10.0242C22.9816 9.89217 22.9168 9.72835 22.882 9.66014C22.7993 9.49795 22.3651 9.06085 22.1353 8.90835L21.9544 8.78826V8.46441C21.9544 8.22774 21.9383 8.09655 21.8945 7.97687C21.7697 7.6354 21.398 7.19523 20.9939 6.91032C20.9325 6.86704 20.8582 6.80961 20.8287 6.78274C20.7707 6.72986 20.1805 6.37341 20.0087 6.28761C19.9006 6.23358 19.7785 6.07004 19.7783 5.97906C19.7779 5.83689 19.3448 5.30821 19.074 5.11952C19.0124 5.07656 18.9548 5.03248 18.946 5.0215C18.9137 4.98126 18.5076 4.71743 18.29 4.59525C17.9931 4.42868 17.8848 4.3748 17.6179 4.26133C17.4947 4.20893 17.3362 4.14117 17.2658 4.11075C17.1062 4.04178 16.7924 3.93669 16.6338 3.89913C16.5678 3.88348 16.4597 3.85696 16.3937 3.84017C15.8172 3.69352 15.4688 3.62989 14.9616 3.57864C14.5459 3.53664 13.2377 3.50909 13.2053 3.54166ZM19.931 7.13986C20.1141 7.2658 20.5247 7.67286 20.6105 7.81346C20.6818 7.93032 20.6957 8.09424 20.6342 8.09217C20.6122 8.0914 20.5006 8.05678 20.3862 8.01519C20.068 7.89955 19.8128 7.81445 19.6091 7.75607C19.3819 7.69097 19.3096 7.63018 19.369 7.55427C19.3916 7.52535 19.4182 7.49448 19.4282 7.48568C19.4382 7.47688 19.4944 7.3977 19.5531 7.30973C19.6669 7.13938 19.7476 7.0378 19.7693 7.0378C19.7766 7.0378 19.8494 7.08371 19.931 7.13986ZM51.0341 7.38027C51.0202 7.39425 50.8695 7.41587 50.6993 7.42832C50.3628 7.45292 50.033 7.49547 49.7817 7.54662C49.6937 7.56457 49.5713 7.58872 49.5097 7.60034C49.2745 7.64464 49.2857 7.57679 49.2857 8.95957C49.2857 9.92263 49.2946 10.2028 49.3257 10.2138C49.3477 10.2217 49.408 10.2067 49.4598 10.1805C49.6016 10.1089 49.7666 10.0607 50.1658 9.97436C50.3715 9.92986 51.0851 9.92778 51.2624 9.97116C51.7839 10.0988 52.1162 10.6859 51.9831 11.2446C51.8874 11.646 51.5322 12.0016 51.1259 12.1029C51.0555 12.1204 50.6882 12.1432 50.3098 12.1536L49.6217 12.1724V13.436V14.6997L50.4058 14.7167C50.84 14.7262 51.2331 14.7493 51.2868 14.7684C51.6097 14.8839 51.8257 15.0625 51.958 15.3235C52.0258 15.4573 52.038 15.5254 52.038 15.7711C52.038 16.0371 52.0291 16.0785 51.9292 16.276C51.8694 16.3944 51.7938 16.5209 51.7612 16.5572C51.6664 16.6628 51.4247 16.8118 51.2859 16.8503C51.2155 16.8698 51.0997 16.9027 51.0286 16.9233C50.8621 16.9716 50.1432 16.9164 49.7977 16.8287C49.7185 16.8086 49.6033 16.7809 49.5417 16.7672C49.4801 16.7535 49.3996 16.7261 49.3628 16.7063C49.2499 16.6456 49.0443 16.5822 49.0039 16.5957C48.9751 16.6053 48.9656 16.9085 48.9656 17.8211V19.0338L49.225 19.1641C49.8941 19.5004 50.4706 19.6175 51.4619 19.6183C52.1796 19.6189 52.4392 19.5845 52.921 19.4248C53.2222 19.3251 53.8073 19.0138 53.8942 18.9071C53.903 18.8963 53.9606 18.8526 54.0222 18.81C54.1613 18.7139 54.1816 18.6937 54.2778 18.5546C54.3204 18.493 54.3795 18.4207 54.4092 18.394C54.5086 18.3044 54.8183 17.7485 54.8881 17.5345C55.0475 17.0456 55.0865 16.7804 55.0865 16.1873C55.0865 15.6082 55.03 15.2092 54.9096 14.9396C54.8821 14.878 54.8417 14.7795 54.8199 14.7207C54.6539 14.2744 54.0315 13.6666 53.5088 13.4404C53.2504 13.3285 53.2381 13.321 53.2381 13.2732C53.2381 13.2491 53.3029 13.1949 53.3821 13.1528C53.7841 12.9391 54.1494 12.6274 54.3638 12.3151C54.5953 11.978 54.8037 11.4776 54.8629 11.1167C54.9054 10.858 54.9042 10.0355 54.8611 9.83702C54.786 9.49161 54.7658 9.41711 54.7176 9.30917C54.6901 9.24759 54.649 9.14749 54.6264 9.0867C54.5526 8.88909 54.2135 8.40779 54.0075 8.20832C53.8181 8.02492 53.3874 7.73978 53.1741 7.65661C52.746 7.48968 52.6633 7.46661 52.31 7.41597C52.0178 7.37409 51.0667 7.34748 51.0341 7.38027ZM77.065 7.45302C77.0386 7.47045 76.9622 7.48491 76.8952 7.4852C76.7547 7.48574 76.1779 7.67158 75.9346 7.79468C75.733 7.89673 75.3164 8.17489 75.2182 8.27314C75.1787 8.31255 75.1048 8.3694 75.054 8.39944C75.003 8.42948 74.9368 8.4957 74.9067 8.5466C74.8767 8.59746 74.8204 8.67108 74.7817 8.7102C74.743 8.74933 74.6763 8.8317 74.6335 8.89329C74.5908 8.95487 74.5463 9.01245 74.5348 9.02125C74.444 9.09057 74.0575 9.82256 73.9488 10.1311C73.9066 10.2509 73.8568 10.3921 73.8381 10.4449C73.6723 10.9143 73.5542 11.4663 73.4756 12.1404C73.4571 12.2987 73.442 12.8962 73.442 13.468C73.442 14.6764 73.4926 15.2212 73.6691 15.9153C73.687 15.9857 73.7148 16.1009 73.7309 16.1713C73.7573 16.287 73.8295 16.4988 73.9737 16.8841C74.0953 17.2089 74.5517 18.0178 74.6637 18.1067C74.6747 18.1155 74.7189 18.1731 74.7618 18.2347C74.8617 18.378 75.0653 18.5816 75.2087 18.6814C75.2704 18.7243 75.328 18.7685 75.3368 18.7796C75.3635 18.8132 75.8258 19.1174 75.9375 19.1749C76.084 19.2502 76.6013 19.421 76.7929 19.4572C77.0065 19.4976 77.5502 19.5489 77.7691 19.5492C78.2051 19.5499 78.9483 19.4288 79.2092 19.3146C79.2708 19.2876 79.4002 19.2315 79.4967 19.19C79.7945 19.0618 80.2199 18.7609 80.5019 18.479C80.8839 18.0971 81.3213 17.4266 81.5002 16.9486C81.6422 16.5692 81.7166 16.352 81.7418 16.2432C81.7758 16.0963 81.8255 15.8938 81.8695 15.7234C81.9024 15.5955 81.9346 15.4093 81.9968 14.9876C82.0416 14.684 82.092 13.8788 82.092 13.468C82.092 13.0572 82.0416 12.252 81.9968 11.9484C81.916 11.4 81.9016 11.3263 81.8015 10.9407C81.7855 10.8791 81.7593 10.7712 81.7432 10.7008C81.7142 10.5737 81.6781 10.4712 81.5489 10.1489C81.5118 10.0566 81.4533 9.90737 81.4189 9.81738C81.3556 9.65173 80.9944 9.02922 80.9046 8.93081C80.8777 8.90138 80.8202 8.8269 80.7769 8.76532C80.6751 8.62056 80.4083 8.3543 80.2654 8.25465C80.2038 8.21168 80.1461 8.16773 80.1373 8.15692C80.0928 8.10218 79.7998 7.92504 79.5293 7.78931C79.163 7.60555 79.0924 7.58152 78.6172 7.47922C78.4032 7.43315 77.1277 7.41162 77.065 7.45302ZM34.6809 7.60808C34.6317 7.66249 34.6283 8.10061 34.6358 13.5186L34.6439 19.3704H36.0361H37.4282L37.4442 14.9716L37.4602 10.5728L38.8524 10.5568L40.2446 10.5408V9.05324V7.56566L37.4894 7.55747C34.8504 7.54966 34.7319 7.55177 34.6809 7.60808ZM42.3238 7.59765C42.3156 7.62404 42.2996 7.67081 42.2883 7.70162C42.277 7.73243 42.2558 7.82238 42.2413 7.90156C42.2268 7.98074 42.1993 8.1247 42.1804 8.22147C42.1614 8.31825 42.1328 8.4766 42.1168 8.57337C42.1008 8.67015 42.0727 8.82492 42.0543 8.91728C42.0359 9.00964 42.0059 9.16083 41.9878 9.25319C41.9696 9.34554 41.9408 9.4895 41.9238 9.5731C41.9067 9.65669 41.8788 9.79342 41.8618 9.87701C41.8448 9.9606 41.816 10.1046 41.7978 10.1969C41.7796 10.2893 41.7504 10.4369 41.7328 10.5248C41.7152 10.6128 41.6859 10.7604 41.6677 10.8527C41.6495 10.9451 41.6212 11.0855 41.6047 11.1647C41.5883 11.2438 41.5599 11.3842 41.5418 11.4766C41.5236 11.5689 41.4939 11.7201 41.4757 11.8125C41.4575 11.9048 41.4292 12.0452 41.4127 12.1244C41.3962 12.2036 41.3679 12.3439 41.3497 12.4363C41.3316 12.5287 41.3028 12.6726 41.2857 12.7562C41.2687 12.8398 41.2399 12.9838 41.2217 13.0761C41.2035 13.1685 41.1747 13.3124 41.1577 13.396C41.1407 13.4796 41.1123 13.62 41.0947 13.7079C41.0771 13.7959 41.0483 13.9399 41.0307 14.0279C41.0131 14.1158 40.9843 14.2598 40.9667 14.3478C40.9491 14.4357 40.9199 14.5833 40.9017 14.6757C40.8835 14.768 40.8538 14.9192 40.8356 15.0116C40.8174 15.1039 40.7891 15.2443 40.7726 15.3235C40.7562 15.4027 40.7274 15.5466 40.7086 15.6434C40.6899 15.7402 40.6606 15.8877 40.6436 15.9713C40.5731 16.3171 40.5442 16.4682 40.5166 16.6351C40.489 16.802 40.4601 16.9531 40.3896 17.2989C40.3726 17.3825 40.3438 17.5265 40.3256 17.6189C40.3074 17.7112 40.2777 17.8624 40.2596 17.9548C40.2414 18.0471 40.2131 18.1875 40.1966 18.2667C40.1801 18.3458 40.1513 18.4898 40.1326 18.5866C40.1138 18.6834 40.0834 18.8345 40.0649 18.9225C40.0464 19.0105 40.0289 19.1472 40.0259 19.2264L40.0205 19.3704H41.3784H42.7363L42.7662 19.2744C42.7826 19.2216 42.8089 19.0957 42.8245 18.9945C42.8401 18.8933 42.8673 18.7241 42.8849 18.6186C42.9025 18.513 42.9313 18.3403 42.9489 18.2347C42.9665 18.1291 42.9946 17.96 43.0113 17.8588C43.0683 17.5131 43.0848 17.4509 43.1338 17.3949C43.1783 17.3441 43.2653 17.3389 44.0729 17.3389C45.0954 17.3389 45.0191 17.3138 45.0678 17.6668C45.0817 17.768 45.1076 17.9372 45.1252 18.0427C45.1428 18.1483 45.1716 18.3211 45.1892 18.4266C45.2735 18.9321 45.289 19.0306 45.3103 19.1944L45.3332 19.3704L46.7174 19.3787C48.1314 19.3872 48.1308 19.3873 48.1005 19.2744C48.0958 19.2568 48.0792 19.1704 48.0637 19.0824C48.0482 18.9945 48.0215 18.8541 48.0045 18.7705C47.9875 18.687 47.9591 18.5466 47.9415 18.4586C47.9239 18.3706 47.8955 18.2303 47.8785 18.1467C47.8615 18.0631 47.8327 17.9192 47.8145 17.8268C47.7963 17.7344 47.7675 17.5904 47.7505 17.5069C47.7335 17.4233 47.7047 17.2794 47.6865 17.187C47.6683 17.0946 47.6391 16.947 47.6215 16.8591C47.6039 16.7711 47.5746 16.6235 47.5564 16.5312C47.5382 16.4388 47.5094 16.2948 47.4924 16.2112C47.4754 16.1277 47.4466 15.9837 47.4284 15.8913C47.3864 15.6775 47.3398 15.445 47.3004 15.2515C47.2834 15.1679 47.255 15.0276 47.2374 14.9396C47.2198 14.8516 47.1915 14.7113 47.1744 14.6277C47.1574 14.5441 47.1281 14.3966 47.1094 14.2998C47.0907 14.203 47.0614 14.0555 47.0444 13.9719C47.0133 13.8194 46.9782 13.6446 46.9159 13.332C46.8975 13.2397 46.8694 13.0849 46.8534 12.9881C46.8264 12.8247 46.812 12.7496 46.7254 12.3163C46.7077 12.2284 46.6789 12.0844 46.6613 11.9964C46.6437 11.9084 46.6149 11.7645 46.5973 11.6765C46.5797 11.5885 46.5509 11.4446 46.5333 11.3566C46.5157 11.2686 46.4874 11.1283 46.4703 11.0447C46.4533 10.9611 46.4245 10.8171 46.4063 10.7248C46.3882 10.6324 46.3585 10.4812 46.3403 10.3889C46.3221 10.2965 46.2933 10.1526 46.2763 10.069C46.2593 9.98536 46.2309 9.84502 46.2133 9.75704C46.1957 9.66907 46.1664 9.52149 46.1483 9.42914C46.1301 9.33678 46.1013 9.19282 46.0843 9.10923C46.0672 9.02563 46.0389 8.88529 46.0213 8.79731C46.0037 8.70934 45.9749 8.56538 45.9573 8.4774C45.9397 8.38943 45.9113 8.24908 45.8943 8.16549C45.8773 8.0819 45.8512 7.94155 45.8364 7.85358C45.8217 7.7656 45.7919 7.66125 45.7703 7.62164L45.731 7.54966H44.0349C42.5553 7.54966 42.3369 7.55577 42.3238 7.59765ZM56.4054 7.58952C56.3969 7.6116 56.3938 10.2713 56.3983 13.5L56.4065 19.3704H57.7667H59.1268L59.1428 14.9076L59.1588 10.4449H60.135H61.1111L61.1271 14.9076L61.1431 19.3704H62.5032H63.8634V13.468V7.56566L60.142 7.55753C57.1817 7.55107 56.4175 7.55759 56.4054 7.58952ZM65.4946 7.58914C65.4861 7.6114 65.4829 10.2713 65.4874 13.5L65.4956 19.3704H66.8237H68.1519L68.1602 17.4851C68.1676 15.7868 68.1736 15.5941 68.2211 15.5417C68.2692 15.4886 68.3388 15.4834 69.0107 15.4834C69.416 15.4834 69.7918 15.47 69.8458 15.4536C69.8999 15.4372 70.0089 15.4075 70.0881 15.3877C70.2331 15.3513 70.3193 15.3234 70.5488 15.2387C70.6677 15.1948 71.1428 14.9213 71.1763 14.8775C71.1851 14.866 71.2427 14.8215 71.3043 14.7786C71.4469 14.6794 71.5881 14.5383 71.6873 14.3958C71.7302 14.3342 71.7749 14.2766 71.7866 14.2678C71.8353 14.2313 72.1904 13.6645 72.2285 13.5625C72.2512 13.5017 72.2917 13.4016 72.3187 13.34C72.4327 13.0792 72.5302 12.7416 72.5912 12.3963C72.636 12.1426 72.6362 10.873 72.5915 10.6688C72.5186 10.3362 72.4954 10.2491 72.4447 10.1169C72.4159 10.0422 72.3707 9.92269 72.344 9.85148C72.1726 9.39263 71.8454 8.88948 71.4827 8.52692C71.1736 8.21789 71.039 8.12141 70.6322 7.91727C69.9935 7.59678 69.8239 7.57807 67.407 7.56159C65.8969 7.55129 65.5068 7.55692 65.4946 7.58914ZM83.4167 7.58923C83.4082 7.61147 83.405 10.2713 83.4095 13.5L83.4177 19.3704H84.7779H86.1381L86.1462 15.8593C86.1535 12.7217 86.1596 12.3483 86.2037 12.3483C86.2608 12.3483 86.3625 12.4448 86.4733 12.6042C86.5161 12.6658 86.574 12.7378 86.6021 12.7642C86.6302 12.7906 86.6878 12.8626 86.7301 12.9242C86.7725 12.9857 86.8301 13.0577 86.8581 13.0841C86.8862 13.1105 86.9438 13.1825 86.9862 13.2441C87.0285 13.3057 87.0861 13.3776 87.1142 13.404C87.1422 13.4304 87.1998 13.5024 87.2422 13.564C87.2845 13.6256 87.3421 13.6975 87.3702 13.7239C87.3983 13.7503 87.4558 13.8213 87.498 13.8817C87.617 14.0517 87.7654 14.2038 87.8123 14.2038C87.8629 14.2038 87.906 14.1619 88.0098 14.0119C88.0524 13.9503 88.1102 13.8783 88.1383 13.8519C88.1664 13.8255 88.224 13.7535 88.2663 13.6919C88.3087 13.6304 88.3663 13.5584 88.3943 13.532C88.4224 13.5056 88.48 13.4336 88.5223 13.372C88.5647 13.3105 88.6223 13.2385 88.6504 13.2121C88.6784 13.1857 88.736 13.1137 88.7784 13.0521C88.8207 12.9905 88.8783 12.9186 88.9064 12.8922C88.9345 12.8658 88.9921 12.7938 89.0344 12.7322C89.0767 12.6706 89.1338 12.5987 89.1613 12.5723C89.1887 12.5459 89.2509 12.4708 89.2995 12.4056C89.4907 12.1485 89.4814 11.9807 89.4903 15.8467L89.4985 19.3704H90.8586H92.2188L92.2269 13.5186C92.2343 8.10765 92.231 7.66243 92.1819 7.60827C92.1324 7.5536 92.0541 7.54966 91.0153 7.54966H89.9018L89.8123 7.66963C89.7631 7.73563 89.7149 7.79679 89.7051 7.80559C89.6954 7.81439 89.6528 7.87197 89.6105 7.93355C89.5682 7.99514 89.525 8.05272 89.5145 8.06152C89.504 8.07032 89.4608 8.1279 89.4184 8.18948C89.3761 8.25107 89.3329 8.30865 89.3224 8.31745C89.3119 8.32624 89.2687 8.38383 89.2264 8.44541C89.1841 8.50699 89.1405 8.56458 89.1295 8.57337C89.1186 8.58217 89.047 8.68294 88.9704 8.79731C88.8938 8.91168 88.8222 9.01245 88.8112 9.02125C88.8003 9.03005 88.7567 9.08763 88.7144 9.14921C88.6721 9.2108 88.6289 9.26838 88.6184 9.27718C88.6079 9.28598 88.5647 9.34356 88.5223 9.40514C88.48 9.46673 88.4368 9.52431 88.4263 9.53311C88.4158 9.5419 88.3726 9.59949 88.3303 9.66107C88.288 9.72265 88.2448 9.78024 88.2343 9.78904C88.2238 9.79783 88.1801 9.85542 88.1372 9.917C88.0596 10.0285 88.0219 10.0773 87.8964 10.2293C87.8384 10.2995 87.8225 10.3041 87.7641 10.2676C87.7276 10.2448 87.6739 10.1859 87.6448 10.1367C87.6158 10.0875 87.574 10.0288 87.552 10.0061C87.5301 9.98351 87.4773 9.9146 87.4347 9.85302C87.3921 9.79144 87.3487 9.73385 87.3382 9.72505C87.3277 9.71626 87.2845 9.65867 87.2422 9.59709C87.1999 9.53551 87.1563 9.47792 87.1453 9.46912C87.1343 9.46033 87.0627 9.35956 86.9862 9.24519C86.9096 9.13082 86.838 9.03005 86.827 9.02125C86.816 9.01245 86.7724 8.95487 86.7301 8.89329C86.6878 8.8317 86.6446 8.77412 86.6341 8.76532C86.6236 8.75652 86.5804 8.69894 86.5381 8.63736C86.4958 8.57577 86.4526 8.51819 86.4421 8.50939C86.4316 8.5006 86.3884 8.44301 86.3461 8.38143C86.3038 8.31985 86.2606 8.26226 86.2501 8.25346C86.2396 8.24467 86.1959 8.18708 86.153 8.1255C86.1101 8.06392 86.0571 7.99194 86.0353 7.96555C86.0135 7.93915 85.9408 7.83838 85.8737 7.74161L85.7516 7.56566L84.5919 7.55724C83.6811 7.55065 83.4287 7.55753 83.4167 7.58923ZM94.1059 7.58949C94.0975 7.61156 94.0943 10.2713 94.0988 13.5L94.107 19.3704L96.0112 19.3677C97.2732 19.3659 97.9694 19.3531 98.0755 19.3297C98.5743 19.2196 98.802 19.1443 99.1186 18.985C99.5938 18.7457 100.026 18.4055 100.235 18.1067C100.278 18.0451 100.323 17.9875 100.335 17.9788C100.372 17.9517 100.6 17.5535 100.646 17.4349C100.754 17.1585 100.855 16.8647 100.882 16.7471C100.898 16.6767 100.928 16.5471 100.947 16.4592C100.991 16.2596 100.992 14.8663 100.949 14.6037C100.915 14.3952 100.751 13.8845 100.664 13.7166C100.555 13.5039 100.286 13.133 100.124 12.9714C99.8334 12.6806 99.3399 12.3775 98.9434 12.2461C98.4544 12.0841 98.0046 12.0146 97.1634 11.9709L96.7313 11.9484V11.1966V10.4449L98.5395 10.4289L100.348 10.4129V8.98926V7.56566L97.2345 7.5575C94.7607 7.551 94.118 7.55759 94.1059 7.58949ZM110.94 7.5893C110.932 7.61147 110.928 10.2713 110.933 13.5L110.941 19.3704H112.237H113.533L113.542 17.0693C113.549 14.9762 113.555 14.7629 113.603 14.7095C113.653 14.6547 113.717 14.6513 114.555 14.6592L115.454 14.6677L115.47 17.019L115.486 19.3704H116.814H118.142V13.468V7.56566L116.859 7.55731C115.65 7.54944 115.573 7.55232 115.523 7.60753C115.475 7.66064 115.469 7.86119 115.462 9.74332L115.454 11.8205H114.509H113.565L113.549 9.69306L113.533 7.56566L112.244 7.55731C111.23 7.55072 110.952 7.55753 110.94 7.5893ZM120.029 7.58965C120.021 7.61166 120.017 10.2713 120.022 13.5L120.03 19.3704H121.358H122.686L122.68 17.4349C122.676 16.3704 122.669 15.3123 122.664 15.0836L122.654 14.6677L122.944 14.6586C123.191 14.6508 123.242 14.6581 123.283 14.7065C123.326 14.758 123.515 15.3222 124.537 18.4426L124.841 19.3704L126.388 19.3787C127.239 19.3833 127.953 19.38 127.976 19.3714C128.004 19.3607 128.007 19.338 127.987 19.2991C127.943 19.2132 127.834 18.9437 127.764 18.7465C127.729 18.6498 127.669 18.4914 127.631 18.3946C127.592 18.2979 127.52 18.1107 127.471 17.9788C127.422 17.8468 127.35 17.6596 127.311 17.5629C127.272 17.4661 127.2 17.2789 127.151 17.147C127.102 17.015 127.03 16.8279 126.991 16.7311C126.952 16.6343 126.88 16.4472 126.831 16.3152C126.782 16.1833 126.711 15.9997 126.674 15.9073C126.637 15.815 126.577 15.6638 126.54 15.5714C126.503 15.4791 126.432 15.2955 126.383 15.1635C126.334 15.0316 126.262 14.8444 126.223 14.7477C126.184 14.6509 126.112 14.4637 126.063 14.3318C126.014 14.1998 125.942 14.0127 125.903 13.9159C125.863 13.8191 125.787 13.6138 125.733 13.4596L125.635 13.1793L125.708 12.9797C125.748 12.87 125.836 12.629 125.903 12.4443C126.017 12.129 126.088 11.9379 126.316 11.3326C126.435 11.0169 126.574 10.6449 126.7 10.3089C126.754 10.1637 126.842 9.9298 126.895 9.78904C126.948 9.64828 127.034 9.41794 127.087 9.27718C127.345 8.59059 127.387 8.47439 127.475 8.22147C127.527 8.07191 127.6 7.88224 127.637 7.79999C127.756 7.53338 127.846 7.54966 126.261 7.54966C124.909 7.54966 124.855 7.55196 124.8 7.61214C124.769 7.6465 124.686 7.83723 124.616 8.03602C124.443 8.52897 124.206 9.18956 124.052 9.61308C123.982 9.80663 123.865 10.127 123.793 10.3249C123.721 10.5228 123.604 10.8468 123.532 11.0447C123.46 11.2426 123.367 11.4982 123.327 11.6125L123.252 11.8205L123.006 11.8299C122.65 11.8435 122.628 11.8188 122.654 11.4218C122.665 11.254 122.681 10.3407 122.689 9.39228C122.702 7.81298 122.699 7.66291 122.65 7.60878C122.6 7.55318 122.521 7.54966 121.32 7.54966C120.329 7.54966 120.041 7.55859 120.029 7.58965ZM103.902 7.65334C103.887 7.70005 103.861 7.82309 103.818 8.03753C103.802 8.12112 103.774 8.25785 103.757 8.34144C103.74 8.42503 103.711 8.56899 103.693 8.66135C103.675 8.75371 103.646 8.90128 103.628 8.98926C103.611 9.07723 103.581 9.22481 103.563 9.31717C103.545 9.40953 103.516 9.55349 103.499 9.63708C103.482 9.72067 103.454 9.8574 103.437 9.94099C103.42 10.0246 103.391 10.1685 103.373 10.2609C103.355 10.3533 103.326 10.5008 103.308 10.5888C103.291 10.6768 103.261 10.8244 103.243 10.9167C103.225 11.0091 103.197 11.1495 103.18 11.2286C103.164 11.3078 103.135 11.4482 103.117 11.5405C103.099 11.6329 103.069 11.7841 103.051 11.8765C103.033 11.9688 103.005 12.1092 102.988 12.1884C102.972 12.2675 102.943 12.4079 102.925 12.5003C102.907 12.5926 102.878 12.7366 102.861 12.8202C102.844 12.9038 102.815 13.0477 102.797 13.1401C102.779 13.2325 102.75 13.3764 102.733 13.46C102.716 13.5436 102.688 13.6839 102.67 13.7719C102.652 13.8599 102.624 14.0039 102.606 14.0918C102.588 14.1798 102.56 14.3238 102.542 14.4117C102.524 14.4997 102.495 14.6473 102.477 14.7397C102.459 14.832 102.429 14.9832 102.411 15.0756C102.393 15.1679 102.364 15.3083 102.348 15.3875C102.332 15.4667 102.303 15.6106 102.284 15.7074C102.265 15.8042 102.236 15.9517 102.219 16.0353C102.202 16.1189 102.174 16.2592 102.156 16.3472C102.138 16.4352 102.11 16.5756 102.093 16.6591C102.076 16.7427 102.047 16.8866 102.029 16.979C102.011 17.0714 101.982 17.2154 101.965 17.2989C101.948 17.3825 101.919 17.5265 101.901 17.6189C101.883 17.7112 101.854 17.8552 101.837 17.9388C101.82 18.0223 101.791 18.1699 101.772 18.2667C101.722 18.524 101.678 18.7413 101.64 18.9225C101.621 19.0105 101.604 19.1616 101.601 19.2584L101.596 19.4343L102.947 19.4427L104.298 19.451L104.338 19.3787C104.36 19.3389 104.389 19.22 104.404 19.1144C104.475 18.6024 104.495 18.4674 104.587 17.9228C104.604 17.8216 104.63 17.6668 104.643 17.5789L104.668 17.4189L105.593 17.4104C106.653 17.4007 106.619 17.3923 106.648 17.6692C106.658 17.7603 106.68 17.9248 106.699 18.0347C106.717 18.1447 106.747 18.3211 106.765 18.4266C106.782 18.5322 106.812 18.7086 106.83 18.8185C106.849 18.9285 106.871 19.093 106.881 19.184C106.91 19.4673 106.825 19.4522 108.352 19.4427L109.693 19.4343L109.687 19.3224C109.684 19.2608 109.666 19.1384 109.648 19.0505C109.63 18.9625 109.6 18.8113 109.581 18.7145C109.562 18.6178 109.533 18.4702 109.516 18.3866C109.499 18.3031 109.47 18.1591 109.452 18.0667C109.434 17.9743 109.405 17.834 109.389 17.7548C109.372 17.6756 109.344 17.5353 109.326 17.4429C109.308 17.3505 109.278 17.203 109.261 17.115C109.174 16.6818 109.16 16.6066 109.133 16.4432C109.117 16.3464 109.089 16.1916 109.07 16.0993C109.052 16.0069 109.022 15.8557 109.004 15.7634C108.953 15.505 108.91 15.2897 108.877 15.1315C108.86 15.0524 108.832 14.912 108.814 14.8196C108.796 14.7273 108.766 14.5761 108.748 14.4837C108.706 14.2699 108.659 14.0374 108.62 13.8439C108.58 13.6505 108.534 13.4179 108.492 13.2041C108.474 13.1117 108.445 12.9713 108.429 12.8922C108.412 12.813 108.383 12.669 108.365 12.5723C108.346 12.4755 108.317 12.3279 108.3 12.2444C108.26 12.0509 108.214 11.8184 108.172 11.6045C108.153 11.5122 108.125 11.3718 108.109 11.2926C108.092 11.2134 108.063 11.0695 108.045 10.9727C108.026 10.8759 107.996 10.7248 107.979 10.6368C107.961 10.5488 107.932 10.4049 107.915 10.3169C107.897 10.2289 107.869 10.0886 107.852 10.005C107.835 9.92138 107.806 9.77742 107.788 9.68506C107.769 9.59271 107.741 9.44875 107.724 9.36515C107.684 9.1717 107.638 8.93916 107.596 8.72533C107.577 8.63297 107.548 8.4854 107.53 8.39742C107.512 8.30945 107.485 8.15829 107.469 8.06152C107.453 7.96475 107.429 7.82798 107.414 7.7576L107.388 7.62964L105.651 7.62135C104.278 7.61483 103.912 7.62151 103.902 7.65334ZM18.866 8.3749C19.0135 8.40955 19.7423 8.65966 20.0022 8.76481C20.099 8.80397 20.2286 8.85467 20.2902 8.87748C20.4731 8.94514 20.4519 9.05609 20.2262 9.21384C20.1646 9.2569 20.0671 9.33889 20.0096 9.39606C19.9522 9.45323 19.8599 9.52338 19.8046 9.55198C19.6942 9.60902 19.7385 9.61664 19.1381 9.43729C18.9708 9.38732 18.7332 9.31755 18.61 9.2822C18.4868 9.24685 18.3068 9.19339 18.2099 9.16339C18.0403 9.11082 17.8467 9.06962 17.5939 9.03225C17.5222 9.02167 17.4739 8.99687 17.4739 8.97074C17.4739 8.9264 17.6301 8.8293 17.7015 8.8293C17.7441 8.8293 18.2556 8.52888 18.434 8.39909C18.5501 8.31454 18.5978 8.31188 18.866 8.3749ZM21.7641 9.76504C21.9219 9.91383 21.951 9.95664 22.017 10.137C22.0671 10.2742 22.07 10.315 22.0365 10.4125C22.0148 10.4754 21.9833 10.5408 21.9663 10.5577C21.9465 10.5775 21.7896 10.5132 21.5289 10.3787C21.0919 10.1531 21.049 10.102 21.2145 10.0043C21.2652 9.97439 21.3754 9.88491 21.4596 9.80548C21.5437 9.72608 21.6218 9.66107 21.6332 9.66107C21.6446 9.66107 21.7035 9.70784 21.7641 9.76504ZM16.8498 9.78385C17.1082 9.82253 17.3392 9.86713 17.5219 9.91354C17.79 9.98169 17.9412 10.0175 18.0339 10.035C18.1344 10.0538 18.2099 10.0995 18.2099 10.1414C18.2099 10.1725 18.1333 10.2048 17.9699 10.2424C17.8995 10.2586 17.7843 10.2865 17.7139 10.3043C17.6435 10.3223 17.5211 10.3495 17.4419 10.3649C17.3626 10.3803 17.2366 10.4082 17.1618 10.4268C17.087 10.4456 16.9646 10.4761 16.8898 10.4949C16.7581 10.5278 16.6512 10.5503 16.2977 10.6198C16.2053 10.6379 16.0613 10.6667 15.9777 10.6838C15.8941 10.7008 15.75 10.7296 15.6576 10.7477C15.5652 10.7659 15.414 10.7956 15.3216 10.8138C15.2292 10.8319 15.0852 10.8607 15.0016 10.8778C14.6556 10.9482 14.5044 10.9771 14.3375 11.0047C14.2407 11.0207 14.0822 11.0495 13.9854 11.0687C13.8886 11.0879 13.7302 11.1167 13.6334 11.1327C13.5366 11.1487 13.3818 11.1768 13.2894 11.1952C13.197 11.2136 13.0457 11.2437 12.9533 11.2621C12.8609 11.2805 12.7061 11.3086 12.6093 11.3246C12.5125 11.3406 12.3612 11.3683 12.2732 11.3861C11.951 11.4514 11.7572 11.4881 11.5852 11.5166C11.3408 11.5569 11.1148 11.6021 10.9451 11.6445C10.8659 11.6643 10.7327 11.694 10.649 11.7105C10.5654 11.727 10.4286 11.754 10.345 11.7705C10.2614 11.787 10.1318 11.8158 10.057 11.8344C9.98218 11.8532 9.85973 11.8837 9.78494 11.9025C9.71014 11.9211 9.58411 11.949 9.5049 11.9644C9.42569 11.9798 9.29966 12.0077 9.22487 12.0264C9.15008 12.0451 9.03486 12.0732 8.96884 12.0887C8.90285 12.1043 8.76962 12.1414 8.6728 12.1711C8.57599 12.2008 8.39597 12.2539 8.27276 12.2892C7.88253 12.4009 7.25427 12.6039 7.09662 12.6692C7.01299 12.7039 6.86897 12.7623 6.77658 12.7992C6.38818 12.9539 5.79521 13.2622 5.47722 13.4747C5.28974 13.5999 5.12918 13.7115 5.12038 13.7227C5.11158 13.7339 5.05397 13.7779 4.99236 13.8206C4.93076 13.8633 4.85356 13.9227 4.82082 13.9526C4.73947 14.0271 4.69588 14.0021 4.61411 13.8339C4.51986 13.6399 4.51925 13.3549 4.6127 13.1708C4.76174 12.8773 4.92013 12.6806 5.12038 12.5404C5.18199 12.4973 5.25652 12.44 5.28603 12.4132C5.31554 12.3863 5.41635 12.3197 5.51006 12.2651C5.60377 12.2105 5.78212 12.1061 5.90639 12.0331C6.03066 11.9601 6.14927 11.9004 6.16995 11.9004C6.19065 11.9004 6.3266 11.8443 6.47206 11.7756C6.61755 11.7069 6.80858 11.6209 6.89659 11.5844C7.0746 11.5107 8.55193 11.0277 8.75281 10.9776C8.82322 10.9601 8.96004 10.9213 9.05685 10.8916C9.15366 10.8618 9.29048 10.824 9.36089 10.8076C9.43129 10.7913 9.53931 10.7648 9.60091 10.7488C9.66252 10.7328 9.77774 10.704 9.85695 10.6848C9.93615 10.6656 10.0586 10.6352 10.129 10.6173C10.1994 10.5994 10.3218 10.5722 10.401 10.5568C10.4802 10.5414 10.6098 10.5126 10.689 10.4928C10.7683 10.473 10.9051 10.4429 10.9931 10.4258C11.1738 10.3908 11.401 10.3455 11.6252 10.2999C11.7088 10.2828 11.8528 10.2541 11.9452 10.2359C12.0376 10.2177 12.1852 10.1883 12.2732 10.1704C12.3612 10.1526 12.516 10.1243 12.6173 10.1075C12.7185 10.0907 12.8913 10.062 13.0013 10.0438C13.1961 10.0116 13.3821 9.98376 13.8414 9.91818C14.3958 9.83904 14.5612 9.81776 14.7909 9.79614C14.9259 9.78344 15.0476 9.76178 15.0613 9.74799C15.0961 9.71315 16.5758 9.74284 16.8498 9.78385ZM69.2887 10.2852C69.4694 10.3762 69.5329 10.4295 69.6223 10.5652C69.813 10.8545 69.8367 10.9716 69.8227 11.5572C69.8061 12.2586 69.7733 12.3772 69.5291 12.6213C69.3012 12.8492 69.164 12.8943 68.6368 12.9148C68.3409 12.9263 68.2805 12.9201 68.2287 12.8733C68.1709 12.821 68.1679 12.7554 68.1679 11.5541C68.1679 10.4227 68.1735 10.2838 68.2209 10.2314C68.2667 10.1808 68.3268 10.1729 68.6697 10.1729C69.0587 10.1729 69.0695 10.1749 69.2887 10.2852ZM78.1858 10.3813C78.5581 10.5698 78.8619 11.0028 78.9882 11.5246C79.0042 11.5905 79.0329 11.7057 79.052 11.7805C79.1337 12.0998 79.1533 12.4259 79.1533 13.468C79.1533 14.6871 79.1183 15.0616 78.9601 15.5347C78.8873 15.7526 78.7226 16.0926 78.6575 16.1596C78.6342 16.1836 78.5833 16.2484 78.5444 16.3037C78.4097 16.4954 78.1491 16.6268 77.782 16.6884C77.6773 16.7059 77.4659 16.6457 77.2558 16.5385C76.932 16.3734 76.6154 15.8816 76.4839 15.3395C76.3498 14.7862 76.3218 14.4635 76.3218 13.468C76.3218 12.4725 76.3498 12.1498 76.4839 11.5965C76.538 11.3735 76.5728 11.2831 76.7065 11.0174C76.8583 10.7157 77.0303 10.524 77.2654 10.3944C77.416 10.3115 77.4632 10.302 77.7301 10.3015C77.9847 10.301 78.0499 10.3124 78.1858 10.3813ZM20.3776 10.8481C20.7815 11.0334 21.1899 11.2537 21.2242 11.3048C21.2583 11.3557 21.2299 11.3822 20.9339 11.5756C20.6752 11.7447 20.5932 11.7864 20.1782 11.9598C19.9592 12.0513 18.6248 12.4813 18.37 12.5424C18.2368 12.5744 18.0346 12.6241 17.8579 12.6682C17.7875 12.6858 17.6687 12.7153 17.5939 12.7337C17.5191 12.7521 17.4039 12.7809 17.3378 12.7977C17.0338 12.875 16.9359 12.8981 16.8018 12.9242C16.7226 12.9395 16.593 12.9683 16.5137 12.9881C16.4345 13.0079 16.3049 13.0367 16.2257 13.0521C16.1465 13.0675 16.0169 13.0963 15.9377 13.1161C15.8585 13.1359 15.7253 13.1656 15.6416 13.1821C15.558 13.1986 15.414 13.2271 15.3216 13.2455C15.2292 13.2639 15.0744 13.2921 14.9776 13.3081C14.8807 13.324 14.7223 13.3528 14.6255 13.372C14.5287 13.3912 14.3667 13.4207 14.2655 13.4375C14.1642 13.4543 13.995 13.4824 13.8894 13.5C13.7838 13.5176 13.611 13.5464 13.5054 13.564C13.3998 13.5816 13.2269 13.6104 13.1213 13.628C13.0157 13.6456 12.8429 13.6744 12.7373 13.6919C12.6317 13.7095 12.4589 13.7383 12.3532 13.7559C12.2476 13.7735 12.0784 13.8016 11.9772 13.8184C11.876 13.8352 11.714 13.8647 11.6172 13.8839C11.5203 13.9031 11.3619 13.9319 11.2651 13.9479C11.1683 13.9639 11.0171 13.9915 10.9291 14.0094C10.8411 14.0272 10.697 14.0557 10.609 14.0728C10.521 14.0899 10.3842 14.12 10.305 14.1398C10.2258 14.1596 10.0962 14.1884 10.017 14.2038C9.88072 14.2303 9.7392 14.2635 9.4649 14.3332C9.39891 14.35 9.28366 14.3788 9.20887 14.3972C9.13408 14.4156 9.01524 14.445 8.94484 14.4626C8.87443 14.4802 8.76641 14.5066 8.70481 14.5212C8.50683 14.5681 7.6347 14.8677 7.43854 14.9562C7.20146 15.0631 6.94594 15.191 6.73145 15.3102L6.56631 15.402L6.36469 15.3068C6.06971 15.1674 5.69645 14.9168 5.69645 14.858C5.69645 14.787 5.74241 14.7471 6.06936 14.5344C6.33259 14.3631 6.70079 14.1764 7.28064 13.92C7.53561 13.8073 9.01809 13.3203 9.34488 13.2419C9.40649 13.2271 9.5145 13.2006 9.58491 13.183C9.9103 13.1017 10.0114 13.078 10.153 13.0501C10.2366 13.0336 10.3734 13.0066 10.457 12.9902C10.5406 12.9737 10.6738 12.944 10.7531 12.9242C10.8323 12.9044 10.9655 12.8747 11.0491 12.8582C11.1327 12.8417 11.2695 12.8142 11.3531 12.7972C11.4368 12.7802 11.5808 12.7514 11.6732 12.7332C11.7656 12.7151 11.9096 12.6863 11.9932 12.6693C12.2951 12.6078 12.5005 12.5688 12.6733 12.5403C12.7701 12.5243 12.9285 12.4955 13.0253 12.4763C13.1221 12.4571 13.2806 12.4283 13.3774 12.4123C13.4742 12.3963 13.6326 12.3675 13.7294 12.3483C13.8262 12.3291 13.9846 12.3003 14.0814 12.2843C14.1783 12.2683 14.3367 12.2396 14.4335 12.2204C14.5303 12.2012 14.6887 12.1724 14.7855 12.1564C14.8823 12.1404 15.0408 12.1116 15.1376 12.0924C15.2344 12.0732 15.3928 12.0444 15.4896 12.0284C15.6941 11.9946 16.0802 11.92 16.4817 11.8365C16.5609 11.82 16.6978 11.7926 16.7858 11.7755C16.8738 11.7585 17.007 11.7292 17.0818 11.7105C17.2656 11.6646 17.4665 11.6152 17.6019 11.5827C17.6635 11.5679 17.7931 11.5315 17.8899 11.5018C17.9867 11.4721 18.1667 11.419 18.29 11.3837C18.8287 11.2296 19.6927 10.9252 19.8901 10.8199C20.0621 10.7282 20.1238 10.7317 20.3776 10.8481ZM44.113 11.5885C44.1228 11.6809 44.1455 11.8573 44.1634 11.9804C44.1812 12.1036 44.21 12.3051 44.2273 12.4283C44.2446 12.5515 44.2742 12.7458 44.2931 12.8602C44.3119 12.9745 44.3412 13.1653 44.3582 13.2841C44.3752 13.4028 44.4032 13.5972 44.4205 13.7159C44.5078 14.3166 44.5211 14.4251 44.5269 14.5877L44.5331 14.7636L44.0886 14.7726C43.7021 14.7803 43.636 14.7742 43.5822 14.7255C43.5375 14.6851 43.5261 14.6469 43.5414 14.5886C43.553 14.5441 43.5754 14.4141 43.5912 14.2998C43.6561 13.8281 43.6845 13.6334 43.717 13.436C43.7574 13.1908 43.8038 12.8746 43.9097 12.1244C43.9283 11.9924 43.9515 11.7981 43.9613 11.6925C43.9899 11.3846 44.0844 11.3198 44.113 11.5885ZM105.702 11.6525C105.721 11.6921 105.745 11.8037 105.754 11.9004C105.769 12.0666 105.795 12.2581 105.87 12.7802C105.888 12.9034 105.916 13.1121 105.932 13.2441C105.949 13.376 105.977 13.5848 105.995 13.7079C106.013 13.8311 106.043 14.0398 106.062 14.1718C106.081 14.3038 106.099 14.4909 106.102 14.5877L106.108 14.7636H105.644H105.18L105.186 14.5237C105.189 14.3918 105.207 14.1794 105.226 14.0518C105.292 13.6049 105.356 13.1647 105.419 12.7162C105.436 12.5931 105.466 12.3987 105.485 12.2843C105.504 12.17 105.527 11.9972 105.535 11.9004C105.551 11.7293 105.601 11.5805 105.644 11.5805C105.656 11.5805 105.682 11.6129 105.702 11.6525ZM22.1683 12.2284C22.2274 12.3206 22.2735 12.5023 22.2739 12.645C22.2748 12.9256 22.01 13.3481 21.6984 13.5635C21.6368 13.6061 21.5791 13.6506 21.5703 13.6624C21.5 13.7567 20.6425 14.2039 20.1702 14.3926C20.0778 14.4295 19.9337 14.4881 19.8501 14.5228C19.6283 14.6149 18.4738 14.983 18.2259 15.0407C18.0983 15.0704 17.9494 15.1071 17.7219 15.165C17.4178 15.2423 17.32 15.2654 17.1858 15.2915C17.1066 15.3069 16.977 15.3357 16.8978 15.3555C16.8186 15.3753 16.6853 15.405 16.6018 15.4215C16.5182 15.438 16.3741 15.4665 16.2817 15.4849C16.1893 15.5033 16.0345 15.5314 15.9377 15.5474C15.7707 15.575 15.6195 15.6039 15.2736 15.6744C14.9717 15.7359 14.7663 15.7748 14.5935 15.8034C14.4967 15.8194 14.3383 15.8481 14.2415 15.8673C14.1447 15.8865 13.9862 15.9153 13.8894 15.9313C13.7926 15.9473 13.6342 15.9761 13.5374 15.9953C13.4406 16.0145 13.2785 16.044 13.1773 16.0608C13.0761 16.0776 12.9069 16.1057 12.8013 16.1233C12.6957 16.1409 12.5265 16.169 12.4253 16.1858C12.2448 16.2157 12.04 16.2546 11.7372 16.3162C11.6535 16.3333 11.5168 16.3612 11.4331 16.3782C11.3495 16.3952 11.2091 16.4231 11.1211 16.4401C11.0331 16.4572 10.8963 16.4871 10.8171 16.5066C10.7379 16.5261 10.6226 16.5542 10.561 16.569C10.4475 16.5962 10.2566 16.6529 9.90076 16.7652C9.60984 16.857 9.62809 16.8597 9.06485 16.6398C8.98123 16.6071 8.84082 16.5478 8.75281 16.508C7.98299 16.1596 7.92321 16.114 8.13674 16.0379C8.59686 15.8739 9.29022 15.6526 9.4889 15.6063C9.55931 15.5899 9.67452 15.5619 9.74493 15.544C9.81534 15.5261 9.93775 15.4988 10.017 15.4834C10.0962 15.4681 10.2258 15.4393 10.305 15.4195C10.3842 15.3997 10.5138 15.3704 10.593 15.3545C11.2192 15.2286 11.3878 15.1962 11.5932 15.1621C11.6944 15.1453 11.86 15.1178 11.9612 15.101C12.0624 15.0842 12.2244 15.0548 12.3212 15.0356C12.5319 14.9938 12.806 14.9481 13.0893 14.9076C13.3727 14.8671 13.6468 14.8214 13.8574 14.7796C13.9542 14.7604 14.1162 14.731 14.2175 14.7142C14.3187 14.6974 14.4843 14.6699 14.5855 14.6531C14.6867 14.6364 14.8487 14.6069 14.9456 14.5877C15.0424 14.5685 15.2008 14.5397 15.2976 14.5237C15.3944 14.5077 15.5456 14.48 15.6336 14.4622C15.7216 14.4444 15.8657 14.4158 15.9537 14.3988C16.0417 14.3817 16.1785 14.3516 16.2577 14.3318C16.3369 14.312 16.4665 14.2832 16.5457 14.2678C16.625 14.2524 16.7546 14.2236 16.8338 14.2038C16.913 14.184 17.0426 14.1552 17.1218 14.1398C17.201 14.1244 17.3234 14.0972 17.3938 14.0793C17.4643 14.0614 17.5795 14.0334 17.6499 14.017C17.7203 14.0006 17.8571 13.9628 17.9539 13.933C18.0507 13.9033 18.184 13.8656 18.2499 13.8494C18.5445 13.777 18.6617 13.745 18.962 13.655C19.3763 13.5309 19.7586 13.4035 20.0982 13.2763C20.2478 13.2203 20.4249 13.154 20.4918 13.1289C20.8178 13.0067 21.6622 12.5309 21.8215 12.3797C22.0124 12.1985 22.1192 12.1518 22.1683 12.2284ZM97.5314 14.3861C97.8197 14.456 98.0402 14.6176 98.1555 14.8437C98.2946 15.1163 98.3199 15.2469 98.306 15.6213C98.2855 16.1756 98.2146 16.3765 97.9401 16.6583C97.6527 16.9532 97.4654 17.0258 97.0275 17.0122L96.7313 17.003L96.7229 15.7263C96.713 14.2004 96.6789 14.3208 97.1142 14.3414C97.2732 14.3489 97.461 14.3691 97.5314 14.3861ZM5.56645 16.0527L5.64444 16.1136L5.57176 16.1744C5.53176 16.2079 5.46064 16.2676 5.41373 16.3072C5.36681 16.3468 5.3204 16.3791 5.31064 16.3792C5.27192 16.3792 5.06044 16.1635 4.99649 16.0586C4.92228 15.937 4.90499 15.7205 4.96782 15.6996C5.00453 15.6873 5.38915 15.9142 5.56645 16.0527ZM7.17615 16.8234C7.32163 16.8917 7.57747 17.0088 7.74469 17.0836C8.15857 17.2685 8.14474 17.2608 8.14474 17.3069C8.14474 17.3516 8.12042 17.3667 7.90561 17.4556C7.82691 17.4882 7.68475 17.5617 7.5897 17.6189C7.49468 17.6761 7.40152 17.7228 7.3827 17.7228C7.36388 17.7228 7.25401 17.6672 7.13854 17.5991C7.02307 17.5311 6.80989 17.4067 6.66482 17.3228C6.51975 17.2388 6.38341 17.1489 6.36184 17.1229C6.32113 17.0739 6.31767 17.0782 6.55943 16.8807C6.66764 16.7923 6.82775 16.6994 6.87211 16.6992C6.89387 16.6992 7.03069 16.755 7.17615 16.8234ZM6.15897 18.0667C6.2706 18.1327 6.4069 18.2114 6.46182 18.2415C6.51674 18.2717 6.57057 18.3195 6.58145 18.3479C6.60475 18.4086 6.47389 18.7041 6.4134 18.7273C6.3515 18.751 6.06299 18.4531 5.9697 18.2691C5.88597 18.1039 5.86284 17.9468 5.92224 17.9468C5.9408 17.9468 6.04734 18.0008 6.15897 18.0667Z" fill="#1E3262"/>
</svg>
