<svg width="120" height="28" viewBox="0 0 120 28" fill="none" xmlns="http://www.w3.org/2000/svg">
<path d="M42.0926 22.5336V16.8843C42.0926 16.1287 42.0926 15.2644 42.1714 14.5947L36.8409 22.5336H33.46V8.70496H37.0606V14.3544C37.0606 15.1214 37.0606 15.9913 36.9817 16.6439L42.2616 8.70496H45.6425V22.5336H42.0926Z" fill="#106E53"/>
<path d="M60.7719 8.70496V22.5336H57.1713V17.2563H52.1168V22.5336H48.5161V8.70496H52.1168V13.9995H57.1713V8.70496H60.7719Z" fill="#106E53"/>
<path d="M70.3681 19.3742C71.202 19.3742 71.9064 19.1338 71.9064 18.0692C71.9064 17.0046 71.202 16.7642 70.3681 16.7642H67.1956V19.3742H70.3681ZM70.4357 13.5989C73.197 13.5989 75.6307 14.612 75.6307 18.0692C75.6307 21.5264 73.197 22.5338 70.4357 22.5338H63.595V8.69934H74.4534V11.9619H67.1956V13.5989H70.4357Z" fill="#106E53"/>
<path d="M81.4631 17.3938H84.9621L83.5646 13.3872C83.3977 12.9342 83.2807 12.4639 83.2155 11.9848C83.146 12.4636 83.0275 12.9337 82.8607 13.3872L81.4631 17.3938ZM75.9182 22.5452L81.2655 8.71655H85.1597L90.507 22.5452H86.8104L86.0326 20.3702H80.3985L79.6207 22.5452H75.9182Z" fill="#106E53"/>
<path d="M104.059 8.70496V22.5336H100.458V17.2563H95.4037V22.5336H91.803V8.70496H95.4037V13.9995H100.458V8.70496H104.059Z" fill="#106E53"/>
<path d="M106.888 22.5336V8.70496H110.483V13.9995H112.196L115.819 8.70496H119.803L114.997 15.4991L120 22.5336H116.011L112.179 17.2563H110.483V22.5336H106.888Z" fill="#106E53"/>
<path d="M19.6432 13.9996C19.6432 12.8223 19.2994 11.6713 18.6555 10.6925C18.0115 9.71353 17.0963 8.95051 16.0255 8.50001C14.9547 8.04944 13.7763 7.93157 12.6396 8.16127C11.5028 8.39091 10.4586 8.95788 9.63903 9.79036C8.81944 10.6229 8.2613 11.6836 8.0352 12.8383C7.8091 13.993 7.92515 15.1899 8.36871 16.2776C8.81227 17.3653 9.56337 18.295 10.5271 18.9492C11.4908 19.6032 12.6238 19.9524 13.7828 19.9524C15.3371 19.9524 16.8277 19.3252 17.9267 18.2088C19.0257 17.0925 19.6432 15.5783 19.6432 13.9996Z" fill="#106E53"/>
<path d="M4.07397 4.06308L6.89141 6.92498C8.73023 5.07662 11.2128 4.03984 13.7997 4.03984C16.3867 4.03984 18.8692 5.07662 20.7081 6.92498L23.5255 4.06308C20.9438 1.46047 17.4539 0 13.8166 0C10.1794 0 6.6895 1.46047 4.10778 4.06308" fill="#B91C6B"/>
<path d="M13.7829 23.9762C12.4916 23.9785 11.2127 23.7221 10.0191 23.2217C8.82556 22.7213 7.74088 21.9868 6.82705 21.0602C5.91324 20.1336 5.18827 19.033 4.69364 17.8215C4.19901 16.61 3.9444 15.3112 3.9444 13.9996H0C0 17.7127 1.45212 21.2739 4.03691 23.8994C6.6217 26.525 10.1274 28 13.7829 28C17.4383 28 20.944 26.525 23.5289 23.8994C26.1136 21.2739 27.5658 17.7127 27.5658 13.9996H23.6213C23.6206 15.311 23.3655 16.6094 22.8706 17.8206C22.3757 19.0317 21.6507 20.132 20.737 21.0585C19.8234 21.985 18.739 22.7196 17.5458 23.2202C16.3525 23.7208 15.0739 23.9777 13.7829 23.9762Z" fill="#106E53"/>
</svg>
