<svg width="120" height="27" viewBox="0 0 120 27" fill="none" xmlns="http://www.w3.org/2000/svg">
<path d="M75.6163 18.2021H77.1678C78.5649 18.2021 79.3772 17.6594 79.3772 16.5263C79.3772 15.3931 78.5649 14.8505 77.1678 14.8505H75.6163V18.2021ZM81.0262 8.77776V10.7568H75.6163V13.0869H77.6308C81.2699 13.0869 82.0253 15.2654 82.0253 16.7018C82.0253 17.8829 81.1643 19.9576 77.6308 19.9576H73.1063V8.77776H81.0262ZM90.9443 15.6006L89.1247 11.0281H89.0922L87.3783 15.6006H90.9443ZM90.6437 8.77776L95.5581 19.9576H92.7313L91.6916 17.436H86.5823L85.5425 19.9576H82.8538L87.7844 8.77776H90.6437ZM99.1728 8.77776V13.2784H104.193V8.77776H106.703V19.9576H104.193V15.1218H99.1728V19.9576H96.6628V8.77776H99.1728ZM112.169 8.77776V13.5498H112.218L116.694 8.77776H119.675L114.517 13.837L120 19.9576H116.816L112.218 14.3956H112.169V19.9576H109.659V8.77776H112.169ZM37.2517 19.7342C36.1551 20.0694 35.0423 20.213 34.0513 20.213C30.9727 20.213 27.6179 18.633 27.6179 14.5632C27.6179 10.7089 30.6234 8.77776 34.5062 8.77776C35.4809 8.77776 36.3095 8.88948 37.2517 9.1608L37.1461 11.076C36.3568 10.797 35.5237 10.6566 34.6849 10.661C31.915 10.661 30.266 12.2411 30.266 14.5233C30.266 17.2285 32.2805 18.3297 34.5062 18.3297C35.6028 18.3297 36.4719 18.0903 37.0893 17.835L37.2517 19.7342ZM66.7704 8.77776V19.9576H64.2605V10.6131H59.3704V19.9576H56.8605V8.77776H66.7704ZM49.3305 8.77776L46.2763 16.8056L43.2302 8.77776H38.99V19.9576H41.5V10.3737H41.5163L45.0822 19.9576H47.4704L51.0444 10.3737H51.0607V19.9576H53.5707V8.77776H49.3305ZM24.0195 1.85119L24.1007 1.81129L24.0195 1.85119ZM26.4239 0.989358C26.6838 1.27664 25.9365 1.72351 25.3354 2.08261C24.9406 2.29391 24.5274 2.47017 24.1007 2.60928L24.052 2.62524C24.0682 2.62524 24.0845 2.62524 24.1007 2.60928C24.1007 2.60928 25.6603 2.13049 25.8553 2.22625C26.0421 2.31403 25.9852 2.6412 25.043 3.07212C24.5637 3.28758 23.7758 3.49505 23.1259 3.65465C23.1259 3.65465 24.4337 3.47111 24.3119 3.71849C24.0926 4.14941 22.5005 4.54042 22.2649 4.60426C22.5005 4.54042 23.9382 4.22123 23.4184 4.64416C22.9554 5.00326 21.5907 5.3065 21.0708 5.41024C21.0708 5.41024 20.9571 5.43418 21.0708 5.41024C21.0708 5.41024 22.4111 5.17882 22.3137 5.33842C22.1837 5.55388 20.3642 6.04065 20.291 6.05661C20.3398 6.04065 21.3633 5.77731 21.2008 6.04065C21.0384 6.31197 19.5356 6.88652 19.4625 7.35734C19.4098 7.77281 19.3908 8.19175 19.4056 8.61019L19.4219 9.86303L19.5356 10.4615L19.7143 11.1717L19.5925 11.6505C19.5925 11.6505 19.7793 12.1293 19.7631 12.2411C19.7387 12.3448 19.7306 12.5762 19.7306 12.5762L19.9174 13.055C19.9174 13.055 19.9905 13.2864 19.9174 13.4061L19.8443 13.5258L19.9824 13.9408C19.9824 13.9408 20.0149 14.0365 19.9418 14.2281C19.8687 14.4276 19.9011 14.2121 19.8687 14.4276C19.828 14.635 19.7793 14.5792 19.8037 14.7467C19.828 14.9143 19.958 15.058 19.9011 15.2255C19.8443 15.3931 20.0474 14.9782 19.8443 15.3931C19.6412 15.7921 19.625 15.8959 19.625 15.8959C19.625 15.8959 19.8687 16.0634 19.7549 16.1991C19.625 16.3268 19.56 16.223 19.5519 16.4465C19.5437 16.6779 19.56 16.5742 19.5275 16.7816C19.4788 16.9971 19.4544 16.9811 19.43 17.0849C19.4056 17.1966 19.5194 17.2844 19.4706 17.3721C19.4138 17.4679 19.43 17.5876 19.43 17.5876L19.3732 17.6834C19.3244 17.7711 19.3488 17.5078 19.3244 17.7711L19.2919 18.0345C19.2919 18.0345 19.3488 18.0105 19.2188 18.226C19.0889 18.4335 19.0401 18.5213 19.0482 18.6489C19.0645 18.7686 19.1782 18.7846 19.032 19.032C18.8939 19.2714 18.6502 19.3033 18.5446 19.4868C18.439 19.6704 18.1791 20.3886 18.7964 21.3541C19.218 22.0749 19.8014 22.6917 20.5022 23.1576C20.9815 23.4369 23.9789 24.6738 24.1088 24.8094C24.2388 24.9531 24.9049 25.2004 25.0023 25.7511C25.0998 26.3097 25.2704 26.7406 25.2704 26.7406C25.2704 26.7406 22.9391 27.1875 22.598 26.9082C22.2568 26.6209 21.1358 25.1845 19.893 25.0329C19.3 24.969 16.6357 24.8733 14.4669 24.0035C13.6381 23.6618 12.8462 23.2394 12.1031 22.7426C11.2665 23.1177 10.3405 23.3651 9.35759 23.4608C4.73564 23.9316 0.576703 20.9312 0.0568359 16.7577C-0.00259055 16.1263 -0.0134519 15.4914 0.0243442 14.8585C0.0487129 14.6031 0.0487129 14.4595 0.0893276 14.268C0.280079 12.8194 0.908175 11.4603 1.89262 10.3658C3.35956 8.7349 5.40506 7.71588 7.61116 7.51694C8.99205 7.3733 10.3567 7.54088 11.6158 7.97977L11.6401 8.37877C10.3755 7.91468 9.01981 7.74002 7.67614 7.86805C5.54628 8.07459 3.58089 9.08432 2.19317 10.685C1.48704 11.5233 0.984277 12.5084 0.722916 13.5657C0.479114 14.43 0.412844 15.3333 0.527966 16.223C1.03971 20.3327 4.93059 23.0937 9.47943 22.6309C10.1374 22.5671 10.7791 22.4314 11.3802 22.2319C10.6897 21.7212 10.2755 21.3302 10.2755 21.3302C10.2755 21.3302 8.23662 19.2075 7.65177 18.9601C7.15023 18.6874 6.72156 18.3018 6.40084 17.835C6.20589 17.5876 4.60567 17.037 4.60567 17.037C4.60567 17.037 5.25551 16.6619 5.66165 16.7098C6.0678 16.7417 6.42521 17.0769 6.67702 17.0849C6.92883 17.0928 7.70863 16.9652 7.89546 16.9811C8.53717 17.037 9.04079 17.6594 9.13015 17.7871C9.22762 17.9068 9.94244 18.3776 10.6654 18.4574C10.974 18.4893 12.095 18.641 12.5499 18.1781C12.6961 18.0345 12.8017 17.843 12.8829 17.6435L12.9398 17.4839C12.9804 17.3801 13.0292 17.2365 13.0779 17.037C13.3053 15.9597 13.3947 13.7094 13.3947 13.7094C13.3947 13.7094 13.7521 10.4136 14.1014 8.19523C14.2151 7.46108 14.3207 6.80672 14.4425 6.26409L14.4588 6.18429L14.475 6.15237C14.5616 5.77545 14.6897 5.40889 14.8568 5.05912L14.8812 5.03518C15.1411 4.76386 18.0979 3.58283 19.7224 2.92848C21.6882 2.16241 23.5971 1.42825 23.9626 1.22078C24.7343 0.78986 25.0023 0.726021 25.1242 0.86168C25.3598 1.12502 24.7262 1.46017 24.3281 1.68361L24.2388 1.74745C24.2388 1.74745 26.2695 0.82976 26.4239 0.989358Z" fill="#0F4D76"/>
</svg>
