<svg width="166" height="45" viewBox="0 0 166 45" fill="none" xmlns="http://www.w3.org/2000/svg">
<path fill-rule="evenodd" clip-rule="evenodd" d="M9.30959 0C3.62506 4.65596 0 11.7134 0 19.6138C0 33.6342 11.4167 45 25.5 45C39.5833 45 51 33.6342 51 19.6138C51 13.5885 48.8915 8.05345 45.3689 3.70009L29.7407 15.548L9.30959 0Z" fill="white"/>
<path fill-rule="evenodd" clip-rule="evenodd" d="M9.30961 0C7.6795 1.33515 6.21874 2.86779 4.96426 4.56116L29.8798 23.6326L48.7885 9.25731C47.8882 7.25409 46.7349 5.38824 45.3689 3.70009L29.7407 15.548L9.30961 0ZM51 19.6138C51 33.6342 39.5833 45 25.5 45C11.4167 45 0 33.6342 0 19.6138C0 14.9727 1.25104 10.6224 3.43571 6.87905L29.7407 26.8971L49.7465 11.7304C50.5601 14.212 51 16.8618 51 19.6138Z" fill="#0B9A05"/>
<path d="M75.32 18.2C75.8333 18.1867 76.3033 18.08 76.73 17.88C77.1567 17.68 77.5233 17.4133 77.83 17.08C78.1367 16.74 78.3733 16.3467 78.54 15.9C78.7133 15.4467 78.8 14.96 78.8 14.44C78.8 13.9333 78.7133 13.4567 78.54 13.01C78.3733 12.5567 78.1367 12.16 77.83 11.82C77.5233 11.48 77.1567 11.21 76.73 11.01C76.3033 10.81 75.8333 10.7033 75.32 10.69V18.2ZM72.77 10.69C72.25 10.7033 71.7767 10.81 71.35 11.01C70.93 11.21 70.5667 11.48 70.26 11.82C69.9533 12.16 69.7167 12.5567 69.55 13.01C69.3833 13.4567 69.3 13.9333 69.3 14.44C69.3 14.96 69.3833 15.4467 69.55 15.9C69.7167 16.3467 69.9533 16.74 70.26 17.08C70.5667 17.4133 70.93 17.68 71.35 17.88C71.7767 18.08 72.25 18.1867 72.77 18.2V10.69ZM75.32 8.62C76.22 8.64667 77.0467 8.81667 77.8 9.13C78.5533 9.44333 79.2 9.86333 79.74 10.39C80.2867 10.9167 80.7133 11.5267 81.02 12.22C81.3267 12.9133 81.48 13.6533 81.48 14.44C81.48 15.2333 81.3267 15.98 81.02 16.68C80.7133 17.3733 80.2867 17.9833 79.74 18.51C79.2 19.0367 78.5533 19.4567 77.8 19.77C77.0467 20.0833 76.22 20.2533 75.32 20.28V22H72.77V20.28C71.8767 20.2533 71.0533 20.0833 70.3 19.77C69.5467 19.45 68.8967 19.03 68.35 18.51C67.8033 17.9833 67.3767 17.3733 67.07 16.68C66.7633 15.98 66.61 15.2333 66.61 14.44C66.61 13.6533 66.7633 12.9133 67.07 12.22C67.3767 11.5267 67.8033 10.92 68.35 10.4C68.8967 9.87333 69.5467 9.45333 70.3 9.14C71.0533 8.82667 71.8767 8.65333 72.77 8.62V6.93H75.32V8.62ZM92.3775 11.74V22H89.9075V16.01C89.9075 15.8567 89.9142 15.69 89.9275 15.51C89.9475 15.3233 89.9708 15.1367 89.9975 14.95C89.8642 15.2567 89.7175 15.5267 89.5575 15.76C89.5442 15.7733 89.4775 15.8667 89.3575 16.04C89.2375 16.2067 89.0808 16.4233 88.8875 16.69C88.7008 16.9567 88.4875 17.26 88.2475 17.6C88.0075 17.9333 87.7642 18.2733 87.5175 18.62C86.9375 19.44 86.2808 20.3667 85.5475 21.4C85.4542 21.54 85.3308 21.6767 85.1775 21.81C85.0308 21.9433 84.8608 22.01 84.6675 22.01H83.1575V11.75H85.6275V17.74C85.6275 17.8933 85.6175 18.0633 85.5975 18.25C85.5842 18.43 85.5642 18.6133 85.5375 18.8C85.6842 18.4733 85.8308 18.2033 85.9775 17.99C85.9842 17.9767 86.0475 17.8867 86.1675 17.72C86.2875 17.5533 86.4408 17.3367 86.6275 17.07C86.8208 16.8033 87.0375 16.5033 87.2775 16.17C87.5175 15.83 87.7608 15.4833 88.0075 15.13C88.5875 14.31 89.2475 13.3833 89.9875 12.35C90.0808 12.2033 90.2042 12.0667 90.3575 11.94C90.5108 11.8067 90.6842 11.74 90.8775 11.74H92.3775ZM103.758 11.74V22H101.288V17.46H97.2877V22H94.8177V11.74H97.2877V15.63H101.288V11.74H103.758ZM112.334 12.39C112.454 12.1967 112.618 12.04 112.824 11.92C113.031 11.8 113.251 11.74 113.484 11.74H115.424L113.034 15.55C112.868 15.8167 112.698 16.0333 112.524 16.2C112.351 16.36 112.141 16.4867 111.894 16.58C112.228 16.68 112.501 16.83 112.714 17.03C112.928 17.2233 113.121 17.47 113.294 17.77L115.694 22H113.984C113.551 22 113.214 21.9267 112.974 21.78C112.734 21.6333 112.531 21.4233 112.364 21.15L110.854 18.31C110.721 18.0633 110.548 17.88 110.334 17.76C110.128 17.64 109.884 17.58 109.604 17.58H108.674V22H106.204V11.74H108.674V15.97H109.474C109.754 15.97 109.978 15.92 110.144 15.82C110.318 15.7133 110.464 15.5533 110.584 15.34L112.334 12.39ZM121.233 11.58C121.993 11.58 122.683 11.7033 123.303 11.95C123.929 12.1967 124.463 12.5467 124.903 13C125.349 13.4533 125.693 14.0067 125.933 14.66C126.173 15.3133 126.293 16.0433 126.293 16.85C126.293 17.6633 126.173 18.3967 125.933 19.05C125.693 19.7033 125.349 20.26 124.903 20.72C124.463 21.18 123.929 21.5333 123.303 21.78C122.683 22.0267 121.993 22.15 121.233 22.15C120.466 22.15 119.769 22.0267 119.143 21.78C118.516 21.5333 117.979 21.18 117.533 20.72C117.093 20.26 116.749 19.7033 116.503 19.05C116.263 18.3967 116.143 17.6633 116.143 16.85C116.143 16.0433 116.263 15.3133 116.503 14.66C116.749 14.0067 117.093 13.4533 117.533 13C117.979 12.5467 118.516 12.1967 119.143 11.95C119.769 11.7033 120.466 11.58 121.233 11.58ZM121.233 20.25C122.086 20.25 122.716 19.9633 123.123 19.39C123.536 18.8167 123.743 17.9767 123.743 16.87C123.743 15.7633 123.536 14.92 123.123 14.34C122.716 13.76 122.086 13.47 121.233 13.47C120.366 13.47 119.723 13.7633 119.303 14.35C118.889 14.93 118.683 15.77 118.683 16.87C118.683 17.97 118.889 18.81 119.303 19.39C119.723 19.9633 120.366 20.25 121.233 20.25ZM140.067 11.72V22H137.837V16.28C137.837 16.0467 137.847 15.7833 137.867 15.49C137.894 15.1967 137.934 14.9233 137.987 14.67L134.967 20.21C134.82 20.4967 134.587 20.64 134.267 20.64H134.007C133.687 20.64 133.454 20.4967 133.307 20.21L130.247 14.64C130.294 14.8933 130.33 15.17 130.357 15.47C130.39 15.77 130.407 16.04 130.407 16.28V22H128.177V11.72H130.217C130.39 11.72 130.56 11.7567 130.727 11.83C130.9 11.9033 131.044 12.05 131.157 12.27L133.577 16.59C133.684 16.79 133.784 17.0033 133.877 17.23C133.97 17.45 134.057 17.6733 134.137 17.9C134.217 17.6733 134.3 17.4467 134.387 17.22C134.48 16.9933 134.58 16.7833 134.687 16.59L137.087 12.27C137.207 12.0433 137.35 11.8967 137.517 11.83C137.684 11.7567 137.854 11.72 138.027 11.72H140.067ZM151.103 19.7C151.37 19.7 151.58 19.7767 151.733 19.93C151.893 20.0767 151.973 20.2733 151.973 20.52V22H142.053V21.18C142.053 21.0133 142.086 20.84 142.153 20.66C142.226 20.4733 142.34 20.3067 142.493 20.16L146.883 15.76C147.25 15.3867 147.576 15.03 147.863 14.69C148.156 14.35 148.4 14.0133 148.593 13.68C148.786 13.3467 148.933 13.01 149.033 12.67C149.14 12.3233 149.193 11.96 149.193 11.58C149.193 11.2333 149.143 10.93 149.043 10.67C148.943 10.4033 148.8 10.18 148.613 10C148.433 9.82 148.213 9.68667 147.953 9.6C147.7 9.50667 147.413 9.46 147.093 9.46C146.8 9.46 146.526 9.50333 146.273 9.59C146.026 9.67 145.806 9.78667 145.613 9.94C145.42 10.0867 145.256 10.26 145.123 10.46C144.99 10.66 144.89 10.88 144.823 11.12C144.71 11.4267 144.563 11.63 144.383 11.73C144.203 11.83 143.943 11.8533 143.603 11.8L142.303 11.57C142.403 10.8767 142.596 10.27 142.883 9.75C143.17 9.22333 143.526 8.78667 143.953 8.44C144.386 8.08667 144.88 7.82333 145.433 7.65C145.993 7.47 146.593 7.38 147.233 7.38C147.9 7.38 148.51 7.48 149.063 7.68C149.616 7.87333 150.09 8.15 150.483 8.51C150.876 8.87 151.183 9.30333 151.403 9.81C151.623 10.3167 151.733 10.88 151.733 11.5C151.733 12.0333 151.653 12.5267 151.493 12.98C151.34 13.4333 151.13 13.8667 150.863 14.28C150.603 14.6933 150.296 15.0933 149.943 15.48C149.59 15.8667 149.22 16.26 148.833 16.66L145.573 19.99C145.886 19.8967 146.196 19.8267 146.503 19.78C146.816 19.7267 147.113 19.7 147.393 19.7H151.103ZM160.015 16.55V11.82C160.015 11.3733 160.045 10.88 160.105 10.34L155.615 16.55H160.015ZM163.985 16.55V17.98C163.985 18.1133 163.941 18.23 163.855 18.33C163.768 18.4233 163.645 18.47 163.485 18.47H162.165V22H160.015V18.47H153.915C153.748 18.47 153.601 18.42 153.475 18.32C153.348 18.2133 153.268 18.0833 153.235 17.93L152.975 16.68L159.825 7.53H162.165V16.55H163.985Z" fill="black"/>
<path d="M69.325 34.95C69.575 34.95 69.7833 34.9233 69.95 34.87C70.12 34.8133 70.2567 34.7367 70.36 34.64C70.4633 34.5433 70.5367 34.43 70.58 34.3C70.6233 34.17 70.645 34.03 70.645 33.88C70.645 33.7167 70.6233 33.5683 70.58 33.435C70.5367 33.3017 70.4633 33.19 70.36 33.1C70.2567 33.0067 70.1217 32.935 69.955 32.885C69.7883 32.835 69.58 32.81 69.33 32.81H68.15V34.95H69.325ZM69.33 31.76C69.8 31.76 70.2017 31.8117 70.535 31.915C70.8717 32.0183 71.145 32.16 71.355 32.34C71.5683 32.5167 71.725 32.7267 71.825 32.97C71.925 33.21 71.975 33.4683 71.975 33.745C71.975 34.085 71.915 34.3933 71.795 34.67C71.6783 34.9467 71.5067 35.185 71.28 35.385C71.0533 35.5817 70.775 35.7333 70.445 35.84C70.1183 35.9467 69.745 36 69.325 36H66.805V28.77H71.71V29.81H68.15V31.76H69.33ZM75.5993 33.81C75.2426 33.8267 74.9426 33.8583 74.6993 33.905C74.456 33.9483 74.261 34.005 74.1143 34.075C73.9676 34.145 73.8626 34.2267 73.7993 34.32C73.736 34.4133 73.7043 34.515 73.7043 34.625C73.7043 34.8417 73.7676 34.9967 73.8943 35.09C74.0243 35.1833 74.1926 35.23 74.3993 35.23C74.6526 35.23 74.871 35.185 75.0543 35.095C75.241 35.0017 75.4226 34.8617 75.5993 34.675V33.81ZM72.7693 31.585C73.3593 31.045 74.0693 30.775 74.8993 30.775C75.1993 30.775 75.4676 30.825 75.7043 30.925C75.941 31.0217 76.141 31.1583 76.3043 31.335C76.4676 31.5083 76.591 31.7167 76.6743 31.96C76.761 32.2033 76.8043 32.47 76.8043 32.76V36H76.2443C76.1276 36 76.0376 35.9833 75.9743 35.95C75.911 35.9133 75.861 35.8417 75.8243 35.735L75.7143 35.365C75.5843 35.4817 75.4576 35.585 75.3343 35.675C75.211 35.7617 75.0826 35.835 74.9493 35.895C74.816 35.955 74.6726 36 74.5193 36.03C74.3693 36.0633 74.2026 36.08 74.0193 36.08C73.8026 36.08 73.6026 36.0517 73.4193 35.995C73.236 35.935 73.0776 35.8467 72.9443 35.73C72.811 35.6133 72.7076 35.4683 72.6343 35.295C72.561 35.1217 72.5243 34.92 72.5243 34.69C72.5243 34.56 72.546 34.4317 72.5893 34.305C72.6326 34.175 72.7026 34.0517 72.7993 33.935C72.8993 33.8183 73.0276 33.7083 73.1843 33.605C73.341 33.5017 73.5326 33.4117 73.7593 33.335C73.9893 33.2583 74.256 33.1967 74.5593 33.15C74.8626 33.1 75.2093 33.07 75.5993 33.06V32.76C75.5993 32.4167 75.526 32.1633 75.3793 32C75.2326 31.8333 75.021 31.75 74.7443 31.75C74.5443 31.75 74.3776 31.7733 74.2443 31.82C74.1143 31.8667 73.9993 31.92 73.8993 31.98C73.7993 32.0367 73.7076 32.0883 73.6243 32.135C73.5443 32.1817 73.4543 32.205 73.3543 32.205C73.2676 32.205 73.1943 32.1833 73.1343 32.14C73.0743 32.0933 73.026 32.04 72.9893 31.98L72.7693 31.585ZM82.4374 30.87V36H81.2024V33.73H79.2024V36H77.9674V30.87H79.2024V32.815H81.2024V30.87H82.4374ZM86.7258 31.195C86.7858 31.0983 86.8674 31.02 86.9708 30.96C87.0741 30.9 87.1841 30.87 87.3008 30.87H88.2708L87.0758 32.775C86.9924 32.9083 86.9074 33.0167 86.8208 33.1C86.7341 33.18 86.6291 33.2433 86.5058 33.29C86.6724 33.34 86.8091 33.415 86.9158 33.515C87.0224 33.6117 87.1191 33.735 87.2058 33.885L88.4058 36H87.5508C87.3341 36 87.1658 35.9633 87.0458 35.89C86.9258 35.8167 86.8241 35.7117 86.7408 35.575L85.9858 34.155C85.9191 34.0317 85.8324 33.94 85.7258 33.88C85.6224 33.82 85.5008 33.79 85.3608 33.79H84.8958V36H83.6608V30.87H84.8958V32.985H85.2958C85.4358 32.985 85.5474 32.96 85.6308 32.91C85.7174 32.8567 85.7908 32.7767 85.8508 32.67L86.7258 31.195ZM91.1749 30.79C91.5549 30.79 91.8999 30.8517 92.2099 30.975C92.5233 31.0983 92.7899 31.2733 93.0099 31.5C93.2333 31.7267 93.4049 32.0033 93.5249 32.33C93.6449 32.6567 93.7049 33.0217 93.7049 33.425C93.7049 33.8317 93.6449 34.1983 93.5249 34.525C93.4049 34.8517 93.2333 35.13 93.0099 35.36C92.7899 35.59 92.5233 35.7667 92.2099 35.89C91.8999 36.0133 91.5549 36.075 91.1749 36.075C90.7916 36.075 90.4433 36.0133 90.1299 35.89C89.8166 35.7667 89.5483 35.59 89.3249 35.36C89.1049 35.13 88.9333 34.8517 88.8099 34.525C88.6899 34.1983 88.6299 33.8317 88.6299 33.425C88.6299 33.0217 88.6899 32.6567 88.8099 32.33C88.9333 32.0033 89.1049 31.7267 89.3249 31.5C89.5483 31.2733 89.8166 31.0983 90.1299 30.975C90.4433 30.8517 90.7916 30.79 91.1749 30.79ZM91.1749 35.125C91.6016 35.125 91.9166 34.9817 92.1199 34.695C92.3266 34.4083 92.4299 33.9883 92.4299 33.435C92.4299 32.8817 92.3266 32.46 92.1199 32.17C91.9166 31.88 91.6016 31.735 91.1749 31.735C90.7416 31.735 90.4199 31.8817 90.2099 32.175C90.0033 32.465 89.8999 32.885 89.8999 33.435C89.8999 33.985 90.0033 34.405 90.2099 34.695C90.4199 34.9817 90.7416 35.125 91.1749 35.125ZM96.7421 35.155C97.0021 35.155 97.2071 35.0917 97.3571 34.965C97.5104 34.8383 97.5871 34.665 97.5871 34.445C97.5871 34.3517 97.5738 34.265 97.5471 34.185C97.5238 34.1017 97.4804 34.03 97.4171 33.97C97.3538 33.91 97.2671 33.8633 97.1571 33.83C97.0504 33.7967 96.9138 33.78 96.7471 33.78H95.8221V35.155H96.7421ZM95.8221 31.675V33.02H96.6321C96.7521 33.02 96.8621 33.0033 96.9621 32.97C97.0621 32.9333 97.1488 32.8833 97.2221 32.82C97.2954 32.7533 97.3521 32.6767 97.3921 32.59C97.4321 32.5 97.4521 32.4017 97.4521 32.295C97.4521 32.2183 97.4388 32.1433 97.4121 32.07C97.3854 31.9933 97.3404 31.9267 97.2771 31.87C97.2138 31.81 97.1288 31.7633 97.0221 31.73C96.9188 31.6933 96.7888 31.675 96.6321 31.675H95.8221ZM96.6671 30.87C96.9904 30.87 97.2688 30.9017 97.5021 30.965C97.7388 31.0283 97.9338 31.115 98.0871 31.225C98.2404 31.335 98.3538 31.4667 98.4271 31.62C98.5004 31.77 98.5371 31.9333 98.5371 32.11C98.5371 32.22 98.5221 32.335 98.4921 32.455C98.4654 32.5717 98.4154 32.685 98.3421 32.795C98.2721 32.905 98.1754 33.005 98.0521 33.095C97.9288 33.185 97.7721 33.255 97.5821 33.305C97.7521 33.3417 97.9071 33.3933 98.0471 33.46C98.1871 33.5233 98.3071 33.605 98.4071 33.705C98.5071 33.8017 98.5838 33.9167 98.6371 34.05C98.6938 34.18 98.7221 34.3267 98.7221 34.49C98.7221 34.75 98.6671 34.975 98.5571 35.165C98.4504 35.355 98.3054 35.5117 98.1221 35.635C97.9421 35.7583 97.7321 35.85 97.4921 35.91C97.2554 35.97 97.0071 36 96.7471 36H94.6471V30.87H96.6671ZM103.351 31.955C103.315 32.0017 103.278 32.0383 103.241 32.065C103.208 32.0917 103.158 32.105 103.091 32.105C103.028 32.105 102.966 32.0867 102.906 32.05C102.846 32.01 102.775 31.9667 102.691 31.92C102.608 31.87 102.508 31.8267 102.391 31.79C102.278 31.75 102.136 31.73 101.966 31.73C101.75 31.73 101.56 31.77 101.396 31.85C101.233 31.9267 101.096 32.0383 100.986 32.185C100.88 32.3317 100.8 32.51 100.746 32.72C100.693 32.9267 100.666 33.1617 100.666 33.425C100.666 33.6983 100.695 33.9417 100.751 34.155C100.811 34.3683 100.896 34.5483 101.006 34.695C101.116 34.8383 101.25 34.9483 101.406 35.025C101.563 35.0983 101.74 35.135 101.936 35.135C102.133 35.135 102.291 35.1117 102.411 35.065C102.535 35.015 102.638 34.9617 102.721 34.905C102.805 34.845 102.876 34.7917 102.936 34.745C103 34.695 103.07 34.67 103.146 34.67C103.246 34.67 103.321 34.7083 103.371 34.785L103.726 35.235C103.59 35.395 103.441 35.53 103.281 35.64C103.121 35.7467 102.955 35.8333 102.781 35.9C102.611 35.9633 102.435 36.0083 102.251 36.035C102.071 36.0617 101.891 36.075 101.711 36.075C101.395 36.075 101.096 36.0167 100.816 35.9C100.536 35.78 100.291 35.6067 100.081 35.38C99.8714 35.1533 99.7047 34.8767 99.5814 34.55C99.4614 34.22 99.4014 33.845 99.4014 33.425C99.4014 33.0483 99.4547 32.7 99.5614 32.38C99.6714 32.0567 99.8314 31.7783 100.041 31.545C100.251 31.3083 100.511 31.1233 100.821 30.99C101.131 30.8567 101.488 30.79 101.891 30.79C102.275 30.79 102.61 30.8517 102.896 30.975C103.186 31.0983 103.446 31.275 103.676 31.505L103.351 31.955ZM107.566 31.195C107.626 31.0983 107.707 31.02 107.811 30.96C107.914 30.9 108.024 30.87 108.141 30.87H109.111L107.916 32.775C107.832 32.9083 107.747 33.0167 107.661 33.1C107.574 33.18 107.469 33.2433 107.346 33.29C107.512 33.34 107.649 33.415 107.756 33.515C107.862 33.6117 107.959 33.735 108.046 33.885L109.246 36H108.391C108.174 36 108.006 35.9633 107.886 35.89C107.766 35.8167 107.664 35.7117 107.581 35.575L106.826 34.155C106.759 34.0317 106.672 33.94 106.566 33.88C106.462 33.82 106.341 33.79 106.201 33.79H105.736V36H104.501V30.87H105.736V32.985H106.136C106.276 32.985 106.387 32.96 106.471 32.91C106.557 32.8567 106.631 32.7767 106.691 32.67L107.566 31.195ZM114.54 30.87V36H113.305V33.005C113.305 32.9283 113.309 32.845 113.315 32.755C113.325 32.6617 113.337 32.5683 113.35 32.475C113.284 32.6283 113.21 32.7633 113.13 32.88C113.124 32.8867 113.09 32.9333 113.03 33.02C112.97 33.1033 112.892 33.2117 112.795 33.345C112.702 33.4783 112.595 33.63 112.475 33.8C112.355 33.9667 112.234 34.1367 112.11 34.31C111.82 34.72 111.492 35.1833 111.125 35.7C111.079 35.77 111.017 35.8383 110.94 35.905C110.867 35.9717 110.782 36.005 110.685 36.005H109.93V30.875H111.165V33.87C111.165 33.9467 111.16 34.0317 111.15 34.125C111.144 34.215 111.134 34.3067 111.12 34.4C111.194 34.2367 111.267 34.1017 111.34 33.995C111.344 33.9883 111.375 33.9433 111.435 33.86C111.495 33.7767 111.572 33.6683 111.665 33.535C111.762 33.4017 111.87 33.2517 111.99 33.085C112.11 32.915 112.232 32.7417 112.355 32.565C112.645 32.155 112.975 31.6917 113.345 31.175C113.392 31.1017 113.454 31.0333 113.53 30.97C113.607 30.9033 113.694 30.87 113.79 30.87H114.54ZM119.065 32.845C119.065 32.685 119.042 32.535 118.995 32.395C118.952 32.2517 118.885 32.1267 118.795 32.02C118.705 31.9133 118.59 31.83 118.45 31.77C118.314 31.7067 118.154 31.675 117.97 31.675C117.614 31.675 117.332 31.7767 117.125 31.98C116.922 32.1833 116.792 32.4717 116.735 32.845H119.065ZM116.71 33.59C116.73 33.8533 116.777 34.0817 116.85 34.275C116.924 34.465 117.02 34.6233 117.14 34.75C117.26 34.8733 117.402 34.9667 117.565 35.03C117.732 35.09 117.915 35.12 118.115 35.12C118.315 35.12 118.487 35.0967 118.63 35.05C118.777 35.0033 118.904 34.9517 119.01 34.895C119.12 34.8383 119.215 34.7867 119.295 34.74C119.379 34.6933 119.459 34.67 119.535 34.67C119.639 34.67 119.715 34.7083 119.765 34.785L120.12 35.235C119.984 35.395 119.83 35.53 119.66 35.64C119.49 35.7467 119.312 35.8333 119.125 35.9C118.942 35.9633 118.754 36.0083 118.56 36.035C118.37 36.0617 118.185 36.075 118.005 36.075C117.649 36.075 117.317 36.0167 117.01 35.9C116.704 35.78 116.437 35.605 116.21 35.375C115.984 35.1417 115.805 34.855 115.675 34.515C115.545 34.1717 115.48 33.775 115.48 33.325C115.48 32.975 115.537 32.6467 115.65 32.34C115.764 32.03 115.925 31.7617 116.135 31.535C116.349 31.305 116.607 31.1233 116.91 30.99C117.217 30.8567 117.562 30.79 117.945 30.79C118.269 30.79 118.567 30.8417 118.84 30.945C119.114 31.0483 119.349 31.2 119.545 31.4C119.742 31.5967 119.895 31.84 120.005 32.13C120.119 32.4167 120.175 32.745 120.175 33.115C120.175 33.3017 120.155 33.4283 120.115 33.495C120.075 33.5583 119.999 33.59 119.885 33.59H116.71ZM127.009 31.785H124.769V36H123.534V30.87H127.009V31.785ZM130.424 33.81C130.067 33.8267 129.767 33.8583 129.524 33.905C129.28 33.9483 129.085 34.005 128.939 34.075C128.792 34.145 128.687 34.2267 128.624 34.32C128.56 34.4133 128.529 34.515 128.529 34.625C128.529 34.8417 128.592 34.9967 128.719 35.09C128.849 35.1833 129.017 35.23 129.224 35.23C129.477 35.23 129.695 35.185 129.879 35.095C130.065 35.0017 130.247 34.8617 130.424 34.675V33.81ZM127.594 31.585C128.184 31.045 128.894 30.775 129.724 30.775C130.024 30.775 130.292 30.825 130.529 30.925C130.765 31.0217 130.965 31.1583 131.129 31.335C131.292 31.5083 131.415 31.7167 131.499 31.96C131.585 32.2033 131.629 32.47 131.629 32.76V36H131.069C130.952 36 130.862 35.9833 130.799 35.95C130.735 35.9133 130.685 35.8417 130.649 35.735L130.539 35.365C130.409 35.4817 130.282 35.585 130.159 35.675C130.035 35.7617 129.907 35.835 129.774 35.895C129.64 35.955 129.497 36 129.344 36.03C129.194 36.0633 129.027 36.08 128.844 36.08C128.627 36.08 128.427 36.0517 128.244 35.995C128.06 35.935 127.902 35.8467 127.769 35.73C127.635 35.6133 127.532 35.4683 127.459 35.295C127.385 35.1217 127.349 34.92 127.349 34.69C127.349 34.56 127.37 34.4317 127.414 34.305C127.457 34.175 127.527 34.0517 127.624 33.935C127.724 33.8183 127.852 33.7083 128.009 33.605C128.165 33.5017 128.357 33.4117 128.584 33.335C128.814 33.2583 129.08 33.1967 129.384 33.15C129.687 33.1 130.034 33.07 130.424 33.06V32.76C130.424 32.4167 130.35 32.1633 130.204 32C130.057 31.8333 129.845 31.75 129.569 31.75C129.369 31.75 129.202 31.7733 129.069 31.82C128.939 31.8667 128.824 31.92 128.724 31.98C128.624 32.0367 128.532 32.0883 128.449 32.135C128.369 32.1817 128.279 32.205 128.179 32.205C128.092 32.205 128.019 32.1833 127.959 32.14C127.899 32.0933 127.85 32.04 127.814 31.98L127.594 31.585ZM134.027 34.67C134.167 34.84 134.318 34.96 134.482 35.03C134.648 35.1 134.828 35.135 135.022 35.135C135.208 35.135 135.377 35.1 135.527 35.03C135.677 34.96 135.803 34.8533 135.907 34.71C136.013 34.5667 136.095 34.3867 136.152 34.17C136.208 33.95 136.237 33.6917 136.237 33.395C136.237 33.095 136.212 32.8417 136.162 32.635C136.115 32.425 136.047 32.255 135.957 32.125C135.867 31.995 135.757 31.9 135.627 31.84C135.5 31.78 135.355 31.75 135.192 31.75C134.935 31.75 134.717 31.805 134.537 31.915C134.357 32.0217 134.187 32.1733 134.027 32.37V34.67ZM133.962 31.57C134.172 31.3333 134.41 31.1417 134.677 30.995C134.943 30.8483 135.257 30.775 135.617 30.775C135.897 30.775 136.152 30.8333 136.382 30.95C136.615 31.0667 136.815 31.2367 136.982 31.46C137.152 31.68 137.282 31.9533 137.372 32.28C137.465 32.6033 137.512 32.975 137.512 33.395C137.512 33.7783 137.46 34.1333 137.357 34.46C137.253 34.7867 137.105 35.07 136.912 35.31C136.722 35.55 136.49 35.7383 136.217 35.875C135.947 36.0083 135.643 36.075 135.307 36.075C135.02 36.075 134.775 36.0317 134.572 35.945C134.368 35.855 134.187 35.7317 134.027 35.575V37.675H132.792V30.87H133.547C133.707 30.87 133.812 30.945 133.862 31.095L133.962 31.57ZM141.175 33.81C140.819 33.8267 140.519 33.8583 140.275 33.905C140.032 33.9483 139.837 34.005 139.69 34.075C139.544 34.145 139.439 34.2267 139.375 34.32C139.312 34.4133 139.28 34.515 139.28 34.625C139.28 34.8417 139.344 34.9967 139.47 35.09C139.6 35.1833 139.769 35.23 139.975 35.23C140.229 35.23 140.447 35.185 140.63 35.095C140.817 35.0017 140.999 34.8617 141.175 34.675V33.81ZM138.345 31.585C138.935 31.045 139.645 30.775 140.475 30.775C140.775 30.775 141.044 30.825 141.28 30.925C141.517 31.0217 141.717 31.1583 141.88 31.335C142.044 31.5083 142.167 31.7167 142.25 31.96C142.337 32.2033 142.38 32.47 142.38 32.76V36H141.82C141.704 36 141.614 35.9833 141.55 35.95C141.487 35.9133 141.437 35.8417 141.4 35.735L141.29 35.365C141.16 35.4817 141.034 35.585 140.91 35.675C140.787 35.7617 140.659 35.835 140.525 35.895C140.392 35.955 140.249 36 140.095 36.03C139.945 36.0633 139.779 36.08 139.595 36.08C139.379 36.08 139.179 36.0517 138.995 35.995C138.812 35.935 138.654 35.8467 138.52 35.73C138.387 35.6133 138.284 35.4683 138.21 35.295C138.137 35.1217 138.1 34.92 138.1 34.69C138.1 34.56 138.122 34.4317 138.165 34.305C138.209 34.175 138.279 34.0517 138.375 33.935C138.475 33.8183 138.604 33.7083 138.76 33.605C138.917 33.5017 139.109 33.4117 139.335 33.335C139.565 33.2583 139.832 33.1967 140.135 33.15C140.439 33.1 140.785 33.07 141.175 33.06V32.76C141.175 32.4167 141.102 32.1633 140.955 32C140.809 31.8333 140.597 31.75 140.32 31.75C140.12 31.75 139.954 31.7733 139.82 31.82C139.69 31.8667 139.575 31.92 139.475 31.98C139.375 32.0367 139.284 32.0883 139.2 32.135C139.12 32.1817 139.03 32.205 138.93 32.205C138.844 32.205 138.77 32.1833 138.71 32.14C138.65 32.0933 138.602 32.04 138.565 31.98L138.345 31.585ZM148.014 30.87V36H146.779V33.73H144.779V36H143.544V30.87H144.779V32.815H146.779V30.87H148.014ZM153.637 31.785H151.807V36H150.572V31.785H148.747V30.87H153.637V31.785ZM158.974 30.87V36H157.739V33.005C157.739 32.9283 157.742 32.845 157.749 32.755C157.759 32.6617 157.771 32.5683 157.784 32.475C157.717 32.6283 157.644 32.7633 157.564 32.88C157.557 32.8867 157.524 32.9333 157.464 33.02C157.404 33.1033 157.326 33.2117 157.229 33.345C157.136 33.4783 157.029 33.63 156.909 33.8C156.789 33.9667 156.667 34.1367 156.544 34.31C156.254 34.72 155.926 35.1833 155.559 35.7C155.512 35.77 155.451 35.8383 155.374 35.905C155.301 35.9717 155.216 36.005 155.119 36.005H154.364V30.875H155.599V33.87C155.599 33.9467 155.594 34.0317 155.584 34.125C155.577 34.215 155.567 34.3067 155.554 34.4C155.627 34.2367 155.701 34.1017 155.774 33.995C155.777 33.9883 155.809 33.9433 155.869 33.86C155.929 33.7767 156.006 33.6683 156.099 33.535C156.196 33.4017 156.304 33.2517 156.424 33.085C156.544 32.915 156.666 32.7417 156.789 32.565C157.079 32.155 157.409 31.6917 157.779 31.175C157.826 31.1017 157.887 31.0333 157.964 30.97C158.041 30.9033 158.127 30.87 158.224 30.87H158.974ZM164.804 30.87V36H163.569V33.005C163.569 32.9283 163.572 32.845 163.579 32.755C163.589 32.6617 163.601 32.5683 163.614 32.475C163.547 32.6283 163.474 32.7633 163.394 32.88C163.387 32.8867 163.354 32.9333 163.294 33.02C163.234 33.1033 163.156 33.2117 163.059 33.345C162.966 33.4783 162.859 33.63 162.739 33.8C162.619 33.9667 162.497 34.1367 162.374 34.31C162.084 34.72 161.756 35.1833 161.389 35.7C161.342 35.77 161.281 35.8383 161.204 35.905C161.131 35.9717 161.046 36.005 160.949 36.005H160.194V30.875H161.429V33.87C161.429 33.9467 161.424 34.0317 161.414 34.125C161.407 34.215 161.397 34.3067 161.384 34.4C161.457 34.2367 161.531 34.1017 161.604 33.995C161.607 33.9883 161.639 33.9433 161.699 33.86C161.759 33.7767 161.836 33.6683 161.929 33.535C162.026 33.4017 162.134 33.2517 162.254 33.085C162.374 32.915 162.496 32.7417 162.619 32.565C162.909 32.155 163.239 31.6917 163.609 31.175C163.656 31.1017 163.717 31.0333 163.794 30.97C163.871 30.9033 163.957 30.87 164.054 30.87H164.804Z" fill="#727272"/>
</svg>
