<svg width="122" height="33" viewBox="0 0 122 33" fill="none" xmlns="http://www.w3.org/2000/svg">
<path fill-rule="evenodd" clip-rule="evenodd" d="M6.89165 0C2.68354 3.41437 0 8.58985 0 14.3835C0 24.6651 8.45151 33 18.877 33C29.3024 33 37.7539 24.6651 37.7539 14.3835C37.7539 9.96489 36.1931 5.90586 33.5854 2.7134L22.0163 11.4019L6.89165 0Z" fill="white"/>
<path fill-rule="evenodd" clip-rule="evenodd" d="M6.89167 0C5.68494 0.979115 4.60357 2.10305 3.67491 3.34486L22.1192 17.3306L36.1168 6.78871C35.4504 5.31967 34.5966 3.95138 33.5854 2.7134L22.0163 11.4019L6.89167 0ZM37.7539 14.3835C37.7539 24.6651 29.3024 33 18.877 33C8.45151 33 0 24.6651 0 14.3835C0 10.98 0.92611 7.78979 2.54337 5.04465L22.0163 19.7246L36.826 8.60232C37.4283 10.4222 37.7539 12.3653 37.7539 14.3835Z" fill="#0B9A05"/>
<path d="M55.7574 13.3467C56.1374 13.3369 56.4853 13.2587 56.8011 13.112C57.117 12.9653 57.3884 12.7698 57.6154 12.5253C57.8425 12.276 58.0177 11.9876 58.141 11.66C58.2693 11.3276 58.3335 10.9707 58.3335 10.5893C58.3335 10.2178 58.2693 9.86822 58.141 9.54067C58.0177 9.20822 57.8425 8.91733 57.6154 8.668C57.3884 8.41867 57.117 8.22067 56.8011 8.074C56.4853 7.92733 56.1374 7.84911 55.7574 7.83933V13.3467ZM53.8697 7.83933C53.4847 7.84911 53.1343 7.92733 52.8185 8.074C52.5076 8.22067 52.2386 8.41867 52.0116 8.668C51.7846 8.91733 51.6094 9.20822 51.486 9.54067C51.3626 9.86822 51.3009 10.2178 51.3009 10.5893C51.3009 10.9707 51.3626 11.3276 51.486 11.66C51.6094 11.9876 51.7846 12.276 52.0116 12.5253C52.2386 12.7698 52.5076 12.9653 52.8185 13.112C53.1343 13.2587 53.4847 13.3369 53.8697 13.3467V7.83933ZM55.7574 6.32133C56.4236 6.34089 57.0356 6.46556 57.5932 6.69533C58.1509 6.92511 58.6296 7.23311 59.0294 7.61933C59.434 8.00556 59.7499 8.45289 59.9769 8.96133C60.2039 9.46978 60.3174 10.0124 60.3174 10.5893C60.3174 11.1711 60.2039 11.7187 59.9769 12.232C59.7499 12.7404 59.434 13.1878 59.0294 13.574C58.6296 13.9602 58.1509 14.2682 57.5932 14.498C57.0356 14.7278 56.4236 14.8524 55.7574 14.872V16.1333H53.8697V14.872C53.2083 14.8524 52.5989 14.7278 52.0412 14.498C51.4835 14.2633 51.0023 13.9553 50.5976 13.574C50.193 13.1878 49.8771 12.7404 49.6501 12.232C49.4231 11.7187 49.3096 11.1711 49.3096 10.5893C49.3096 10.0124 49.4231 9.46978 49.6501 8.96133C49.8771 8.45289 50.193 8.008 50.5976 7.62667C51.0023 7.24045 51.4835 6.93244 52.0412 6.70267C52.5989 6.47289 53.2083 6.34578 53.8697 6.32133V5.082H55.7574V6.32133Z" fill="black"/>
<path d="M68.3846 8.60933V16.1333H66.5561V11.7407C66.5561 11.6282 66.561 11.506 66.5709 11.374C66.5857 11.2371 66.603 11.1002 66.6227 10.9633C66.524 11.1882 66.4154 11.3862 66.297 11.5573C66.2871 11.5671 66.2378 11.6356 66.1489 11.7627C66.0601 11.8849 65.9441 12.0438 65.801 12.2393C65.6628 12.4349 65.5049 12.6573 65.3272 12.9067C65.1496 13.1511 64.9694 13.4004 64.7868 13.6547C64.3575 14.256 63.8714 14.9356 63.3285 15.6933C63.2594 15.796 63.1681 15.8962 63.0546 15.994C62.946 16.0918 62.8202 16.1407 62.6771 16.1407H61.5592V8.61667H63.3877V13.0093C63.3877 13.1218 63.3803 13.2464 63.3655 13.3833C63.3556 13.5153 63.3408 13.6498 63.3211 13.7867C63.4297 13.5471 63.5382 13.3491 63.6468 13.1927C63.6517 13.1829 63.6986 13.1169 63.7875 12.9947C63.8763 12.8724 63.9898 12.7136 64.128 12.518C64.2711 12.3224 64.4315 12.1024 64.6092 11.858C64.7868 11.6087 64.967 11.3544 65.1496 11.0953C65.5789 10.494 66.0675 9.81444 66.6153 9.05667C66.6844 8.94911 66.7757 8.84889 66.8892 8.756C67.0027 8.65822 67.131 8.60933 67.2742 8.60933H68.3846Z" fill="black"/>
<path d="M76.809 8.60933V16.1333H74.9805V12.804H72.0194V16.1333H70.1909V8.60933H72.0194V11.462H74.9805V8.60933H76.809Z" fill="black"/>
<path d="M83.1581 9.086C83.2469 8.94422 83.3679 8.82933 83.5208 8.74133C83.6738 8.65333 83.8367 8.60933 84.0094 8.60933H85.4455L83.6763 11.4033C83.5529 11.5989 83.4271 11.7578 83.2988 11.88C83.1704 11.9973 83.015 12.0902 82.8324 12.1587C83.0791 12.232 83.2815 12.342 83.4394 12.4887C83.5973 12.6304 83.7405 12.8113 83.8688 13.0313L85.6454 16.1333H84.3796C84.0588 16.1333 83.8095 16.0796 83.6319 15.972C83.4542 15.8644 83.3037 15.7104 83.1803 15.51L82.0625 13.4273C81.9638 13.2464 81.8355 13.112 81.6776 13.024C81.5246 12.936 81.3444 12.892 81.1372 12.892H80.4487V16.1333H78.6202V8.60933H80.4487V11.7113H81.0409C81.2482 11.7113 81.4135 11.6747 81.5369 11.6013C81.6652 11.5231 81.7738 11.4058 81.8626 11.2493L83.1581 9.086Z" fill="black"/>
<path d="M89.7453 8.492C90.3079 8.492 90.8187 8.58244 91.2776 8.76333C91.7415 8.94422 92.1363 9.20089 92.4621 9.53333C92.7927 9.86578 93.0469 10.2716 93.2246 10.7507C93.4022 11.2298 93.4911 11.7651 93.4911 12.3567C93.4911 12.9531 93.4022 13.4909 93.2246 13.97C93.0469 14.4491 92.7927 14.8573 92.4621 15.1947C92.1363 15.532 91.7415 15.7911 91.2776 15.972C90.8187 16.1529 90.3079 16.2433 89.7453 16.2433C89.1777 16.2433 88.662 16.1529 88.1981 15.972C87.7342 15.7911 87.3369 15.532 87.0063 15.1947C86.6805 14.8573 86.4264 14.4491 86.2438 13.97C86.0661 13.4909 85.9773 12.9531 85.9773 12.3567C85.9773 11.7651 86.0661 11.2298 86.2438 10.7507C86.4264 10.2716 86.6805 9.86578 87.0063 9.53333C87.3369 9.20089 87.7342 8.94422 88.1981 8.76333C88.662 8.58244 89.1777 8.492 89.7453 8.492ZM89.7453 14.85C90.377 14.85 90.8433 14.6398 91.1444 14.2193C91.4504 13.7989 91.6034 13.1829 91.6034 12.3713C91.6034 11.5598 91.4504 10.9413 91.1444 10.516C90.8433 10.0907 90.377 9.878 89.7453 9.878C89.1037 9.878 88.6275 10.0931 88.3165 10.5233C88.0106 10.9487 87.8576 11.5647 87.8576 12.3713C87.8576 13.178 88.0106 13.794 88.3165 14.2193C88.6275 14.6398 89.1037 14.85 89.7453 14.85Z" fill="black"/>
<path d="M103.688 8.59467V16.1333H102.037V11.9387C102.037 11.7676 102.044 11.5744 102.059 11.3593C102.079 11.1442 102.109 10.9438 102.148 10.758L99.9125 14.8207C99.8039 15.0309 99.6312 15.136 99.3943 15.136H99.2018C98.9649 15.136 98.7922 15.0309 98.6836 14.8207L96.4184 10.736C96.4529 10.9218 96.4801 11.1247 96.4998 11.3447C96.5245 11.5647 96.5368 11.7627 96.5368 11.9387V16.1333H94.886V8.59467H96.3962C96.5245 8.59467 96.6503 8.62156 96.7737 8.67533C96.902 8.72911 97.0081 8.83667 97.092 8.998L98.8835 12.166C98.9624 12.3127 99.0365 12.4691 99.1056 12.6353C99.1747 12.7967 99.2388 12.9604 99.298 13.1267C99.3573 12.9604 99.4189 12.7942 99.4831 12.628C99.5522 12.4618 99.6262 12.3078 99.7052 12.166L101.482 8.998C101.571 8.83178 101.677 8.72422 101.8 8.67533C101.924 8.62156 102.049 8.59467 102.178 8.59467H103.688Z" fill="black"/>
<path d="M111.857 14.4467C112.055 14.4467 112.21 14.5029 112.324 14.6153C112.442 14.7229 112.502 14.8671 112.502 15.048V16.1333H105.158V15.532C105.158 15.4098 105.183 15.2827 105.232 15.1507C105.286 15.0138 105.37 14.8916 105.484 14.784L108.734 11.5573C109.005 11.2836 109.247 11.022 109.459 10.7727C109.676 10.5233 109.856 10.2764 109.999 10.032C110.142 9.78756 110.251 9.54067 110.325 9.29133C110.404 9.03711 110.444 8.77067 110.444 8.492C110.444 8.23778 110.407 8.01533 110.333 7.82467C110.258 7.62911 110.152 7.46533 110.014 7.33333C109.881 7.20133 109.718 7.10356 109.526 7.04C109.338 6.97156 109.126 6.93733 108.889 6.93733C108.672 6.93733 108.469 6.96911 108.282 7.03267C108.099 7.09133 107.936 7.17689 107.793 7.28933C107.65 7.39689 107.529 7.524 107.431 7.67067C107.332 7.81733 107.258 7.97867 107.209 8.15467C107.125 8.37956 107.016 8.52867 106.883 8.602C106.75 8.67533 106.557 8.69244 106.305 8.65333L105.343 8.48467C105.417 7.97622 105.56 7.53133 105.772 7.15C105.985 6.76378 106.249 6.44356 106.565 6.18933C106.885 5.93022 107.25 5.73711 107.66 5.61C108.075 5.478 108.519 5.412 108.993 5.412C109.486 5.412 109.938 5.48533 110.347 5.632C110.757 5.77378 111.107 5.97667 111.398 6.24067C111.69 6.50467 111.917 6.82244 112.08 7.194C112.242 7.56556 112.324 7.97867 112.324 8.43333C112.324 8.82444 112.265 9.18622 112.146 9.51867C112.033 9.85111 111.877 10.1689 111.68 10.472C111.487 10.7751 111.26 11.0684 110.999 11.352C110.737 11.6356 110.463 11.924 110.177 12.2173L107.764 14.6593C107.996 14.5909 108.225 14.5396 108.452 14.5053C108.684 14.4662 108.904 14.4467 109.111 14.4467H111.857Z" fill="black"/>
<path d="M118.454 12.1367V8.668C118.454 8.34044 118.477 7.97867 118.521 7.58267L115.197 12.1367H118.454ZM121.393 12.1367V13.1853C121.393 13.2831 121.361 13.3687 121.297 13.442C121.233 13.5104 121.142 13.5447 121.023 13.5447H120.046V16.1333H118.454V13.5447H113.939C113.815 13.5447 113.707 13.508 113.613 13.4347C113.519 13.3564 113.46 13.2611 113.435 13.1487L113.243 12.232L118.314 5.522H120.046V12.1367H121.393Z" fill="black"/>
<path d="M51.3195 25.63C51.5045 25.63 51.6588 25.6105 51.7821 25.5713C51.908 25.5298 52.0092 25.4736 52.0857 25.4027C52.1621 25.3318 52.2164 25.2487 52.2485 25.1533C52.2806 25.058 52.2966 24.9553 52.2966 24.8453C52.2966 24.7256 52.2806 24.6168 52.2485 24.519C52.2164 24.4212 52.1621 24.3393 52.0857 24.2733C52.0092 24.2049 51.9092 24.1523 51.7858 24.1157C51.6625 24.079 51.5082 24.0607 51.3232 24.0607H50.4496V25.63H51.3195ZM51.3232 23.2907C51.6711 23.2907 51.9684 23.3286 52.2152 23.4043C52.4644 23.4801 52.6668 23.584 52.8222 23.716C52.9801 23.8456 53.0961 23.9996 53.1702 24.178C53.2442 24.354 53.2812 24.5435 53.2812 24.7463C53.2812 24.9957 53.2368 25.2218 53.1479 25.4247C53.0616 25.6276 52.9345 25.8023 52.7667 25.949C52.5989 26.0932 52.3929 26.2045 52.1486 26.2827C51.9068 26.3609 51.6304 26.4 51.3195 26.4H49.454V21.098H53.085V21.8607H50.4496V23.2907H51.3232Z" fill="#727272"/>
<path d="M55.9642 24.794C55.7001 24.8062 55.4781 24.8295 55.2979 24.8637C55.1178 24.8955 54.9734 24.937 54.8649 24.9883C54.7563 25.0397 54.6786 25.0996 54.6317 25.168C54.5848 25.2365 54.5613 25.311 54.5613 25.3917C54.5613 25.5506 54.6082 25.6642 54.702 25.7327C54.7982 25.8011 54.9228 25.8353 55.0758 25.8353C55.2634 25.8353 55.425 25.8023 55.5607 25.7363C55.6989 25.6679 55.8334 25.5652 55.9642 25.4283V24.794ZM53.8692 23.1623C54.306 22.7663 54.8315 22.5683 55.446 22.5683C55.6681 22.5683 55.8667 22.605 56.0419 22.6783C56.2171 22.7492 56.3651 22.8495 56.4861 22.979C56.607 23.1061 56.6983 23.2589 56.76 23.4373C56.8241 23.6158 56.8562 23.8113 56.8562 24.024V26.4H56.4416C56.3553 26.4 56.2886 26.3878 56.2418 26.3633C56.1949 26.3365 56.1579 26.2839 56.1307 26.2057L56.0493 25.9343C55.9531 26.0199 55.8593 26.0957 55.768 26.1617C55.6767 26.2252 55.5817 26.279 55.483 26.323C55.3843 26.367 55.2782 26.4 55.1647 26.422C55.0536 26.4465 54.9302 26.4587 54.7945 26.4587C54.6341 26.4587 54.4861 26.4379 54.3504 26.3963C54.2147 26.3523 54.0974 26.2876 53.9987 26.202C53.9 26.1165 53.8235 26.0101 53.7693 25.883C53.715 25.7559 53.6878 25.608 53.6878 25.4393C53.6878 25.344 53.7039 25.2499 53.7359 25.157C53.768 25.0617 53.8198 24.9712 53.8914 24.8857C53.9654 24.8001 54.0604 24.7195 54.1764 24.6437C54.2924 24.5679 54.4343 24.5019 54.6021 24.4457C54.7723 24.3895 54.9697 24.3442 55.1943 24.31C55.4188 24.2733 55.6755 24.2513 55.9642 24.244V24.024C55.9642 23.7722 55.9099 23.5865 55.8013 23.4667C55.6927 23.3445 55.536 23.2833 55.3312 23.2833C55.1832 23.2833 55.0598 23.3005 54.9611 23.3347C54.8649 23.3689 54.7797 23.408 54.7057 23.452C54.6317 23.4936 54.5638 23.5315 54.5021 23.5657C54.4429 23.5999 54.3763 23.617 54.3022 23.617C54.2381 23.617 54.1838 23.6011 54.1394 23.5693C54.095 23.5351 54.0592 23.496 54.032 23.452L53.8692 23.1623Z" fill="#727272"/>
<path d="M61.0262 22.638V26.4H60.112V24.7353H58.6315V26.4H57.7172V22.638H58.6315V24.0643H60.112V22.638H61.0262Z" fill="#727272"/>
<path d="M64.2008 22.8763C64.2452 22.8055 64.3057 22.748 64.3822 22.704C64.4587 22.66 64.5401 22.638 64.6265 22.638H65.3445L64.4599 24.035C64.3982 24.1328 64.3353 24.2122 64.2711 24.2733C64.207 24.332 64.1292 24.3785 64.0379 24.4127C64.1613 24.4493 64.2625 24.5043 64.3415 24.5777C64.4204 24.6486 64.492 24.739 64.5561 24.849L65.4445 26.4H64.8115C64.6511 26.4 64.5265 26.3731 64.4377 26.3193C64.3489 26.2656 64.2736 26.1886 64.2119 26.0883L63.653 25.047C63.6036 24.9566 63.5395 24.8893 63.4605 24.8453C63.384 24.8013 63.294 24.7793 63.1903 24.7793H62.8461V26.4H61.9319V22.638H62.8461V24.189H63.1422C63.2459 24.189 63.3285 24.1707 63.3902 24.134C63.4544 24.0949 63.5086 24.0362 63.5531 23.958L64.2008 22.8763Z" fill="#727272"/>
<path d="M67.4944 22.5793C67.7757 22.5793 68.0311 22.6246 68.2606 22.715C68.4925 22.8055 68.6899 22.9338 68.8528 23.1C69.0181 23.2662 69.1452 23.4691 69.234 23.7087C69.3229 23.9482 69.3673 24.2159 69.3673 24.5117C69.3673 24.8099 69.3229 25.0788 69.234 25.3183C69.1452 25.5579 69.0181 25.762 68.8528 25.9307C68.6899 26.0993 68.4925 26.2289 68.2606 26.3193C68.0311 26.4098 67.7757 26.455 67.4944 26.455C67.2106 26.455 66.9528 26.4098 66.7208 26.3193C66.4888 26.2289 66.2902 26.0993 66.1249 25.9307C65.962 25.762 65.8349 25.5579 65.7436 25.3183C65.6548 25.0788 65.6104 24.8099 65.6104 24.5117C65.6104 24.2159 65.6548 23.9482 65.7436 23.7087C65.8349 23.4691 65.962 23.2662 66.1249 23.1C66.2902 22.9338 66.4888 22.8055 66.7208 22.715C66.9528 22.6246 67.2106 22.5793 67.4944 22.5793ZM67.4944 25.7583C67.8102 25.7583 68.0434 25.6532 68.1939 25.443C68.3469 25.2328 68.4234 24.9248 68.4234 24.519C68.4234 24.1132 68.3469 23.804 68.1939 23.5913C68.0434 23.3787 67.8102 23.2723 67.4944 23.2723C67.1736 23.2723 66.9355 23.3799 66.78 23.595C66.627 23.8077 66.5505 24.1157 66.5505 24.519C66.5505 24.9223 66.627 25.2303 66.78 25.443C66.9355 25.6532 67.1736 25.7583 67.4944 25.7583Z" fill="#727272"/>
<path d="M71.6156 25.7803C71.8081 25.7803 71.9599 25.7339 72.0709 25.641C72.1844 25.5481 72.2412 25.421 72.2412 25.2597C72.2412 25.1912 72.2313 25.1277 72.2115 25.069C72.1943 25.0079 72.1622 24.9553 72.1153 24.9113C72.0684 24.8673 72.0043 24.8331 71.9228 24.8087C71.8439 24.7842 71.7427 24.772 71.6193 24.772H70.9346V25.7803H71.6156ZM70.9346 23.2283V24.2147H71.5342C71.623 24.2147 71.7045 24.2025 71.7785 24.178C71.8525 24.1511 71.9167 24.1145 71.971 24.068C72.0252 24.0191 72.0672 23.9629 72.0968 23.8993C72.1264 23.8333 72.1412 23.7612 72.1412 23.683C72.1412 23.6268 72.1313 23.5718 72.1116 23.518C72.0919 23.4618 72.0586 23.4129 72.0117 23.3713C71.9648 23.3273 71.9019 23.2931 71.8229 23.2687C71.7464 23.2418 71.6502 23.2283 71.5342 23.2283H70.9346ZM71.5601 22.638C71.7995 22.638 72.0055 22.6612 72.1782 22.7077C72.3534 22.7541 72.4978 22.8177 72.6113 22.8983C72.7248 22.979 72.8087 23.0756 72.863 23.188C72.9173 23.298 72.9444 23.4178 72.9444 23.5473C72.9444 23.628 72.9333 23.7123 72.9111 23.8003C72.8914 23.8859 72.8543 23.969 72.8001 24.0497C72.7482 24.1303 72.6767 24.2037 72.5854 24.2697C72.4941 24.3357 72.3781 24.387 72.2375 24.4237C72.3633 24.4506 72.478 24.4885 72.5817 24.5373C72.6853 24.5838 72.7742 24.6437 72.8482 24.717C72.9222 24.7879 72.979 24.8722 73.0184 24.97C73.0604 25.0653 73.0814 25.1729 73.0814 25.2927C73.0814 25.4833 73.0406 25.6483 72.9592 25.7877C72.8803 25.927 72.7729 26.0419 72.6372 26.1323C72.504 26.2228 72.3485 26.29 72.1708 26.334C71.9956 26.378 71.8118 26.4 71.6193 26.4H70.0648V22.638H71.5601Z" fill="#727272"/>
<path d="M76.5083 23.4337C76.4812 23.4679 76.454 23.4948 76.4269 23.5143C76.4022 23.5339 76.3652 23.5437 76.3158 23.5437C76.269 23.5437 76.2233 23.5302 76.1789 23.5033C76.1345 23.474 76.0814 23.4422 76.0197 23.408C75.958 23.3713 75.884 23.3396 75.7976 23.3127C75.7138 23.2833 75.6089 23.2687 75.483 23.2687C75.3226 23.2687 75.182 23.298 75.0611 23.3567C74.9402 23.4129 74.839 23.4948 74.7576 23.6023C74.6786 23.7099 74.6194 23.8407 74.5799 23.9947C74.5404 24.1462 74.5207 24.3186 74.5207 24.5117C74.5207 24.7121 74.5417 24.8906 74.5836 25.047C74.628 25.2035 74.6909 25.3355 74.7724 25.443C74.8538 25.5481 74.9525 25.6288 75.0685 25.685C75.1845 25.7388 75.3152 25.7657 75.4608 25.7657C75.6064 25.7657 75.7236 25.7486 75.8125 25.7143C75.9038 25.6777 75.9802 25.6386 76.0419 25.597C76.1036 25.553 76.1567 25.5139 76.2011 25.4797C76.248 25.443 76.2998 25.4247 76.3566 25.4247C76.4306 25.4247 76.4861 25.4528 76.5231 25.509L76.7859 25.839C76.6847 25.9563 76.5749 26.0553 76.4565 26.136C76.338 26.2142 76.2147 26.2778 76.0864 26.3267C75.9605 26.3731 75.8297 26.4061 75.694 26.4257C75.5608 26.4452 75.4275 26.455 75.2943 26.455C75.0598 26.455 74.839 26.4122 74.6317 26.3267C74.4244 26.2387 74.2431 26.1116 74.0876 25.9453C73.9322 25.7791 73.8088 25.5762 73.7175 25.3367C73.6286 25.0947 73.5842 24.8197 73.5842 24.5117C73.5842 24.2355 73.6237 23.98 73.7027 23.7453C73.7841 23.5082 73.9025 23.3041 74.058 23.133C74.2135 22.9595 74.4059 22.8238 74.6354 22.726C74.8649 22.6282 75.1289 22.5793 75.4275 22.5793C75.7113 22.5793 75.9593 22.6246 76.1715 22.715C76.3862 22.8055 76.5786 22.935 76.7489 23.1037L76.5083 23.4337Z" fill="#727272"/>
<path d="M79.628 22.8763C79.6724 22.8055 79.7329 22.748 79.8094 22.704C79.8858 22.66 79.9673 22.638 80.0536 22.638H80.7717L79.8871 24.035C79.8254 24.1328 79.7625 24.2122 79.6983 24.2733C79.6342 24.332 79.5564 24.3785 79.4651 24.4127C79.5885 24.4493 79.6897 24.5043 79.7686 24.5777C79.8476 24.6486 79.9192 24.739 79.9833 24.849L80.8716 26.4H80.2387C80.0783 26.4 79.9537 26.3731 79.8649 26.3193C79.776 26.2656 79.7008 26.1886 79.6391 26.0883L79.0802 25.047C79.0308 24.9566 78.9667 24.8893 78.8877 24.8453C78.8112 24.8013 78.7211 24.7793 78.6175 24.7793H78.2733V26.4H77.359V22.638H78.2733V24.189H78.5694C78.673 24.189 78.7557 24.1707 78.8174 24.134C78.8815 24.0949 78.9358 24.0362 78.9802 23.958L79.628 22.8763Z" fill="#727272"/>
<path d="M84.7912 22.638V26.4H83.8769V24.2037C83.8769 24.1475 83.8794 24.0863 83.8843 24.0203C83.8917 23.9519 83.9004 23.8835 83.9102 23.815C83.8609 23.9275 83.8066 24.0265 83.7474 24.112C83.7424 24.1169 83.7178 24.1511 83.6733 24.2147C83.6289 24.2758 83.5709 24.3552 83.4994 24.453C83.4303 24.5508 83.3513 24.662 83.2625 24.7867C83.1737 24.9089 83.0836 25.0336 82.9923 25.1607C82.7776 25.4613 82.5346 25.8011 82.2631 26.18C82.2286 26.2313 82.1829 26.2815 82.1262 26.3303C82.0719 26.3792 82.009 26.4037 81.9374 26.4037H81.3785V22.6417H82.2927V24.838C82.2927 24.8942 82.289 24.9566 82.2816 25.025C82.2767 25.091 82.2693 25.1582 82.2594 25.2267C82.3137 25.1069 82.368 25.0079 82.4223 24.9297C82.4248 24.9248 82.4482 24.8918 82.4926 24.8307C82.537 24.7696 82.5938 24.6901 82.6629 24.5923C82.7344 24.4946 82.8146 24.3846 82.9035 24.2623C82.9923 24.1377 83.0824 24.0106 83.1737 23.881C83.3883 23.5803 83.6326 23.2406 83.9065 22.8617C83.9411 22.8079 83.9867 22.7578 84.0435 22.7113C84.1002 22.6625 84.1644 22.638 84.236 22.638H84.7912Z" fill="#727272"/>
<path d="M88.141 24.0863C88.141 23.969 88.1237 23.859 88.0891 23.7563C88.0571 23.6512 88.0077 23.5596 87.9411 23.4813C87.8745 23.4031 87.7893 23.342 87.6857 23.298C87.5845 23.2516 87.4661 23.2283 87.3304 23.2283C87.0663 23.2283 86.8578 23.3029 86.7048 23.452C86.5543 23.6011 86.4581 23.8126 86.4161 24.0863H88.141ZM86.3976 24.6327C86.4124 24.8258 86.447 24.9932 86.5012 25.135C86.5555 25.2743 86.6271 25.3905 86.7159 25.4833C86.8048 25.5738 86.9096 25.6422 87.0305 25.6887C87.1539 25.7327 87.2896 25.7547 87.4377 25.7547C87.5858 25.7547 87.7128 25.7376 87.8189 25.7033C87.9275 25.6691 88.0213 25.6312 88.1002 25.5897C88.1817 25.5481 88.252 25.5102 88.3112 25.476C88.3729 25.4418 88.4321 25.4247 88.4889 25.4247C88.5654 25.4247 88.6221 25.4528 88.6591 25.509L88.9219 25.839C88.8208 25.9563 88.7073 26.0553 88.5814 26.136C88.4556 26.2142 88.3236 26.2778 88.1854 26.3267C88.0497 26.3731 87.9102 26.4061 87.7671 26.4257C87.6265 26.4452 87.4895 26.455 87.3563 26.455C87.0922 26.455 86.8467 26.4122 86.6197 26.3267C86.3927 26.2387 86.1953 26.1103 86.0275 25.9417C85.8597 25.7706 85.7277 25.5603 85.6314 25.311C85.5352 25.0592 85.4871 24.7683 85.4871 24.4383C85.4871 24.1817 85.529 23.9409 85.6129 23.716C85.6968 23.4887 85.8165 23.2919 85.972 23.1257C86.1299 22.957 86.3211 22.8238 86.5457 22.726C86.7727 22.6282 87.0281 22.5793 87.3118 22.5793C87.5512 22.5793 87.772 22.6172 87.9744 22.693C88.1767 22.7688 88.3507 22.88 88.4963 23.0267C88.6419 23.1709 88.7554 23.3493 88.8368 23.562C88.9207 23.7722 88.9627 24.013 88.9627 24.2843C88.9627 24.4212 88.9479 24.5141 88.9182 24.563C88.8886 24.6095 88.8319 24.6327 88.748 24.6327H86.3976Z" fill="#727272"/>
<path d="M94.0213 23.309H92.3631V26.4H91.4488V22.638H94.0213V23.309Z" fill="#727272"/>
<path d="M96.5491 24.794C96.285 24.8062 96.063 24.8295 95.8828 24.8637C95.7027 24.8955 95.5583 24.937 95.4498 24.9883C95.3412 25.0397 95.2635 25.0996 95.2166 25.168C95.1697 25.2365 95.1463 25.311 95.1463 25.3917C95.1463 25.5506 95.1931 25.6642 95.2869 25.7327C95.3831 25.8011 95.5078 25.8353 95.6607 25.8353C95.8483 25.8353 96.0099 25.8023 96.1456 25.7363C96.2838 25.6679 96.4183 25.5652 96.5491 25.4283V24.794ZM94.4541 23.1623C94.8909 22.7663 95.4165 22.5683 96.0309 22.5683C96.253 22.5683 96.4516 22.605 96.6268 22.6783C96.802 22.7492 96.9501 22.8495 97.071 22.979C97.1919 23.1061 97.2832 23.2589 97.3449 23.4373C97.409 23.6158 97.4411 23.8113 97.4411 24.024V26.4H97.0266C96.9402 26.4 96.8736 26.3878 96.8267 26.3633C96.7798 26.3365 96.7428 26.2839 96.7156 26.2057L96.6342 25.9343C96.538 26.0199 96.4442 26.0957 96.3529 26.1617C96.2616 26.2252 96.1666 26.279 96.0679 26.323C95.9692 26.367 95.8631 26.4 95.7496 26.422C95.6385 26.4465 95.5152 26.4587 95.3794 26.4587C95.219 26.4587 95.071 26.4379 94.9353 26.3963C94.7996 26.3523 94.6824 26.2876 94.5836 26.202C94.4849 26.1165 94.4084 26.0101 94.3542 25.883C94.2999 25.7559 94.2727 25.608 94.2727 25.4393C94.2727 25.344 94.2888 25.2499 94.3209 25.157C94.3529 25.0617 94.4047 24.9712 94.4763 24.8857C94.5503 24.8001 94.6453 24.7195 94.7613 24.6437C94.8773 24.5679 95.0192 24.5019 95.187 24.4457C95.3572 24.3895 95.5546 24.3442 95.7792 24.31C96.0037 24.2733 96.2604 24.2513 96.5491 24.244V24.024C96.5491 23.7722 96.4948 23.5865 96.3862 23.4667C96.2776 23.3445 96.1209 23.2833 95.9161 23.2833C95.7681 23.2833 95.6447 23.3005 95.546 23.3347C95.4498 23.3689 95.3646 23.408 95.2906 23.452C95.2166 23.4936 95.1487 23.5315 95.087 23.5657C95.0278 23.5999 94.9612 23.617 94.8872 23.617C94.823 23.617 94.7687 23.6011 94.7243 23.5693C94.6799 23.5351 94.6441 23.496 94.617 23.452L94.4541 23.1623Z" fill="#727272"/>
<path d="M99.2164 25.4247C99.32 25.5493 99.4323 25.6373 99.5532 25.6887C99.6766 25.74 99.8098 25.7657 99.9529 25.7657C100.091 25.7657 100.216 25.74 100.327 25.6887C100.438 25.6373 100.532 25.5591 100.608 25.454C100.687 25.3489 100.748 25.2169 100.789 25.058C100.831 24.8967 100.852 24.7072 100.852 24.4897C100.852 24.2697 100.834 24.0839 100.797 23.9323C100.762 23.7783 100.712 23.6537 100.645 23.5583C100.578 23.463 100.497 23.3933 100.401 23.3493C100.307 23.3053 100.2 23.2833 100.079 23.2833C99.8888 23.2833 99.7272 23.3237 99.5939 23.4043C99.4607 23.4826 99.3348 23.5938 99.2164 23.738V25.4247ZM99.1683 23.1513C99.3237 22.9778 99.5001 22.8372 99.6975 22.7297C99.895 22.6221 100.127 22.5683 100.393 22.5683C100.601 22.5683 100.789 22.6111 100.96 22.6967C101.132 22.7822 101.28 22.9069 101.404 23.0707C101.53 23.232 101.626 23.4325 101.693 23.672C101.762 23.9091 101.796 24.1817 101.796 24.4897C101.796 24.7708 101.758 25.0311 101.681 25.2707C101.605 25.5102 101.495 25.718 101.352 25.894C101.211 26.07 101.04 26.2081 100.838 26.3083C100.638 26.4061 100.413 26.455 100.164 26.455C99.9517 26.455 99.7703 26.4232 99.6198 26.3597C99.4693 26.2937 99.3348 26.2032 99.2164 26.0883V27.6283H98.3021V22.638H98.861C98.9795 22.638 99.0572 22.693 99.0942 22.803L99.1683 23.1513Z" fill="#727272"/>
<path d="M104.508 24.794C104.244 24.8062 104.022 24.8295 103.842 24.8637C103.662 24.8955 103.518 24.937 103.409 24.9883C103.301 25.0397 103.223 25.0996 103.176 25.168C103.129 25.2365 103.106 25.311 103.106 25.3917C103.106 25.5506 103.153 25.6642 103.246 25.7327C103.343 25.8011 103.467 25.8353 103.62 25.8353C103.808 25.8353 103.969 25.8023 104.105 25.7363C104.243 25.6679 104.378 25.5652 104.508 25.4283V24.794ZM102.413 23.1623C102.85 22.7663 103.376 22.5683 103.99 22.5683C104.212 22.5683 104.411 22.605 104.586 22.6783C104.761 22.7492 104.909 22.8495 105.03 22.979C105.151 23.1061 105.243 23.2589 105.304 23.4373C105.368 23.6158 105.4 23.8113 105.4 24.024V26.4H104.986C104.9 26.4 104.833 26.3878 104.786 26.3633C104.739 26.3365 104.702 26.2839 104.675 26.2057L104.594 25.9343C104.497 26.0199 104.404 26.0957 104.312 26.1617C104.221 26.2252 104.126 26.279 104.027 26.323C103.929 26.367 103.822 26.4 103.709 26.422C103.598 26.4465 103.475 26.4587 103.339 26.4587C103.178 26.4587 103.03 26.4379 102.895 26.3963C102.759 26.3523 102.642 26.2876 102.543 26.202C102.444 26.1165 102.368 26.0101 102.314 25.883C102.259 25.7559 102.232 25.608 102.232 25.4393C102.232 25.344 102.248 25.2499 102.28 25.157C102.312 25.0617 102.364 24.9712 102.436 24.8857C102.51 24.8001 102.605 24.7195 102.721 24.6437C102.837 24.5679 102.979 24.5019 103.146 24.4457C103.317 24.3895 103.514 24.3442 103.739 24.31C103.963 24.2733 104.22 24.2513 104.508 24.244V24.024C104.508 23.7722 104.454 23.5865 104.346 23.4667C104.237 23.3445 104.08 23.2833 103.876 23.2833C103.727 23.2833 103.604 23.3005 103.505 23.3347C103.409 23.3689 103.324 23.408 103.25 23.452C103.176 23.4936 103.108 23.5315 103.046 23.5657C102.987 23.5999 102.921 23.617 102.847 23.617C102.782 23.617 102.728 23.6011 102.684 23.5693C102.639 23.5351 102.603 23.496 102.576 23.452L102.413 23.1623Z" fill="#727272"/>
<path d="M109.571 22.638V26.4H108.656V24.7353H107.176V26.4H106.262V22.638H107.176V24.0643H108.656V22.638H109.571Z" fill="#727272"/>
<path d="M113.733 23.309H112.379V26.4H111.464V23.309H110.113V22.638H113.733V23.309Z" fill="#727272"/>
<path d="M117.684 22.638V26.4H116.77V24.2037C116.77 24.1475 116.772 24.0863 116.777 24.0203C116.785 23.9519 116.793 23.8835 116.803 23.815C116.754 23.9275 116.7 24.0265 116.64 24.112C116.635 24.1169 116.611 24.1511 116.566 24.2147C116.522 24.2758 116.464 24.3552 116.392 24.453C116.323 24.5508 116.244 24.662 116.156 24.7867C116.067 24.9089 115.977 25.0336 115.885 25.1607C115.671 25.4613 115.428 25.8011 115.156 26.18C115.122 26.2313 115.076 26.2815 115.019 26.3303C114.965 26.3792 114.902 26.4037 114.83 26.4037H114.272V22.6417H115.186V24.838C115.186 24.8942 115.182 24.9566 115.175 25.025C115.17 25.091 115.162 25.1582 115.152 25.2267C115.207 25.1069 115.261 25.0079 115.315 24.9297C115.318 24.9248 115.341 24.8918 115.386 24.8307C115.43 24.7696 115.487 24.6901 115.556 24.5923C115.627 24.4946 115.708 24.3846 115.796 24.2623C115.885 24.1377 115.975 24.0106 116.067 23.881C116.281 23.5803 116.526 23.2406 116.8 22.8617C116.834 22.8079 116.88 22.7578 116.936 22.7113C116.993 22.6625 117.057 22.638 117.129 22.638H117.684Z" fill="#727272"/>
<path d="M122 22.638V26.4H121.086V24.2037C121.086 24.1475 121.088 24.0863 121.093 24.0203C121.101 23.9519 121.109 23.8835 121.119 23.815C121.07 23.9275 121.015 24.0265 120.956 24.112C120.951 24.1169 120.927 24.1511 120.882 24.2147C120.838 24.2758 120.78 24.3552 120.708 24.453C120.639 24.5508 120.56 24.662 120.471 24.7867C120.383 24.9089 120.292 25.0336 120.201 25.1607C119.986 25.4613 119.743 25.8011 119.472 26.18C119.437 26.2313 119.392 26.2815 119.335 26.3303C119.281 26.3792 119.218 26.4037 119.146 26.4037H118.587V22.6417H119.502V24.838C119.502 24.8942 119.498 24.9566 119.49 25.025C119.486 25.091 119.478 25.1582 119.468 25.2267C119.523 25.1069 119.577 25.0079 119.631 24.9297C119.634 24.9248 119.657 24.8918 119.701 24.8307C119.746 24.7696 119.803 24.6901 119.872 24.5923C119.943 24.4946 120.023 24.3846 120.112 24.2623C120.201 24.1377 120.291 24.0106 120.383 23.881C120.597 23.5803 120.841 23.2406 121.115 22.8617C121.15 22.8079 121.196 22.7578 121.252 22.7113C121.309 22.6625 121.373 22.638 121.445 22.638H122Z" fill="#727272"/>
</svg>
