<svg width="125" height="125" viewBox="0 0 125 125" fill="none" xmlns="http://www.w3.org/2000/svg">
<path d="M96.0769 91.9656V87.3344H89.8462L88.9231 85.2504C88.4615 84.3242 87.5385 83.6295 86.5 83.5137V57.4637C87.5385 57.3479 88.4615 56.769 88.9231 55.727L89.8462 53.643H96.0769V47.2752H90.5385L62.5 26.6667L34.5769 47.391H28.9231V53.7588H35.1538L36.0769 55.8428C36.5385 56.769 37.4615 57.4637 38.5 57.5794V83.7453C37.4615 83.8611 36.5385 84.44 36.0769 85.482L35.1538 87.3344H28.9231V91.9656H25V98.3334H100V91.9656H96.0769ZM87.3077 86.0609L87.8846 87.3344H78.0769L78.6538 86.0609C78.8846 85.5978 79.3462 85.2504 79.9231 85.2504H86.0385C86.6154 85.2504 87.0769 85.5978 87.3077 86.0609ZM47.8462 85.2504C47.3846 84.3242 46.4615 83.6295 45.4231 83.5137V57.4637C46.4615 57.3479 47.3846 56.769 47.8462 55.727L48.7692 53.643H55.6923L56.6154 55.727C57.0769 56.6532 58 57.3479 59.0385 57.4637V83.6295C58 83.7453 57.0769 84.3242 56.6154 85.3662L55.6923 87.3344H48.7692L47.8462 85.2504ZM40.3462 57.4637H43.6923V83.5137H40.3462V57.4637ZM65.5 55.8428H59.3846C58.8077 55.8428 58.3462 55.4954 58.1154 55.0323L57.5385 53.7588H67.3462L66.7692 55.0323C66.5385 55.4954 66.0769 55.8428 65.5 55.8428ZM60.7692 57.4637H64.2308V83.5137H60.7692V57.4637ZM58.2308 86.0609C58.4615 85.5978 58.9231 85.2504 59.5 85.2504H65.6154C66.1923 85.2504 66.6538 85.5978 66.8846 86.0609L67.4615 87.3344H57.6538L58.2308 86.0609ZM68.3846 85.2504C67.9231 84.3242 67 83.6295 65.9615 83.5137V57.4637C67 57.3479 67.9231 56.769 68.3846 55.727L69.3077 53.643H76.2308L77.1538 55.727C77.6154 56.6532 78.5385 57.3479 79.5769 57.4637V83.6295C78.5385 83.7453 77.6154 84.3242 77.1538 85.3662L76.2308 87.3344H69.3077L68.3846 85.2504ZM84.6538 83.5137H81.3077V57.4637H84.6538V83.5137ZM87.3077 55.0323C87.0769 55.4954 86.6154 55.8428 86.0385 55.8428H79.9231C79.3462 55.8428 78.8846 55.4954 78.6538 55.0323L78.0769 53.7588H87.8846L87.3077 55.0323ZM62.5 28.7507L87.5385 47.391H37.4615L62.5 28.7507ZM30.6538 52.0221V49.1276H94.2308V52.0221H30.6538ZM37.6923 55.0323L37.1154 53.7588H46.9231L46.3462 55.0323C46.1154 55.4954 45.6538 55.8428 45.0769 55.8428H38.9615C38.3846 55.8428 37.9231 55.4954 37.6923 55.0323ZM37.6923 86.0609C37.9231 85.5978 38.3846 85.2504 38.9615 85.2504H45.0769C45.6538 85.2504 46.1154 85.5978 46.3462 86.0609L46.9231 87.3344H37.1154L37.6923 86.0609ZM30.6538 89.0711H34.3462H49.5769H54.7692H70H75.1923H90.4231H94.1154V91.9656H30.6538V89.0711ZM98.2692 96.4809H26.7308V93.5864H29.0385H96.0769H98.3846V96.4809H98.2692Z" fill="#0A9A05"/>
</svg>
