<svg width="125" height="125" viewBox="0 0 125 125" fill="none" xmlns="http://www.w3.org/2000/svg">
<path d="M74.74 43.8468H33.0182V45.7342H74.74V43.8468Z" fill="#0B9A05"/>
<path d="M68.8865 54.0391H33.0182V55.9265H68.8865V54.0391Z" fill="#0B9A05"/>
<path d="M63.6557 64.1055H33.0182V65.9929H63.6557V64.1055Z" fill="#0B9A05"/>
<path d="M58.674 74.2976H33.0182V76.1851H58.674V74.2976Z" fill="#0B9A05"/>
<path d="M60.6667 84.4897H33.0182V86.3772H60.6667V84.4897Z" fill="#0B9A05"/>
<path d="M96.1615 79.4566C96.1615 79.0791 96.4106 78.8274 96.7843 78.5758C97.9051 77.9466 98.5279 76.8142 98.2788 75.5559C98.1542 74.2976 97.2824 73.2909 96.037 73.0393C95.6634 72.9135 95.4143 72.6618 95.2897 72.2843C95.1652 71.9068 95.1652 71.5293 95.4143 71.2777C96.037 70.3969 96.1615 69.1386 95.5388 68.1319C94.9161 66.8736 93.5461 66.2445 92.1762 66.622C91.8025 66.7478 91.3044 66.622 91.0553 66.2445C90.8062 65.9928 90.6817 65.7412 90.8062 65.3637C90.9307 64.4829 90.6817 63.6021 90.0589 62.9729C89.0626 61.8404 87.0699 61.5888 85.8245 62.7212C85.5754 62.9729 85.3263 62.9729 85.0772 62.9729C84.5791 62.9729 84.2054 62.7212 83.9563 62.2179C83.5827 61.3371 82.8355 60.708 81.9637 60.4563V34.2837H91.1798V33.4029C91.1798 33.4029 91.1798 31.5155 91.1798 30.8863C91.1798 26.6081 88.1908 23.3365 84.2054 23.3365H34.8865C30.4029 23.2107 26.6666 26.8598 26.6666 31.3896V95.437H67.5167L65.524 101.225C65.3995 101.603 65.524 101.854 65.6485 102.106C65.8976 102.358 66.1467 102.483 66.5203 102.358L70.3812 101.477L72.7475 104.623C72.872 104.874 73.2457 105 73.4947 105H73.6193C73.9929 105 74.242 104.748 74.3665 104.371L77.7292 94.3045H77.8537C78.8501 94.3045 79.7219 93.8012 80.2201 93.0462C80.5937 92.4171 81.59 92.4171 82.0882 93.0462C82.7109 93.8012 83.5827 94.3045 84.5791 94.3045C84.7036 94.3045 84.7036 94.3045 84.8281 94.3045L88.1908 104.245C88.3153 104.623 88.5644 104.748 88.9381 104.874H89.0626C89.3117 104.874 89.5608 104.748 89.8099 104.497L92.1762 101.351L96.037 102.232C96.4106 102.358 96.6597 102.232 96.9088 101.98C97.1579 101.728 97.1579 101.351 97.0333 101.099L93.1725 89.6488C93.6707 88.8938 93.6707 88.013 93.4216 87.1322C93.2971 86.7547 93.2971 86.3772 93.5462 86.1256C93.7952 85.8739 94.0443 85.6223 94.4179 85.6223C95.6634 85.6223 96.7843 84.8673 97.1579 83.7348C97.6561 82.6023 97.2824 81.2182 96.4106 80.4632C96.2861 80.2116 96.1615 79.8341 96.1615 79.4566ZM84.5791 25.0981C87.5681 25.0981 89.8099 27.4889 89.8099 30.7605C89.8099 31.138 89.8099 31.7671 89.8099 32.3963H42.8572C42.8572 32.0188 42.9817 31.7671 42.9817 31.3896C42.9817 28.873 41.8609 26.6081 39.9927 25.0981H84.5791ZM28.5348 93.5495V31.3896C28.5348 27.8664 31.3993 25.0981 34.7619 25.0981C38.2491 25.0981 40.9891 27.9922 40.9891 31.3896C40.9891 31.893 40.8645 32.5221 40.74 33.0254L40.4909 34.0321L41.4872 34.1579H80.3446V60.4563C79.5973 60.708 78.8501 61.3371 78.601 62.2179C78.4765 62.5954 77.9783 62.9729 77.4801 62.9729C77.231 62.9729 76.9819 62.9729 76.7329 62.7212C75.4874 61.7146 73.6193 61.8404 72.4984 62.9729C71.8757 63.6021 71.6266 64.4829 71.7511 65.2378C71.7511 65.6153 71.6266 65.867 71.5021 66.1186C71.253 66.3703 70.7548 66.622 70.3812 66.4961C69.0112 66.2445 67.6412 66.8736 67.0185 68.0061C66.5203 69.0127 66.5203 70.1452 67.1431 71.1518C67.3921 71.4035 67.3921 71.9068 67.2676 72.1585C67.1431 72.536 66.894 72.7876 66.5203 72.9135C65.2749 73.1651 64.4031 74.1718 64.2786 75.43C64.154 76.6883 64.7767 77.8208 65.7731 78.45C66.1467 78.5758 66.2713 78.9533 66.3958 79.3308C66.3958 79.7083 66.2713 80.0858 66.0222 80.3374C65.1504 81.2182 64.7767 82.4765 65.2749 83.609C65.6485 84.7415 66.7694 85.4964 68.0149 85.6223C68.3885 85.6223 68.7621 85.8739 68.8867 86.1256C69.1357 86.3772 69.1357 86.7547 69.0112 87.1322C68.6376 88.013 68.7621 88.8938 69.2603 89.6488L68.1394 93.5495H28.5348ZM73.2457 102.106L71.5021 99.9669C71.253 99.7152 70.8793 99.5894 70.6303 99.5894L67.8903 100.219L71.0039 90.9071C71.7511 91.1588 72.6229 91.1588 73.3702 90.7813C73.9929 90.5296 74.8647 90.7813 74.9893 91.6621C75.1138 92.4171 75.4874 93.172 76.1101 93.5495L73.2457 102.106ZM92.0516 99.5894C91.678 99.4635 91.3044 99.5894 91.1798 99.9669L89.4362 102.106L86.5717 93.6754C87.0699 93.172 87.5681 92.5429 87.5681 91.7879C87.6926 90.9071 88.5644 90.6554 89.1871 90.9071C89.9344 91.2846 90.8062 91.2846 91.5535 91.0329L94.667 100.219L92.0516 99.5894ZM95.2897 81.8474C95.7879 82.3507 95.6634 82.9798 95.5388 83.1057C95.4143 83.2315 95.1652 83.8606 94.5425 83.8606C93.5461 83.8606 92.6743 84.364 92.1762 85.1189C91.678 85.8739 91.4289 87.0064 91.8025 87.8872C91.9271 88.3905 91.8025 88.768 91.678 88.8938C91.3044 89.3971 90.6817 89.523 90.1835 89.2713C89.8099 89.0197 89.3117 88.8938 88.8135 88.8938C87.319 88.8938 86.0736 90.0263 85.8245 91.5363C85.6999 92.1654 85.2018 92.5429 84.7036 92.5429C84.4545 92.5429 84.0809 92.4171 83.8318 92.0396C83.3336 91.2846 82.3373 90.7813 81.3409 90.7813C80.3446 90.7813 79.4728 91.2846 78.9746 92.0396C78.601 92.4171 78.2274 92.4171 77.9783 92.4171C77.4801 92.4171 76.9819 92.1654 76.8574 91.4104C76.6083 89.9005 75.3629 88.768 73.8684 88.768C73.3702 88.768 72.9966 88.8938 72.4984 89.1455C72.0002 89.3972 71.3775 89.2713 71.0039 88.768C70.8793 88.6422 70.7548 88.2647 70.8793 87.7614C71.253 86.8806 71.1284 85.8739 70.5057 84.9931C70.0075 84.2381 69.0112 83.7348 68.1394 83.7348C67.3921 83.7348 67.1431 83.1057 67.1431 82.9798C67.0185 82.854 66.894 82.2249 67.3921 81.7215C68.1394 81.0924 68.513 80.0858 68.3885 79.0791C68.2639 78.0725 67.7658 77.1917 66.894 76.8142C66.2713 76.4367 66.2713 75.8075 66.2713 75.6817C66.2713 75.5559 66.3958 74.9267 67.1431 74.6751C68.1394 74.4234 68.8867 73.7943 69.1357 72.7876C69.5094 71.9068 69.3848 70.9002 68.8867 70.0194C68.513 69.5161 68.7621 69.0127 68.8867 68.8869C69.1357 68.5094 69.5094 68.1319 70.1321 68.2578C71.1284 68.5094 72.3739 68.1319 72.9966 67.3769C73.6193 66.7478 73.8684 65.867 73.7438 64.9862C73.7438 64.6087 73.8684 64.2312 73.9929 64.1054C74.3665 63.6021 75.1138 63.6021 75.612 63.9795C76.1101 64.4829 76.8574 64.7345 77.6047 64.7345C78.8501 64.7345 79.971 63.9795 80.3446 62.8471C80.5937 62.2179 81.2164 62.0921 81.3409 62.0921C81.4655 62.0921 82.0882 62.0921 82.4618 62.8471C82.96 63.9795 83.9563 64.7345 85.2018 64.7345C85.949 64.7345 86.5717 64.4829 87.1945 63.9795C87.6926 63.6021 88.4399 63.6021 88.8135 64.1054C88.9381 64.2312 89.1871 64.6087 89.0626 64.9862C88.9381 65.867 89.1871 66.7478 89.8099 67.3769C90.5571 68.1319 91.678 68.5094 92.6743 68.2578C93.2971 68.1319 93.7952 68.5094 93.9198 68.8869C94.0443 69.0127 94.1689 69.5161 93.7952 70.0194C93.2971 70.7743 93.1725 71.9068 93.4216 72.7876C93.7952 73.6684 94.5425 74.4234 95.4143 74.6751C96.1615 74.8009 96.2861 75.43 96.2861 75.6817C96.2861 75.8075 96.2861 76.4367 95.6634 76.8142C94.7916 77.3175 94.2934 78.0725 94.1689 79.0791C94.1689 80.2116 94.5425 81.0924 95.2897 81.8474Z" fill="#0B9A05"/>
<path d="M81.4655 68.132C76.4838 68.132 72.3739 72.2843 72.3739 77.3175C72.3739 82.3507 76.4838 86.5031 81.4655 86.5031C86.4472 86.5031 90.5572 82.4765 90.5572 77.3175C90.5572 72.1585 86.4472 68.132 81.4655 68.132ZM81.4655 84.7415C77.4802 84.7415 74.242 81.4699 74.242 77.4434C74.242 73.4168 77.4802 70.1452 81.4655 70.1452C85.4509 70.1452 88.689 73.4168 88.689 77.4434C88.689 81.4699 85.4509 84.7415 81.4655 84.7415Z" fill="#0B9A05"/>
</svg>
