<svg width="125" height="125" viewBox="0 0 125 125" fill="none" xmlns="http://www.w3.org/2000/svg">
<mask id="path-1-inside-1" fill="white">
<path fill-rule="evenodd" clip-rule="evenodd" d="M14.4899 88.8692L13.5746 94.3543C13.3938 95.4377 12.0217 95.7865 11.3534 94.9189L5.559 87.3965C5.48418 87.2994 5.42384 87.1917 5.3799 87.077L3.41765 81.9515C3.17309 81.3127 3.47841 80.5938 4.10561 80.3316L7.3393 78.9799L7.25063 78.6284C7.09699 78.0196 7.41095 77.3895 7.98705 77.1505L9.89338 76.3597L10.3061 75.5871L7.85613 72.6103C7.58315 72.2786 7.49697 71.8293 7.62761 71.4189L8.42796 68.9044L7.36307 68.1097C6.9702 67.8165 6.78261 67.3194 6.88278 66.837L7.23854 65.1235C7.35988 64.5391 7.87082 64.1205 8.46283 64.1205H8.93316L9.48014 62.0599L8.70001 59.5594C8.58673 59.1963 8.64204 58.801 8.85052 58.4838L11.2985 54.7583C11.484 54.4759 11.7743 54.2807 12.104 54.2165L14.0699 53.8336L14.2564 52.9264C14.3449 52.4959 14.6492 52.143 15.0596 51.9948L17.7264 51.0321L18.5601 48.8783C18.5994 48.7768 18.6515 48.6809 18.7152 48.5929L21.2494 45.094C21.3049 45.0173 21.369 44.9471 21.4402 44.8849L22.6811 43.8001L22.8064 42.6239C22.8614 42.1069 23.2254 41.6769 23.723 41.5409L25.7075 40.9987C26.2108 40.8612 26.7458 41.053 27.0502 41.48L28.6268 43.6919C28.7307 43.8377 28.8026 44.0042 28.8376 44.1802L29.3093 46.5524L29.3337 46.8005V48.0755C29.3337 48.7722 28.7737 49.3371 28.0828 49.3371H26.3603L25.3644 49.2277L25.1888 51.3024L25.9305 51.699L26.8755 51.0059C27.0893 50.8491 27.3468 50.7646 27.6112 50.7646H29.1935L31.1763 47.7294C31.5539 47.1513 32.3229 46.9881 32.8995 47.3638L34.3017 48.2773C34.844 48.6306 35.0304 49.3419 34.7328 49.919L35.2402 49.7602C35.3603 49.7226 35.4853 49.7035 35.611 49.7035H38.1513C38.378 49.7035 38.6003 49.7656 38.7947 49.8832L41.5459 51.5473L42.1049 50.8764C42.5604 50.3296 43.3748 50.2729 43.9005 50.7514L45.3554 52.0754V50.9651C45.3554 50.5472 45.5606 50.1564 45.9033 49.9215L49.6124 47.38C50.2549 46.9398 51.1356 47.1903 51.4553 47.9042L52.1957 49.5575L54.0806 49.2331L55.6563 47.9838C55.9206 47.7743 56.2573 47.6808 56.5906 47.7245L58.3923 47.9608L58.7645 47.0425C58.891 46.7305 59.136 46.4825 59.4448 46.3538L63.0476 44.8529C63.2502 44.7685 63.4711 44.7393 63.6884 44.7681L65.7512 45.0419L67.3353 43.232C67.6854 42.832 68.2471 42.6973 68.7382 42.8957L71.164 43.8757L74.026 43.711C74.7437 43.6697 75.3482 44.2455 75.3482 44.9705V46.6197H77.3423C77.4162 46.6197 77.9151 46.7413 78.8392 46.9844L79.7486 45.792C79.9854 45.4815 80.3517 45.2995 80.7401 45.2995H83.4458C83.9061 45.2995 84.3291 45.5544 84.5473 45.9632L85.3973 47.556L86.2973 46.991L89.1732 45.6156L90.0393 43.7197C90.1702 43.433 90.4029 43.2063 90.6914 43.0842L94.6375 41.4146C94.8476 41.3256 95.0778 41.2963 95.3033 41.3297L97.2391 41.6167L99.4476 40.0083C99.6608 39.853 99.917 39.7695 100.18 39.7695H101.935C102.282 39.7695 102.61 39.9145 102.844 40.164L103.669 39.6702L105.578 37.688L108.439 34.4369C108.59 34.2655 108.785 34.1388 109.001 34.0704L115.606 31.9879L117.29 31.5409L118.305 30.4136C118.542 30.1502 118.879 30 119.231 30H121.726C122.507 30 123.098 30.715 122.956 31.4903L122.664 33.0894L123.251 34.645C123.55 35.4394 123.001 36.2995 122.16 36.3528L119.863 36.4985L119.04 37.5389V38.6299L121.87 39.8747C122.574 40.1842 122.837 41.0538 122.426 41.7073L120.482 44.795V49.3371C120.482 49.7356 120.295 50.1108 119.978 50.3489L117.353 52.3214V54.5298L119.007 57.0233L121.333 61.4412C121.429 61.6231 121.479 61.8257 121.479 62.0315V70.5874C121.479 71.7528 120.046 72.2951 119.286 71.4174L113.967 65.2774C113.869 65.1636 113.791 65.0328 113.738 64.8913L112.167 60.6766C112.115 60.5346 112.087 60.3843 112.087 60.2326V52.9022L110.724 56.4141L111.74 58.6563C111.986 59.198 111.822 59.839 111.348 60.1939L109.942 61.2458C109.727 61.4071 109.465 61.4942 109.197 61.4942H107.044L103.599 65.0832L101.588 73.086C101.953 72.6676 102.444 72.2945 103.002 72.2945H106.513C106.753 72.2945 106.988 72.3641 107.19 72.4951L108.973 73.6523C109.092 73.7294 109.197 73.8263 109.284 73.9389L113.149 78.9528C113.626 79.572 113.433 80.4756 112.746 80.8423L111.8 81.3468L113.668 85.7665C114.307 87.2809 112.093 88.2904 111.389 86.8054L110.316 84.5441L108.824 95.5756C108.74 96.2007 108.21 96.6667 107.585 96.6667H104.45C104.016 96.6667 103.613 96.4396 103.385 96.0668L101.937 93.6961C101.634 93.1997 101.708 92.5584 102.115 92.1449L103.167 91.0784L103.027 88.8603L102.841 89.0576C102.422 89.502 101.746 89.5776 101.24 89.2368L97.9339 87.0089L95.9246 87.1578C95.4598 87.1923 95.0145 86.9632 94.7693 86.5635L92.1215 82.2484L90.4069 81.8545L89.3487 83.8074V88.1877C89.3487 88.8022 88.9098 89.3273 88.3093 89.4312L83.8968 90.1945L79.9775 92.6383C79.6123 92.866 79.1567 92.8889 78.7709 92.6988L74.2629 90.4781L73.2026 91.3397C72.7258 91.7271 72.0411 91.7095 71.5845 91.2981L69.0132 88.9812L68.5047 91.1854C68.3469 91.8692 67.666 92.2915 66.9898 92.125L61.8239 90.8532L56.8725 92.745C56.404 92.9239 55.8749 92.8038 55.5277 92.4396L52.6456 89.4165L50.2381 89.2662C49.7477 89.2356 49.3206 88.9183 49.1461 88.4551L46.819 82.2771L45.1169 82.7189C44.6428 82.8419 44.1411 82.6747 43.8331 82.2909L41.2207 79.0367H35.4299L33.3741 83.9737C33.1233 84.5759 32.4581 84.8855 31.841 84.6872L25.6548 82.6991C25.3897 82.6139 25.1604 82.442 25.003 82.2106L23.2582 79.6448L19.306 80.0314L18.3163 83.6557V86.2611C18.3163 86.7508 18.0353 87.1963 17.5955 87.4038L14.4899 88.8692ZM11.5806 91.1012L12.1318 87.7976C12.2001 87.3888 12.463 87.0399 12.8353 86.8643L15.8146 85.4585V83.4851C15.8146 83.3719 15.8297 83.2592 15.8595 83.1501L17.1227 78.5245C17.2604 78.0204 17.692 77.6542 18.2079 77.6038L23.7514 77.0616C24.2047 77.0172 24.6461 77.2249 24.9037 77.6037L26.8233 80.4265L31.5105 81.9328L33.4453 77.2865C33.6403 76.8182 34.0949 76.5135 34.5986 76.5135H41.8174C42.1948 76.5135 42.552 76.6854 42.7895 76.9812L45.2717 80.0733L47.2792 79.5523C47.8962 79.3922 48.5339 79.7254 48.7602 80.3261L51.1981 86.7981L53.2867 86.9286C53.5996 86.9481 53.8938 87.0854 54.1111 87.3133L56.7586 90.0903L61.3005 88.355C61.5368 88.2647 61.7947 88.2487 62.0402 88.3092L66.3547 89.3714L67.0548 86.3366C67.2701 85.4033 68.3979 85.0433 69.1064 85.6817L72.4597 88.7032L73.3126 88.0101C73.6904 87.7031 74.2103 87.6442 74.6463 87.859L79.2489 90.1262L82.7881 87.9195C82.9246 87.8343 83.0761 87.7765 83.2344 87.7491L86.847 87.1241V83.4851C86.847 83.2737 86.8997 83.0656 87.0002 82.8801L88.6651 79.8076C88.9334 79.3125 89.495 79.0573 90.0405 79.1826L93.1875 79.9055C93.514 79.9805 93.7971 80.1845 93.9733 80.4717L96.4975 84.5854L98.1795 84.4607C98.4574 84.4401 98.7343 84.5137 98.966 84.6699L101.755 86.549L103.189 85.0298C103.941 84.2326 105.274 84.7215 105.343 85.8199L105.699 91.4855C105.721 91.8458 105.59 92.1986 105.338 92.4546L104.584 93.2189L105.149 94.1435H106.493L107.918 83.6065L107.11 81.1749C106.805 80.2555 107.599 79.3467 108.542 79.5371L109.497 79.7299C109.522 79.7129 109.776 79.5745 110.259 79.3148L107.44 75.6576L106.146 74.8177H103.945L103.671 75.7834C103.424 76.654 102.375 76.9862 101.679 76.4144L99.39 74.5343C99.0127 74.2244 98.8478 73.7219 98.9674 73.2461L101.256 64.1375C101.31 63.9239 101.418 63.7283 101.57 63.57L105.615 59.3552C105.85 59.1097 106.175 58.971 106.513 58.971H108.784L109.044 58.7761L108.237 56.9955C108.101 56.6959 108.087 56.3545 108.198 56.0445L109.781 51.5996C109.897 51.2747 110.14 51.0119 110.453 50.8723L112.833 49.8112C113.659 49.4425 114.589 50.0532 114.589 50.9651V60.0033L116 63.7895L118.977 67.2257V62.3448L116.892 58.3726L115.062 55.6146C114.924 55.407 114.851 55.1628 114.851 54.913V51.688C114.851 51.2894 115.038 50.9143 115.355 50.6762L117.98 48.7036V44.4283C117.98 44.1888 118.048 43.9543 118.175 43.7521L119.531 41.5985L117.289 40.6124C116.833 40.4118 116.539 39.9578 116.539 39.456V37.0973C116.539 36.8114 116.635 36.534 116.812 36.3106L118.253 34.4877C118.474 34.2093 118.8 34.0377 119.153 34.0153L120.309 33.942L120.201 33.6567C120.12 33.4408 120.098 33.2065 120.14 32.9793L120.223 32.5232H119.785L118.893 33.5138C118.731 33.6945 118.52 33.8238 118.286 33.8859L116.297 34.4121L110.08 36.374L107.411 39.4041L105.348 41.5482C105.271 41.6283 105.184 41.6978 105.088 41.7547L103.107 42.9401C102.531 43.2847 101.788 43.1105 101.422 42.545L101.258 42.2927H100.584L98.2919 43.9622C98.0279 44.1545 97.6999 44.2353 97.3777 44.1876L95.2841 43.8772L92.1078 45.2211L91.2545 47.089C91.1313 47.3587 90.9177 47.576 90.6514 47.7025L87.5573 49.172L85.5882 50.4081C84.9754 50.7928 84.1679 50.576 83.8258 49.935L82.6986 47.8227H81.356L80.3113 49.1927C80.0022 49.598 79.481 49.7751 78.9917 49.6409L77.1753 49.1429H74.0973C73.4065 49.1429 72.8465 48.5781 72.8465 47.8813V46.3062L71.0286 46.4108C70.8455 46.4213 70.6624 46.3911 70.4922 46.3224L68.627 45.5689L67.1861 47.2153C66.9106 47.5301 66.4978 47.686 66.0851 47.6312L63.6936 47.3137L60.8826 48.4848L60.3437 49.8145C60.1289 50.3443 59.5874 50.6619 59.0246 50.5881L56.7892 50.295L55.377 51.4147C55.2132 51.5446 55.0198 51.6311 54.8144 51.6665L51.6639 52.2087C51.1029 52.3053 50.5479 52.0076 50.3136 51.4844L49.7878 50.3102L47.8571 51.6332V54.913C47.8571 56.006 46.5729 56.5819 45.7683 55.8496L43.1866 53.5002L42.775 53.9942C42.3797 54.4688 41.7011 54.5833 41.174 54.2645L37.805 52.2267H35.8006L32.5915 53.2311C31.9125 53.4436 31.2871 53.0601 31.0582 52.4963L30.9118 52.7203C30.6804 53.0746 30.288 53.2878 29.8673 53.2878H28.0179L26.7702 54.2029C26.3837 54.4864 25.8708 54.523 25.4486 54.2972L23.2862 53.1408C22.8431 52.9038 22.5832 52.4229 22.6259 51.9189L22.9816 47.7154C23.0417 47.0055 23.6723 46.4866 24.3739 46.5697L26.4336 46.8139H26.8098L26.4378 44.9435L25.5249 43.6628L25.2024 43.7509L25.1159 44.5631C25.0821 44.8803 24.9304 45.1727 24.6914 45.3816L23.1858 46.6978L20.8313 49.9487L19.8496 52.485C19.718 52.8251 19.4467 53.091 19.106 53.214L16.5635 54.1319L16.3502 55.1691C16.2477 55.6677 15.8582 56.0552 15.3625 56.1517L13.0938 56.5935L11.2654 59.376L11.9758 61.6528C12.0471 61.8816 12.0524 62.1261 11.9909 62.3578L11.1015 65.7084C10.955 66.2601 10.4594 66.6437 9.89318 66.6437L10.6372 67.4143C11.0683 67.736 11.2481 68.2991 11.0842 68.8141L10.2193 71.5312L12.77 74.6303C13.0957 75.0261 13.1506 75.5816 12.9087 76.0345L11.8838 77.9533C11.7467 78.21 11.5257 78.4109 11.2584 78.5218L9.94286 79.0675L10.0308 79.416C10.1841 80.0236 9.87178 80.6525 9.29752 80.8926L6.19111 82.1911L7.64741 85.995L11.5806 91.1012Z"/>
</mask>
<path fill-rule="evenodd" clip-rule="evenodd" d="M14.4899 88.8692L13.5746 94.3543C13.3938 95.4377 12.0217 95.7865 11.3534 94.9189L5.559 87.3965C5.48418 87.2994 5.42384 87.1917 5.3799 87.077L3.41765 81.9515C3.17309 81.3127 3.47841 80.5938 4.10561 80.3316L7.3393 78.9799L7.25063 78.6284C7.09699 78.0196 7.41095 77.3895 7.98705 77.1505L9.89338 76.3597L10.3061 75.5871L7.85613 72.6103C7.58315 72.2786 7.49697 71.8293 7.62761 71.4189L8.42796 68.9044L7.36307 68.1097C6.9702 67.8165 6.78261 67.3194 6.88278 66.837L7.23854 65.1235C7.35988 64.5391 7.87082 64.1205 8.46283 64.1205H8.93316L9.48014 62.0599L8.70001 59.5594C8.58673 59.1963 8.64204 58.801 8.85052 58.4838L11.2985 54.7583C11.484 54.4759 11.7743 54.2807 12.104 54.2165L14.0699 53.8336L14.2564 52.9264C14.3449 52.4959 14.6492 52.143 15.0596 51.9948L17.7264 51.0321L18.5601 48.8783C18.5994 48.7768 18.6515 48.6809 18.7152 48.5929L21.2494 45.094C21.3049 45.0173 21.369 44.9471 21.4402 44.8849L22.6811 43.8001L22.8064 42.6239C22.8614 42.1069 23.2254 41.6769 23.723 41.5409L25.7075 40.9987C26.2108 40.8612 26.7458 41.053 27.0502 41.48L28.6268 43.6919C28.7307 43.8377 28.8026 44.0042 28.8376 44.1802L29.3093 46.5524L29.3337 46.8005V48.0755C29.3337 48.7722 28.7737 49.3371 28.0828 49.3371H26.3603L25.3644 49.2277L25.1888 51.3024L25.9305 51.699L26.8755 51.0059C27.0893 50.8491 27.3468 50.7646 27.6112 50.7646H29.1935L31.1763 47.7294C31.5539 47.1513 32.3229 46.9881 32.8995 47.3638L34.3017 48.2773C34.844 48.6306 35.0304 49.3419 34.7328 49.919L35.2402 49.7602C35.3603 49.7226 35.4853 49.7035 35.611 49.7035H38.1513C38.378 49.7035 38.6003 49.7656 38.7947 49.8832L41.5459 51.5473L42.1049 50.8764C42.5604 50.3296 43.3748 50.2729 43.9005 50.7514L45.3554 52.0754V50.9651C45.3554 50.5472 45.5606 50.1564 45.9033 49.9215L49.6124 47.38C50.2549 46.9398 51.1356 47.1903 51.4553 47.9042L52.1957 49.5575L54.0806 49.2331L55.6563 47.9838C55.9206 47.7743 56.2573 47.6808 56.5906 47.7245L58.3923 47.9608L58.7645 47.0425C58.891 46.7305 59.136 46.4825 59.4448 46.3538L63.0476 44.8529C63.2502 44.7685 63.4711 44.7393 63.6884 44.7681L65.7512 45.0419L67.3353 43.232C67.6854 42.832 68.2471 42.6973 68.7382 42.8957L71.164 43.8757L74.026 43.711C74.7437 43.6697 75.3482 44.2455 75.3482 44.9705V46.6197H77.3423C77.4162 46.6197 77.9151 46.7413 78.8392 46.9844L79.7486 45.792C79.9854 45.4815 80.3517 45.2995 80.7401 45.2995H83.4458C83.9061 45.2995 84.3291 45.5544 84.5473 45.9632L85.3973 47.556L86.2973 46.991L89.1732 45.6156L90.0393 43.7197C90.1702 43.433 90.4029 43.2063 90.6914 43.0842L94.6375 41.4146C94.8476 41.3256 95.0778 41.2963 95.3033 41.3297L97.2391 41.6167L99.4476 40.0083C99.6608 39.853 99.917 39.7695 100.18 39.7695H101.935C102.282 39.7695 102.61 39.9145 102.844 40.164L103.669 39.6702L105.578 37.688L108.439 34.4369C108.59 34.2655 108.785 34.1388 109.001 34.0704L115.606 31.9879L117.29 31.5409L118.305 30.4136C118.542 30.1502 118.879 30 119.231 30H121.726C122.507 30 123.098 30.715 122.956 31.4903L122.664 33.0894L123.251 34.645C123.55 35.4394 123.001 36.2995 122.16 36.3528L119.863 36.4985L119.04 37.5389V38.6299L121.87 39.8747C122.574 40.1842 122.837 41.0538 122.426 41.7073L120.482 44.795V49.3371C120.482 49.7356 120.295 50.1108 119.978 50.3489L117.353 52.3214V54.5298L119.007 57.0233L121.333 61.4412C121.429 61.6231 121.479 61.8257 121.479 62.0315V70.5874C121.479 71.7528 120.046 72.2951 119.286 71.4174L113.967 65.2774C113.869 65.1636 113.791 65.0328 113.738 64.8913L112.167 60.6766C112.115 60.5346 112.087 60.3843 112.087 60.2326V52.9022L110.724 56.4141L111.74 58.6563C111.986 59.198 111.822 59.839 111.348 60.1939L109.942 61.2458C109.727 61.4071 109.465 61.4942 109.197 61.4942H107.044L103.599 65.0832L101.588 73.086C101.953 72.6676 102.444 72.2945 103.002 72.2945H106.513C106.753 72.2945 106.988 72.3641 107.19 72.4951L108.973 73.6523C109.092 73.7294 109.197 73.8263 109.284 73.9389L113.149 78.9528C113.626 79.572 113.433 80.4756 112.746 80.8423L111.8 81.3468L113.668 85.7665C114.307 87.2809 112.093 88.2904 111.389 86.8054L110.316 84.5441L108.824 95.5756C108.74 96.2007 108.21 96.6667 107.585 96.6667H104.45C104.016 96.6667 103.613 96.4396 103.385 96.0668L101.937 93.6961C101.634 93.1997 101.708 92.5584 102.115 92.1449L103.167 91.0784L103.027 88.8603L102.841 89.0576C102.422 89.502 101.746 89.5776 101.24 89.2368L97.9339 87.0089L95.9246 87.1578C95.4598 87.1923 95.0145 86.9632 94.7693 86.5635L92.1215 82.2484L90.4069 81.8545L89.3487 83.8074V88.1877C89.3487 88.8022 88.9098 89.3273 88.3093 89.4312L83.8968 90.1945L79.9775 92.6383C79.6123 92.866 79.1567 92.8889 78.7709 92.6988L74.2629 90.4781L73.2026 91.3397C72.7258 91.7271 72.0411 91.7095 71.5845 91.2981L69.0132 88.9812L68.5047 91.1854C68.3469 91.8692 67.666 92.2915 66.9898 92.125L61.8239 90.8532L56.8725 92.745C56.404 92.9239 55.8749 92.8038 55.5277 92.4396L52.6456 89.4165L50.2381 89.2662C49.7477 89.2356 49.3206 88.9183 49.1461 88.4551L46.819 82.2771L45.1169 82.7189C44.6428 82.8419 44.1411 82.6747 43.8331 82.2909L41.2207 79.0367H35.4299L33.3741 83.9737C33.1233 84.5759 32.4581 84.8855 31.841 84.6872L25.6548 82.6991C25.3897 82.6139 25.1604 82.442 25.003 82.2106L23.2582 79.6448L19.306 80.0314L18.3163 83.6557V86.2611C18.3163 86.7508 18.0353 87.1963 17.5955 87.4038L14.4899 88.8692ZM11.5806 91.1012L12.1318 87.7976C12.2001 87.3888 12.463 87.0399 12.8353 86.8643L15.8146 85.4585V83.4851C15.8146 83.3719 15.8297 83.2592 15.8595 83.1501L17.1227 78.5245C17.2604 78.0204 17.692 77.6542 18.2079 77.6038L23.7514 77.0616C24.2047 77.0172 24.6461 77.2249 24.9037 77.6037L26.8233 80.4265L31.5105 81.9328L33.4453 77.2865C33.6403 76.8182 34.0949 76.5135 34.5986 76.5135H41.8174C42.1948 76.5135 42.552 76.6854 42.7895 76.9812L45.2717 80.0733L47.2792 79.5523C47.8962 79.3922 48.5339 79.7254 48.7602 80.3261L51.1981 86.7981L53.2867 86.9286C53.5996 86.9481 53.8938 87.0854 54.1111 87.3133L56.7586 90.0903L61.3005 88.355C61.5368 88.2647 61.7947 88.2487 62.0402 88.3092L66.3547 89.3714L67.0548 86.3366C67.2701 85.4033 68.3979 85.0433 69.1064 85.6817L72.4597 88.7032L73.3126 88.0101C73.6904 87.7031 74.2103 87.6442 74.6463 87.859L79.2489 90.1262L82.7881 87.9195C82.9246 87.8343 83.0761 87.7765 83.2344 87.7491L86.847 87.1241V83.4851C86.847 83.2737 86.8997 83.0656 87.0002 82.8801L88.6651 79.8076C88.9334 79.3125 89.495 79.0573 90.0405 79.1826L93.1875 79.9055C93.514 79.9805 93.7971 80.1845 93.9733 80.4717L96.4975 84.5854L98.1795 84.4607C98.4574 84.4401 98.7343 84.5137 98.966 84.6699L101.755 86.549L103.189 85.0298C103.941 84.2326 105.274 84.7215 105.343 85.8199L105.699 91.4855C105.721 91.8458 105.59 92.1986 105.338 92.4546L104.584 93.2189L105.149 94.1435H106.493L107.918 83.6065L107.11 81.1749C106.805 80.2555 107.599 79.3467 108.542 79.5371L109.497 79.7299C109.522 79.7129 109.776 79.5745 110.259 79.3148L107.44 75.6576L106.146 74.8177H103.945L103.671 75.7834C103.424 76.654 102.375 76.9862 101.679 76.4144L99.39 74.5343C99.0127 74.2244 98.8478 73.7219 98.9674 73.2461L101.256 64.1375C101.31 63.9239 101.418 63.7283 101.57 63.57L105.615 59.3552C105.85 59.1097 106.175 58.971 106.513 58.971H108.784L109.044 58.7761L108.237 56.9955C108.101 56.6959 108.087 56.3545 108.198 56.0445L109.781 51.5996C109.897 51.2747 110.14 51.0119 110.453 50.8723L112.833 49.8112C113.659 49.4425 114.589 50.0532 114.589 50.9651V60.0033L116 63.7895L118.977 67.2257V62.3448L116.892 58.3726L115.062 55.6146C114.924 55.407 114.851 55.1628 114.851 54.913V51.688C114.851 51.2894 115.038 50.9143 115.355 50.6762L117.98 48.7036V44.4283C117.98 44.1888 118.048 43.9543 118.175 43.7521L119.531 41.5985L117.289 40.6124C116.833 40.4118 116.539 39.9578 116.539 39.456V37.0973C116.539 36.8114 116.635 36.534 116.812 36.3106L118.253 34.4877C118.474 34.2093 118.8 34.0377 119.153 34.0153L120.309 33.942L120.201 33.6567C120.12 33.4408 120.098 33.2065 120.14 32.9793L120.223 32.5232H119.785L118.893 33.5138C118.731 33.6945 118.52 33.8238 118.286 33.8859L116.297 34.4121L110.08 36.374L107.411 39.4041L105.348 41.5482C105.271 41.6283 105.184 41.6978 105.088 41.7547L103.107 42.9401C102.531 43.2847 101.788 43.1105 101.422 42.545L101.258 42.2927H100.584L98.2919 43.9622C98.0279 44.1545 97.6999 44.2353 97.3777 44.1876L95.2841 43.8772L92.1078 45.2211L91.2545 47.089C91.1313 47.3587 90.9177 47.576 90.6514 47.7025L87.5573 49.172L85.5882 50.4081C84.9754 50.7928 84.1679 50.576 83.8258 49.935L82.6986 47.8227H81.356L80.3113 49.1927C80.0022 49.598 79.481 49.7751 78.9917 49.6409L77.1753 49.1429H74.0973C73.4065 49.1429 72.8465 48.5781 72.8465 47.8813V46.3062L71.0286 46.4108C70.8455 46.4213 70.6624 46.3911 70.4922 46.3224L68.627 45.5689L67.1861 47.2153C66.9106 47.5301 66.4978 47.686 66.0851 47.6312L63.6936 47.3137L60.8826 48.4848L60.3437 49.8145C60.1289 50.3443 59.5874 50.6619 59.0246 50.5881L56.7892 50.295L55.377 51.4147C55.2132 51.5446 55.0198 51.6311 54.8144 51.6665L51.6639 52.2087C51.1029 52.3053 50.5479 52.0076 50.3136 51.4844L49.7878 50.3102L47.8571 51.6332V54.913C47.8571 56.006 46.5729 56.5819 45.7683 55.8496L43.1866 53.5002L42.775 53.9942C42.3797 54.4688 41.7011 54.5833 41.174 54.2645L37.805 52.2267H35.8006L32.5915 53.2311C31.9125 53.4436 31.2871 53.0601 31.0582 52.4963L30.9118 52.7203C30.6804 53.0746 30.288 53.2878 29.8673 53.2878H28.0179L26.7702 54.2029C26.3837 54.4864 25.8708 54.523 25.4486 54.2972L23.2862 53.1408C22.8431 52.9038 22.5832 52.4229 22.6259 51.9189L22.9816 47.7154C23.0417 47.0055 23.6723 46.4866 24.3739 46.5697L26.4336 46.8139H26.8098L26.4378 44.9435L25.5249 43.6628L25.2024 43.7509L25.1159 44.5631C25.0821 44.8803 24.9304 45.1727 24.6914 45.3816L23.1858 46.6978L20.8313 49.9487L19.8496 52.485C19.718 52.8251 19.4467 53.091 19.106 53.214L16.5635 54.1319L16.3502 55.1691C16.2477 55.6677 15.8582 56.0552 15.3625 56.1517L13.0938 56.5935L11.2654 59.376L11.9758 61.6528C12.0471 61.8816 12.0524 62.1261 11.9909 62.3578L11.1015 65.7084C10.955 66.2601 10.4594 66.6437 9.89318 66.6437L10.6372 67.4143C11.0683 67.736 11.2481 68.2991 11.0842 68.8141L10.2193 71.5312L12.77 74.6303C13.0957 75.0261 13.1506 75.5816 12.9087 76.0345L11.8838 77.9533C11.7467 78.21 11.5257 78.4109 11.2584 78.5218L9.94286 79.0675L10.0308 79.416C10.1841 80.0236 9.87178 80.6525 9.29752 80.8926L6.19111 82.1911L7.64741 85.995L11.5806 91.1012Z" fill="#0B9A05" stroke="white" stroke-width="0.4" mask="url(#path-1-inside-1)"/>
</svg>
