<svg width="120" height="19" viewBox="0 0 120 19" fill="none" xmlns="http://www.w3.org/2000/svg">
<path d="M24.2743 16.114L24.5486 16.4576C24.1029 16.8699 23.6914 17.1791 23.3143 17.3165C22.9372 17.4539 22.5943 17.557 22.2514 17.557C21.4629 17.557 20.7429 17.2478 20.1943 16.6637C19.6114 16.0796 19.3372 15.255 19.3372 14.2243C19.3372 13.1592 19.6114 12.3689 20.1943 11.7849C20.7772 11.2351 21.3943 10.9259 22.08 10.9259H22.1143C22.1143 10.9259 22.1143 10.9259 22.1486 10.9259C22.32 10.9259 22.4572 10.9259 22.5943 10.9603C22.7314 10.9946 22.8343 10.9946 22.9372 11.029C23.0057 11.0633 23.04 11.0633 23.1086 11.0633C23.1429 11.0977 23.1772 11.0977 23.2114 11.0977C23.3143 11.1321 23.3829 11.1321 23.4514 11.1664C23.52 11.2008 23.5886 11.2008 23.6572 11.2008C23.6914 11.2008 23.7257 11.2008 23.76 11.1664C23.7943 11.1321 23.8286 11.1321 23.8629 11.0977C23.8629 11.0977 23.8629 11.0977 23.8972 11.0977C23.8972 11.0977 23.8972 11.0977 23.9314 11.0977C23.9314 11.0977 23.9314 11.0977 23.9657 11.0633C23.9657 11.0633 23.9657 11.0633 24 11.029H24.3086V12.5407H24C23.8972 12.2315 23.7257 11.991 23.4514 11.7849C23.2114 11.5787 22.9372 11.4756 22.6286 11.4413C22.5943 11.4413 22.5257 11.4413 22.4914 11.4069C22.4572 11.4069 22.3886 11.4069 22.3543 11.4069C21.7714 11.4069 21.36 11.6474 21.1543 12.1284C20.9486 12.6095 20.8457 13.1248 20.8114 13.7089C20.8114 13.812 20.8114 13.9151 20.8114 14.0181C20.8114 14.1212 20.8114 14.2243 20.8114 14.3274C20.8114 14.4304 20.8114 14.5335 20.8114 14.6366C20.8114 14.7397 20.8114 14.8427 20.8114 14.9458C20.8457 15.4268 20.9829 15.9078 21.2229 16.3201C21.4629 16.7324 21.9086 16.9386 22.5943 16.9386C22.8 16.9386 23.04 16.9042 23.2457 16.8355C23.4514 16.7668 23.6572 16.6637 23.8629 16.5263C23.9657 16.4576 24.0343 16.4232 24.1372 16.3545C24.1029 16.2514 24.2057 16.1827 24.2743 16.114ZM119.897 6.87166L119.451 5.84092C119.314 5.56606 119.143 5.35991 118.869 5.25683L119.863 3.91687H119.211L118.286 5.25683V3.91687H117.703V6.87166H118.286V5.49734C118.56 5.49734 118.766 5.66913 118.869 5.90964L119.246 6.87166H119.897ZM113.486 6.87166V3.91687H112.903V5.1194H112.011V3.91687H111.429V6.87166H112.011V5.60041H112.903V6.87166H113.486ZM107.383 6.87166L106.389 3.91687H105.703L104.709 6.87166H105.291L105.497 6.1845H106.526L106.731 6.87166H107.383ZM106.457 5.73785H105.669L105.977 4.74146C106.046 4.56967 106.046 4.39788 106.046 4.39788C106.046 4.39788 106.08 4.60403 106.114 4.74146L106.457 5.73785ZM101.143 6.01271C101.143 5.46298 100.766 5.08504 100.046 5.08504C99.9086 5.08504 99.7714 5.1194 99.7029 5.1194V4.39788H100.869V3.91687H99.1543V6.76859C99.36 6.87166 99.7029 6.94038 100.046 6.94038C100.766 6.90602 101.143 6.52808 101.143 6.01271ZM100.56 5.97835C100.56 6.28757 100.354 6.45936 99.9772 6.45936C99.84 6.45936 99.7372 6.42501 99.6686 6.42501V5.5317C99.7372 5.49734 99.84 5.49734 99.9772 5.49734C100.354 5.49734 100.56 5.66913 100.56 5.97835ZM90.4114 6.87166V3.91687H89.9314L88.9029 5.63477C88.8 5.80656 88.7314 5.97835 88.7314 5.97835C88.7314 5.97835 88.7314 5.7722 88.7314 5.60041V3.95123H88.2172V6.87166H88.6972L89.76 5.1194C89.8629 4.94761 89.9314 4.77582 89.9314 4.77582C89.9314 4.77582 89.9314 4.98197 89.9314 5.15376V6.87166H90.4114ZM89.9314 3.05792L89.6229 3.02356C89.5886 3.22971 89.52 3.36714 89.3143 3.36714C89.1086 3.36714 89.04 3.26407 89.0057 3.02356L88.6972 3.05792C88.7314 3.43586 88.9372 3.67636 89.3143 3.67636C89.6914 3.67636 89.8971 3.43586 89.9314 3.05792ZM84.2057 6.87166V3.91687H83.7257L82.6972 5.63477C82.5943 5.80656 82.5257 5.97835 82.5257 5.97835C82.5257 5.97835 82.5257 5.7722 82.5257 5.60041V3.95123H82.0114V6.87166H82.4914L83.5543 5.1194C83.6572 4.94761 83.7257 4.77582 83.7257 4.77582C83.7257 4.77582 83.7257 4.98197 83.7257 5.15376V6.87166H84.2057ZM78.5143 6.87166L78.0686 5.84092C77.9314 5.56606 77.76 5.35991 77.4857 5.25683L78.48 3.91687H77.8286L76.9029 5.25683V3.91687H76.32V6.87166H76.9029V5.49734C77.1772 5.49734 77.3829 5.66913 77.4857 5.90964L77.8629 6.87166H78.5143ZM71.9657 6.73423L71.7943 6.25322C71.7257 6.32193 71.5543 6.35629 71.4172 6.35629C71.04 6.35629 70.7657 6.01271 70.7657 5.32555C70.7657 4.63839 71.04 4.29481 71.4172 4.29481C71.5886 4.29481 71.7257 4.36352 71.7943 4.43224L71.9657 3.98558C71.8286 3.88251 71.5886 3.81379 71.3143 3.81379C70.6629 3.81379 70.1486 4.29481 70.1486 5.32555C70.1486 6.35629 70.6629 6.8373 71.3143 6.8373C71.5886 6.90602 71.8286 6.8373 71.9657 6.73423ZM65.6914 6.87166V6.39065H64.6972V5.60041H65.5886V5.1194H64.6972V4.36352H65.6914V3.88251H64.1143V6.87166H65.6914ZM59.76 6.87166V3.91687H59.1772V5.29119C59.0743 5.35991 58.9029 5.39426 58.8 5.39426C58.5257 5.39426 58.32 5.25683 58.32 4.94761V3.95123H57.7372V5.01633C57.7372 5.56606 58.08 5.90964 58.6629 5.90964C58.8343 5.90964 59.04 5.87528 59.1772 5.80656V6.87166H59.76ZM53.8972 4.81018C53.8972 4.22609 53.4857 3.88251 52.7657 3.88251C52.4229 3.88251 52.1486 3.95123 51.9086 4.0543V6.87166H52.4572V5.73785C52.5257 5.73785 52.6286 5.7722 52.7314 5.7722C53.52 5.73785 53.8972 5.32555 53.8972 4.81018ZM53.3486 4.81018C53.3486 5.1194 53.1429 5.29119 52.7314 5.29119C52.6286 5.29119 52.5257 5.29119 52.4914 5.25683V4.32917C52.56 4.29481 52.6629 4.29481 52.8 4.29481C53.1429 4.29481 53.3486 4.4666 53.3486 4.81018ZM47.4514 6.87166V6.39065H46.4572V5.60041H47.3486V5.1194H46.4572V4.36352H47.4514V3.88251H45.8743V6.87166H47.4514ZM42 6.87166L41.6229 3.91687H40.9714L40.4572 5.63477C40.3886 5.80656 40.3543 6.01271 40.3543 6.01271C40.3543 6.01271 40.32 5.80656 40.2514 5.63477L39.7372 3.91687H39.0857L38.7086 6.87166H39.2572L39.4629 4.98197C39.4972 4.81018 39.4972 4.56967 39.4972 4.56967C39.4972 4.56967 39.5314 4.77582 39.6 4.98197L40.1486 6.87166H40.5257L41.0743 4.98197C41.1429 4.77582 41.1772 4.56967 41.1772 4.56967C41.1772 4.56967 41.1772 4.77582 41.2114 4.98197L41.4514 6.87166H42ZM35.28 6.87166L34.9029 3.91687H34.2514L33.7372 5.63477C33.7029 5.80656 33.6343 6.01271 33.6343 6.01271C33.6343 6.01271 33.6 5.80656 33.5314 5.63477L33.0172 3.91687H32.3657L32.0572 6.87166H32.5714L32.7772 4.98197C32.8114 4.81018 32.8114 4.56967 32.8114 4.56967C32.8114 4.56967 32.8457 4.77582 32.9143 4.98197L33.4629 6.87166H33.84L34.3886 4.98197C34.4572 4.77582 34.4914 4.56967 34.4914 4.56967C34.4914 4.56967 34.4914 4.77582 34.5257 4.98197L34.7314 6.87166H35.28ZM28.1486 5.39426C28.1486 4.53531 27.7714 3.88251 27.0172 3.88251C26.2286 3.88251 25.8857 4.53531 25.8857 5.39426C25.8857 6.25322 26.2629 6.90602 27.0172 6.90602C27.8057 6.90602 28.1486 6.25322 28.1486 5.39426ZM27.6 5.39426C27.6 6.01271 27.3943 6.39065 27.0172 6.39065C26.64 6.39065 26.4686 5.97835 26.4686 5.39426C26.4686 4.77582 26.6743 4.36352 27.0172 4.36352C27.36 4.36352 27.6 4.77582 27.6 5.39426ZM84.48 10.9946H86.5714V11.3382C86.4 11.3726 86.2971 11.4413 86.2629 11.51C86.1943 11.6131 86.16 11.6818 86.16 11.7849V11.8192V11.8536V13.5028C86.5372 13.5028 86.8114 13.3997 87.0172 13.2279C87.2229 13.0218 87.36 12.7812 87.4629 12.5407C87.4972 12.5064 87.4972 12.4377 87.5314 12.3689C87.5657 12.3002 87.5657 12.2659 87.6 12.1972C87.6343 12.1284 87.6343 12.0941 87.6343 12.0597C87.6686 12.0254 87.6686 11.991 87.6686 11.9223C87.7714 11.6474 87.9086 11.4069 88.1143 11.1664C88.32 10.9259 88.5943 10.8228 88.9714 10.8228C89.0743 10.8228 89.1772 10.8228 89.28 10.8572C89.3829 10.8572 89.4514 10.8916 89.52 10.9259V12.4033H89.2114C89.1771 12.3002 89.1429 12.2315 89.0743 12.1628C89.0057 12.0941 88.9372 12.0941 88.8343 12.0941C88.6972 12.0941 88.5943 12.1628 88.4914 12.2659C88.3886 12.3689 88.2857 12.5064 88.2172 12.6095C88.2172 12.6095 88.2171 12.6095 88.1829 12.6438C88.1829 12.6438 88.1829 12.6438 88.1829 12.6782L88.1486 12.7125C88.1486 12.7125 88.1486 12.7469 88.1143 12.7469C88.08 12.7812 88.08 12.8156 88.0457 12.8156C88.0114 12.85 88.0114 12.8843 87.9772 12.8843C87.84 13.0561 87.7372 13.1935 87.6 13.331C87.4629 13.4684 87.2914 13.5715 87.0514 13.6746V13.7433C87.6 13.812 88.0114 13.9838 88.2514 14.1899C88.4914 14.4304 88.6629 14.6709 88.7657 14.9458C88.8 15.0489 88.8343 15.152 88.8686 15.255C88.9029 15.3581 88.9029 15.4612 88.9372 15.5642C88.9372 15.5986 88.9372 15.5986 88.9372 15.633C88.9372 15.6673 88.9372 15.6673 88.9714 15.7017C89.04 16.0453 89.1429 16.3545 89.2457 16.595C89.3486 16.8355 89.5886 17.0073 89.8971 17.0073V17.3509C89.8286 17.3852 89.7257 17.4196 89.6229 17.4539C89.52 17.4883 89.3829 17.4883 89.2457 17.4883C88.8 17.4883 88.4914 17.3852 88.2514 17.2134C88.0457 17.0073 87.8743 16.8011 87.7714 16.5606C87.7029 16.4232 87.6686 16.3201 87.6686 16.1827C87.6343 16.0796 87.6343 15.9765 87.6 15.8735C87.5657 15.7704 87.5657 15.6673 87.5314 15.5642C87.4972 15.4612 87.4972 15.3581 87.4629 15.255C87.36 14.9114 87.2229 14.6022 87.0172 14.293C86.8114 14.0181 86.5029 13.8807 86.0914 13.9151V16.5263C86.0914 16.5606 86.0914 16.5606 86.0914 16.5606V16.595C86.0914 16.6981 86.1257 16.8011 86.1943 16.8699C86.2629 16.9729 86.3657 17.0073 86.5029 17.0416V17.3852H84.4114V17.0416C84.5486 17.0073 84.6514 16.9729 84.72 16.8699C84.7886 16.8011 84.8229 16.6981 84.8229 16.6293C84.8229 16.595 84.8229 16.595 84.8229 16.5606C84.8229 16.5263 84.8229 16.5263 84.8229 16.4919V11.8536C84.8229 11.8192 84.8229 11.8192 84.8229 11.7849C84.8229 11.7505 84.8229 11.7505 84.8229 11.7161C84.8229 11.6131 84.7886 11.5444 84.72 11.4756C84.6514 11.4069 84.5486 11.3382 84.4114 11.3382V10.9946H84.48ZM22.2172 6.87166L21.7714 5.84092C21.6343 5.56606 21.4629 5.35991 21.1886 5.25683L22.1829 3.91687H21.5314L20.6057 5.25683V3.91687H20.0229V6.87166H20.6057V5.49734C20.88 5.49734 21.0857 5.66913 21.1886 5.90964L21.5657 6.87166H22.2172ZM90.6171 17.4539V17.1104C90.6171 17.1104 90.6514 17.1104 90.6857 17.076C90.72 17.076 90.7543 17.0416 90.8229 17.0073C90.8572 16.9729 90.9257 16.9042 90.96 16.8355C90.9943 16.7668 91.0286 16.6637 91.0286 16.5263V12.9874C91.0286 12.2659 91.2343 11.7505 91.6114 11.4413C92.0229 11.1321 92.4343 10.9603 92.9143 10.9259C92.9486 10.9259 92.9829 10.9259 92.9829 10.9259C93.0172 10.9259 93.0514 10.9259 93.0514 10.9259C93.8057 10.9259 94.3886 11.1321 94.7657 11.5787C95.1429 12.0254 95.3486 12.5064 95.3486 13.0561C95.3486 13.1935 95.3486 13.2966 95.3143 13.434C95.28 13.5715 95.28 13.7089 95.2457 13.8463C95.1429 14.1899 94.9714 14.5335 94.6972 14.8427C94.4229 15.152 94.0457 15.2894 93.5314 15.2894C93.3943 15.2894 93.2229 15.2894 93.0172 15.255C92.8114 15.2207 92.6057 15.1176 92.3657 14.9802C92.3314 14.9458 92.3314 14.9458 92.2971 14.9458C92.2629 14.9458 92.2629 14.9114 92.2286 14.9114V16.6293C92.2286 16.7668 92.2629 16.8699 92.3657 16.9729C92.4343 17.076 92.5714 17.1447 92.6743 17.1447V17.4883H90.6171V17.4539ZM92.2971 12.3346V13.9151C92.2971 14.1212 92.4 14.3274 92.5714 14.4648C92.7429 14.6022 92.9486 14.7053 93.1886 14.7053C93.5314 14.7053 93.7714 14.5335 93.8743 14.2586C93.9771 13.9494 94.0114 13.5715 94.0114 13.0905C94.0114 12.6095 93.9771 12.2315 93.8743 11.9223C93.8057 11.6131 93.5657 11.4413 93.1886 11.4413C93.1543 11.4413 93.12 11.4413 93.12 11.4413C93.0857 11.4413 93.0514 11.4413 93.0514 11.4413C92.88 11.4756 92.7086 11.5787 92.5372 11.7161C92.3657 11.8192 92.2971 12.0254 92.2971 12.3346ZM96.1029 10.9946H100.251C100.354 10.9946 100.457 10.9946 100.491 10.9603C100.56 10.9603 100.594 10.8916 100.629 10.8228H100.834V12.472H100.526C100.423 12.0254 100.251 11.7505 100.046 11.6474C99.84 11.5444 99.5314 11.4756 99.1886 11.4756H97.7829V13.812H98.7086C98.9486 13.812 99.12 13.7776 99.2572 13.6746C99.3943 13.5715 99.4629 13.434 99.4286 13.1935H99.7372V14.8427H99.4286C99.4286 14.6709 99.3943 14.5679 99.3257 14.4991C99.2571 14.4304 99.1886 14.3617 99.1543 14.3274C99.0857 14.293 99.0514 14.293 98.9829 14.293C98.9143 14.293 98.88 14.293 98.88 14.293H97.7829V16.9386H99.8057C100.149 16.9386 100.423 16.8355 100.663 16.595C100.903 16.3545 101.04 16.114 101.074 15.8048H101.383V17.4539H96.1029V17.1104C96.24 17.076 96.3429 17.0416 96.4114 16.9729C96.48 16.9042 96.5143 16.8011 96.5143 16.7324C96.5143 16.6981 96.5143 16.6637 96.5143 16.6293C96.5143 16.595 96.5143 16.5606 96.5143 16.5263V11.9567C96.5143 11.9223 96.5143 11.9223 96.5143 11.8879C96.5143 11.8536 96.5143 11.8192 96.5143 11.8192C96.5143 11.7161 96.48 11.6131 96.4114 11.5444C96.3429 11.4413 96.24 11.4069 96.0686 11.3726V10.9946H96.1029ZM107.28 10.9946V11.3382C107.109 11.3726 107.006 11.4413 106.937 11.51C106.869 11.5787 106.834 11.7161 106.834 11.8536V16.4232C106.834 16.4232 106.834 16.4232 106.834 16.4576C106.834 16.595 106.869 16.6981 106.903 16.8011C106.971 16.9042 107.143 16.9729 107.486 16.9729C107.486 16.9729 107.486 16.9729 107.52 16.9729C107.554 16.9729 107.554 16.9729 107.554 16.9729C107.623 16.9729 107.691 16.9729 107.76 17.0073C107.829 17.0416 107.863 17.1104 107.863 17.2478C107.863 17.3509 107.829 17.4539 107.794 17.5227C107.76 17.6257 107.726 17.7288 107.657 17.8319C107.554 18.0037 107.451 18.1755 107.349 18.3472C107.211 18.519 107.109 18.6565 106.971 18.7595C106.869 18.8283 106.8 18.897 106.697 18.9313C106.594 18.9657 106.526 19.0001 106.457 19.0001C106.389 19.0001 106.354 18.9657 106.32 18.9657C106.286 18.9313 106.251 18.897 106.251 18.897C106.251 18.8626 106.251 18.8626 106.251 18.8283C106.251 18.7939 106.251 18.7939 106.251 18.7939C106.251 18.7595 106.251 18.6908 106.286 18.6565C106.32 18.6221 106.32 18.5534 106.354 18.519C106.354 18.519 106.354 18.519 106.354 18.4847C106.354 18.4847 106.354 18.4503 106.389 18.4503C106.423 18.3816 106.457 18.2785 106.491 18.1755C106.526 18.0724 106.56 17.9693 106.56 17.8662C106.56 17.8319 106.56 17.7975 106.56 17.7975C106.56 17.7632 106.56 17.7288 106.526 17.6944C106.491 17.6257 106.457 17.557 106.423 17.4883C106.354 17.4196 106.286 17.3852 106.149 17.3852H103.543C103.371 17.3852 103.234 17.4196 103.166 17.4539C103.097 17.4883 103.063 17.5914 103.063 17.7288C103.063 17.8319 103.063 17.9006 103.097 17.935C103.131 17.9693 103.131 18.0037 103.166 18.038C103.166 18.038 103.166 18.038 103.2 18.038C103.234 18.0724 103.269 18.1411 103.269 18.2098C103.303 18.2785 103.303 18.416 103.303 18.6221C103.303 18.7252 103.303 18.7939 103.269 18.8283C103.234 18.8626 103.166 18.897 103.097 18.897C103.063 18.897 102.994 18.8626 102.926 18.8626C102.857 18.8283 102.72 18.7252 102.549 18.5534C102.514 18.519 102.48 18.4847 102.411 18.416C102.377 18.3472 102.309 18.3129 102.274 18.2442C102.206 18.1755 102.137 18.0724 102.103 17.9693C102.069 17.8662 102 17.7632 101.931 17.6601C101.897 17.557 101.863 17.4883 101.829 17.3852C101.794 17.2821 101.794 17.2134 101.794 17.1447C101.794 17.0073 101.829 16.9386 101.897 16.9042C101.966 16.8699 102.034 16.8355 102.137 16.8355H102.171H102.206C102.274 16.8355 102.377 16.8011 102.446 16.8011C102.514 16.7668 102.583 16.7324 102.651 16.6981C102.823 16.5606 103.029 16.2171 103.234 15.7017C103.44 15.1863 103.783 14.2243 104.263 12.85C104.366 12.5751 104.434 12.3689 104.469 12.2315C104.503 12.0941 104.537 11.9567 104.537 11.8536C104.537 11.6818 104.503 11.5444 104.4 11.4413C104.297 11.3382 104.091 11.2695 103.714 11.2695V10.9259H107.28V10.9946ZM105.6 11.4756C105.497 11.4756 105.36 11.51 105.223 11.6131C104.709 12.0254 103.303 16.3545 103.303 16.6637C103.303 16.7668 103.337 16.8699 103.406 16.9042C103.474 16.9386 103.543 16.9729 103.68 16.9729H105.634V11.4756H105.6ZM107.966 10.9946H110.057V11.3382C110.057 11.3382 110.057 11.3382 110.023 11.3382H109.989H109.954H109.92C109.92 11.3382 109.886 11.3726 109.851 11.3726C109.817 11.3726 109.817 11.4069 109.783 11.4069C109.749 11.4413 109.68 11.4756 109.646 11.5444C109.611 11.6131 109.577 11.7161 109.577 11.8192V15.2894H109.611L112.251 12.2659V11.8536C112.251 11.7161 112.217 11.6131 112.149 11.51C112.08 11.4069 111.977 11.3382 111.84 11.3039V10.9603H113.931V11.3039C113.794 11.3382 113.691 11.3726 113.623 11.4413C113.554 11.51 113.52 11.6131 113.52 11.6818C113.52 11.7161 113.52 11.7161 113.52 11.7505C113.52 11.7849 113.52 11.7849 113.52 11.8192V16.5606C113.52 16.595 113.52 16.595 113.52 16.6293C113.52 16.6637 113.52 16.6637 113.52 16.6981C113.52 16.8011 113.554 16.8699 113.623 16.9386C113.691 17.0073 113.794 17.076 113.931 17.1104V17.4539H111.84V17.1104C111.943 17.076 112.046 17.0416 112.114 17.0073C112.183 16.9386 112.217 16.8699 112.251 16.8355C112.251 16.8011 112.286 16.7668 112.286 16.6981C112.286 16.6293 112.286 16.6293 112.286 16.595V13.0905H112.251L109.611 16.114V16.595C109.611 16.7324 109.646 16.8355 109.714 16.9386C109.783 17.0416 109.886 17.1104 110.023 17.1447V17.4883H107.966V17.1447C108.103 17.1104 108.206 17.076 108.274 16.9729C108.343 16.9042 108.377 16.8011 108.377 16.7324C108.377 16.6981 108.377 16.6981 108.377 16.6637C108.377 16.6293 108.377 16.6293 108.377 16.595V11.8536C108.377 11.8192 108.377 11.8192 108.377 11.7849C108.377 11.7505 108.377 11.7505 108.377 11.7161C108.377 11.6131 108.343 11.5444 108.274 11.4756C108.206 11.4069 108.103 11.3382 107.966 11.3382V10.9946ZM114.411 10.8228H114.754C114.823 10.8572 114.926 10.8916 114.994 10.9259C115.097 10.9603 115.166 10.9603 115.269 10.9603H119.109C119.177 10.9603 119.211 10.9603 119.28 10.9603C119.314 10.9603 119.383 10.9603 119.417 10.9259C119.451 10.9259 119.486 10.8916 119.52 10.8916C119.554 10.8572 119.589 10.8572 119.657 10.8228H120V12.472H119.691C119.623 12.2659 119.52 12.0941 119.417 11.991C119.314 11.8536 119.211 11.7505 119.109 11.6818C118.971 11.5787 118.834 11.51 118.697 11.4756C118.56 11.4413 118.457 11.4413 118.389 11.4413H117.84V16.595C117.84 16.7324 117.874 16.8355 117.909 16.9386C117.977 17.0416 118.08 17.076 118.251 17.1447V17.4883H116.16V17.1447C116.194 17.1447 116.194 17.1104 116.194 17.1104C116.194 17.1104 116.229 17.1104 116.229 17.076C116.366 17.0416 116.434 16.9729 116.503 16.9042C116.537 16.8355 116.571 16.7324 116.571 16.595V11.4413H116.091C115.989 11.4413 115.92 11.4413 115.817 11.4756C115.714 11.51 115.611 11.51 115.509 11.5444C115.337 11.6131 115.2 11.7161 115.063 11.8536C114.926 11.991 114.789 12.1972 114.72 12.5064H114.411V10.8228ZM26.7772 10.9946H28.7657L30.48 16.4232C30.48 16.4576 30.48 16.4919 30.5143 16.4919C30.5143 16.5263 30.5486 16.5606 30.5486 16.5606C30.5829 16.6981 30.6514 16.8355 30.72 16.9386C30.7886 17.0416 30.8914 17.1104 31.0286 17.1447V17.4883H29.4857L27.9772 12.6438H27.8743C27.84 12.85 27.7714 13.1248 27.7372 13.3653C27.6686 13.6402 27.6 13.9151 27.5314 14.1899C27.4972 14.3617 27.4629 14.5335 27.4286 14.6709C27.3943 14.8427 27.3257 14.9802 27.2914 15.1176C27.2572 15.3237 27.1886 15.4955 27.1543 15.6673C27.0857 15.8391 27.0514 15.9765 27.0172 16.114C26.9486 16.2514 26.9143 16.3888 26.88 16.4919C26.8114 16.595 26.7772 16.6981 26.7429 16.8011C26.6057 17.076 26.4343 17.2821 26.2972 17.3852C26.1257 17.4883 25.9543 17.557 25.7486 17.557C25.5086 17.557 25.3372 17.4883 25.2343 17.3852C25.1314 17.2478 25.0629 17.1104 25.0286 16.9729V16.9386V16.9042C25.0286 16.8699 25.0286 16.8699 25.0286 16.8355C25.0286 16.8011 25.0286 16.8011 25.0629 16.7668C25.0972 16.6637 25.1314 16.5606 25.2343 16.4576C25.3372 16.3545 25.44 16.3201 25.5772 16.3201C25.6114 16.3201 25.68 16.3201 25.7143 16.3545C25.7486 16.3545 25.7829 16.3888 25.8514 16.3888C25.8514 16.3888 25.8857 16.3888 25.8857 16.4232L25.92 16.4576C25.9543 16.4576 25.9543 16.4576 25.9543 16.4919C25.9886 16.4919 25.9886 16.5263 26.0229 16.5263C26.0572 16.5263 26.0914 16.5606 26.0914 16.5606C26.0229 16.4919 26.0229 16.4919 26.0572 16.4919C26.0914 16.4919 26.16 16.4576 26.1943 16.4576C26.2286 16.4232 26.2972 16.3888 26.3314 16.3201C26.4 16.1827 26.5029 16.0109 26.5714 15.7704C26.64 15.5299 26.7429 15.1863 26.88 14.774C26.9143 14.6709 26.9486 14.5335 26.9829 14.3617C27.0514 14.1556 27.0857 13.9494 27.1543 13.7089C27.1886 13.6402 27.1886 13.5715 27.2229 13.4684C27.2572 13.3997 27.2572 13.2966 27.2914 13.2279C27.36 12.9874 27.3943 12.7469 27.4286 12.5064C27.4629 12.2659 27.4972 12.0941 27.4972 11.9223C27.4972 11.8879 27.4972 11.8536 27.4972 11.7849C27.4972 11.7161 27.4629 11.6818 27.4629 11.6131C27.4286 11.51 27.36 11.4413 27.2914 11.3726C27.1543 11.3382 26.9829 11.3382 26.7772 11.3382V10.9946ZM31.0629 17.1447C31.0972 17.1104 31.1657 17.1104 31.2686 17.0416C31.3714 16.9729 31.44 16.8699 31.5429 16.7324C31.5772 16.6981 31.6114 16.6293 31.6114 16.595C31.6457 16.5263 31.6457 16.4919 31.68 16.4232L33.36 12.472C33.3943 12.4377 33.3943 12.3689 33.3943 12.3346C33.4286 12.3002 33.4286 12.2315 33.4286 12.1972C33.4286 12.1628 33.4629 12.0941 33.4629 12.0597C33.4629 12.0254 33.4629 11.9567 33.4629 11.9223C33.4629 11.8536 33.4286 11.8192 33.36 11.7849C33.2914 11.7505 33.2229 11.7161 33.12 11.7505H33.0857C33.0514 11.7505 33.0514 11.7505 33.0514 11.7505V11.4069C33.2914 11.3726 33.4629 11.3382 33.6343 11.2695C33.7714 11.2008 33.9086 11.1321 33.9772 11.029C34.0114 10.9946 34.0457 10.9946 34.0457 10.9603C34.08 10.9259 34.08 10.9259 34.1143 10.8916H34.4229L36.6172 15.9422C36.7886 16.3201 36.9257 16.595 37.0286 16.7668C37.1314 16.9386 37.2343 17.0416 37.3714 17.076C37.3714 17.076 37.3714 17.076 37.4057 17.1104V17.4539H35.0057V17.1104C35.1429 17.1104 35.2457 17.076 35.3143 16.9729C35.3829 16.8699 35.4514 16.7668 35.4514 16.6637V16.6293C35.4514 16.595 35.4514 16.595 35.4514 16.595C35.4514 16.595 35.4514 16.5606 35.4514 16.5263C35.4514 16.4919 35.4172 16.4576 35.4172 16.4576C35.4172 16.4576 35.4172 16.4576 35.4172 16.4232C35.4172 16.4232 35.4172 16.4232 35.4172 16.3888C35.4172 16.3545 35.4172 16.3545 35.3829 16.3201C35.3829 16.2858 35.3829 16.2858 35.3486 16.2858L35.0743 15.7017H32.4L32.1943 16.2514C32.1943 16.2514 32.1943 16.2858 32.16 16.2858V16.3201C32.16 16.3545 32.1257 16.3888 32.1257 16.3888C32.1257 16.4232 32.0914 16.4576 32.0914 16.4919C32.0914 16.5263 32.0914 16.5263 32.0914 16.5606C32.0914 16.595 32.0914 16.595 32.0914 16.6293C32.0914 16.7324 32.1257 16.8355 32.1943 16.9042C32.2629 17.0073 32.4 17.076 32.64 17.1104V17.4539H30.9943V17.1447H31.0629ZM33.8057 12.6782L32.7429 15.2207V15.255H34.9372V15.2207L33.84 12.6782H33.8057ZM37.7829 10.9946H40.0457C40.7314 10.9603 41.2114 11.0633 41.5543 11.3039C41.8629 11.5444 42.0686 11.7849 42.1372 12.0597C42.1714 12.1628 42.1714 12.2315 42.2057 12.3002C42.2057 12.4033 42.24 12.472 42.24 12.5407C42.24 12.9187 42.1372 13.2279 41.9657 13.434C41.7943 13.6402 41.5886 13.812 41.3829 13.9151C41.3143 13.9494 41.2457 13.9838 41.1429 14.0181C41.0743 14.0525 41.0057 14.0525 40.9372 14.0869V14.1899C41.3829 14.2243 41.76 14.3961 42.0686 14.7053C42.3772 15.0145 42.5486 15.3925 42.5486 15.8735C42.5486 16.3545 42.4457 16.6981 42.2057 16.9386C41.9657 17.1791 41.7257 17.3165 41.4514 17.4196C41.2457 17.4883 41.0743 17.5227 40.9029 17.5227C40.7314 17.5227 40.5943 17.557 40.4914 17.557H37.8172V17.2134C37.9543 17.1791 38.0572 17.1447 38.1257 17.0416C38.1943 16.9729 38.2286 16.8699 38.2286 16.8011C38.2286 16.7668 38.2286 16.7668 38.2286 16.7324C38.2286 16.6981 38.2286 16.6981 38.2286 16.6637V11.8536C38.2286 11.8192 38.2286 11.8192 38.2286 11.7849C38.2286 11.7505 38.2286 11.7505 38.2286 11.7161C38.2286 11.6131 38.1943 11.5444 38.1257 11.4756C38.0572 11.4069 37.9543 11.3382 37.8172 11.3382V10.9946H37.7829ZM39.4286 14.3617V17.0073H39.9086C39.9772 17.0073 40.0457 17.0073 40.1486 17.0073C40.2514 17.0073 40.3543 16.9729 40.4572 16.9386C40.6286 16.8699 40.8 16.7668 40.9372 16.595C41.0743 16.4232 41.1429 16.1483 41.1429 15.7704C41.1429 15.3237 41.04 15.0145 40.8 14.8084C40.56 14.6022 40.32 14.4648 40.0114 14.4304C39.9772 14.4304 39.9086 14.4304 39.8743 14.4304C39.84 14.4304 39.7714 14.4304 39.7372 14.4304H39.4286V14.3617ZM39.4286 11.4756V13.8463H39.8743C40.1829 13.8463 40.4229 13.7433 40.6286 13.5371C40.8343 13.331 40.9372 13.0561 40.9372 12.6782C40.9372 12.3002 40.8686 12.0254 40.6972 11.8536C40.56 11.6818 40.3886 11.5787 40.1829 11.5444C40.08 11.51 40.0114 11.51 39.9086 11.51C39.84 11.51 39.7372 11.51 39.6686 11.51H39.4286V11.4756ZM48.3429 10.9946V11.3382C48.2057 11.3726 48.1029 11.4069 48.0343 11.51C47.9657 11.5787 47.9314 11.6818 47.9314 11.7849C47.9314 11.8192 47.9314 11.8536 47.9314 11.8879C47.9314 11.9223 47.9314 11.9567 47.9314 11.991V16.5606C47.9314 16.6981 47.9657 16.8355 48 16.9386C48.0343 17.076 48.1714 17.1447 48.3429 17.1791V17.5227H46.2514V17.1791C46.3886 17.1447 46.4914 17.1104 46.56 17.0416C46.6286 16.9729 46.6629 16.9042 46.6629 16.8011C46.6629 16.7668 46.6972 16.7324 46.6972 16.6981C46.6972 16.6637 46.6972 16.6293 46.6972 16.595V14.6022C46.1486 14.6022 45.7714 14.7053 45.6 14.9458C45.4286 15.1863 45.2914 15.4268 45.2229 15.736C45.2229 15.7704 45.2229 15.8048 45.1886 15.8048C45.1543 15.8048 45.1543 15.8735 45.1543 15.8735C45.1543 15.9078 45.1543 15.9078 45.1543 15.9078C45.1543 15.9422 45.1543 15.9422 45.12 15.9422C45.12 15.9422 45.12 15.9422 45.12 15.9765C45.12 15.9765 45.12 16.0109 45.0857 16.0109C44.9829 16.4232 44.8114 16.8011 44.6057 17.1104C44.3657 17.4539 43.9543 17.6257 43.3714 17.6257C43.3029 17.6257 43.2343 17.6257 43.2 17.6257C43.1314 17.6257 43.0972 17.5914 43.0286 17.5914C42.9943 17.5914 42.96 17.557 42.9257 17.557C42.8914 17.557 42.8914 17.5227 42.8572 17.5227V17.1791C43.0629 17.1447 43.2 17.0416 43.3029 16.9042C43.4057 16.7668 43.4743 16.595 43.5772 16.3201C43.5772 16.2858 43.6114 16.2514 43.6114 16.1827C43.6114 16.1483 43.6457 16.0796 43.6457 16.0453C43.6457 16.0109 43.6457 15.9765 43.68 15.9765C43.68 15.9422 43.68 15.9422 43.7143 15.9078C43.8172 15.5986 43.92 15.2894 44.0914 15.0145C44.2629 14.7397 44.5714 14.5335 45.0172 14.4304V14.3617C44.6057 14.2586 44.2972 14.1212 44.0914 13.9151C43.8857 13.7089 43.7486 13.5371 43.68 13.331C43.6457 13.2279 43.6114 13.0905 43.5772 12.9874C43.5429 12.8843 43.5429 12.7812 43.5429 12.6782C43.5429 12.1972 43.7143 11.7849 44.0572 11.4756C44.4 11.1664 44.9829 10.9946 45.7714 10.9946H48.3429ZM46.6629 11.4756H46.1829C46.1486 11.4756 46.1143 11.4756 46.08 11.4756C46.0457 11.4756 46.0114 11.4756 45.9772 11.4756C45.7029 11.51 45.4972 11.5787 45.2572 11.7161C45.0514 11.8879 44.9486 12.1972 44.9486 12.7125C44.9486 12.7812 44.9486 12.85 44.9486 12.953C44.9486 13.0561 44.9829 13.1592 45.0172 13.2623C45.0857 13.434 45.1886 13.6058 45.36 13.7776C45.5314 13.9151 45.8057 14.0181 46.2172 14.0181H46.6972V11.4756H46.6629ZM51.12 10.9946V11.3382C51.0857 11.3382 51.0514 11.3382 51.0514 11.3382C51.0172 11.3382 50.9829 11.3726 50.9486 11.3726C50.88 11.4069 50.8114 11.4756 50.7772 11.5444C50.7086 11.6131 50.7086 11.7161 50.7086 11.8536V13.8807H53.6229V11.8536C53.6229 11.8192 53.6229 11.8192 53.6229 11.7849C53.6229 11.7505 53.6229 11.7505 53.6229 11.7161C53.6229 11.6131 53.5886 11.5444 53.52 11.4756C53.4514 11.4069 53.3486 11.3382 53.2114 11.3382V10.9946H55.3029V11.3382C55.1657 11.3726 55.0629 11.4069 54.9943 11.51C54.9257 11.5787 54.8914 11.7161 54.8914 11.8879V16.6293C54.8914 16.7668 54.9257 16.9042 54.96 16.9386C54.9943 17.0073 55.0972 17.076 55.2 17.1104C55.2 17.1104 55.2343 17.1104 55.2343 17.1447C55.2343 17.1447 55.2686 17.1447 55.2686 17.1791V17.5227H53.1772V17.1791C53.2114 17.1791 53.2114 17.1447 53.2114 17.1447C53.2457 17.1447 53.2457 17.1447 53.2457 17.1104C53.3829 17.076 53.4514 17.0073 53.4857 16.9386C53.5543 16.8699 53.5543 16.7668 53.5543 16.6293V14.3961H50.7086V16.6293C50.7086 16.7668 50.7429 16.8699 50.7772 16.9729C50.8457 17.076 50.9486 17.1104 51.12 17.1791V17.5227H49.0286V17.1791C49.2 17.1104 49.3029 17.0416 49.3714 16.9729C49.44 16.9042 49.4743 16.8011 49.4743 16.6637V11.8536C49.4743 11.7161 49.44 11.6131 49.4057 11.5444C49.3372 11.4756 49.3029 11.4069 49.2343 11.4069C49.2 11.3726 49.1657 11.3726 49.1314 11.3726C49.0972 11.3726 49.0629 11.3382 49.0629 11.3382V10.9946H51.12ZM60.9943 16.114L61.2686 16.4576C60.8229 16.8699 60.4114 17.1791 60.0343 17.3165C59.6572 17.4539 59.3143 17.557 58.9714 17.557C58.1486 17.557 57.4629 17.2478 56.9143 16.6637C56.3314 16.0796 56.0572 15.255 56.0572 14.2243C56.0572 13.1592 56.3314 12.3689 56.9143 11.7849C57.4972 11.2351 58.1143 10.9259 58.8 10.9259H58.8343H58.8686C59.04 10.9259 59.1772 10.9259 59.3143 10.9603C59.4514 10.9946 59.5543 10.9946 59.6572 11.029C59.7257 11.0633 59.76 11.0633 59.8286 11.0633C59.8629 11.0977 59.8972 11.0977 59.9314 11.0977C60.0343 11.1321 60.1029 11.1321 60.1714 11.1664C60.24 11.2008 60.3086 11.2008 60.3772 11.2008C60.4114 11.2008 60.4457 11.2008 60.48 11.1664C60.5143 11.1321 60.5486 11.1321 60.5829 11.0977C60.5829 11.0977 60.5829 11.0977 60.6172 11.0977C60.6172 11.0977 60.6172 11.0977 60.6514 11.0977C60.6514 11.0977 60.6514 11.0977 60.6857 11.0633C60.6857 11.0633 60.6857 11.0633 60.72 11.029H61.0286V12.5407H60.72C60.6172 12.2315 60.4457 11.991 60.1714 11.7849C59.9314 11.5787 59.6572 11.4756 59.3486 11.4413C59.3143 11.4413 59.2457 11.4413 59.2114 11.4069C59.1772 11.4069 59.1086 11.4069 59.0743 11.4069C58.4914 11.4069 58.08 11.6474 57.8743 12.1284C57.6686 12.6095 57.5657 13.1248 57.5314 13.7089C57.5314 13.812 57.5314 13.9151 57.5314 14.0181C57.5314 14.1212 57.5314 14.2243 57.5314 14.3274C57.5314 14.4304 57.5314 14.5335 57.5314 14.6366C57.5314 14.7397 57.5314 14.8427 57.5314 14.9458C57.5657 15.4268 57.7029 15.9078 57.9429 16.3201C58.1829 16.7324 58.6286 16.9386 59.3143 16.9386C59.52 16.9386 59.76 16.9042 59.9657 16.8355C60.1714 16.7668 60.3772 16.6637 60.5829 16.5263C60.6857 16.4576 60.7543 16.4232 60.8572 16.3545C60.8229 16.2514 60.9257 16.1827 60.9943 16.114ZM61.9886 10.9946H64.08V11.3382C63.9086 11.3726 63.8057 11.4413 63.7714 11.51C63.7029 11.6131 63.6686 11.6818 63.6686 11.7849V11.8192V11.8536V13.5028C64.0457 13.5028 64.32 13.3997 64.5257 13.2279C64.7314 13.0218 64.8686 12.7812 64.9714 12.5407C65.0057 12.5064 65.0057 12.4377 65.04 12.3689C65.0743 12.3002 65.0743 12.2659 65.1086 12.1972C65.1429 12.1628 65.1429 12.0941 65.1429 12.0597C65.1429 12.0254 65.1772 11.991 65.1772 11.9223C65.28 11.6474 65.4172 11.4069 65.6229 11.1664C65.8286 10.9259 66.1029 10.8228 66.48 10.8228C66.5829 10.8228 66.6857 10.8228 66.7886 10.8572C66.8914 10.8572 66.96 10.8916 67.0286 10.9259V12.4033H66.72C66.6857 12.3002 66.6514 12.2315 66.5829 12.1628C66.5143 12.0941 66.4457 12.0941 66.3429 12.0941C66.2057 12.0941 66.1029 12.1628 66 12.2659C65.8972 12.3689 65.7943 12.5064 65.7257 12.6095C65.7257 12.6095 65.7257 12.6095 65.6914 12.6438C65.6914 12.6438 65.6914 12.6438 65.6914 12.6782L65.6572 12.7125L65.6229 12.7469C65.6229 12.7812 65.5886 12.8156 65.5886 12.8156C65.5886 12.8156 65.5543 12.8843 65.52 12.8843C65.3829 13.0561 65.28 13.1935 65.1429 13.331C65.0057 13.4684 64.8343 13.5715 64.5943 13.6746V13.7433C65.1429 13.812 65.5543 13.9838 65.7943 14.1899C66.0343 14.4304 66.2057 14.6709 66.3086 14.9458C66.3429 15.0489 66.3772 15.152 66.4114 15.255C66.4457 15.3581 66.4457 15.4612 66.48 15.5642C66.48 15.5986 66.48 15.5986 66.48 15.633C66.48 15.6673 66.48 15.6673 66.48 15.7017C66.5486 16.0453 66.6514 16.3545 66.7543 16.595C66.8572 16.8355 67.0972 17.0073 67.4057 17.0073V17.3509C67.3372 17.3852 67.2343 17.4196 67.1314 17.4539C67.0286 17.4883 66.8914 17.4883 66.7543 17.4883C66.3086 17.4883 66 17.3852 65.76 17.2134C65.5543 17.0073 65.3829 16.8011 65.28 16.5606C65.2114 16.4232 65.1772 16.3201 65.1772 16.1827C65.1429 16.0796 65.1429 15.9765 65.1086 15.8735C65.1086 15.7704 65.0743 15.6673 65.04 15.5642C65.0057 15.4612 65.0057 15.3581 64.9714 15.255C64.8686 14.9114 64.7314 14.6022 64.5257 14.293C64.32 14.0181 64.0114 13.8807 63.5657 13.9151V16.5263C63.5657 16.5606 63.5657 16.5606 63.5657 16.5606V16.595C63.5657 16.6981 63.6 16.8011 63.6686 16.8699C63.7372 16.9729 63.84 17.0073 63.9772 17.0416V17.3852H61.8857V17.0416C62.0229 17.0073 62.1257 16.9729 62.1943 16.8699C62.2629 16.8011 62.2972 16.6981 62.2972 16.6293C62.2972 16.595 62.2972 16.595 62.2972 16.5606C62.2972 16.5263 62.2972 16.5263 62.2972 16.4919V11.8536C62.2972 11.8192 62.2972 11.8192 62.2972 11.7849C62.2972 11.7505 62.2972 11.7505 62.2972 11.7161C62.2972 11.6131 62.2629 11.5444 62.1943 11.4756C62.1257 11.4069 62.0229 11.3382 61.8857 11.3382V10.9946H61.9886ZM68.1257 10.9946H70.2172V11.3382C70.2172 11.3382 70.2172 11.3382 70.1829 11.3382C70.1829 11.3382 70.1829 11.3382 70.1486 11.3382C70.1486 11.3382 70.1486 11.3382 70.1143 11.3382H70.08C70.0457 11.3382 70.0457 11.3726 70.0114 11.3726C69.9772 11.3726 69.9772 11.4069 69.9429 11.4069C69.9086 11.4413 69.84 11.4756 69.8057 11.5444C69.7714 11.6131 69.7372 11.7161 69.7372 11.8192V15.2894H69.7714L72.4114 12.2659V11.8536C72.4114 11.7161 72.3772 11.6131 72.3086 11.51C72.24 11.4069 72.1372 11.3382 71.9657 11.3039V10.9603H74.0572V11.3039C73.92 11.3382 73.8172 11.3726 73.7486 11.4413C73.68 11.51 73.6457 11.6131 73.6457 11.6818C73.6457 11.7161 73.6457 11.7161 73.6457 11.7505C73.6457 11.7849 73.6457 11.7849 73.6457 11.8192V16.5606C73.6457 16.595 73.6457 16.595 73.6457 16.6293C73.6457 16.6637 73.6457 16.6637 73.6457 16.6981C73.6457 16.8011 73.68 16.8699 73.7486 16.9386C73.8172 17.0073 73.92 17.076 74.0572 17.1104V17.4539H71.9657V17.1104C72.1029 17.076 72.1714 17.0416 72.24 17.0073C72.3086 16.9386 72.3429 16.8699 72.3772 16.8355C72.3772 16.8011 72.4114 16.7668 72.4114 16.6981C72.4114 16.6637 72.4114 16.6293 72.4114 16.595V13.0905H72.3772L69.7372 16.114V16.595C69.7372 16.7324 69.7714 16.8355 69.84 16.9386C69.9086 17.0416 70.0114 17.1104 70.1829 17.1447V17.4883H68.0914V17.1447C68.2286 17.1104 68.3314 17.076 68.4 16.9729C68.4686 16.9042 68.5029 16.8011 68.5029 16.7324C68.5029 16.6981 68.5029 16.6981 68.5029 16.6637C68.5029 16.6293 68.5029 16.6293 68.5029 16.595V11.8536C68.5029 11.8192 68.5029 11.8192 68.5029 11.7849C68.5029 11.7505 68.5029 11.7505 68.5029 11.7161C68.5029 11.6131 68.4686 11.5444 68.4 11.4756C68.3314 11.4069 68.2286 11.3382 68.0914 11.3382V10.9946H68.1257ZM74.8114 10.9946H76.9029V11.3382H76.8686H76.8343C76.8343 11.3382 76.8343 11.3382 76.8 11.3382H76.7657C76.7314 11.3382 76.7314 11.3726 76.6972 11.3726C76.6629 11.3726 76.6629 11.4069 76.6286 11.4069C76.5943 11.4413 76.5257 11.4756 76.4914 11.5444C76.4572 11.6131 76.4229 11.7161 76.4229 11.8192V15.2894H76.4572L79.0972 12.2659V11.8536C79.0972 11.7161 79.0629 11.6131 78.9943 11.51C78.9257 11.4069 78.8229 11.3382 78.6514 11.3039V10.9603H80.7429V11.3039C80.6057 11.3382 80.5029 11.3726 80.4343 11.4413C80.3657 11.51 80.3314 11.6131 80.3314 11.6818C80.3314 11.7161 80.3314 11.7161 80.3314 11.7505C80.3314 11.7849 80.3314 11.7849 80.3314 11.8192V16.5606C80.3314 16.595 80.3314 16.595 80.3314 16.6293C80.3314 16.6637 80.3314 16.6637 80.3314 16.6981C80.3314 16.8011 80.3657 16.8699 80.4343 16.9386C80.5029 17.0073 80.6057 17.076 80.7429 17.1104V17.4539H78.6514V17.1104C78.7543 17.076 78.8572 17.0416 78.9257 17.0073C78.9943 16.9386 79.0286 16.8699 79.0629 16.8355C79.0629 16.8011 79.0972 16.7668 79.0972 16.6981C79.0972 16.6637 79.0972 16.6293 79.0972 16.595V13.0905H79.0629L76.4229 16.114V16.595C76.4229 16.7324 76.4572 16.8355 76.5257 16.9386C76.5943 17.0416 76.6972 17.1104 76.8686 17.1447V17.4883H74.7772V17.1447C74.9143 17.1104 75.0172 17.076 75.0857 16.9729C75.1543 16.9042 75.1886 16.8011 75.1886 16.7324C75.1886 16.6981 75.1886 16.6981 75.1886 16.6637C75.1886 16.6293 75.1886 16.6293 75.1886 16.595V11.8536C75.1886 11.8192 75.1886 11.8192 75.1886 11.7849C75.1886 11.7505 75.1886 11.7505 75.1886 11.7161C75.1886 11.6131 75.1543 11.5444 75.0857 11.4756C75.0172 11.4069 74.9143 11.3382 74.7772 11.3382V10.9946H74.8114ZM77.8629 9.62031C77.9314 9.62031 78.0343 9.62031 78.1029 9.62031C78.2057 9.62031 78.2743 9.58595 78.3772 9.55159C78.5829 9.51723 78.7543 9.44851 78.9257 9.34544C79.0972 9.24237 79.1657 9.13929 79.1657 8.9675C79.1657 8.93314 79.1657 8.89879 79.1314 8.86443C79.0972 8.83007 79.0629 8.83007 78.9943 8.83007C78.96 8.83007 78.9257 8.83007 78.8914 8.86443C78.8572 8.86443 78.8229 8.89879 78.7886 8.89879C78.7886 8.89879 78.7543 8.89879 78.7543 8.93314H78.72C78.6857 8.9675 78.6514 8.9675 78.6172 8.9675C78.5829 8.9675 78.5486 8.9675 78.5143 8.9675H78.48H78.4457C78.3772 8.9675 78.3086 8.93314 78.24 8.86443C78.1714 8.79571 78.1372 8.727 78.1372 8.65828C78.1372 8.55521 78.1714 8.45213 78.2743 8.38341C78.3429 8.3147 78.48 8.24598 78.6514 8.24598C78.8914 8.24598 79.0972 8.3147 79.2 8.45213C79.3372 8.58956 79.4057 8.76135 79.4057 8.9675C79.4057 9.34544 79.2343 9.65466 78.8914 9.92953C78.5486 10.2044 78.1714 10.3418 77.7943 10.3418H77.76C77.76 10.3418 77.76 10.3418 77.7257 10.3418C77.7257 10.3418 77.7257 10.3418 77.6914 10.3418H77.6572C77.2457 10.3418 76.8686 10.2044 76.5257 9.92953C76.1829 9.65466 76.0114 9.34544 76.0114 8.9675C76.0114 8.76135 76.08 8.58956 76.2172 8.45213C76.3543 8.3147 76.56 8.24598 76.8 8.24598C76.9372 8.24598 77.04 8.28034 77.1086 8.3147C77.1772 8.38342 77.2457 8.41777 77.2457 8.48649C77.2457 8.52085 77.2457 8.5552 77.28 8.5552C77.28 8.58956 77.28 8.58956 77.28 8.62392C77.28 8.69264 77.2457 8.76135 77.2114 8.83007C77.1429 8.89879 77.1086 8.93314 77.04 8.93314C77.0057 8.93314 77.0057 8.93314 76.9714 8.93314C76.9372 8.93314 76.9372 8.93314 76.9029 8.93314C76.8686 8.93314 76.8343 8.93314 76.8 8.89879C76.7657 8.86443 76.7314 8.86443 76.6972 8.83007C76.6972 8.83007 76.6972 8.83007 76.6629 8.83007C76.6286 8.83007 76.5943 8.79571 76.56 8.79571C76.5257 8.79571 76.4914 8.76135 76.4572 8.76135C76.3886 8.76135 76.3543 8.76135 76.3543 8.79571C76.32 8.83007 76.32 8.83007 76.32 8.86443C76.32 8.86443 76.32 8.86443 76.32 8.89879V8.93314C76.32 8.9675 76.32 9.00186 76.3543 9.07058C76.3886 9.10493 76.4229 9.17365 76.4914 9.20801C76.5943 9.31108 76.7314 9.3798 76.9372 9.44851C77.3143 9.55159 77.5543 9.62031 77.8629 9.62031Z" fill="#7D2A42"/>
<path d="M0 6.18445H3.49714L6.58286 11.4069H3.05143L0 6.18445Z" fill="#87784B"/>
<path d="M6.58286 13.056H3.05143L0 18.2785H3.49714L6.58286 13.056Z" fill="#87784B"/>
<path d="M18.1029 0H14.6057L11.52 5.22242H15.0172L18.1029 0Z" fill="#87784B"/>
<path d="M12.72 12.2315L9.08575 6.01266L12.5829 0H9.08575L5.55432 6.01266L9.18861 12.2315L5.65718 18.2441H9.18861L12.72 12.2315Z" fill="#7D2A42"/>
<path d="M11.5886 6.80286H15.0858L18.1715 12.0596H14.6743L11.5886 6.80286Z" fill="#87784B"/>
</svg>
