<svg width="121" height="19" viewBox="0 0 121 19" fill="none" xmlns="http://www.w3.org/2000/svg">
<path d="M116.919 11.5798C114.264 11.5798 111.648 11.6108 109.037 11.6108C103.855 11.6108 98.3538 11.6108 93.1759 11.5753C91.4809 11.5753 89.4408 10.6883 90.6445 8.80345C91.3083 7.75236 93.8619 7.91646 95.0701 7.91646C102.965 7.91646 119.645 7.91646 120.092 7.91646C120.092 7.91646 121.026 6.09811 120.999 6.09811C113.033 6.09811 104.218 6.06263 96.2783 6.09811C95.0701 6.09811 93.8442 6.06263 92.6404 6.1602C90.7153 6.31986 90.2816 7.71245 90.2728 9.24252C90.2728 10.3646 90.1002 11.2959 90.7153 12.2982C91.565 13.6731 95.2515 13.3759 96.6146 13.3759C102.058 13.3759 107.196 13.3759 112.64 13.407C114.543 13.407 117.95 13.1808 119.349 13.8505C119.705 14.0207 119.986 14.3164 120.139 14.6812C120.292 15.0461 120.305 15.4545 120.176 15.8285C119.853 16.7731 118.384 16.9372 117.499 16.9683C113.073 17.1279 108.475 17.0392 104.027 17.0525C99.7922 17.0525 90.6047 17.017 90.2374 17.0215H61.6349C60.0196 17.0215 56.7668 16.9594 57.7183 14.5334C58.3202 12.9812 61.303 13.3493 62.6262 13.3493H84.7231C87.9184 13.3493 88.1131 8.98529 87.1173 7.29112C86.2853 5.8675 83.6521 6.08037 82.2492 6.08037H74.8143H16.6711C16.6711 6.66579 16.6711 7.41087 16.6711 7.85437H65.941H81.2225C82.9263 7.85437 85.5286 7.6814 87.0067 8.63049C87.1729 8.75079 87.313 8.90358 87.4186 9.07964C87.5243 9.25569 87.5932 9.45136 87.6213 9.65485C87.6495 9.85834 87.6362 10.0654 87.5822 10.2636C87.5283 10.4618 87.4349 10.647 87.3076 10.8081C86.7766 11.5664 85.0639 11.4999 84.2319 11.5132C78.8371 11.5797 73.4423 11.5132 68.0476 11.5132H62.5997C60.7852 11.5132 58.3688 11.2516 57.6962 13.0743C57.3819 13.9259 57.5324 15.1144 57.5501 16.0059C57.5899 18.077 58.5547 18.8354 60.8737 18.8354C66.7287 18.8354 72.3802 18.8354 78.1334 18.8354H90.2816C98.7403 18.7969 107.198 18.7969 115.653 18.8354C117.375 18.8354 119.482 18.9374 120.119 17.0614C120.411 16.2143 120.318 15.0302 120.269 14.1432C120.136 12.1873 119.008 11.5664 116.919 11.5798Z" fill="#F5A04C"/>
<path d="M4.46094 2.55455C4.46094 2.04931 4.61044 1.55541 4.89054 1.13532C5.17064 0.715225 5.56876 0.387802 6.03456 0.194455C6.50035 0.00110684 7.01289 -0.0494817 7.50737 0.0490861C8.00186 0.147654 8.45607 0.390951 8.81257 0.748211C9.16907 1.10547 9.41185 1.56065 9.51021 2.05618C9.60857 2.55172 9.55809 3.06535 9.36515 3.53213C9.17221 3.99892 8.84549 4.39788 8.42628 4.67858C8.00708 4.95928 7.51423 5.1091 7.01006 5.1091C6.33399 5.1091 5.68561 4.83996 5.20756 4.36089C4.72951 3.88182 4.46094 3.23206 4.46094 2.55455Z" fill="#F5A04C"/>
<path d="M14.0158 6.06702H0V7.98293H14.0158V6.06702Z" fill="#F5A04C"/>
<path d="M0.955923 8.61686e-07C0.628276 -0.000269284 0.303672 0.0629825 0 0.18627L0 4.92283C0.348582 5.06407 0.724028 5.12629 1.09943 5.10503C1.47483 5.08376 1.84088 4.97953 2.17136 4.79982C2.50184 4.62011 2.78855 4.36935 3.01095 4.06554C3.23335 3.76172 3.38593 3.41236 3.45775 3.0425C3.52957 2.67264 3.51885 2.29143 3.42637 1.92621C3.33388 1.56099 3.16192 1.22079 2.92281 0.930003C2.68369 0.639214 2.38335 0.405034 2.0433 0.244249C1.70325 0.0834643 1.33192 5.53956e-05 0.955923 8.61686e-07Z" fill="#F5A04C"/>
<path d="M13.0597 8.61686e-07C13.3874 -0.000269284 13.712 0.0629825 14.0157 0.18627V4.92283C13.6671 5.06407 13.2916 5.12629 12.9162 5.10503C12.5408 5.08376 12.1748 4.97953 11.8443 4.79982C11.5138 4.62011 11.2271 4.36935 11.0047 4.06554C10.7823 3.76172 10.6297 3.41236 10.5579 3.0425C10.4861 2.67264 10.4968 2.29143 10.5893 1.92621C10.6818 1.56099 10.8537 1.22079 11.0929 0.930003C11.332 0.639214 11.6323 0.405034 11.9724 0.244249C12.3124 0.0834643 12.6837 5.53956e-05 13.0597 8.61686e-07Z" fill="#F5A04C"/>
<path d="M2.21278 18.9817C1.48961 18.9673 0.770655 18.8676 0.0708008 18.6845L0.287654 17.4427C0.811198 17.5626 1.34439 17.6353 1.88086 17.66C3.45193 17.66 4.09364 16.8795 4.19543 15.2696H1.456V14.0189H4.18215C4.08036 12.755 3.38113 11.9966 2.00477 11.9966C1.47504 11.9963 0.94732 12.0618 0.433697 12.1917L0.163738 10.9987C0.799921 10.8082 1.46029 10.7111 2.12426 10.7104C4.74863 10.7104 5.96566 12.0409 5.96566 14.6265C5.96566 17.1057 4.91237 18.9772 2.19507 18.9772L2.21278 18.9817ZM13.9096 15.9659C13.9096 17.0214 14.2282 17.6867 15.2372 17.6867C15.7754 17.6793 16.3089 17.5849 16.8171 17.4072L17.1491 18.5559C16.4511 18.8591 15.6969 19.0102 14.9363 18.9994C13.0333 18.9994 12.2323 17.9794 12.2323 16.0812C12.2323 14.2762 13.0687 13.0255 15.0071 13.0255C15.6224 13.0028 16.2375 13.0762 16.8304 13.2428L16.5428 14.4136C16.1299 14.2969 15.7013 14.246 15.2726 14.2628C14.3344 14.2628 13.9096 14.9991 13.9096 15.9969V15.9659ZM17.8926 13.1231V18.8575H19.4725V14.3205H21.5702V18.8575H23.1767V13.1142L17.8926 13.1231ZM29.7177 15.9659C29.7177 17.8241 28.7441 18.9639 26.7747 18.9639C24.885 18.9639 23.9644 17.8862 23.9644 15.9792C23.9644 14.2318 24.9292 12.9944 26.8411 12.9944C28.7529 12.9944 29.7177 14.1298 29.7177 15.9703V15.9659ZM28.0448 15.9703C28.0448 15.141 27.8058 14.1963 26.8411 14.1963C25.9559 14.1963 25.6373 15.0833 25.6373 15.9703C25.6373 16.9682 25.8674 17.7443 26.8411 17.7443C27.8147 17.7443 28.0448 16.9504 28.0448 15.9703ZM33.1652 10.7947C33.8695 10.6032 34.5848 10.4551 35.3072 10.3512L35.5461 11.5797L33.5812 11.9744C33.096 12.0387 32.6373 12.2333 32.2535 12.5376C31.811 12.9279 31.6782 13.3537 31.6561 14.0766C31.6782 14.0766 31.6915 14.0766 31.7003 14.1121C31.9321 13.8033 32.2313 13.5518 32.5749 13.3765C32.9185 13.2013 33.2975 13.107 33.683 13.1009C35.378 13.1009 36.1259 14.285 36.1259 16.0501C36.1259 17.8153 35.1169 18.9684 33.236 18.9684C31.4348 18.9684 30.5099 17.6955 30.4258 15.7752C30.3328 13.6863 30.5497 12.7771 31.0896 11.9611C31.6348 11.3578 32.3568 10.9433 33.1519 10.777L33.1652 10.7947ZM33.3334 14.3249C32.4748 14.3249 32.0854 15.2652 32.0854 16.1388C32.0854 17.0125 32.3509 17.7709 33.2891 17.7709C34.2273 17.7709 34.4442 17.0125 34.4442 16.0812C34.4442 15.1498 34.2495 14.3072 33.3334 14.3072V14.3249ZM41.9145 17.7399H42.658L42.7377 18.7023C42.2911 18.875 41.8178 18.968 41.3392 18.9772C40.848 18.9772 40.5028 18.8043 40.4541 18.2765H40.432C39.8753 18.7542 39.1596 19.0044 38.4272 18.9772C38.1978 19.0034 37.9655 18.9785 37.7468 18.9042C37.5282 18.8298 37.3286 18.708 37.1624 18.5474C36.9962 18.3868 36.8675 18.1914 36.7855 17.9751C36.7035 17.7588 36.6702 17.5271 36.6879 17.2964C36.6879 16.1122 37.5731 15.4825 38.7724 15.3893C38.9892 15.3893 40.1001 15.3539 40.3302 15.3539V15.2385C40.3302 14.4802 40.0779 14.1919 39.2636 14.1919C38.6734 14.2076 38.0906 14.3277 37.5421 14.5467L37.1748 13.4468C37.968 13.1583 38.8048 13.0083 39.6486 13.0033C41.0471 13.0033 41.8968 13.5399 41.8968 15.0345L41.9145 17.7399ZM39.1751 16.4094C38.6485 16.4449 38.3608 16.6977 38.3608 17.1899C38.3608 17.6822 38.6485 17.8774 39.1618 17.8774C39.5918 17.8346 39.9989 17.663 40.3302 17.3851V16.3207L39.1751 16.4094ZM47.0836 18.8575V16.4537H44.9726V18.8531H43.3706V13.1142H44.9726V15.2518H47.0836V13.1142H48.6812V18.8575H47.0836ZM6.81094 18.8575V13.1142H8.40857V15.5224H8.62542L10.285 13.1009H12.0552L10.0283 15.6599L12.2411 18.8397H10.2983L8.6033 16.3251H8.40857V18.8397L6.81094 18.8575ZM49.7743 18.8575V13.1142H51.3764V15.5224H51.5977L53.2573 13.1009H55.0275L53.0006 15.6599L55.2134 18.8442H53.2794L51.5844 16.3295H51.3985V18.8442L49.7743 18.8575Z" fill="#00455C"/>
<path d="M66.2019 7.91198H81.2267C82.9306 7.91198 85.5328 7.73902 87.011 8.6881C87.1734 8.78879 87.3123 8.92343 87.4181 9.08282C87.5674 9.36349 87.6407 9.67851 87.6305 9.99642C87.6614 9.70157 87.6614 9.40428 87.6305 9.10943C87.5883 8.4892 87.4164 7.8848 87.126 7.33544C86.294 5.91181 83.6608 6.12469 82.2579 6.12469H66.0913C66.2346 6.3979 66.3185 6.69841 66.3376 7.00646C66.3567 7.31451 66.3104 7.62312 66.2019 7.91198Z" fill="url(#paint0_linear)"/>
<path d="M105.266 6.11139H104.709C103.501 6.11139 93.8661 6.07591 92.6624 6.17348C90.7372 6.33314 90.3035 7.72573 90.2947 9.25579C90.2947 9.25579 90.2947 9.75695 90.2947 9.77469C90.312 9.58875 90.3567 9.40641 90.4274 9.23362C90.4875 9.0793 90.5616 8.93084 90.6487 8.79012C91.3037 7.72573 93.8661 7.90312 95.0743 7.90312H104.687C104.636 7.25259 104.845 6.60847 105.266 6.11139Z" fill="url(#paint1_linear)"/>
<path d="M116.919 11.5797C114.264 11.5797 107.222 11.6107 104.611 11.6107H104.399C104.618 12.1893 104.618 12.8283 104.399 13.4069H108.236C109.564 13.4069 113.578 13.3714 116.543 13.4069C117.508 13.3483 118.475 13.5074 119.371 13.8726C119.625 13.9953 119.843 14.1827 120.002 14.4163C120.161 14.6498 120.256 14.9211 120.278 15.2031C120.278 14.8394 120.247 14.4846 120.229 14.1653C120.136 12.1873 119.008 11.5664 116.919 11.5797Z" fill="url(#paint2_linear)"/>
<path d="M57.6165 14.9193C57.6431 14.8063 57.6771 14.6952 57.7183 14.5866C58.3201 13.0344 61.303 13.4025 62.6262 13.4025H76.5623C76.4373 13.1197 76.3727 12.8137 76.3727 12.5044C76.3727 12.1951 76.4373 11.8892 76.5623 11.6063L62.6174 11.5753C60.8029 11.5753 58.3865 11.3136 57.7138 13.1364C57.5366 13.7448 57.4736 14.3809 57.528 15.0124L57.6165 14.9193Z" fill="url(#paint3_linear)"/>
<defs>
<linearGradient id="paint0_linear" x1="66.0913" y1="8.05834" x2="87.6482" y2="8.05834" gradientUnits="userSpaceOnUse">
<stop stop-color="#F5A04C"/>
<stop offset="0.65" stop-color="#F28A3D"/>
<stop offset="1" stop-color="#F28A3D"/>
</linearGradient>
<linearGradient id="paint1_linear" x1="90.2903" y1="7.9386" x2="105.266" y2="7.9386" gradientUnits="userSpaceOnUse">
<stop stop-color="#F28A3D"/>
<stop offset="0.35" stop-color="#F28A3D"/>
<stop offset="1" stop-color="#F5A04C"/>
</linearGradient>
<linearGradient id="paint2_linear" x1="3850.4" y1="121.12" x2="4420.77" y2="121.12" gradientUnits="userSpaceOnUse">
<stop stop-color="#F5A04C"/>
<stop offset="0.65" stop-color="#F28A3D"/>
<stop offset="1" stop-color="#F28A3D"/>
</linearGradient>
<linearGradient id="paint3_linear" x1="2533.1" y1="114.894" x2="3352.97" y2="114.894" gradientUnits="userSpaceOnUse">
<stop stop-color="#F28A3D"/>
<stop offset="0.35" stop-color="#F28A3D"/>
<stop offset="1" stop-color="#F5A04C"/>
</linearGradient>
</defs>
</svg>
