<svg width="120" height="23" viewBox="0 0 120 23" fill="none" xmlns="http://www.w3.org/2000/svg">
<path d="M72.8362 21.6666C72.7214 21.9952 72.4726 22.0145 72.3386 22.0145C72.2237 22.0145 69.3909 22.0145 69.3909 22.0145V18.9033H72.2429V17.9951H69.3909V15.367C69.3909 15.367 72.1855 15.367 72.2812 15.367C72.4151 15.367 72.664 15.3863 72.7788 15.7148H73.0851V14.4587H68.0318V14.7679C68.1275 14.8066 68.2041 14.8452 68.2424 14.9032C68.3572 15.0385 68.3572 15.1931 68.3764 15.2704V22.1304C68.3572 22.227 68.3572 22.4589 68.0318 22.6329C68.0318 22.6329 68.0318 22.6329 68.0127 22.6329V22.942H73.1234V21.686H72.8362V21.6666Z" fill="black"/>
<path d="M85.9289 21.6666C85.814 21.9952 85.5652 22.0145 85.4312 22.0145C85.3163 22.0145 82.4834 22.0145 82.4834 22.0145V18.9033H85.3355V17.9951H82.5026V15.367C82.5026 15.367 85.2972 15.367 85.3929 15.367C85.5269 15.367 85.7757 15.3863 85.8906 15.7148H86.1968V14.4587H81.1436V14.7679C81.2393 14.8066 81.3158 14.8452 81.3541 14.9032C81.469 15.0385 81.469 15.1931 81.4881 15.2704V22.1304C81.4881 22.227 81.469 22.4589 81.1436 22.6329V22.942H86.2543V21.686H85.9289V21.6666Z" fill="black"/>
<path d="M66.5197 14.7679V14.4587H59.916V14.7679C60.2414 14.8839 60.2606 15.1351 60.2606 15.2704C60.2606 15.4636 60.2606 21.9372 60.2606 22.1111C60.2606 22.2464 60.2414 22.4976 59.916 22.6135V22.9227H61.6387V22.6135C61.3133 22.4976 61.2942 22.2464 61.2942 22.1111C61.2942 21.9952 61.2942 15.367 61.2942 15.367H65.1607C65.1607 15.367 65.1607 21.9372 65.1607 22.1111C65.1607 22.2464 65.1415 22.4976 64.8161 22.6135V22.9227H66.5388V22.6135C66.1943 22.4976 66.1943 22.2464 66.1943 22.1111C66.1943 21.9952 66.1943 15.3863 66.1943 15.2704C66.1752 15.1351 66.1943 14.8839 66.5197 14.7679Z" fill="black"/>
<path d="M12.5799 8.71945C11.3932 12.1205 7.69895 13.9176 4.33011 12.7002C0.961274 11.5021 -0.818852 7.77257 0.367899 4.37152C1.57379 0.970465 5.26803 -0.826681 8.63687 0.371416C12.0057 1.56951 13.7667 5.3184 12.5799 8.71945Z" fill="url(#paint0_linear)"/>
<path d="M12.9627 17.1835V17.8405C12.9627 19.0966 10.0724 20.1207 6.493 20.1401C2.9136 20.1594 0.00415039 19.1545 0.00415039 17.8985V17.2414L12.9627 17.1835Z" fill="url(#paint1_linear)"/>
<path d="M12.9627 17.1834C12.9627 18.4395 10.0724 19.4637 6.493 19.483C2.9136 19.5023 0.00415039 18.4974 0.00415039 17.2414C0.00415039 15.9853 2.89446 14.9611 6.47385 14.9418C10.0532 14.9225 12.9436 15.9273 12.9627 17.1834Z" fill="url(#paint2_linear)"/>
<path d="M0.00415039 22.2463C0.00415039 22.0531 2.89446 21.8792 6.47385 21.8792C10.0532 21.8792 12.9436 22.0531 12.9436 22.2463V22.6328C12.9436 22.8067 10.0532 23 6.47385 23C2.9136 23 0.00415039 22.8067 0.00415039 22.6328V22.2463Z" fill="url(#paint3_linear)"/>
<path d="M58.1741 18.9033H54.6521V18.0144H58.1741V18.9033Z" fill="black"/>
<path d="M24.3134 21.6087C24.1986 21.9759 23.9306 21.9952 23.8349 22.0145C23.8349 22.0145 23.2989 22.0725 22.6481 22.0725C22.0165 22.0725 21.5188 21.8599 21.1934 21.4155C20.8489 20.9903 20.7149 20.3333 20.7149 19.483V17.8985C20.7149 16.1786 21.3465 15.309 22.6481 15.309C23.2224 15.309 23.8157 15.367 23.8157 15.367C23.9114 15.3863 24.1794 15.425 24.2943 15.7728H24.6005V14.6134C24.6005 14.6134 24.2368 14.5361 23.7775 14.4781C23.3181 14.4201 23.0118 14.3815 22.6481 14.3815C21.7294 14.3815 21.002 14.6713 20.466 15.2704C19.9301 15.8694 19.6621 16.739 19.6621 17.8985V19.483C19.6621 20.6232 19.9301 21.5121 20.466 22.0918C21.002 22.6909 21.7294 22.9807 22.6481 22.9807C23.2032 22.9807 23.5478 22.9614 23.8923 22.9227C24.2177 22.8841 24.6388 22.7875 24.6388 22.7875V21.5894H24.3134V21.6087Z" fill="black"/>
<path d="M107.692 14.4587H105.816V14.7486C106.065 14.8452 106.18 14.9998 106.046 15.4056C105.893 15.7921 104.572 19.3671 104.572 19.3671C104.572 19.3671 104.362 19.3477 104.266 19.1545C104.151 18.9226 102.792 15.5022 102.696 15.2704C102.601 15.0578 102.677 14.8259 102.945 14.7486V14.4587H101.012V14.7679C101.357 14.8259 101.51 15.0578 101.586 15.251C101.682 15.4636 103.175 19.2125 103.29 19.5023C103.405 19.7922 103.5 19.9275 103.596 20.0434C103.768 20.2173 103.979 20.2753 104.209 20.3526C104.209 20.3526 103.998 20.9323 103.807 21.3961C103.596 21.9179 103.232 22.0725 102.888 22.0725C102.754 22.0725 102.486 21.9952 102.428 21.7246H102.103V22.8454C102.103 22.8454 102.314 23 102.945 23C103.5 23 103.73 22.8841 104.055 22.6715C104.304 22.4976 104.553 22.1497 104.764 21.6666C104.974 21.1835 107.041 15.5409 107.156 15.2704C107.271 14.9998 107.386 14.8259 107.711 14.7679V14.4587H107.692Z" fill="black"/>
<path d="M32.8887 9.9175C32.8696 9.8402 30.9746 3.1154 30.9746 3.1154C30.8215 2.53567 30.4387 2.26514 29.8261 2.26514C29.2136 2.26514 28.8308 2.555 28.6777 3.13472C28.6777 3.13472 26.9167 9.45372 26.7636 9.93682C26.6487 10.304 26.4573 10.4199 26.1893 10.4972V10.8064H28.1417V10.4972C28.1417 10.4972 27.7398 10.362 27.8546 9.93682C28.046 9.14453 28.3714 8.02373 28.3714 8.02373H31.2809C31.2809 8.02373 31.7594 9.74358 31.7977 9.93682C31.8934 10.3426 31.5106 10.4972 31.5106 10.4972V10.8064H33.4438V10.4972C33.195 10.4006 33.0036 10.2847 32.8887 9.9175ZM28.582 7.09617C28.582 7.09617 29.6156 3.38594 29.6347 3.28932C29.673 3.1927 29.7304 3.13472 29.8261 3.13472C29.9219 3.13472 29.9793 3.1927 30.0176 3.28932C30.0558 3.40526 31.0703 7.07685 31.0703 7.07685H28.582V7.09617Z" fill="black"/>
<path d="M32.0656 22.0531C32.0465 21.9758 30.1515 15.251 30.1515 15.251C29.9792 14.6713 29.6155 14.4008 29.003 14.4008C28.3905 14.4008 28.0077 14.6906 27.8546 15.2703C27.8546 15.2703 26.0936 21.5893 25.9404 22.0724C25.8256 22.4396 25.6342 22.5555 25.3662 22.6328V22.942H27.2995V22.6135C27.2995 22.6135 26.8975 22.4783 27.0123 22.0531C27.2038 21.2608 27.5292 20.14 27.5292 20.14H30.4386C30.4386 20.14 30.9171 21.8599 30.9554 22.0531C31.0511 22.4589 30.6683 22.6135 30.6683 22.6135V22.9227H32.6016V22.6135C32.3719 22.5362 32.1805 22.401 32.0656 22.0531ZM27.7589 19.2318C27.7589 19.2318 28.7925 15.5216 28.8116 15.4249C28.8499 15.3283 28.9073 15.2703 29.003 15.2703C29.0987 15.2703 29.1753 15.3283 29.1944 15.4249C29.2327 15.5409 30.2472 19.2125 30.2472 19.2125H27.7589V19.2318Z" fill="black"/>
<path d="M40.6025 3.13486C40.6025 2.99959 40.6216 2.74837 40.947 2.63243V2.32324H39.2243V2.63243C39.5497 2.74837 39.5689 2.99959 39.5689 3.13486C39.5689 3.30877 39.5689 5.87889 39.5689 5.87889H35.7024C35.7024 5.87889 35.7024 3.2508 35.7024 3.13486C35.7024 2.99959 35.7215 2.74837 36.0469 2.63243V2.32324H34.3242V2.63243C34.6496 2.74837 34.6688 2.99959 34.6688 3.13486C34.6688 3.2508 34.6688 9.85966 34.6688 9.97561C34.6688 10.1109 34.6496 10.3621 34.3242 10.478V10.7872H36.0469V10.478C35.7215 10.3621 35.7024 10.1109 35.7024 9.97561C35.7024 9.84034 35.7024 6.7678 35.7024 6.7678H39.5689C39.5689 6.7678 39.5689 9.78236 39.5689 9.97561C39.5689 10.1109 39.5497 10.3621 39.2243 10.478V10.7872H40.947V10.478C40.6216 10.3621 40.6025 10.1109 40.6025 9.97561C40.6025 9.80169 40.6025 3.3281 40.6025 3.13486Z" fill="black"/>
<path d="M39.7603 15.2704C39.7603 15.1351 39.7795 14.8839 40.1049 14.7679V14.4587H38.3822V14.7679C38.7076 14.8839 38.7267 15.1351 38.7267 15.2704C38.7267 15.4443 38.7267 18.0144 38.7267 18.0144H34.8602C34.8602 18.0144 34.8602 15.3863 34.8602 15.2704C34.8602 15.1351 34.8794 14.8839 35.2048 14.7679V14.4587H33.4821V14.7679C33.8266 14.8839 33.8266 15.1351 33.8266 15.2704C33.8266 15.3863 33.8266 21.9952 33.8266 22.1111C33.8266 22.2464 33.8075 22.4976 33.4821 22.6135V22.9227H35.2048V22.6135C34.8794 22.4976 34.8602 22.2464 34.8602 22.1111C34.8602 21.9758 34.8602 18.9033 34.8602 18.9033H38.7267C38.7267 18.9033 38.7267 21.9179 38.7267 22.1111C38.7267 22.2464 38.7076 22.4976 38.3822 22.6135V22.9227H40.1049V22.6135C39.7603 22.4976 39.7603 22.2464 39.7603 22.1111C39.7603 21.9179 39.7603 15.4443 39.7603 15.2704Z" fill="black"/>
<path d="M48.3356 9.97561L45.3687 5.85956L47.7614 3.13486C48.0485 2.78702 48.2016 2.72905 48.527 2.63243V2.32324H47.2063L43.8566 6.24604C43.8566 6.24604 43.8566 3.23148 43.8566 3.11553C43.8566 2.98026 43.8757 2.72905 44.2011 2.6131V2.32324H43.9331H43.1292H42.4976V2.63243C42.823 2.74837 42.8421 2.99959 42.8421 3.13486C42.8421 3.2508 42.8421 9.85966 42.8421 9.97561C42.8421 10.1109 42.823 10.3621 42.4976 10.478V10.7872H44.2203V10.478C43.8949 10.3621 43.8757 10.1109 43.8757 9.97561C43.8757 9.85966 43.8757 7.57941 43.8757 7.57941L44.6988 6.65185L47.6657 10.7872H49.1778V10.478C48.8141 10.4201 48.6036 10.2655 48.3356 9.97561Z" fill="black"/>
<path d="M47.4933 22.111L44.5264 17.995L46.9191 15.2703C47.2062 14.9224 47.3593 14.8645 47.6847 14.7678V14.4587H46.364L43.0143 18.3815C43.0143 18.3815 43.0143 15.3669 43.0143 15.2509C43.0143 15.1157 43.0334 14.8645 43.3588 14.7485V14.4393H43.0909H42.3061H41.6553V14.7485C41.9807 14.8645 41.9998 15.1157 41.9998 15.2509C41.9998 15.3669 41.9998 21.9758 41.9998 22.0917C41.9998 22.227 41.9807 22.4782 41.6553 22.5941V22.9033H43.378V22.6134C43.0526 22.4975 43.0334 22.2463 43.0334 22.111C43.0334 21.9951 43.0334 19.7148 43.0334 19.7148L43.8565 18.7873L46.8234 22.9226H48.3355V22.6134C47.9718 22.5362 47.7422 22.4009 47.4933 22.111Z" fill="black"/>
<path d="M22.2845 5.84024C21.94 5.84024 21.538 5.85956 21.0978 5.87889V3.23148C21.0978 3.23148 23.8732 3.23148 24.0072 3.23148C24.1412 3.23148 24.39 3.2508 24.5049 3.57931H24.8112V2.32324H23.567H23.4904H19.7196V2.63243C20.045 2.74837 20.0641 2.98026 20.0641 3.13486C20.0641 3.2508 20.0641 9.84034 20.0641 9.99493C20.0641 10.1302 20.045 10.3814 19.7196 10.4974V10.8065C19.7196 10.8065 21.7103 10.8065 22.3228 10.8065C24.4475 10.8065 25.5577 9.97561 25.5577 8.39103V8.29441C25.5768 6.65185 24.4666 5.84024 22.2845 5.84024ZM24.5432 8.3717C24.5432 8.91278 24.3709 9.29926 24.0264 9.53115C23.6818 9.78236 23.165 9.89831 22.2654 9.89831C21.9591 9.89831 21.5954 9.89831 21.0786 9.85966V6.7678C21.5763 6.72915 21.9783 6.72915 22.2654 6.72915C23.0884 6.72915 23.6818 6.84509 24.0264 7.09631C24.3709 7.34752 24.5432 7.734 24.5432 8.25576V8.3717Z" fill="black"/>
<path d="M97.088 17.9757C96.7435 17.9757 96.3606 17.995 95.9013 18.0143V15.3476C95.9013 15.3476 98.6767 15.3476 98.8107 15.3476C98.9447 15.3476 99.1935 15.3669 99.3084 15.6954H99.6146V14.4393H98.3705H98.2939H94.5422V14.7485C94.8676 14.8645 94.8868 15.0964 94.8868 15.2509C94.8868 15.3669 94.8868 21.9564 94.8868 22.0917C94.8868 22.227 94.8676 22.4782 94.5422 22.5941V22.9033C94.5422 22.9033 96.5329 22.9033 97.1454 22.9033C99.2701 22.9033 100.38 22.0724 100.38 20.4878V20.3912C100.38 18.7679 99.2701 17.9757 97.088 17.9757ZM99.3467 20.4878C99.3467 21.0289 99.1744 21.4153 98.8299 21.6666C98.4853 21.9178 97.9685 22.0337 97.0689 22.0337C96.7626 22.0337 96.3989 22.0337 95.8821 21.9951V18.8839C96.3798 18.8452 96.7818 18.8452 97.0689 18.8452C97.8919 18.8452 98.4853 18.9612 98.8299 19.2124C99.1744 19.4636 99.3467 19.8501 99.3467 20.3718V20.4878Z" fill="black"/>
<path d="M48.4121 14.4587V15.7147H48.7184C48.8332 15.3862 49.0821 15.3669 49.216 15.3669C49.35 15.3669 50.843 15.3669 50.843 15.3669C50.843 15.3669 50.843 21.9371 50.843 22.1303C50.843 22.2656 50.8239 22.5168 50.4985 22.6328V22.942H52.2212V22.6134C51.8958 22.4975 51.8767 22.2463 51.8767 22.111C51.8767 21.9757 51.8767 15.3476 51.8767 15.3476C51.8767 15.3476 53.3697 15.3476 53.5036 15.3476C53.6376 15.3476 53.8865 15.3669 54.0013 15.6954H54.3076V14.4393H48.4121V14.4587Z" fill="black"/>
<path d="M74.1953 14.4587V15.7147H74.5016C74.6164 15.3862 74.8652 15.3669 74.9992 15.3669C75.1332 15.3669 76.6262 15.3669 76.6262 15.3669C76.6262 15.3669 76.6262 21.9371 76.6262 22.1303C76.6262 22.2656 76.6071 22.5168 76.2817 22.6328V22.942H78.0044V22.6134C77.6599 22.4975 77.6599 22.2463 77.6599 22.111C77.6599 21.9757 77.6599 15.3476 77.6599 15.3476C77.6599 15.3476 79.1529 15.3476 79.2677 15.3476C79.4017 15.3476 79.6505 15.3669 79.7654 15.6954H80.0716V14.4393H74.1953V14.4587Z" fill="black"/>
<path d="M90.1781 14.3815C89.8718 14.3815 89.4698 14.4008 88.9722 14.4201C88.3405 14.4394 87.6897 14.4588 87.6897 14.4588V14.768C88.0151 14.8839 88.0342 15.1351 88.0342 15.2704C88.0342 15.4056 88.0342 21.9372 88.0342 22.1111C88.0342 22.2464 88.0151 22.4976 87.6897 22.6136V22.9227H89.4124V22.6136C89.087 22.4976 89.0679 22.2464 89.0679 22.1111C89.0679 21.9759 89.0679 19.483 89.0679 19.483C89.5464 19.5217 89.9101 19.541 90.1781 19.541C92.2836 19.541 93.3363 18.6908 93.3363 16.9902V16.8356C93.3363 15.2124 92.2836 14.3815 90.1781 14.3815ZM92.3219 17.0096C92.3219 17.6086 92.1496 18.0531 91.8242 18.3043C91.4988 18.5555 90.9437 18.6908 90.1972 18.6908C90.1398 18.6908 89.7761 18.6714 89.087 18.6328V15.9081V15.309C89.4698 15.2704 89.8335 15.2704 90.1972 15.2704C90.9437 15.2704 91.4988 15.3863 91.8242 15.6375C92.1687 15.8888 92.3219 16.2946 92.3219 16.855V17.0096Z" fill="black"/>
<path d="M110.965 14.3815C110.659 14.3815 110.257 14.4008 109.76 14.4201C109.128 14.4394 108.477 14.4588 108.477 14.4588V14.768C108.802 14.8839 108.822 15.1351 108.822 15.2704C108.822 15.4056 108.822 21.9372 108.822 22.1111C108.822 22.2464 108.802 22.4976 108.477 22.6136V22.9227H110.2V22.6136C109.874 22.4976 109.855 22.2464 109.855 22.1111C109.855 21.9759 109.855 19.483 109.855 19.483C110.334 19.5217 110.697 19.541 110.965 19.541C113.071 19.541 114.124 18.6908 114.124 16.9902V16.8356C114.124 15.2124 113.071 14.3815 110.965 14.3815ZM113.09 17.0096C113.09 17.6086 112.918 18.0531 112.592 18.3043C112.267 18.5555 111.712 18.6908 110.965 18.6908C110.908 18.6908 110.544 18.6714 109.855 18.6328V15.9081V15.309C110.238 15.2704 110.602 15.2704 110.965 15.2704C111.712 15.2704 112.267 15.3863 112.592 15.6375C112.937 15.8888 113.09 16.2946 113.09 16.855V17.0096Z" fill="black"/>
<path d="M115.196 14.4587V14.7678C115.521 14.8838 115.54 15.135 115.54 15.2703C115.54 15.4055 115.54 21.9951 115.54 22.111C115.54 22.2463 115.521 22.4975 115.196 22.6134V22.9226H116.918V22.6134C116.593 22.4975 116.574 22.2463 116.574 22.111C116.574 21.9951 116.574 15.3476 116.574 15.3476C116.574 15.3476 119.024 15.3476 119.196 15.3476C119.33 15.3476 119.579 15.3669 119.694 15.6954H120V14.4393H115.196V14.4587Z" fill="black"/>
<defs>
<linearGradient id="paint0_linear" x1="4.90321" y1="8.67955" x2="14.8684" y2="-4.57158" gradientUnits="userSpaceOnUse">
<stop stop-color="#E80011"/>
<stop offset="1" stop-color="#FF6104"/>
</linearGradient>
<linearGradient id="paint1_linear" x1="8.67383" y1="18.6452" x2="14.258" y2="18.7894" gradientUnits="userSpaceOnUse">
<stop stop-color="#9A0015"/>
<stop offset="1" stop-color="#C60012"/>
</linearGradient>
<linearGradient id="paint2_linear" x1="5.66731" y1="17.6218" x2="19.104" y2="10.9721" gradientUnits="userSpaceOnUse">
<stop stop-color="#E80011"/>
<stop offset="0.8102" stop-color="#FA660B"/>
<stop offset="1" stop-color="#FF8008"/>
</linearGradient>
<linearGradient id="paint3_linear" x1="5.12356" y1="22.4915" x2="-3.21644" y2="22.8208" gradientUnits="userSpaceOnUse">
<stop stop-color="#9A0015"/>
<stop offset="1" stop-color="#C60012"/>
</linearGradient>
</defs>
</svg>
