<svg width="93" height="42" viewBox="0 0 93 42" fill="none" xmlns="http://www.w3.org/2000/svg">
<path d="M45.5681 23.8094H47.0264V27.0945H48.08L49.9707 23.8094H51.565L49.2957 27.6649V27.6919L51.7002 31.8992H50.0521L48.1069 28.3695H47.0541V31.8992H45.595V23.8086H45.5681V23.8094ZM54.9685 25.9544C56.7232 25.9544 58.1554 27.2303 58.1554 28.9948C58.1554 30.7871 56.7509 32.0359 54.9954 32.0359C53.2391 32.0359 51.8345 30.7871 51.8345 28.9948C51.8076 27.2033 53.2122 25.9544 54.9685 25.9544ZM59.2897 26.0895H60.6674V30.6512H62.4774V26.0903H63.8543V30.6512H65.6643V26.0903H67.042V31.8992H59.3434V26.0895H59.2897ZM71.1214 25.9544C72.7686 25.9544 73.687 27.1763 73.687 28.6969C73.6825 28.8878 73.6646 29.0781 73.6333 29.2665H69.6623C69.7437 30.2706 70.527 30.8141 71.3917 30.8141C71.9853 30.8141 72.5797 30.5423 73.0389 30.1896L73.6064 31.2216C73.012 31.7364 72.1205 32.0629 71.2834 32.0629C69.3651 32.0629 68.1771 30.6782 68.1771 29.0218C68.1771 27.2033 69.3919 25.9544 71.1214 25.9544ZM74.362 30.6782C75.0647 30.5693 75.5777 29.9728 75.5777 27.9088V26.0903H79.7922V31.8992H78.36V27.2565H76.9554V27.9079C76.9554 30.4326 76.2804 31.8992 74.362 31.9532V30.6774V30.6782ZM83.8976 25.9544C85.5448 25.9544 86.4633 27.1763 86.4633 28.6969C86.4587 28.8878 86.4408 29.0781 86.4095 29.2665H82.4385C82.5199 30.2706 83.3032 30.8141 84.1679 30.8141C84.7615 30.8141 85.3559 30.5423 85.8151 30.1896L86.3827 31.2216C85.7883 31.7364 84.8967 32.0629 84.0596 32.0629C82.1421 32.0629 80.9533 30.6782 80.9533 29.0218C80.9533 27.2033 82.169 25.9544 83.8976 25.9544ZM87.6521 26.0895H89.0835V28.3163H89.7862L91.1907 26.0903H92.7842L90.9473 28.8589V28.8868L93 31.8992H91.3259L89.8131 29.5382H89.0575V31.8992H87.6244V26.0895H87.6512H87.6521ZM54.9685 30.7871C55.9138 30.7871 56.6971 30.0538 56.6971 28.9678C56.6971 27.9088 55.9138 27.1485 54.9677 27.1485C54.0232 27.1485 53.2668 27.8826 53.2668 28.9678C53.2668 30.0538 54.0223 30.7871 54.9685 30.7871ZM72.2288 28.2623C72.2288 27.502 71.7149 27.0405 71.0668 27.0405C70.3381 27.0405 69.7974 27.529 69.6623 28.2623H72.2288ZM85.005 28.2623C85.005 27.502 84.492 27.0405 83.8439 27.0405C83.1135 27.0405 82.5736 27.529 82.4385 28.2623H85.005Z" fill="black"/>
<path d="M65.7457 6.18948V19.9C65.7469 19.9502 65.7379 20.0001 65.7193 20.0467C65.7007 20.0933 65.6729 20.1356 65.6376 20.1711C65.6023 20.2066 65.5602 20.2345 65.5138 20.2532C65.4675 20.2719 65.4178 20.2809 65.3679 20.2797H62.5857C62.5357 20.2809 62.4861 20.2719 62.4397 20.2532C62.3934 20.2345 62.3513 20.2066 62.316 20.1711C62.2807 20.1356 62.2529 20.0933 62.2343 20.0467C62.2157 20.0001 62.2067 19.9502 62.2079 19.9V6.18948C62.2067 6.1393 62.2157 6.08941 62.2343 6.04281C62.2529 5.99622 62.2807 5.9539 62.316 5.91841C62.3513 5.88292 62.3934 5.85499 62.4397 5.83631C62.4861 5.81764 62.5357 5.80861 62.5857 5.80976H65.3679C65.4178 5.80861 65.4675 5.81764 65.5138 5.83631C65.5602 5.85499 65.6023 5.88292 65.6376 5.91841C65.6729 5.9539 65.7007 5.99622 65.7193 6.04281C65.7379 6.08941 65.7469 6.1393 65.7457 6.18948ZM87.4631 5.80976C87.5714 5.80976 87.7066 5.86376 87.8409 5.97262C87.9223 6.05363 87.9223 6.18948 87.8955 6.29834L83.3031 20.0359C83.2753 20.107 83.2271 20.1681 83.1646 20.2117C83.1021 20.2553 83.0282 20.2792 82.9522 20.2806H80.4672C80.3051 20.2806 80.17 20.1987 80.1162 20.0359L77.4406 12.0271L74.7666 20.035C74.7388 20.1061 74.6906 20.1673 74.6281 20.2109C74.5656 20.2544 74.4917 20.2784 74.4157 20.2797H71.9307C71.7686 20.2797 71.6335 20.1987 71.5797 20.035L66.9874 6.29749C66.9605 6.18948 66.9605 6.08063 67.0411 5.97262C67.0957 5.86376 67.2309 5.80976 67.3383 5.80976H70.4447C70.6067 5.80976 70.7419 5.91777 70.7964 6.08063L73.2538 14.1983L75.9554 6.08063C75.9833 6.00954 76.0315 5.94835 76.094 5.90479C76.1565 5.86124 76.2304 5.83727 76.3064 5.83592H78.4942C78.6563 5.83592 78.7914 5.91777 78.8452 6.08063L81.5468 14.1983L84.005 6.08063C84.0271 6.00373 84.073 5.93594 84.1362 5.8872C84.1993 5.83846 84.2763 5.81132 84.3559 5.80976H87.4623H87.4631ZM92.1629 5.80976C92.3518 5.80976 92.5138 5.97262 92.5407 6.18948V19.9C92.5418 19.9502 92.5328 20.0001 92.5143 20.0467C92.4957 20.0933 92.4679 20.1356 92.4326 20.1711C92.3973 20.2066 92.3552 20.2345 92.3088 20.2532C92.2625 20.2719 92.2128 20.2809 92.1629 20.2797H89.3806C89.3307 20.2809 89.2811 20.2719 89.2347 20.2532C89.1884 20.2345 89.1462 20.2066 89.1109 20.1711C89.0756 20.1356 89.0478 20.0933 89.0293 20.0467C89.0107 20.0001 89.0017 19.9502 89.0028 19.9V6.18948C89.0017 6.1393 89.0107 6.08941 89.0293 6.04281C89.0478 5.99622 89.0756 5.9539 89.1109 5.91841C89.1462 5.88292 89.1884 5.85499 89.2347 5.83631C89.2811 5.81764 89.3307 5.80861 89.3806 5.80976H92.1629ZM60.5867 19.792C60.7487 19.9819 60.6136 20.2527 60.3701 20.2527H56.9666C56.8996 20.2545 56.833 20.2408 56.7722 20.2126C56.7113 20.1843 56.6577 20.1423 56.6157 20.0899L56.049 19.3844C54.8602 20.1439 53.4548 20.6063 51.9696 20.6063C47.8105 20.6063 44.4338 17.2124 44.4338 13.0312C44.4338 8.85007 47.8105 5.4562 51.9696 5.4562C56.1296 5.4562 59.5062 8.85007 59.5062 13.0312C59.5062 14.5248 59.0738 15.9365 58.3174 17.1306L60.5867 19.7912V19.792ZM32.1429 26.4431C32.8456 26.7148 33.1159 27.7729 33.1696 28.2345C33.2779 29.0766 33.0353 29.4024 32.765 29.4024C32.4946 29.4024 32.116 29.0766 31.7113 28.4252C31.3058 27.7729 31.1438 27.0405 31.3604 26.6599C31.4947 26.4152 31.7919 26.3072 32.1437 26.4431H32.1429ZM28.0375 29.5112C28.4699 29.5112 28.956 29.7011 29.3883 30.0808C30.2253 30.7871 30.4688 31.6014 30.0364 32.1988C29.793 32.4975 29.3883 32.6874 28.9291 32.6874C28.4699 32.6874 27.9838 32.5245 27.6597 32.2258C26.9033 31.5744 26.6875 30.4875 27.1728 29.8909C27.3625 29.6462 27.6597 29.5112 28.0375 29.5112ZM18.5842 37.3571C8.31907 37.3571 0 28.9948 0 18.6781C0 8.3615 8.3199 0 18.5834 0C28.8477 0 37.1676 8.36234 37.1676 18.6781C37.1676 22.18 36.1954 25.4659 34.5482 28.2624C34.4936 28.3434 34.3584 28.3164 34.3316 28.2075C33.6834 23.6196 30.9012 21.094 26.8495 20.3346C26.4978 20.2797 26.444 20.0629 26.9033 20.0089C28.1458 19.9 29.9013 19.927 30.8197 20.0899C30.8735 19.6283 30.9012 19.1397 30.9012 18.6511C30.9012 11.8364 25.3904 6.29749 18.6102 6.29749C11.8309 6.29749 6.32011 11.8364 6.32011 18.6511C6.32011 25.4659 11.8309 31.0048 18.6111 31.0048H19.1778C18.9852 29.9025 18.9037 28.7836 18.9343 27.6649C18.962 26.9046 19.124 26.7958 19.4481 27.3932C21.1499 30.3525 23.5812 33.0131 28.3347 34.0721C32.2243 34.9412 36.1139 35.9454 40.3007 41.2936C40.6785 41.7552 40.1118 42.2437 39.6795 41.864C35.4121 38.0626 31.5224 36.8137 27.9838 36.8137C24.0127 36.8416 21.3119 37.3571 18.5834 37.3571H18.5842ZM53.8334 16.7508L52.3474 14.9315C52.1862 14.7417 52.3214 14.443 52.564 14.443H55.6972C55.8592 14.0084 55.9407 13.5198 55.9407 13.0312C55.9407 10.7782 54.2658 8.82307 51.9696 8.82307C49.6743 8.82307 47.9985 10.7782 47.9985 13.0312C47.9985 15.2843 49.6743 17.2124 51.9696 17.2124C52.6177 17.2394 53.2667 17.0496 53.8334 16.7508Z" fill="#FF8C00"/>
</svg>
