<svg width="128" height="38" viewBox="0 0 128 38" fill="none" xmlns="http://www.w3.org/2000/svg">
<path d="M89.6565 18.6705C88.8653 18.6705 88.2244 19.3175 88.2244 20.1078C88.2172 20.3003 88.2488 20.4922 88.3175 20.6722C88.3862 20.8521 88.4904 21.0163 88.6241 21.1551C88.7577 21.2938 88.9179 21.4041 89.0951 21.4795C89.2723 21.5549 89.4629 21.5937 89.6555 21.5937C89.8481 21.5937 90.0387 21.5549 90.2159 21.4795C90.3931 21.4041 90.5533 21.2938 90.6869 21.1551C90.8205 21.0163 90.9248 20.8521 90.9935 20.6722C91.0622 20.4922 91.0938 20.3003 91.0866 20.1078C91.0866 19.3165 90.4457 18.6705 89.6565 18.6705ZM40.0401 20.0367C40.0401 20.0367 40.7542 17.6378 40.8633 17.2622C41.1518 16.2866 41.5844 14.7501 41.5844 14.7501H41.6545C41.6545 14.7501 42.0521 16.3427 42.3115 17.2481C42.4137 17.6007 43.0957 20.0367 43.0957 20.0367H40.0401ZM44.3886 24.3918H46.9725L43.0696 12.4223C42.5957 12.2709 42.1009 12.1951 41.6034 12.1979C41.0126 12.1979 40.8022 12.276 40.3375 12.4233L36.1983 24.3928H38.674C38.674 24.3928 39.0065 23.3441 39.4122 22.042H43.6926L44.3896 24.3918H44.3886ZM128 24.3918C128 24.3918 126.776 21.7715 126.478 21.1796C126.139 20.5065 125.827 20.0427 125.136 19.8774V19.8374C125.599 19.7512 125.967 19.4698 126.366 18.6134C126.749 17.776 126.862 17.5977 127.087 17.3994C127.307 17.1991 127.607 17.2762 127.607 17.2762L127.722 15.7176C127.375 15.6798 127.026 15.6724 126.678 15.6956C126.072 15.7337 125.755 15.9059 125.458 16.2104C125.226 16.4408 125.066 16.7874 124.867 17.1921C124.657 17.6248 124.492 17.9733 124.28 18.414C124.065 18.8668 123.96 19.0681 123.379 19.0681H123.003V15.8328H120.749V24.3938H123.003V20.8941L123.309 20.8881C123.95 20.8881 124.058 21.0483 124.399 21.7264C124.799 22.5378 125.555 24.3928 125.555 24.3928H127.999L128 24.3918ZM118.793 24.3918V15.8298H116.55V19.0671H114.009V15.8298H111.768V24.3918H114.009V20.8961H116.549V24.3918H118.793ZM57.1407 15.7527L57.1327 23.9421C58.1963 24.3928 59.3661 24.5951 60.4026 24.5951C62.7862 24.5951 64.0601 23.3601 64.0601 21.3238C64.0601 19.4808 62.9314 18.3409 60.8223 18.3409C60.2875 18.3409 59.974 18.411 59.3851 18.5543V15.7517H57.1417L57.1407 15.7527ZM61.7396 21.428C61.7396 22.2733 61.4432 22.8523 60.3676 22.8523C60.003 22.8523 59.8538 22.8523 59.3831 22.7191V20.25C59.968 20.1359 60.0191 20.1168 60.3666 20.1168C61.3961 20.1168 61.7386 20.6196 61.7386 21.429L61.7396 21.428ZM110.593 23.5715C109.999 22.667 109.846 22.1341 109.846 20.9973V18.6915C109.846 17.4465 109.706 16.9887 109.375 16.533C108.919 15.8919 108.161 15.6155 106.761 15.6155C105.772 15.6155 104.803 15.7217 103.877 15.958L104.207 17.6107C104.836 17.5206 105.499 17.4455 105.972 17.4455C107.454 17.4455 107.624 17.6628 107.624 18.7776V19.1983C107.256 19.0956 106.875 19.0437 106.493 19.0441C104.249 19.0441 103.07 20.1419 103.07 21.9528C103.07 23.6556 104.332 24.5851 105.877 24.5851C106.452 24.5851 107.049 24.4779 107.523 24.2846C107.811 24.1594 107.934 24.0883 108.304 23.8439C108.529 24.1724 108.977 24.505 109.16 24.5651L110.596 23.5705L110.593 23.5715ZM107.742 22.5838C107.251 22.7541 106.925 22.7942 106.534 22.7942C105.731 22.7942 105.279 22.4757 105.279 21.6503C105.279 20.7909 105.855 20.5004 106.966 20.5004C107.237 20.5004 107.503 20.5405 107.625 20.5846V21.2026C107.625 21.8667 107.661 22.3014 107.743 22.5848L107.742 22.5838ZM85.8448 23.5705C85.2539 22.667 85.0987 22.1341 85.0987 20.9983V18.6905C85.0987 17.4455 84.9565 16.9877 84.628 16.532C84.1733 15.8909 83.4131 15.6145 82.014 15.6145C81.0266 15.6145 80.0551 15.7206 79.1277 15.957L79.4602 17.6097C80.0912 17.5196 80.7481 17.4445 81.2229 17.4445C82.7091 17.4445 82.8803 17.6618 82.8803 18.7766V19.1973C82.5498 19.1072 82.1793 19.0431 81.7456 19.0431C79.5023 19.0431 78.3205 20.1409 78.3205 21.9518C78.3205 23.6546 79.5824 24.5841 81.1287 24.5841C81.7036 24.5841 82.3025 24.4769 82.7762 24.2836C83.0626 24.1584 83.1868 24.0873 83.5574 23.8429C83.7817 24.1714 84.2284 24.504 84.4116 24.5641L85.8468 23.5695L85.8448 23.5705ZM82.9945 22.5838C82.5018 22.7541 82.1773 22.7942 81.7877 22.7942C80.9865 22.7942 80.5288 22.4757 80.5288 21.6503C80.5288 20.7909 81.1047 20.5004 82.2163 20.5004C82.4837 20.5004 82.7531 20.5405 82.8793 20.5846V21.2026C82.8793 21.8667 82.9114 22.3014 82.9945 22.5848V22.5838ZM55.3631 24.3918V16.1423C54.1312 15.7737 53.1848 15.6145 51.948 15.6145C50.7141 15.6145 49.7897 15.7727 48.5579 16.1413V20.3652C48.5579 21.5141 48.5378 21.8577 48.4137 22.2283C48.2905 22.5548 48.1232 22.9454 47.6725 23.2479L48.2835 24.5661C50.0862 24.0552 50.7632 23.269 50.7632 20.7699V17.6628C51.3581 17.5757 51.4762 17.5556 51.95 17.5556C52.4287 17.5556 52.5278 17.5757 53.1217 17.6628V24.3918H55.3651H55.3631ZM72.3385 27.1964V24.1214C72.622 24.2886 73.1898 24.538 74.1442 24.538C76.0441 24.538 77.4442 22.9555 77.4442 20.0607C77.4442 16.9426 76.0521 15.6085 73.7687 15.6085C73.1878 15.6085 72.8072 15.6686 72.3365 15.8929V12.2169H70.1052V15.8929C69.6365 15.6686 69.2559 15.6085 68.676 15.6085C66.3906 15.6085 65.0005 16.9977 65.0005 20.1138C65.0005 23.0085 66.2574 24.539 68.2955 24.539C69.2569 24.539 69.8228 24.2886 70.1082 24.1214V27.1984H72.3415L72.3385 27.1964ZM67.301 20.1148C67.301 18.395 67.8157 17.4865 68.8453 17.4865C69.2799 17.4865 69.5684 17.4835 70.1042 17.7409V22.4687C69.6164 22.6289 69.3861 22.649 68.9525 22.649C67.7807 22.649 67.3 21.6894 67.3 20.1148H67.301ZM75.1407 20.0597C75.1407 21.6343 74.5158 22.65 73.4883 22.65C73.0556 22.65 72.8273 22.6279 72.3365 22.4677V17.7419C72.8733 17.4845 73.1618 17.4875 73.5954 17.4875C74.625 17.4875 75.1407 18.3419 75.1407 20.0617V20.0597ZM102.213 20.6757C102.213 18.5543 100.974 17.0929 98.3716 17.0929C97.7326 17.0929 97.2859 17.153 96.5959 17.3173L96.5929 14.2623C97.0215 14.2022 97.7546 14.1481 98.5659 14.1481C99.33 14.1481 100.3 14.1902 101.15 14.2943L101.21 12.5244C100.243 12.3071 98.8403 12.1739 97.7526 12.1739C96.681 12.1739 95.0125 12.4443 94.2173 12.6587V23.9441C95.4552 24.3988 96.664 24.6051 97.9029 24.6051C100.741 24.6051 102.214 23.0977 102.214 20.6737L102.213 20.6757ZM99.8268 20.846C99.8268 21.9899 99.1958 22.7431 98.0341 22.7431C97.5734 22.7431 97.1968 22.7431 96.5959 22.5798V19.1172C96.8623 19.0741 97.4101 18.987 98.0341 19.011C99.2158 19.0561 99.8268 19.61 99.8268 20.846ZM12.1403 6.00981L8.78322 16.1193H15.5504L12.1823 6.00981H12.1403ZM0.376612 32.9277C0.326502 32.9284 0.277013 32.9389 0.230968 32.9587C0.184923 32.9785 0.143226 33.0071 0.108258 33.043C0.0732894 33.0789 0.0457357 33.1214 0.027169 33.1679C0.00860227 33.2145 -0.000614159 33.2642 4.77674e-05 33.3144V37.6134C-0.000746812 37.6635 0.00837862 37.7133 0.0268977 37.7599C0.0454168 37.8066 0.0729635 37.8491 0.107958 37.885C0.142952 37.9209 0.184702 37.9496 0.230807 37.9693C0.276912 37.989 0.326463 37.9995 0.376612 38H23.944C24.0447 37.9982 24.1406 37.9564 24.2107 37.8839C24.2807 37.8115 24.3191 37.7141 24.3175 37.6134V33.3144C24.3184 33.2645 24.3095 33.215 24.2913 33.1685C24.2731 33.1221 24.2459 33.0798 24.2113 33.0438C24.1767 33.0079 24.1354 32.9792 24.0897 32.9593C24.044 32.9394 23.9948 32.9286 23.945 32.9277H0.376612ZM12.1603 0C14.7392 0 15.5504 1.85302 16.2264 3.70805C16.5148 4.49233 23.2149 22.8964 23.4152 23.4483C23.4712 23.6005 23.4352 23.8549 23.1978 23.9451C22.9605 24.0352 19.4783 25.3944 19.287 25.4676C19.193 25.4999 19.0901 25.4943 19.0003 25.4518C18.9105 25.4093 18.8408 25.3333 18.8063 25.2402C18.7361 25.0479 17.292 21.0363 17.1287 20.5876H7.20385C7.03961 21.0363 5.58142 25.0549 5.51532 25.2392C5.44822 25.4215 5.2399 25.5457 5.0366 25.4645C4.83129 25.3824 1.33405 24.0242 1.12674 23.9421C1.03262 23.9045 0.956903 23.8316 0.915743 23.739C0.874582 23.6464 0.871233 23.5413 0.906408 23.4463C1.15278 22.7551 7.74967 4.64859 8.08718 3.70605C8.74316 1.88307 9.58442 0 12.1613 0H12.1603Z" fill="#F03226"/>
</svg>
