<svg width="120" height="22" viewBox="0 0 120 22" fill="none" xmlns="http://www.w3.org/2000/svg">
<path fill-rule="evenodd" clip-rule="evenodd" d="M21.1898 10.5019C21.1893 16.3007 16.4452 21.0033 10.5949 21.0033C4.74513 21.0028 0.000500066 16.3007 0 10.5019V4.34708H0.00100013V3.15042C4.08304 3.15142 7.56751 5.69726 8.92669 9.27223C9.0647 8.77217 9.23323 8.2841 9.43025 7.81104C7.67352 4.42209 4.10955 2.10078 0.00100013 2.10028V0C4.42309 0.000500067 8.31861 2.2413 10.5964 5.63825C12.8737 2.2413 16.7672 0.000500067 21.1893 0V1.05014C16.9538 1.05064 13.2458 3.29344 11.2055 6.64488C11.6535 7.46949 12.0111 8.35011 12.2651 9.27173C13.6243 5.69676 17.1073 3.15092 21.1893 3.15042V4.20056C16.5092 4.20106 12.7142 7.96256 12.7142 12.6017H11.6545H10.5949C10.5949 11.4245 10.3999 10.2934 10.0398 9.23623C9.71279 10.3009 9.53527 11.431 9.53527 12.6017H8.47563H7.41599C7.41599 9.27223 5.18219 6.46036 2.11878 5.55674V10.5019C2.11978 15.141 5.91529 18.9025 10.5949 18.9025C15.275 18.9025 19.07 15.141 19.0705 10.5019H21.1898Z" fill="#7B091E"/>
<path fill-rule="evenodd" clip-rule="evenodd" d="M37.096 13.6053H34.7937V13.5553C34.9277 13.4588 35.0422 13.3638 35.1332 13.2712C35.2212 13.1777 35.2907 13.0807 35.3377 12.9797C35.4307 12.7937 35.4763 12.4781 35.4763 12.0351V6.8914L30.8356 12.7877C30.5826 13.0912 30.3406 13.3358 30.1095 13.5238C29.8935 13.7133 29.568 13.8758 29.1309 14.0123L29.1549 6.64537C29.1549 6.17881 29.1049 5.84826 29.0059 5.65874C28.9059 5.47071 28.7269 5.28519 28.4658 5.10366V5.07766H30.7481V5.10366C30.4461 5.24618 30.2541 5.44471 30.176 5.70224C30.0985 5.95678 30.0595 6.25482 30.0595 6.59636V11.665L34.7932 5.68474C35.0587 5.3692 35.1907 5.16617 35.1907 5.07816H37.096V5.10416C36.8564 5.25968 36.6789 5.42421 36.5644 5.59673C36.4624 5.78225 36.4129 6.1083 36.4129 6.57086V12.0361C36.4129 12.4646 36.4584 12.7862 36.5509 13.0067C36.6444 13.2247 36.8254 13.4078 37.096 13.5568V13.6053ZM43.7534 13.6053H41.6136V13.5668C41.8791 13.4783 42.0131 13.1932 42.0131 12.7072V10.6639H39.4968V12.7072C39.4968 13.1932 39.6288 13.4783 39.8898 13.5668V13.6048H37.8061V13.5668C38.0676 13.4783 38.1991 13.1932 38.1991 12.7072V8.73315V8.51312C38.1991 8.01855 38.0676 7.72251 37.8061 7.621V7.58849H39.8898V7.621C39.7298 7.68351 39.6243 7.80902 39.5723 7.99255C39.5228 8.17807 39.4968 8.42661 39.4968 8.73315V10.0113H42.0131V8.63813C42.0131 8.3726 41.9911 8.15007 41.9456 7.97105C41.9031 7.79202 41.7901 7.67501 41.6131 7.621V7.58849H43.7529V7.621C43.6083 7.67451 43.5043 7.77852 43.4418 7.93004C43.3833 8.09806 43.3538 8.33609 43.3538 8.63863V12.7077C43.3538 13.1937 43.4873 13.4788 43.7529 13.5673V13.6053H43.7534ZM49.4396 8.72014C49.3771 8.63163 49.3076 8.56462 49.2361 8.52212C49.1651 8.47661 49.0286 8.42711 48.826 8.3666C48.737 8.3666 48.5735 8.3621 48.3355 8.3556C48.0959 8.3471 47.9384 8.34309 47.8564 8.34309C47.5779 8.34309 47.4398 8.47461 47.4398 8.73565V12.5171C47.4398 12.7747 47.4763 12.9817 47.5479 13.1372C47.6064 13.2913 47.7379 13.4283 47.9449 13.5558V13.6058H45.7681V13.5558C45.9932 13.4418 46.1312 13.3018 46.1872 13.1372C46.2282 12.9687 46.2497 12.7707 46.2497 12.5437V8.73565C46.2497 8.47461 46.1112 8.34309 45.8326 8.34309C45.6881 8.34309 45.5371 8.3451 45.3771 8.3516C45.215 8.3581 45.0445 8.3621 44.863 8.3671C44.6595 8.42761 44.5235 8.47711 44.4524 8.52262C44.3809 8.56512 44.3124 8.63263 44.2494 8.72115V7.50098L45.9636 7.58949H47.7239L49.4386 7.50098V8.72014H49.4396ZM55.3294 12.2471L54.6963 13.4473C54.0942 13.6738 53.4956 13.7893 52.9061 13.7893C51.9059 13.7893 51.0338 13.5018 50.2887 12.9257C49.5436 12.3486 49.1726 11.567 49.1726 10.5734V10.4914C49.1726 9.70278 49.4576 8.99918 50.0297 8.3791C50.6018 7.75902 51.4049 7.44848 52.4435 7.44848C52.9751 7.44848 53.4651 7.57149 53.9147 7.82002C54.3638 8.06606 54.7158 8.4141 54.9683 8.86116C55.2079 9.29072 55.3289 9.79429 55.3289 10.3689V10.4184H50.5753C50.5753 11.0119 50.7613 11.5565 51.1343 12.0471C51.5084 12.5367 52.0825 12.8197 52.8536 12.8912C52.9896 12.8912 53.0951 12.9002 53.1776 12.9177C53.3416 12.9177 53.5146 12.9022 53.6957 12.8702C53.8772 12.8382 54.0717 12.7942 54.2793 12.7407C54.6568 12.6307 55.0003 12.4661 55.3029 12.2486H55.3294V12.2471ZM53.9812 9.65127C53.9812 9.44374 53.9357 9.25822 53.8452 9.0942C53.7542 8.93017 53.6267 8.78765 53.4651 8.66864C53.3031 8.55212 53.1306 8.46111 52.9466 8.4031C52.763 8.3446 52.5645 8.31459 52.3485 8.31459C51.9359 8.31459 51.5599 8.43361 51.2253 8.66864C50.8908 8.90617 50.6918 9.23221 50.6268 9.65127H53.9812ZM62.7319 10.5429V10.8969C62.6649 11.724 62.3393 12.4081 61.7582 12.9507C61.1752 13.4928 60.4846 13.7623 59.683 13.7623C59.3249 13.7623 58.9814 13.7108 58.6508 13.6048L57.9742 12.5427C58.1798 12.6592 58.3953 12.7517 58.6223 12.8172C58.8469 12.8812 59.1014 12.9132 59.3844 12.9132C59.6635 12.9132 59.916 12.8722 60.14 12.7927C60.3651 12.7127 60.5771 12.5942 60.7691 12.4326C61.1317 12.1346 61.3457 11.672 61.4082 11.0475L61.4347 10.6479C61.4347 10.0493 61.2787 9.54025 60.9656 9.1187C60.5986 8.61563 60.0995 8.3651 59.4664 8.3651C58.9054 8.3651 58.4603 8.53562 58.1328 8.87667C57.8017 9.21771 57.6382 9.58726 57.6382 9.98431V14.7745C57.6382 15.262 57.6637 15.5911 57.7137 15.7566C57.7657 15.9231 57.9082 16.0746 58.1428 16.2101V16.2596H55.9685V16.2101C56.305 16.0251 56.4735 15.7031 56.4735 15.2475V15.122V9.04419V8.82166C56.4735 8.24758 56.3055 7.86953 55.9685 7.68401V7.632C56.357 7.632 56.6186 7.641 56.7591 7.6585C56.9666 7.6585 57.1431 7.641 57.2902 7.6045C57.4367 7.56999 57.5447 7.52499 57.6117 7.47498H57.6377V8.3926C57.8602 8.09256 58.1773 7.86153 58.5898 7.69751C58.9699 7.54849 59.3584 7.47498 59.758 7.47498H59.8855C60.154 7.47498 60.4106 7.51148 60.6546 7.58499C60.8981 7.658 61.1427 7.77102 61.3867 7.91754C61.8293 8.18757 62.1788 8.58463 62.4358 9.1072C62.5313 9.31672 62.6069 9.54125 62.6564 9.78079C62.7059 10.0183 62.7319 10.2729 62.7319 10.5429ZM69.2712 13.6053H67.295V13.5668C67.56 13.4783 67.694 13.1932 67.694 12.7072V8.29009H65.0767V12.7072C65.0767 13.1967 65.2042 13.4823 65.4567 13.5668V13.6048H63.3985V13.5668C63.66 13.4783 63.7915 13.1932 63.7915 12.7072V8.77215V8.56262C63.7915 8.06806 63.66 7.76802 63.3985 7.658L67.549 7.645H69.2702C69.1252 7.71201 69.0242 7.82453 68.9637 7.97955C68.9012 8.13707 68.8707 8.3706 68.8707 8.68364V12.7072C68.8707 13.1932 69.0047 13.4783 69.2702 13.5668L69.2712 13.6053ZM76.7132 10.5429V10.8969C76.6462 11.724 76.3202 12.4081 75.7391 12.9507C75.156 13.4928 74.4654 13.7623 73.6638 13.7623C73.3053 13.7623 72.9617 13.7108 72.6312 13.6048L71.9556 12.5427C72.1611 12.6592 72.3767 12.7517 72.6032 12.8172C72.8277 12.8812 73.0828 12.9132 73.3658 12.9132C73.6443 12.9132 73.8969 12.8722 74.1214 12.7927C74.3459 12.7127 74.5574 12.5942 74.7495 12.4326C75.113 12.1346 75.326 11.672 75.3881 11.0475L75.4146 10.6479C75.4146 10.0493 75.259 9.54025 74.946 9.1187C74.5789 8.61563 74.0799 8.3651 73.4468 8.3651C72.8857 8.3651 72.4407 8.53562 72.1126 8.87667C71.7821 9.21771 71.6181 9.58726 71.6181 9.98431V14.7745C71.6181 15.262 71.6441 15.5911 71.6931 15.7566C71.7456 15.9231 71.8876 16.0746 72.1231 16.2101V16.2596H69.9478V16.2101C70.2849 16.0251 70.4534 15.7031 70.4534 15.2475V15.122V9.04419V8.82166C70.4534 8.24758 70.2849 7.86953 69.9478 7.68401V7.632C70.3374 7.632 70.5979 7.641 70.7384 7.6585C70.9455 7.6585 71.123 7.641 71.2695 7.6045C71.4165 7.56999 71.5245 7.52499 71.5916 7.47498H71.6176V8.3926C71.8396 8.09256 72.1571 7.86153 72.5697 7.69751C72.9502 7.54849 73.3383 7.47498 73.7378 7.47498H73.8654C74.1334 7.47498 74.3904 7.51148 74.6345 7.58499C74.878 7.658 75.1225 7.77102 75.3666 7.91754C75.8091 8.18757 76.1592 8.58463 76.4162 9.1072C76.5107 9.31672 76.5867 9.54125 76.6357 9.78079C76.6872 10.0183 76.7132 10.2729 76.7132 10.5429ZM84.0427 10.5734C84.0427 11.4265 83.6987 12.1711 83.0146 12.8087C82.33 13.4453 81.5504 13.7628 80.6758 13.7628C79.7066 13.7628 78.907 13.4563 78.2784 12.8452C77.6804 12.2601 77.3803 11.5495 77.3803 10.7144V10.6384C77.3803 9.79829 77.6674 9.07919 78.2394 8.48111C78.881 7.80952 79.7361 7.47498 80.8028 7.47498H80.9048C81.7444 7.47498 82.47 7.76852 83.0881 8.3541C83.7257 8.96018 84.0427 9.70078 84.0427 10.5734ZM82.7085 10.7634C82.7085 10.0978 82.527 9.53025 82.164 9.06169C81.7759 8.56462 81.2813 8.31659 80.6763 8.31659H80.6458C80.1217 8.31659 79.6806 8.48511 79.3221 8.82216C78.91 9.21121 78.7025 9.75978 78.7025 10.4679C78.7025 11.142 78.8925 11.723 79.2721 12.2106C79.6521 12.6962 80.1187 12.9407 80.6763 12.9407L80.7783 12.9142C81.3829 12.9142 81.8599 12.7012 82.2145 12.2761C82.5445 11.8801 82.7085 11.375 82.7085 10.7634ZM93.735 13.5923V13.6048H91.7157V13.5668C91.9813 13.4908 92.1153 13.3103 92.1153 13.0252L92.1128 12.8022L92.1023 12.6447L91.5447 8.51162L89.2234 13.7133C89.0144 13.5818 88.8473 13.4528 88.7313 13.3208C88.6128 13.1742 88.4918 12.9832 88.3703 12.7502L86.3085 8.51112L85.6884 12.6677L85.6864 12.8022C85.6864 12.8517 85.6844 12.9012 85.6754 12.9512C85.6754 13.2517 85.8004 13.4563 86.053 13.5673V13.6053H84.3778V13.5668C84.6618 13.3763 84.8523 12.9917 84.9428 12.4086L85.5369 8.56262L85.5589 8.3791L85.5869 8.27759V8.13307C85.5869 7.91254 85.4634 7.75052 85.2199 7.645L87.0471 7.6315C87.0731 7.78752 87.1141 7.91704 87.1681 8.01855L89.1359 12.0326L90.8936 8.10656C90.9671 7.98305 91.0101 7.82553 91.0271 7.6315H92.8309C92.6363 7.69851 92.5263 7.87153 92.5023 8.15007L92.5158 8.32909L93.1909 12.6567C93.2214 12.9327 93.2734 13.1277 93.3489 13.2377C93.4135 13.3568 93.5405 13.4738 93.735 13.5923ZM100.436 10.6639C100.436 10.9619 100.39 11.2475 100.3 11.517C100.21 11.7871 100.082 12.0466 99.9178 12.2966C99.6223 12.7542 99.1897 13.1172 98.6201 13.3828C98.3456 13.5103 98.0416 13.6098 97.7065 13.6808C97.3715 13.7523 97.0154 13.7893 96.6394 13.7893C96.5359 13.7893 96.4489 13.7873 96.3868 13.7823C96.0798 13.7608 95.9048 13.7503 95.8623 13.7503C95.7328 13.7503 95.6332 13.7463 95.5687 13.7378C95.5037 13.7288 95.2832 13.6903 94.9076 13.6163L94.2551 13.5238V13.4983C94.5076 13.3873 94.6356 13.1282 94.6356 12.7207V12.6192L94.6096 6.77289C94.6096 6.20231 94.8862 5.72075 95.4342 5.32369C95.9853 4.92864 96.7084 4.72961 97.6025 4.72961C97.661 4.72961 97.758 4.72961 97.894 4.72961C98.0276 4.72961 98.1331 4.72961 98.2096 4.72961L98.6457 4.76662C98.7187 4.76662 98.8657 4.78612 99.0882 4.82463L99.6838 4.91314L98.7922 5.90427C98.5546 5.77025 98.3041 5.70324 98.0386 5.70324H97.6655C96.4219 5.70324 95.7998 6.03629 95.7998 6.69938V12.6942C96.1838 12.7912 96.5374 12.8557 96.8619 12.8907C97.525 12.8907 98.0781 12.6882 98.5211 12.2846C98.9157 11.9256 99.1147 11.3815 99.1147 10.6514V10.4679C99.1147 10.1178 99.0647 9.81129 98.9657 9.55026C98.8667 9.28922 98.7217 9.07519 98.5336 8.91117C98.1626 8.60213 97.7175 8.44911 97.1995 8.44911C96.7354 8.44911 96.3724 8.53962 96.1113 8.72115L96.7869 7.609C97.154 7.52049 97.4695 7.47498 97.7305 7.47498C98.2616 7.47498 98.7437 7.6195 99.1752 7.90904C99.6073 8.19608 99.9338 8.58063 100.152 9.05569C100.342 9.48325 100.437 9.95631 100.437 10.4809L100.436 10.6639ZM107.06 12.8902L106.477 13.7888C105.887 13.7388 105.457 13.5988 105.192 13.3718C104.913 13.1557 104.775 12.8252 104.775 12.3831V10.3634C104.553 10.4994 104.181 10.6264 103.663 10.7459C103.142 10.8669 102.771 10.9939 102.542 11.13C102.315 11.264 102.201 11.504 102.201 11.8516C102.201 12.1791 102.326 12.4346 102.575 12.6157C102.7 12.7092 102.848 12.7822 103.02 12.8337C103.19 12.8882 103.376 12.9137 103.574 12.9137C103.743 12.9137 103.892 12.9032 104.019 12.8797C104.149 12.8552 104.328 12.8127 104.561 12.7502L103.795 13.7128C103.66 13.7283 103.542 13.7413 103.442 13.7498C103.345 13.7588 103.243 13.7623 103.142 13.7623C102.49 13.7623 101.954 13.5883 101.54 13.2377C101.123 12.8882 100.915 12.4686 100.915 11.9851V11.9331C100.915 11.277 101.301 10.7694 102.071 10.4154C102.252 10.3314 102.561 10.2403 102.995 10.1478C103.427 10.0528 103.749 9.97281 103.956 9.9098C104.19 9.8538 104.383 9.76728 104.539 9.64877C104.608 9.60326 104.664 9.53225 104.708 9.43724C104.753 9.34223 104.774 9.23621 104.774 9.1177C104.774 8.85616 104.64 8.65764 104.375 8.52362C104.103 8.4001 103.822 8.33959 103.528 8.33959C103.021 8.33959 102.436 8.50812 101.771 8.84516L102.624 7.54899C102.658 7.54899 102.691 7.54899 102.725 7.54899C102.773 7.53599 102.803 7.52749 102.82 7.52549L103.066 7.49898L103.276 7.47348H103.498C104.215 7.47348 104.804 7.6355 105.271 7.96154C105.737 8.28509 105.97 8.78265 105.97 9.45374V11.7125C105.97 12.1191 106.048 12.4056 106.203 12.5792C106.281 12.6717 106.391 12.7477 106.536 12.8032C106.682 12.8622 106.857 12.8902 107.06 12.8902ZM113.172 13.6053H111.031V13.5668C111.296 13.4783 111.431 13.1932 111.431 12.7072V10.6639H108.916V12.7072C108.916 13.1932 109.047 13.4783 109.308 13.5668L109.308 13.6048H107.224V13.5668C107.485 13.4783 107.617 13.1932 107.617 12.7072V8.73315V8.51312C107.617 8.01855 107.485 7.72251 107.224 7.621V7.58849H109.308V7.621C109.149 7.68351 109.042 7.80902 108.99 7.99255C108.941 8.17807 108.916 8.42661 108.916 8.73315V10.0113H111.431V8.63813C111.431 8.3726 111.409 8.15007 111.363 7.97105C111.321 7.79202 111.208 7.67501 111.031 7.621V7.58849H113.172V7.621C113.026 7.67451 112.923 7.77852 112.86 7.93004C112.802 8.09806 112.772 8.33609 112.772 8.63863V12.7077C112.772 13.1937 112.906 13.4788 113.171 13.5673L113.172 13.6053ZM120 13.6053H118.991C118.726 13.6053 118.505 13.5693 118.329 13.4983C118.162 13.4438 118.047 13.3728 117.979 13.2843C117.946 13.2452 117.89 13.1762 117.815 13.0752C117.739 12.9762 117.655 12.8562 117.562 12.7232L115.752 10.2588L116.983 8.90067C117.312 8.52062 117.476 8.24008 117.476 8.05856C117.476 7.89003 117.398 7.76502 117.242 7.68501L117.243 7.633H119.216L117.033 10.1338L118.709 12.2466L119.056 12.6957C119.162 12.8462 119.294 13.0017 119.449 13.1577C119.605 13.3123 119.788 13.4628 120 13.6053ZM116 13.6053H113.85V13.5553C114.083 13.4063 114.219 13.2577 114.262 13.1082C114.303 12.9592 114.324 12.6267 114.324 12.1126V8.86066C114.324 8.68364 114.32 8.53662 114.311 8.42411C114.303 8.30959 114.285 8.19958 114.262 8.09356C114.21 7.93804 114.074 7.80402 113.849 7.69651L113.85 7.67051L114.469 7.6575H114.557H114.629C114.798 7.6575 114.916 7.649 114.99 7.6315C115.04 7.6315 115.087 7.6275 115.128 7.6165C115.171 7.606 115.219 7.58849 115.273 7.56299C115.359 7.53899 115.424 7.49598 115.469 7.43747H115.495V12.4351C115.495 12.7312 115.526 12.9512 115.584 13.1002C115.634 13.2688 115.774 13.4203 116.001 13.5558V13.6053H116Z" fill="black"/>
</svg>
