<svg width="120" height="37" viewBox="0 0 120 37" fill="none" xmlns="http://www.w3.org/2000/svg">
<path d="M24.4266 0L12.2188 12.337H24.4266V37L36.6453 24.696V0H24.4266Z" fill="#EA5616"/>
<path d="M12.2187 37L24.4265 24.663H12.2187V0L0 12.304V37H12.2187Z" fill="#2C2D84"/>
<path d="M48.853 30.8261H55.2725V11.7109H65.0431V30.8261H71.4516V6.16305H48.853V30.8261ZM111.143 15.4021H105.671V11.7109H117.867V6.16305H99.2511V30.8261C99.2511 30.8261 108.401 30.8261 111.448 30.8261C116.333 30.8261 120 28.3543 120 23.1141C120 17.8739 116.333 15.4021 111.143 15.4021ZM110.534 25.5859H105.671V20.6533H110.534C112.046 20.6533 113.581 21.2575 113.581 23.1141C113.581 24.9707 112.046 25.5859 110.534 25.5859ZM87.1412 25.5749C82.8652 25.5749 80.4606 22.411 80.4606 18.4891C80.4606 15.3471 82.2123 11.4033 87.0215 11.4033C90.0245 11.4033 91.9612 13.2598 92.6467 14.1167L96.5418 10.1838C94.1917 7.34951 90.6555 5.54785 86.706 5.54785C79.6228 5.54785 74.0303 10.843 74.0303 18.5C74.0303 25.6518 79.6228 31.4522 86.706 31.4522C90.9493 31.4522 94.7031 29.3759 97.0423 26.1681L93.1254 22.1913C91.885 24.1577 89.8613 25.5749 87.1412 25.5749Z" fill="#2C2D84"/>
</svg>
