<svg width="120" height="26" viewBox="0 0 120 26" fill="none" xmlns="http://www.w3.org/2000/svg">
<path d="M98.5264 12.4968H93.8949L94.5264 14.0065H98.1054C98.5264 14.0065 98.8633 14.342 98.8633 14.7613V15.3065H95.4107C94.1475 15.3065 93.137 16.313 93.137 17.571V17.7807C93.137 19.0388 94.1475 20.0872 95.4107 20.0872H100.758V14.7613C100.8 13.5033 99.7896 12.4968 98.5264 12.4968ZM98.9054 18.6194H95.8738C95.4528 18.6194 95.1159 18.2839 95.1159 17.8646V17.613C95.1159 17.1936 95.4528 16.8581 95.8738 16.8581H98.9475L98.9054 18.6194Z" fill="#7D7D7D"/>
<path d="M108.505 15.3484H104.758V12.4968H102.863V20.1291H104.758V16.8581H108.505V20.1291H110.442V12.4968H108.505V15.3484Z" fill="#7D7D7D"/>
<path d="M119.453 12.4968H117.221L115.074 15.3484H114.4V12.4968H112.463V20.1291H114.4V16.8581H115.074L117.6 20.1291H120L116.547 16.1033L119.453 12.4968Z" fill="#7D7D7D"/>
<path d="M88.6317 12.4968H85.7264V10.9871H90.4001L91.0317 9.47742H83.7896V20.129H88.5895C90.3159 20.129 91.7474 18.7032 91.7474 16.9839V15.6C91.7474 13.8806 90.358 12.4968 88.6317 12.4968ZM89.8527 16.9839C89.8527 17.8645 89.1369 18.5774 88.2527 18.6194H85.7264V14.0484H88.2527C89.1369 14.0484 89.8527 14.7613 89.8527 15.6839V16.9839Z" fill="#7D7D7D"/>
<path d="M49.3893 14.7613V17.8226C49.3893 18.242 49.0525 18.5775 48.6314 18.5775H48.4209V20.1291H49.0104C50.2735 20.1291 51.3262 19.1226 51.3262 17.8226V14.7613C51.3262 14.342 51.663 14.0065 52.0841 14.0065H54.7788V20.1291H56.7156V12.4968H51.7472C50.442 12.4968 49.3893 13.5033 49.3893 14.7613Z" fill="#7D7D7D"/>
<path d="M34.5683 14.0484H38.1051L38.7367 12.5387H34.1893C32.9262 12.5387 31.8735 13.5452 31.8735 14.8452V17.9064C31.8735 19.1645 32.8841 20.2129 34.1893 20.2129H38.7367L38.1051 18.7032H34.5683C34.1472 18.7032 33.8104 18.3677 33.8104 17.9484V14.8871C33.8525 14.3419 34.1893 14.0484 34.5683 14.0484Z" fill="#7D7D7D"/>
<path d="M45.0527 12.4968H41.979C40.7158 12.4968 39.7053 13.5033 39.7053 14.7613V17.8226C39.7053 19.0807 40.7158 20.1291 41.979 20.1291H45.0527C46.3158 20.1291 47.3685 19.1226 47.3685 17.8226V14.7613C47.3685 13.5033 46.3158 12.4968 45.0527 12.4968ZM45.4316 17.8646C45.4316 18.2839 45.0948 18.6194 44.6737 18.6194H42.358C41.9369 18.6194 41.6001 18.2839 41.6001 17.8646V14.8033C41.6001 14.3839 41.9369 14.0484 42.358 14.0484H44.6737C45.0948 14.0484 45.4316 14.3839 45.4316 14.8033V17.8646Z" fill="#7D7D7D"/>
<path d="M28.0842 12.4967H25.0105C24.8842 12.4967 24.7579 12.4967 24.6316 12.4967C24.6737 11.6161 25.3894 10.9451 26.2737 10.9451H28.8421L29.4737 9.43542H25.8947C24.1684 9.43542 22.7368 10.8193 22.7368 12.5806V17.8225C22.7368 19.0806 23.7473 20.129 25.0526 20.129H28.1263C29.3894 20.129 30.4421 19.1225 30.4421 17.8225V14.7612C30.3579 13.5032 29.3473 12.4967 28.0842 12.4967ZM28.4631 17.8645C28.4631 18.2838 28.1263 18.6193 27.7052 18.6193H25.3894C24.9684 18.6193 24.6316 18.2838 24.6316 17.8645V14.8032C24.6316 14.3838 24.9684 14.0483 25.3894 14.0483H27.7052C28.1263 14.0483 28.4631 14.3838 28.4631 14.8032V17.8645Z" fill="#7D7D7D"/>
<path d="M71.3263 14.0484H73.7263V20.1291H75.6631V14.0484H78.3158V12.4968H70.7368L71.3263 14.0484Z" fill="#7D7D7D"/>
<path d="M67.5788 12.4968H64.5051C63.2419 12.4968 62.1893 13.5033 62.1893 14.8033V15.3484H60.6314V12.4968H58.6946V20.1291H60.6314V16.8581H62.2314V17.8646C62.2314 19.1226 63.242 20.171 64.5472 20.171H67.6209C68.8841 20.171 69.9367 19.1646 69.9367 17.8646V14.8033C69.8946 13.5033 68.8841 12.4968 67.5788 12.4968ZM67.9998 17.8646C67.9998 18.2839 67.663 18.6194 67.2419 18.6194H64.9262C64.5051 18.6194 64.1683 18.2839 64.1683 17.8646V14.8033C64.1683 14.3839 64.5051 14.0484 64.9262 14.0484H67.2419C67.663 14.0484 67.9998 14.3839 67.9998 14.8033V17.8646Z" fill="#7D7D7D"/>
<path d="M15.3684 9.43542L10.9895 20.129H13.3474L14.1895 17.8645H18.779L19.6211 20.129H21.8948L17.6 9.43542H15.3684ZM14.7369 16.3129L16.5053 11.4483L18.3158 16.3129H14.7369Z" fill="#7D7D7D"/>
<path d="M3.83158 20.129H0L4.42105 24.5323C5.43158 25.4129 6.69473 25.9581 8 26H11.8737L7.41052 21.5548C6.4 20.6742 5.13684 20.171 3.83158 20.129Z" fill="#E18D4F"/>
<path d="M5.97908 20.1711V13.8807C5.89487 12.5388 5.38961 11.2807 4.5054 10.3162L1.76855 7.63232V13.8807C1.85277 15.2227 2.35803 16.4807 3.24224 17.4452L5.97908 20.1711Z" fill="#E18D4F"/>
<path d="M11.9577 3.81613V0L7.53667 4.44517C6.65246 5.45162 6.10509 6.70969 6.06299 8.00969V11.8678L10.5261 7.42259C11.4104 6.41614 11.9156 5.11614 11.9577 3.81613Z" fill="#E18D4F"/>
</svg>
