<svg width="125" height="125" viewBox="0 0 125 125" fill="none" xmlns="http://www.w3.org/2000/svg">
<path d="M47.3415 88.185L49.6865 88.3333L50.2403 79.5812L47.8953 79.4329L47.3415 88.185Z" fill="#0B9A05"/>
<path d="M74.9006 79.4941L75.452 88.2463L77.7971 88.0986L77.2457 79.3465L74.9006 79.4941Z" fill="#0B9A05"/>
<path d="M62.5781 59.9443C68.5308 59.9443 73.387 55.0897 73.387 49.1388C73.387 43.188 68.5308 38.3333 62.5781 38.3333C56.6254 38.3333 51.7692 43.188 51.7692 49.1388C51.7692 55.0897 56.6254 59.9443 62.5781 59.9443ZM62.5781 40.5257C67.2776 40.5257 71.1939 44.2842 71.1939 49.1388C71.1939 53.9934 67.4343 57.7519 62.5781 57.7519C57.8786 57.7519 53.9623 53.9934 53.9623 49.1388C53.9623 44.2842 57.8786 40.5257 62.5781 40.5257Z" fill="#0B9A05"/>
<path d="M112.707 77.6404C112.707 76.231 112.237 74.8216 111.453 73.2556C110.67 71.6896 109.26 70.5934 107.537 69.9669L101.428 67.7745L96.1017 77.6404H94.6918L89.3656 67.7745L83.7262 69.8103C83.5695 69.4971 83.4129 69.1839 83.2562 68.8707C82.1597 66.9915 80.4365 65.5821 78.2434 64.7991L70.5675 61.9803L63.6748 74.8216H61.3251L54.4324 61.9803L46.7565 64.7991C44.5634 65.5821 42.8402 66.9915 41.7437 68.8707C41.587 69.1839 41.4304 69.4971 41.2737 69.8103L35.6343 67.7745L30.3081 77.6404H28.8983L23.5721 67.7745L17.6194 69.9669C15.8962 70.5934 14.4863 71.6896 13.7031 73.2556C12.9198 74.665 12.4499 76.231 12.4499 77.4838C12.4499 77.4838 11.8233 82.9648 11.6666 88.1327L14.0164 88.2893C14.173 83.1215 14.7997 77.797 14.7997 77.6404C14.7997 76.3876 15.2696 75.2914 15.7396 74.5084C16.3662 73.5688 17.3061 72.6292 18.4026 72.316L22.6322 70.75L27.6451 80.146H31.8746L36.8875 70.75L40.4905 72.0028C40.3338 72.7858 40.1772 73.5688 40.1772 74.1952C40.1772 74.1952 39.3939 81.2422 39.0806 88.1327L41.4304 88.2893C41.7437 81.5554 42.5269 74.5084 42.5269 74.3518C42.5269 72.6292 43.3102 71.0632 43.7801 69.9669C44.5634 68.5575 45.8166 67.4613 47.5398 66.8349L53.3359 64.7991L59.9152 77.014H65.0847L71.6641 64.7991L77.4602 66.8349C79.0267 67.4613 80.4365 68.5575 81.2198 69.9669C81.8464 71.0632 82.473 72.6292 82.473 74.3518C82.473 74.3518 83.2562 81.3988 83.5695 88.1327L85.9193 87.9761C85.606 81.0856 84.8228 74.1952 84.8228 74.1952C84.8228 73.4122 84.6661 72.6292 84.5095 71.8462L88.1124 70.5934L93.1253 79.9894H97.3549L102.368 70.5934L106.597 72.1594C107.694 72.6292 108.79 73.4122 109.26 74.3518C109.73 75.1348 110.2 76.231 110.2 77.6404C110.2 77.6404 110.827 82.9648 110.984 88.1327L113.333 87.9761C113.333 82.9649 112.707 77.6404 112.707 77.6404Z" fill="#0B9A05"/>
<path d="M104.56 81.5273L104.984 88.2477L107.329 88.1L106.905 81.3796L104.56 81.5273Z" fill="#0B9A05"/>
<path d="M95.3185 66.8347C100.018 66.8347 103.934 62.9197 103.934 58.2217C103.934 53.5236 100.018 49.6086 95.3185 49.6086C90.6189 49.6086 86.7026 53.5236 86.7026 58.2217C86.7026 63.0763 90.6189 66.8347 95.3185 66.8347ZM95.3185 51.9576C98.7648 51.9576 101.585 54.7764 101.585 58.2217C101.585 61.6669 98.7648 64.4857 95.3185 64.4857C91.8721 64.4857 89.0524 61.6669 89.0524 58.2217C89.0524 54.7764 91.8721 51.9576 95.3185 51.9576Z" fill="#0B9A05"/>
<path d="M17.9357 88.0492L20.2808 88.1975L20.706 81.4771L18.3609 81.3288L17.9357 88.0492Z" fill="#0B9A05"/>
<path d="M29.8381 66.8347C34.5376 66.8347 38.4539 62.9197 38.4539 58.2217C38.4539 53.5236 34.5376 49.6086 29.8381 49.6086C25.1386 49.6086 21.2223 53.5236 21.2223 58.2217C21.2223 63.0763 25.1386 66.8347 29.8381 66.8347ZM29.8381 51.9576C33.2844 51.9576 36.1042 54.7764 36.1042 58.2217C36.1042 61.6669 33.2844 64.4857 29.8381 64.4857C26.3918 64.4857 23.5721 61.6669 23.5721 58.2217C23.5721 54.7764 26.3918 51.9576 29.8381 51.9576Z" fill="#0B9A05"/>
</svg>
