<svg width="125" height="125" viewBox="0 0 125 125" fill="none" xmlns="http://www.w3.org/2000/svg">
<path d="M99.0549 90.5833V53.2083C99.0549 50.5833 96.9157 48.5833 94.399 48.5833H82.8222V37.2083L73.888 28.3333H42.4293V48.5833H30.7267C28.0842 48.5833 26.0708 50.7083 26.0708 53.2083V90.5833H21.6666V93.5833L25.0642 98.3333H99.9358L103.333 93.5833V90.5833H99.0549ZM74.3913 31.4583L79.6764 36.7083H74.3913V31.4583ZM44.191 30.0833H72.378V38.4583H80.8089V73.7083H44.191V30.0833ZM27.9584 53.2083C27.9584 51.7083 29.2167 50.4583 30.7267 50.4583H42.3035V73.8333H37.0184V75.7083H42.3035H82.6964H87.9815V73.8333H82.6964V50.4583H94.2732C95.7832 50.4583 97.0416 51.7083 97.0416 53.2083V90.5833H27.9584V53.2083ZM101.572 92.9583L99.0549 96.4583H26.0708L23.5541 92.9583V92.3333H26.0708H99.0549H101.572V92.9583Z" fill="#0B9A05"/>
<path d="M63.4436 44.0833C63.4436 42.9583 62.8144 41.8333 61.9336 41.2083L59.2911 39.5833C59.6686 38.9583 59.9202 38.2083 59.9202 37.4583C59.9202 35.2083 58.0327 33.3333 55.7677 33.3333C53.5027 33.3333 51.6152 35.2083 51.6152 37.4583C51.6152 38.2083 51.8668 38.9583 52.2443 39.5833L49.6018 41.2083C48.5951 41.8333 48.0918 42.8333 48.0918 44.0833V48.0833H63.6953V44.0833H63.4436ZM55.6419 35.2083C56.9002 35.2083 57.9069 36.2083 57.9069 37.4583C57.9069 38.0833 57.6552 38.7083 57.1519 39.2083C56.5227 39.7083 55.6419 39.8333 54.8869 39.5833C54.6352 39.4583 54.3835 39.3333 54.1319 39.2083C53.6285 38.8333 53.3769 38.2083 53.3769 37.4583C53.3769 36.2083 54.3835 35.2083 55.6419 35.2083ZM61.5561 46.2083H49.7276V44.0833C49.7276 43.5833 49.9793 43.0833 50.3568 42.8333L53.3769 40.9583H53.5027C53.6285 41.0833 53.7544 41.0833 54.006 41.2083C54.1319 41.2083 54.2577 41.3333 54.3835 41.3333C54.5094 41.3333 54.5094 41.3333 54.6352 41.4583C55.0127 41.5833 55.2644 41.5833 55.6419 41.5833C56.0194 41.5833 56.271 41.5833 56.6485 41.4583C56.7744 41.4583 56.7744 41.4583 56.9002 41.3333C57.0261 41.3333 57.1519 41.2083 57.2777 41.2083C57.4036 41.0833 57.6552 41.0833 57.7811 40.9583H57.9069L60.9269 42.8333C61.3044 43.0833 61.5561 43.5833 61.5561 44.0833V46.2083Z" fill="#0B9A05"/>
<path d="M76.5306 60.3334H48.4695V62.2084H76.5306V60.3334Z" fill="#0B9A05"/>
<path d="M71.1196 66.3332H53.8802V68.2082H71.1196V66.3332Z" fill="#0B9A05"/>
<path d="M76.5306 54.3334H48.4695V56.2084H76.5306V54.3334Z" fill="#0B9A05"/>
</svg>
