<svg width="125" height="125" viewBox="0 0 125 125" fill="none" xmlns="http://www.w3.org/2000/svg">
<path d="M78.3693 57.1846C77.5385 57.1846 76.8462 57.323 76.1539 57.5999V50.2615H68.8155C69.0924 49.5692 69.2308 48.8769 69.2308 48.0461C69.2308 44.8615 66.6001 42.2307 63.4155 42.2307C60.2308 42.2307 57.6001 44.8615 57.6001 48.0461C57.6001 48.8769 57.7385 49.5692 58.0155 50.2615H50.677V61.8923L52.3385 60.2307C53.0308 59.5384 53.8616 59.2615 54.8308 59.2615C56.9078 59.2615 58.5693 60.923 58.5693 62.9999C58.5693 65.0769 56.9078 66.7384 54.8308 66.7384C53.8616 66.7384 53.0308 66.323 52.3385 65.7692L50.677 64.1076V75.7384H58.1539C57.877 76.4307 57.7385 77.123 57.7385 77.9538C57.7385 81.1384 60.3693 83.7692 63.5539 83.7692C66.7385 83.7692 69.3693 81.1384 69.3693 77.9538C69.3693 77.123 69.2308 76.4307 68.9539 75.7384H76.1539V68.3999C76.8462 68.6769 77.5385 68.8153 78.3693 68.8153C81.5539 68.8153 84.1847 66.1846 84.1847 62.9999C84.0462 59.8153 81.5539 57.1846 78.3693 57.1846ZM78.3693 66.7384C77.4001 66.7384 76.5693 66.323 75.877 65.7692L74.2155 64.1076V73.6615H64.6616L66.3232 75.323C67.0155 76.0153 67.2924 76.8461 67.2924 77.8153C67.2924 79.8923 65.6308 81.5538 63.5539 81.5538C61.477 81.5538 59.8155 79.8923 59.8155 77.8153C59.8155 76.8461 60.2308 76.0153 60.7847 75.323L62.4462 73.6615H52.8924V68.3999C53.5847 68.6769 54.277 68.8153 55.1078 68.8153C58.2924 68.8153 60.9232 66.1846 60.9232 62.9999C60.9232 59.8153 58.2924 57.1846 55.1078 57.1846C54.277 57.1846 53.5847 57.323 52.8924 57.5999V52.3384H62.3078L60.6462 50.6769C59.9539 49.9846 59.677 49.1538 59.677 48.1846C59.677 46.1076 61.3385 44.4461 63.4155 44.4461C65.4924 44.4461 67.1539 46.1076 67.1539 48.1846C67.1539 49.1538 66.7385 49.9846 66.1847 50.6769L64.5232 52.3384H74.077V61.8923L75.7385 60.2307C76.4308 59.5384 77.2616 59.2615 78.2308 59.2615C80.3078 59.2615 81.9693 60.923 81.9693 62.9999C82.1078 65.0769 80.4462 66.7384 78.3693 66.7384Z" fill="#0B9A05"/>
<path d="M62.0308 21.8769V29.4923H63.9693V21.8769L66.7385 24.6462L68.1231 23.1231L63 18L57.877 23.1231L59.2616 24.6462L62.0308 21.8769Z" fill="#0B9A05"/>
<path d="M64.1077 35.5846H62.0308V37.6615H64.1077V35.5846Z" fill="#0B9A05"/>
<path d="M64.1077 31.5692H62.0308V33.6461H64.1077V31.5692Z" fill="#0B9A05"/>
<path d="M63.9693 104.123V96.5076H62.0308V104.123L59.2616 101.354L57.877 102.877L63 108L68.1231 102.877L66.7385 101.354L63.9693 104.123Z" fill="#0B9A05"/>
<path d="M64.1077 88.3385H62.0308V90.4154H64.1077V88.3385Z" fill="#0B9A05"/>
<path d="M64.1077 92.3538H62.0308V94.4307H64.1077V92.3538Z" fill="#0B9A05"/>
<path d="M91.523 41.8154V39.7385H87.6461L93.0461 34.4769L91.523 32.9539L86.2615 38.3539V34.6154H84.1846V41.8154H91.523Z" fill="#0B9A05"/>
<path d="M98.8918 28.6262L97.4226 27.1582L95.9546 28.6274L97.4239 30.0954L98.8918 28.6262Z" fill="#0B9A05"/>
<path d="M95.9753 31.5146L94.5061 30.0466L93.0381 31.5158L94.5073 32.9838L95.9753 31.5146Z" fill="#0B9A05"/>
<path d="M39.7387 38.3539L34.4772 32.9539L32.9541 34.4769L38.3541 39.7385H34.4772V41.8154H41.8156V34.6154H39.7387V38.3539Z" fill="#0B9A05"/>
<path d="M31.5325 32.9921L33.002 31.5243L31.5342 30.0549L30.0648 31.5226L31.5325 32.9921Z" fill="#0B9A05"/>
<path d="M30.0979 28.5796L28.6304 27.11L27.1607 28.5775L28.6283 30.0472L30.0979 28.5796Z" fill="#0B9A05"/>
<path d="M91.523 86.2616V84.1847H84.1846V91.3847H86.2615V87.6462L91.523 93.0462L93.0461 91.5232L87.6461 86.2616H91.523Z" fill="#0B9A05"/>
<path d="M95.9013 97.3201L97.3687 98.7899L98.8385 97.3226L97.3711 95.8527L95.9013 97.3201Z" fill="#0B9A05"/>
<path d="M94.5097 93.0171L93.0405 94.4851L94.5085 95.9543L95.9777 94.4864L94.5097 93.0171Z" fill="#0B9A05"/>
<path d="M34.4772 84.1847V86.2616H38.3541L32.9541 91.5232L34.4772 93.0462L39.7387 87.6462V91.3847H41.8156V84.1847H34.4772Z" fill="#0B9A05"/>
<path d="M27.2051 97.3682L28.6746 98.8359L30.1423 97.3665L28.6729 95.8988L27.2051 97.3682Z" fill="#0B9A05"/>
<path d="M30.0642 94.477L31.5334 95.9449L33.0014 94.4757L31.5322 93.0078L30.0642 94.477Z" fill="#0B9A05"/>
<path d="M102.877 57.8771L101.354 59.2617L104.123 62.0309H96.5076V63.9694H104.123L101.354 66.7386L102.877 68.1232L108 63.0002L102.877 57.8771Z" fill="#0B9A05"/>
<path d="M94.4307 62.0309H92.3538V64.1078H94.4307V62.0309Z" fill="#0B9A05"/>
<path d="M90.4155 62.0309H88.3386V64.1078H90.4155V62.0309Z" fill="#0B9A05"/>
<path d="M29.4923 63.9694V62.0309H21.8769L24.6462 59.2617L23.1231 57.8771L18 63.0002L23.1231 68.1232L24.6462 66.7386L21.8769 63.9694H29.4923Z" fill="#0B9A05"/>
<path d="M33.6465 62.0309H31.5696V64.1078H33.6465V62.0309Z" fill="#0B9A05"/>
<path d="M37.6614 62.0309H35.5845V64.1078H37.6614V62.0309Z" fill="#0B9A05"/>
</svg>
